%TF.GenerationSoftware,KiCad,Pcbnew,5.1.9+dfsg1-1+deb11u1*%
%TF.CreationDate,2024-06-09T13:45:24+02:00*%
%TF.ProjectId,pcb_boven,7063625f-626f-4766-956e-2e6b69636164,rev?*%
%TF.SameCoordinates,Original*%
%TF.FileFunction,Copper,L2,Bot*%
%TF.FilePolarity,Positive*%
%FSLAX46Y46*%
G04 Gerber Fmt 4.6, Leading zero omitted, Abs format (unit mm)*
G04 Created by KiCad (PCBNEW 5.1.9+dfsg1-1+deb11u1) date 2024-06-09 13:45:24*
%MOMM*%
%LPD*%
G01*
G04 APERTURE LIST*
%TA.AperFunction,ComponentPad*%
%ADD10C,1.524000*%
%TD*%
%TA.AperFunction,ComponentPad*%
%ADD11C,1.300000*%
%TD*%
%TA.AperFunction,ComponentPad*%
%ADD12C,1.600000*%
%TD*%
%TA.AperFunction,ComponentPad*%
%ADD13R,1.300000X1.300000*%
%TD*%
%TA.AperFunction,ComponentPad*%
%ADD14R,1.600000X1.600000*%
%TD*%
%TA.AperFunction,ComponentPad*%
%ADD15C,2.794000*%
%TD*%
%TA.AperFunction,ComponentPad*%
%ADD16C,6.000000*%
%TD*%
%TA.AperFunction,ComponentPad*%
%ADD17C,4.000000*%
%TD*%
%TA.AperFunction,ComponentPad*%
%ADD18R,3.800000X3.800000*%
%TD*%
%TA.AperFunction,ComponentPad*%
%ADD19O,1.600000X1.600000*%
%TD*%
%TA.AperFunction,ViaPad*%
%ADD20C,0.800000*%
%TD*%
%TA.AperFunction,Conductor*%
%ADD21C,0.250000*%
%TD*%
G04 APERTURE END LIST*
D10*
%TO.P,pcb_conn1,10*%
%TO.N,B*%
X114300000Y-74930000D03*
%TO.P,pcb_conn1,9*%
%TO.N,A*%
X111760000Y-74930000D03*
%TO.P,pcb_conn1,8*%
%TO.N,3.3v*%
X109220000Y-74930000D03*
%TO.P,pcb_conn1,7*%
%TO.N,Net-(pcb_conn1-Pad7)*%
X106680000Y-74930000D03*
%TO.P,pcb_conn1,6*%
%TO.N,sd6*%
X104140000Y-74930000D03*
%TO.P,pcb_conn1,5*%
%TO.N,sc6*%
X101600000Y-74930000D03*
%TO.P,pcb_conn1,4*%
%TO.N,sda*%
X99060000Y-74930000D03*
%TO.P,pcb_conn1,3*%
%TO.N,scl*%
X96520000Y-74930000D03*
%TO.P,pcb_conn1,2*%
%TO.N,gnd*%
X93980000Y-74930000D03*
%TO.P,pcb_conn1,1*%
%TO.N,5v*%
X91440000Y-74930000D03*
%TD*%
D11*
%TO.P,control_board1,66*%
%TO.N,Net-(control_board1-Pad66)*%
X69850000Y-98520000D03*
%TO.P,control_board1,67*%
%TO.N,Net-(control_board1-Pad67)*%
X67310000Y-98520000D03*
D12*
%TO.P,control_board1,54*%
%TO.N,Net-(control_board1-Pad54)*%
X73660000Y-143510000D03*
%TO.P,control_board1,53*%
%TO.N,Net-(control_board1-Pad53)*%
X71120000Y-143510000D03*
%TO.P,control_board1,52*%
%TO.N,Net-(control_board1-Pad52)*%
X68580000Y-143510000D03*
%TO.P,control_board1,51*%
%TO.N,Net-(control_board1-Pad51)*%
X66040000Y-143510000D03*
%TO.P,control_board1,50*%
%TO.N,Net-(control_board1-Pad50)*%
X63500000Y-143510000D03*
D11*
%TO.P,control_board1,62*%
%TO.N,Net-(control_board1-Pad62)*%
X69761600Y-110760000D03*
%TO.P,control_board1,63*%
%TO.N,Net-(control_board1-Pad63)*%
X69761600Y-112760000D03*
%TO.P,control_board1,64*%
%TO.N,Net-(control_board1-Pad64)*%
X71761600Y-112760000D03*
%TO.P,control_board1,61*%
%TO.N,Net-(control_board1-Pad61)*%
X71761600Y-110760000D03*
%TO.P,control_board1,65*%
%TO.N,Net-(control_board1-Pad65)*%
X73761600Y-112760000D03*
D13*
%TO.P,control_board1,60*%
%TO.N,Net-(control_board1-Pad60)*%
X73761600Y-110760000D03*
D12*
%TO.P,control_board1,17*%
%TO.N,Net-(control_board1-Pad17)*%
X60960000Y-138430000D03*
%TO.P,control_board1,18*%
%TO.N,Net-(control_board1-Pad18)*%
X60960000Y-140970000D03*
%TO.P,control_board1,19*%
%TO.N,Net-(control_board1-Pad19)*%
X60960000Y-143510000D03*
%TO.P,control_board1,20*%
%TO.N,Net-(control_board1-Pad20)*%
X60960000Y-146050000D03*
%TO.P,control_board1,16*%
%TO.N,A*%
X60960000Y-135890000D03*
%TO.P,control_board1,15*%
%TO.N,Net-(control_board1-Pad15)*%
X60960000Y-133350000D03*
%TO.P,control_board1,14*%
%TO.N,Net-(U2-Pad3)*%
X60960000Y-130810000D03*
%TO.P,control_board1,21*%
%TO.N,Net-(control_board1-Pad21)*%
X60960000Y-148590000D03*
%TO.P,control_board1,22*%
%TO.N,Net-(control_board1-Pad22)*%
X60960000Y-151130000D03*
%TO.P,control_board1,23*%
%TO.N,Net-(control_board1-Pad23)*%
X60960000Y-153670000D03*
%TO.P,control_board1,24*%
%TO.N,Net-(control_board1-Pad24)*%
X60960000Y-156210000D03*
%TO.P,control_board1,25*%
%TO.N,Net-(control_board1-Pad25)*%
X76200000Y-156210000D03*
%TO.P,control_board1,26*%
%TO.N,Net-(control_board1-Pad26)*%
X76200000Y-153670000D03*
%TO.P,control_board1,27*%
%TO.N,Net-(control_board1-Pad27)*%
X76200000Y-151130000D03*
%TO.P,control_board1,28*%
%TO.N,Net-(U2-Pad4)*%
X76200000Y-148590000D03*
%TO.P,control_board1,29*%
%TO.N,Net-(control_board1-Pad29)*%
X76200000Y-146050000D03*
%TO.P,control_board1,30*%
%TO.N,Net-(control_board1-Pad30)*%
X76200000Y-143510000D03*
%TO.P,control_board1,31*%
%TO.N,Net-(control_board1-Pad31)*%
X76200000Y-140970000D03*
%TO.P,control_board1,32*%
%TO.N,Net-(control_board1-Pad32)*%
X76200000Y-138430000D03*
%TO.P,control_board1,33*%
%TO.N,Net-(control_board1-Pad33)*%
X76200000Y-135890000D03*
%TO.P,control_board1,34*%
%TO.N,Net-(control_board1-Pad34)*%
X76200000Y-133350000D03*
%TO.P,control_board1,13*%
%TO.N,Net-(U2-Pad2)*%
X60960000Y-128270000D03*
%TO.P,control_board1,12*%
%TO.N,Net-(U2-Pad5)*%
X60960000Y-125730000D03*
%TO.P,control_board1,11*%
%TO.N,B*%
X60960000Y-123190000D03*
%TO.P,control_board1,10*%
%TO.N,Net-(BZ1-Pad1)*%
X60960000Y-120650000D03*
%TO.P,control_board1,9*%
%TO.N,Net-(R7-Pad2)*%
X60960000Y-118110000D03*
%TO.P,control_board1,8*%
%TO.N,Net-(R6-Pad2)*%
X60960000Y-115570000D03*
%TO.P,control_board1,7*%
%TO.N,Net-(R5-Pad2)*%
X60960000Y-113030000D03*
%TO.P,control_board1,6*%
%TO.N,Net-(R4-Pad2)*%
X60960000Y-110490000D03*
%TO.P,control_board1,5*%
%TO.N,Net-(R3-Pad2)*%
X60960000Y-107950000D03*
%TO.P,control_board1,4*%
%TO.N,Net-(R2-Pad2)*%
X60960000Y-105410000D03*
%TO.P,control_board1,3*%
%TO.N,Net-(control_board1-Pad3)*%
X60960000Y-102870000D03*
%TO.P,control_board1,2*%
%TO.N,Net-(control_board1-Pad2)*%
X60960000Y-100330000D03*
D14*
%TO.P,control_board1,1*%
%TO.N,Net-(control_board1-Pad1)*%
X60960000Y-97790000D03*
D12*
%TO.P,control_board1,35*%
%TO.N,Net-(control_board1-Pad35)*%
X76200000Y-130810000D03*
%TO.P,control_board1,36*%
%TO.N,Net-(control_board1-Pad36)*%
X76200000Y-128270000D03*
%TO.P,control_board1,37*%
%TO.N,Net-(control_board1-Pad37)*%
X76200000Y-125730000D03*
%TO.P,control_board1,38*%
%TO.N,Net-(control_board1-Pad38)*%
X76200000Y-123190000D03*
%TO.P,control_board1,39*%
%TO.N,Net-(control_board1-Pad39)*%
X76200000Y-120650000D03*
%TO.P,control_board1,40*%
%TO.N,sda*%
X76200000Y-118110000D03*
%TO.P,control_board1,41*%
%TO.N,scl*%
X76200000Y-115570000D03*
%TO.P,control_board1,42*%
%TO.N,Net-(control_board1-Pad42)*%
X76200000Y-113030000D03*
%TO.P,control_board1,43*%
%TO.N,Net-(control_board1-Pad43)*%
X76200000Y-110490000D03*
%TO.P,control_board1,44*%
%TO.N,Net-(control_board1-Pad44)*%
X76200000Y-107950000D03*
%TO.P,control_board1,45*%
%TO.N,Net-(control_board1-Pad45)*%
X76200000Y-105410000D03*
%TO.P,control_board1,46*%
%TO.N,Net-(control_board1-Pad46)*%
X76200000Y-102870000D03*
%TO.P,control_board1,47*%
%TO.N,gnd*%
X76200000Y-100330000D03*
%TO.P,control_board1,48*%
%TO.N,5v*%
X76200000Y-97790000D03*
D14*
%TO.P,control_board1,55*%
%TO.N,Net-(control_board1-Pad55)*%
X64010800Y-104089200D03*
D12*
%TO.P,control_board1,56*%
%TO.N,Net-(control_board1-Pad56)*%
X64010800Y-106629200D03*
%TO.P,control_board1,57*%
%TO.N,Net-(control_board1-Pad57)*%
X64010800Y-109169200D03*
%TO.P,control_board1,58*%
%TO.N,Net-(control_board1-Pad58)*%
X64010800Y-111709200D03*
%TO.P,control_board1,59*%
%TO.N,Net-(control_board1-Pad59)*%
X64010800Y-114249200D03*
%TO.P,control_board1,49*%
%TO.N,Net-(control_board1-Pad49)*%
X73660000Y-100330000D03*
%TD*%
D10*
%TO.P,ir_sensor_9,3*%
%TO.N,Net-(Portmultiplexer1-Pad1)*%
X97790000Y-182880000D03*
%TO.P,ir_sensor_9,2*%
%TO.N,gnd*%
X100330000Y-182880000D03*
%TO.P,ir_sensor_9,1*%
%TO.N,3.3v*%
X102870000Y-182880000D03*
%TD*%
%TO.P,ir_sensor_1,3*%
%TO.N,Net-(Portmultiplexer1-Pad21)*%
X102870000Y-17780000D03*
%TO.P,ir_sensor_1,2*%
%TO.N,gnd*%
X100330000Y-17780000D03*
%TO.P,ir_sensor_1,1*%
%TO.N,3.3v*%
X97790000Y-17780000D03*
%TD*%
%TO.P,ir_sensor_2,3*%
%TO.N,Net-(Portmultiplexer1-Pad22)*%
X70926654Y-23157984D03*
%TO.P,ir_sensor_2,2*%
%TO.N,gnd*%
X68580000Y-24130000D03*
%TO.P,ir_sensor_2,1*%
%TO.N,3.3v*%
X66233346Y-25102016D03*
%TD*%
%TO.P,ir_sensor_8,3*%
%TO.N,Net-(Portmultiplexer1-Pad28)*%
X66233346Y-175557984D03*
%TO.P,ir_sensor_8,2*%
%TO.N,gnd*%
X68580000Y-176530000D03*
%TO.P,ir_sensor_8,1*%
%TO.N,3.3v*%
X70926654Y-177502016D03*
%TD*%
%TO.P,ir_sensor_12,3*%
%TO.N,Net-(Portmultiplexer1-Pad4)*%
X175557984Y-134426654D03*
%TO.P,ir_sensor_12,2*%
%TO.N,gnd*%
X176530000Y-132080000D03*
%TO.P,ir_sensor_12,1*%
%TO.N,3.3v*%
X177502016Y-129733346D03*
%TD*%
%TO.P,U2,16*%
%TO.N,Net-(U2-Pad16)*%
X116459000Y-132461000D03*
%TO.P,U2,17*%
%TO.N,gnd*%
X116459000Y-135001000D03*
D15*
%TO.P,U2,screw*%
X115062000Y-95123000D03*
X85598000Y-95123000D03*
D10*
%TO.P,U2,9*%
%TO.N,3.3v*%
X84201000Y-135001000D03*
%TO.P,U2,8*%
%TO.N,Net-(U2-Pad8)*%
X84201000Y-132461000D03*
%TO.P,U2,7*%
%TO.N,Net-(U2-Pad7)*%
X84201000Y-129921000D03*
%TO.P,U2,6*%
%TO.N,Net-(U2-Pad6)*%
X84201000Y-127381000D03*
%TO.P,U2,5*%
%TO.N,Net-(U2-Pad5)*%
X84201000Y-124841000D03*
%TO.P,U2,4*%
%TO.N,Net-(U2-Pad4)*%
X84201000Y-122301000D03*
%TO.P,U2,3*%
%TO.N,Net-(U2-Pad3)*%
X84201000Y-119761000D03*
%TO.P,U2,10*%
%TO.N,Net-(U2-Pad10)*%
X116459000Y-117221000D03*
%TO.P,U2,11*%
%TO.N,Net-(U2-Pad11)*%
X116459000Y-119761000D03*
%TO.P,U2,12*%
%TO.N,Net-(U2-Pad12)*%
X116459000Y-122301000D03*
%TO.P,U2,13*%
%TO.N,Net-(U2-Pad13)*%
X116459000Y-124841000D03*
%TO.P,U2,14*%
%TO.N,Net-(U2-Pad14)*%
X116459000Y-127381000D03*
%TO.P,U2,15*%
%TO.N,Net-(R1-Pad2)*%
X116459000Y-129921000D03*
%TO.P,U2,2*%
%TO.N,Net-(U2-Pad2)*%
X84201000Y-117221000D03*
%TD*%
%TO.P,xt60,1*%
%TO.N,Net-(3V3_converter1-Pad1)*%
%TA.AperFunction,ComponentPad*%
G36*
G01*
X140510000Y-59920000D02*
X140510000Y-56920000D01*
G75*
G02*
X142010000Y-55420000I1500000J0D01*
G01*
X145010000Y-55420000D01*
G75*
G02*
X146510000Y-56920000I0J-1500000D01*
G01*
X146510000Y-59920000D01*
G75*
G02*
X145010000Y-61420000I-1500000J0D01*
G01*
X142010000Y-61420000D01*
G75*
G02*
X140510000Y-59920000I0J1500000D01*
G01*
G37*
%TD.AperFunction*%
D16*
%TO.P,xt60,2*%
%TO.N,Net-(3V3_converter1-Pad3)*%
X150710000Y-58420000D03*
%TD*%
D17*
%TO.P,xt30,2*%
%TO.N,Net-(3V3_converter1-Pad3)*%
X152320000Y-49530000D03*
D18*
%TO.P,xt30,1*%
%TO.N,Net-(3V3_converter1-Pad1)*%
X147320000Y-49530000D03*
%TD*%
D10*
%TO.P,U1,4*%
%TO.N,Net-(U1-Pad4)*%
X137160000Y-99060000D03*
%TO.P,U1,3*%
%TO.N,5v*%
X134620000Y-99060000D03*
%TO.P,U1,2*%
%TO.N,gnd*%
X132080000Y-99060000D03*
%TO.P,U1,1*%
%TO.N,sda*%
X129540000Y-99060000D03*
%TO.P,U1,0*%
%TO.N,scl*%
X127000000Y-99060000D03*
%TD*%
%TO.P,R7,2*%
%TO.N,Net-(R7-Pad2)*%
X146050000Y-121920000D03*
%TO.P,R7,1*%
%TO.N,gnd*%
X140970000Y-121920000D03*
%TD*%
%TO.P,R6,2*%
%TO.N,Net-(R6-Pad2)*%
X146050000Y-124460000D03*
%TO.P,R6,1*%
%TO.N,gnd*%
X140970000Y-124460000D03*
%TD*%
%TO.P,R5,2*%
%TO.N,Net-(R5-Pad2)*%
X146050000Y-127000000D03*
%TO.P,R5,1*%
%TO.N,gnd*%
X140970000Y-127000000D03*
%TD*%
%TO.P,R4,2*%
%TO.N,Net-(R4-Pad2)*%
X146050000Y-129540000D03*
%TO.P,R4,1*%
%TO.N,gnd*%
X140970000Y-129540000D03*
%TD*%
%TO.P,R3,2*%
%TO.N,Net-(R3-Pad2)*%
X146050000Y-132080000D03*
%TO.P,R3,1*%
%TO.N,gnd*%
X140970000Y-132080000D03*
%TD*%
%TO.P,R2,2*%
%TO.N,Net-(R2-Pad2)*%
X146050000Y-134620000D03*
%TO.P,R2,1*%
%TO.N,gnd*%
X140970000Y-134620000D03*
%TD*%
%TO.P,R1,2*%
%TO.N,Net-(R1-Pad2)*%
X129540000Y-140970000D03*
%TO.P,R1,1*%
%TO.N,gnd*%
X124460000Y-140970000D03*
%TD*%
D19*
%TO.P,Portmultiplexer1,28*%
%TO.N,Net-(Portmultiplexer1-Pad28)*%
X58420000Y-53340000D03*
%TO.P,Portmultiplexer1,14*%
%TO.N,Net-(Portmultiplexer1-Pad14)*%
X50800000Y-86360000D03*
%TO.P,Portmultiplexer1,27*%
%TO.N,Net-(Portmultiplexer1-Pad27)*%
X58420000Y-55880000D03*
%TO.P,Portmultiplexer1,13*%
%TO.N,sd6*%
X50800000Y-83820000D03*
%TO.P,Portmultiplexer1,26*%
%TO.N,Net-(Portmultiplexer1-Pad26)*%
X58420000Y-58420000D03*
%TO.P,Portmultiplexer1,12*%
%TO.N,sc6*%
X50800000Y-81280000D03*
%TO.P,Portmultiplexer1,25*%
%TO.N,Net-(Portmultiplexer1-Pad25)*%
X58420000Y-60960000D03*
%TO.P,Portmultiplexer1,11*%
%TO.N,Net-(Portmultiplexer1-Pad11)*%
X50800000Y-78740000D03*
%TO.P,Portmultiplexer1,24*%
%TO.N,Net-(Portmultiplexer1-Pad24)*%
X58420000Y-63500000D03*
%TO.P,Portmultiplexer1,10*%
%TO.N,gnd*%
X50800000Y-76200000D03*
%TO.P,Portmultiplexer1,23*%
%TO.N,Net-(Portmultiplexer1-Pad23)*%
X58420000Y-66040000D03*
%TO.P,Portmultiplexer1,9*%
%TO.N,3.3v*%
X50800000Y-73660000D03*
%TO.P,Portmultiplexer1,22*%
%TO.N,Net-(Portmultiplexer1-Pad22)*%
X58420000Y-68580000D03*
%TO.P,Portmultiplexer1,8*%
%TO.N,Net-(Portmultiplexer1-Pad8)*%
X50800000Y-71120000D03*
%TO.P,Portmultiplexer1,21*%
%TO.N,Net-(Portmultiplexer1-Pad21)*%
X58420000Y-71120000D03*
%TO.P,Portmultiplexer1,7*%
%TO.N,Net-(Portmultiplexer1-Pad7)*%
X50800000Y-68580000D03*
%TO.P,Portmultiplexer1,20*%
%TO.N,Net-(Portmultiplexer1-Pad20)*%
X58420000Y-73660000D03*
%TO.P,Portmultiplexer1,6*%
%TO.N,Net-(Portmultiplexer1-Pad6)*%
X50800000Y-66040000D03*
%TO.P,Portmultiplexer1,19*%
%TO.N,Net-(Portmultiplexer1-Pad19)*%
X58420000Y-76200000D03*
%TO.P,Portmultiplexer1,5*%
%TO.N,Net-(Portmultiplexer1-Pad5)*%
X50800000Y-63500000D03*
%TO.P,Portmultiplexer1,18*%
%TO.N,Net-(Portmultiplexer1-Pad18)*%
X58420000Y-78740000D03*
%TO.P,Portmultiplexer1,4*%
%TO.N,Net-(Portmultiplexer1-Pad4)*%
X50800000Y-60960000D03*
%TO.P,Portmultiplexer1,17*%
%TO.N,gnd*%
X58420000Y-81280000D03*
%TO.P,Portmultiplexer1,3*%
%TO.N,Net-(Portmultiplexer1-Pad3)*%
X50800000Y-58420000D03*
%TO.P,Portmultiplexer1,16*%
%TO.N,gnd*%
X58420000Y-83820000D03*
%TO.P,Portmultiplexer1,2*%
%TO.N,Net-(Portmultiplexer1-Pad2)*%
X50800000Y-55880000D03*
%TO.P,Portmultiplexer1,15*%
%TO.N,gnd*%
X58420000Y-86360000D03*
D14*
%TO.P,Portmultiplexer1,1*%
%TO.N,Net-(Portmultiplexer1-Pad1)*%
X50800000Y-53340000D03*
%TD*%
D10*
%TO.P,ir_sensor_16,3*%
%TO.N,Net-(Portmultiplexer1-Pad8)*%
X134426654Y-25102016D03*
%TO.P,ir_sensor_16,2*%
%TO.N,gnd*%
X132080000Y-24130000D03*
%TO.P,ir_sensor_16,1*%
%TO.N,3.3v*%
X129733346Y-23157984D03*
%TD*%
%TO.P,ir_sensor_15,3*%
%TO.N,Net-(Portmultiplexer1-Pad7)*%
X160546051Y-43706051D03*
%TO.P,ir_sensor_15,2*%
%TO.N,gnd*%
X158750000Y-41910000D03*
%TO.P,ir_sensor_15,1*%
%TO.N,3.3v*%
X156953949Y-40113949D03*
%TD*%
%TO.P,ir_sensor_14,3*%
%TO.N,Net-(Portmultiplexer1-Pad6)*%
X177502016Y-70926654D03*
%TO.P,ir_sensor_14,2*%
%TO.N,gnd*%
X176530000Y-68580000D03*
%TO.P,ir_sensor_14,1*%
%TO.N,3.3v*%
X175557984Y-66233346D03*
%TD*%
%TO.P,ir_sensor_13,3*%
%TO.N,Net-(Portmultiplexer1-Pad5)*%
X182880000Y-102870000D03*
%TO.P,ir_sensor_13,2*%
%TO.N,gnd*%
X182880000Y-100330000D03*
%TO.P,ir_sensor_13,1*%
%TO.N,3.3v*%
X182880000Y-97790000D03*
%TD*%
%TO.P,ir_sensor_11,3*%
%TO.N,Net-(Portmultiplexer1-Pad3)*%
X156953949Y-160546051D03*
%TO.P,ir_sensor_11,2*%
%TO.N,gnd*%
X158750000Y-158750000D03*
%TO.P,ir_sensor_11,1*%
%TO.N,3.3v*%
X160546051Y-156953949D03*
%TD*%
%TO.P,ir_sensor_10,3*%
%TO.N,Net-(Portmultiplexer1-Pad2)*%
X129733346Y-178772016D03*
%TO.P,ir_sensor_10,2*%
%TO.N,gnd*%
X132080000Y-177800000D03*
%TO.P,ir_sensor_10,1*%
%TO.N,3.3v*%
X134426654Y-176827984D03*
%TD*%
%TO.P,ir_sensor_7,3*%
%TO.N,Net-(Portmultiplexer1-Pad27)*%
X40113949Y-156953949D03*
%TO.P,ir_sensor_7,2*%
%TO.N,gnd*%
X41910000Y-158750000D03*
%TO.P,ir_sensor_7,1*%
%TO.N,3.3v*%
X43706051Y-160546051D03*
%TD*%
%TO.P,ir_sensor_6,3*%
%TO.N,Net-(Portmultiplexer1-Pad26)*%
X23157984Y-129733346D03*
%TO.P,ir_sensor_6,2*%
%TO.N,gnd*%
X24130000Y-132080000D03*
%TO.P,ir_sensor_6,1*%
%TO.N,3.3v*%
X25102016Y-134426654D03*
%TD*%
%TO.P,ir_sensor_5,3*%
%TO.N,Net-(Portmultiplexer1-Pad25)*%
X17780000Y-97790000D03*
%TO.P,ir_sensor_5,2*%
%TO.N,gnd*%
X17780000Y-100330000D03*
%TO.P,ir_sensor_5,1*%
%TO.N,3.3v*%
X17780000Y-102870000D03*
%TD*%
%TO.P,ir_sensor_4,3*%
%TO.N,Net-(Portmultiplexer1-Pad24)*%
X23832016Y-66233346D03*
%TO.P,ir_sensor_4,2*%
%TO.N,gnd*%
X22860000Y-68580000D03*
%TO.P,ir_sensor_4,1*%
%TO.N,3.3v*%
X21887984Y-70926654D03*
%TD*%
%TO.P,ir_sensor_3,3*%
%TO.N,Net-(Portmultiplexer1-Pad23)*%
X43706051Y-40113949D03*
%TO.P,ir_sensor_3,2*%
%TO.N,gnd*%
X41910000Y-41910000D03*
%TO.P,ir_sensor_3,1*%
%TO.N,3.3v*%
X40113949Y-43706051D03*
%TD*%
%TO.P,goal_kleur1,2*%
%TO.N,Net-(R1-Pad2)*%
X129540000Y-146050000D03*
%TO.P,goal_kleur1,1*%
%TO.N,3.3v*%
X124460000Y-146050000D03*
%TD*%
%TO.P,dip_swith_instellinen1,12*%
%TO.N,Net-(R2-Pad2)*%
X153670000Y-134620000D03*
%TO.P,dip_swith_instellinen1,11*%
%TO.N,Net-(R3-Pad2)*%
X153670000Y-132080000D03*
%TO.P,dip_swith_instellinen1,10*%
%TO.N,Net-(R4-Pad2)*%
X153670000Y-129540000D03*
%TO.P,dip_swith_instellinen1,9*%
%TO.N,Net-(R5-Pad2)*%
X153670000Y-127000000D03*
%TO.P,dip_swith_instellinen1,8*%
%TO.N,Net-(R6-Pad2)*%
X153670000Y-124460000D03*
%TO.P,dip_swith_instellinen1,7*%
%TO.N,Net-(R7-Pad2)*%
X153670000Y-121920000D03*
%TO.P,dip_swith_instellinen1,6*%
%TO.N,Net-(control_board1-Pad46)*%
X161290000Y-121920000D03*
%TO.P,dip_swith_instellinen1,5*%
X161290000Y-124460000D03*
%TO.P,dip_swith_instellinen1,4*%
X161290000Y-127000000D03*
%TO.P,dip_swith_instellinen1,3*%
X161290000Y-129540000D03*
%TO.P,dip_swith_instellinen1,2*%
X161290000Y-132080000D03*
%TO.P,dip_swith_instellinen1,1*%
X161290000Y-134620000D03*
%TD*%
%TO.P,BZ1,2*%
%TO.N,gnd*%
X97790000Y-143510000D03*
%TO.P,BZ1,1*%
%TO.N,Net-(BZ1-Pad1)*%
X92710000Y-143510000D03*
%TD*%
D20*
%TO.N,scl*%
X127000000Y-92675999D03*
%TO.N,sda*%
X120650000Y-87630000D03*
%TO.N,A*%
X113030000Y-78740000D03*
%TO.N,B*%
X114300000Y-80010000D03*
X93980000Y-100330000D03*
%TO.N,3.3v*%
X127000000Y-177800000D03*
X162560000Y-45720000D03*
X133350000Y-173990000D03*
X175260000Y-73660000D03*
%TO.N,Net-(Portmultiplexer1-Pad2)*%
X72537414Y-173842586D03*
%TO.N,Net-(Portmultiplexer1-Pad3)*%
X77470000Y-175260000D03*
%TO.N,Net-(Portmultiplexer1-Pad8)*%
X33020000Y-54610000D03*
X33020000Y-57150000D03*
%TO.N,sd6*%
X104140000Y-78050001D03*
%TO.N,sc6*%
X63500000Y-76200000D03*
X63500000Y-80010000D03*
%TD*%
D21*
%TO.N,gnd*%
X23937630Y-68580000D02*
X41910000Y-50607630D01*
X22860000Y-68580000D02*
X23937630Y-68580000D01*
X23621999Y-94488001D02*
X17780000Y-100330000D01*
X23621999Y-69341999D02*
X23621999Y-94488001D01*
X22860000Y-68580000D02*
X23621999Y-69341999D01*
X24891999Y-131318001D02*
X24130000Y-132080000D01*
X24891999Y-107441999D02*
X24891999Y-131318001D01*
X17780000Y-100330000D02*
X24891999Y-107441999D01*
X41910000Y-148782370D02*
X41910000Y-158750000D01*
X25207630Y-132080000D02*
X41910000Y-148782370D01*
X24130000Y-132080000D02*
X25207630Y-132080000D01*
X43518762Y-158750000D02*
X49530000Y-164761238D01*
X41910000Y-158750000D02*
X43518762Y-158750000D01*
X68580000Y-173990000D02*
X68580000Y-176530000D01*
X59351238Y-164761238D02*
X68580000Y-173990000D01*
X49530000Y-164761238D02*
X59351238Y-164761238D01*
X68694985Y-176415015D02*
X68580000Y-176530000D01*
X93865015Y-176415015D02*
X68694985Y-176415015D01*
X100330000Y-182880000D02*
X93865015Y-176415015D01*
X106171999Y-177038001D02*
X100330000Y-182880000D01*
X131318001Y-177038001D02*
X106171999Y-177038001D01*
X132080000Y-177800000D02*
X131318001Y-177038001D01*
X152935422Y-155866948D02*
X132080000Y-176722370D01*
X132080000Y-176722370D02*
X132080000Y-177800000D01*
X161067812Y-155866948D02*
X152935422Y-155866948D01*
X161633052Y-157475710D02*
X161633052Y-156432188D01*
X160358762Y-158750000D02*
X161633052Y-157475710D01*
X158750000Y-158750000D02*
X160358762Y-158750000D01*
X68580000Y-24364124D02*
X68580000Y-24130000D01*
X49764124Y-43180000D02*
X68580000Y-24364124D01*
X41910000Y-43180000D02*
X49764124Y-43180000D01*
X41910000Y-50607630D02*
X41910000Y-43180000D01*
X41910000Y-43180000D02*
X41910000Y-41910000D01*
X93218001Y-24891999D02*
X100330000Y-17780000D01*
X69341999Y-24891999D02*
X93218001Y-24891999D01*
X68580000Y-24130000D02*
X69341999Y-24891999D01*
X148782370Y-41910000D02*
X158750000Y-41910000D01*
X132080000Y-25207630D02*
X148782370Y-41910000D01*
X132080000Y-24130000D02*
X132080000Y-25207630D01*
X176644985Y-134948415D02*
X176644985Y-132194985D01*
X176644985Y-132194985D02*
X176530000Y-132080000D01*
X161350432Y-150242968D02*
X176644985Y-134948415D01*
X161350432Y-156149568D02*
X161350432Y-150242968D01*
X161633052Y-156432188D02*
X161350432Y-156149568D01*
X161350432Y-156149568D02*
X161067812Y-155866948D01*
X62230000Y-86360000D02*
X58420000Y-86360000D01*
X76200000Y-100330000D02*
X62230000Y-86360000D01*
X53340000Y-76200000D02*
X58420000Y-81280000D01*
X50800000Y-76200000D02*
X53340000Y-76200000D01*
%TO.N,Net-(control_board1-Pad46)*%
X142240000Y-102870000D02*
X76200000Y-102870000D01*
X161290000Y-121920000D02*
X142240000Y-102870000D01*
X161290000Y-134620000D02*
X161290000Y-132080000D01*
X161290000Y-132080000D02*
X161290000Y-129540000D01*
X161290000Y-129540000D02*
X161290000Y-127000000D01*
X161290000Y-127000000D02*
X161290000Y-124460000D01*
X161290000Y-124460000D02*
X161290000Y-121920000D01*
%TO.N,scl*%
X127000000Y-92675999D02*
X127000000Y-99060000D01*
%TO.N,sda*%
X129540000Y-94142997D02*
X129540000Y-99060000D01*
X123027003Y-87630000D02*
X129540000Y-94142997D01*
X120650000Y-87630000D02*
X123027003Y-87630000D01*
%TO.N,A*%
X58484971Y-98080027D02*
X58484971Y-133414971D01*
X59899999Y-96664999D02*
X58484971Y-98080027D01*
X71660001Y-96664999D02*
X59899999Y-96664999D01*
X75074999Y-100079997D02*
X71660001Y-96664999D01*
X75074999Y-100870001D02*
X75074999Y-100079997D01*
X58484971Y-133414971D02*
X60960000Y-135890000D01*
X75659999Y-101455001D02*
X75074999Y-100870001D01*
X90880684Y-101455001D02*
X75659999Y-101455001D01*
X113030000Y-79305685D02*
X90880684Y-101455001D01*
X113030000Y-78740000D02*
X113030000Y-79305685D01*
%TO.N,B*%
X114300000Y-80010000D02*
X93980000Y-100330000D01*
%TO.N,Net-(R6-Pad2)*%
X76740001Y-116695001D02*
X80405002Y-113030000D01*
X75659999Y-116695001D02*
X76740001Y-116695001D01*
X74534998Y-115570000D02*
X75659999Y-116695001D01*
X60960000Y-115570000D02*
X74534998Y-115570000D01*
X146050000Y-125391238D02*
X146050000Y-124460000D01*
X147587011Y-134691751D02*
X147587011Y-126928249D01*
X146571761Y-135707001D02*
X147587011Y-134691751D01*
X145528239Y-135707001D02*
X146571761Y-135707001D01*
X147587011Y-126928249D02*
X146050000Y-125391238D01*
X144512989Y-134691751D02*
X145528239Y-135707001D01*
X144512989Y-121652989D02*
X144512989Y-134691751D01*
X135890000Y-113030000D02*
X144512989Y-121652989D01*
X80405002Y-113030000D02*
X135890000Y-113030000D01*
%TO.N,Net-(R5-Pad2)*%
X153670000Y-127000000D02*
X154940000Y-125730000D01*
X154940000Y-125730000D02*
X156210000Y-125730000D01*
X156210000Y-125730000D02*
X158750000Y-123190000D01*
X158750000Y-123190000D02*
X139700000Y-104140000D01*
X58934981Y-111004981D02*
X60960000Y-113030000D01*
X60419999Y-99204999D02*
X58934981Y-100690017D01*
X61500001Y-99204999D02*
X60419999Y-99204999D01*
X62085001Y-99789999D02*
X61500001Y-99204999D01*
X69261409Y-99789999D02*
X62085001Y-99789999D01*
X73611410Y-104140000D02*
X69261409Y-99789999D01*
X58934981Y-100690017D02*
X58934981Y-111004981D01*
X139700000Y-104140000D02*
X73611410Y-104140000D01*
%TO.N,Net-(R4-Pad2)*%
X75659999Y-106824999D02*
X77614999Y-106824999D01*
X70579999Y-101744999D02*
X75659999Y-106824999D01*
X60419999Y-101744999D02*
X70579999Y-101744999D01*
X59384990Y-102780008D02*
X60419999Y-101744999D01*
X59384990Y-108914990D02*
X59384990Y-102780008D01*
X60960000Y-110490000D02*
X59384990Y-108914990D01*
X80829990Y-110039990D02*
X137051572Y-110039990D01*
X77614999Y-106824999D02*
X80829990Y-110039990D01*
X152400000Y-128270000D02*
X153670000Y-129540000D01*
X152400000Y-125388418D02*
X152400000Y-128270000D01*
X137051572Y-110039990D02*
X152400000Y-125388418D01*
%TO.N,Net-(R3-Pad2)*%
X147137001Y-120761829D02*
X136865172Y-110490000D01*
X147137001Y-125547001D02*
X147137001Y-120761829D01*
X153670000Y-132080000D02*
X147137001Y-125547001D01*
X136865172Y-110490000D02*
X78740000Y-110490000D01*
X59834999Y-106824999D02*
X60960000Y-107950000D01*
X59834999Y-104869999D02*
X59834999Y-106824999D01*
X60419999Y-104284999D02*
X59834999Y-104869999D01*
X61629999Y-104284999D02*
X60419999Y-104284999D01*
X62950799Y-102964199D02*
X61629999Y-104284999D01*
X74598013Y-109075001D02*
X68487211Y-102964199D01*
X77325001Y-109075001D02*
X74598013Y-109075001D01*
X68487211Y-102964199D02*
X62950799Y-102964199D01*
X78740000Y-110490000D02*
X77325001Y-109075001D01*
%TO.N,Net-(R2-Pad2)*%
X147137001Y-133532999D02*
X146050000Y-134620000D01*
X146571761Y-130992999D02*
X147137001Y-131558239D01*
X144962999Y-119224237D02*
X144962999Y-130061761D01*
X147137001Y-131558239D02*
X147137001Y-133532999D01*
X137643761Y-111904999D02*
X144962999Y-119224237D01*
X144962999Y-130061761D02*
X145894237Y-130992999D01*
X75949997Y-111904999D02*
X137643761Y-111904999D01*
X75074999Y-110188397D02*
X75074999Y-111030001D01*
X145894237Y-130992999D02*
X146571761Y-130992999D01*
X75074999Y-111030001D02*
X75949997Y-111904999D01*
X70296602Y-105410000D02*
X75074999Y-110188397D01*
X60960000Y-105410000D02*
X70296602Y-105410000D01*
%TO.N,3.3v*%
X21679574Y-68558435D02*
X21679574Y-70718244D01*
X22191577Y-67320347D02*
X22122291Y-67483749D01*
X21679574Y-70718244D02*
X21887984Y-70926654D01*
X24353777Y-67320347D02*
X22191577Y-67320347D01*
X21899127Y-68020248D02*
X21679574Y-68558435D01*
X34290000Y-57384124D02*
X24353777Y-67320347D01*
X34290000Y-49530000D02*
X34290000Y-57384124D01*
X22122291Y-67483749D02*
X21899127Y-68020248D01*
X40113949Y-43706051D02*
X34290000Y-49530000D01*
X21887984Y-80989637D02*
X21887984Y-70926654D01*
X16692999Y-86184622D02*
X21887984Y-80989637D01*
X16692999Y-101782999D02*
X16692999Y-86184622D01*
X17780000Y-102870000D02*
X16692999Y-101782999D01*
X24441989Y-109531989D02*
X17780000Y-102870000D01*
X24441989Y-130159249D02*
X24441989Y-109531989D01*
X23042999Y-131558239D02*
X24441989Y-130159249D01*
X23042999Y-133445267D02*
X23042999Y-131558239D01*
X24024386Y-134426654D02*
X23042999Y-133445267D01*
X25102016Y-134426654D02*
X24024386Y-134426654D01*
X31613956Y-140938594D02*
X25102016Y-134426654D01*
X31613956Y-150062718D02*
X31613956Y-140938594D01*
X42097289Y-160546051D02*
X31613956Y-150062718D01*
X43706051Y-160546051D02*
X42097289Y-160546051D01*
X48371248Y-165211248D02*
X43706051Y-160546051D01*
X54277848Y-165211248D02*
X48371248Y-165211248D01*
X67330615Y-178264015D02*
X54277848Y-165211248D01*
X70164655Y-178264015D02*
X67330615Y-178264015D01*
X70926654Y-177502016D02*
X70164655Y-178264015D01*
X101600000Y-184150000D02*
X102870000Y-182880000D01*
X97451238Y-184150000D02*
X101600000Y-184150000D01*
X90803254Y-177502016D02*
X97451238Y-184150000D01*
X70926654Y-177502016D02*
X90803254Y-177502016D01*
X107950000Y-177800000D02*
X127000000Y-177800000D01*
X102870000Y-182880000D02*
X107950000Y-177800000D01*
X154300689Y-156953949D02*
X160546051Y-156953949D01*
X134426654Y-176827984D02*
X154300689Y-156953949D01*
X40113949Y-42097289D02*
X40113949Y-43706051D01*
X41388239Y-40822999D02*
X40113949Y-42097289D01*
X42431761Y-40822999D02*
X41388239Y-40822999D01*
X42809712Y-41200950D02*
X42431761Y-40822999D01*
X50134412Y-41200950D02*
X42809712Y-41200950D01*
X66233346Y-25102016D02*
X50134412Y-41200950D01*
X93903110Y-21666890D02*
X97790000Y-17780000D01*
X68590842Y-21666890D02*
X93903110Y-21666890D01*
X66233346Y-24024386D02*
X68590842Y-21666890D01*
X66233346Y-25102016D02*
X66233346Y-24024386D01*
X129848331Y-23042999D02*
X129733346Y-23157984D01*
X134802999Y-23042999D02*
X129848331Y-23042999D01*
X151873949Y-40113949D02*
X134802999Y-23042999D01*
X156953949Y-40113949D02*
X151873949Y-40113949D01*
X175557984Y-66233346D02*
X165100000Y-55775362D01*
X165100000Y-48260000D02*
X162560000Y-45720000D01*
X165100000Y-55775362D02*
X165100000Y-48260000D01*
X101417001Y-18301761D02*
X101417001Y-17258239D01*
X94376753Y-25342009D02*
X101417001Y-18301761D01*
X84752989Y-25342009D02*
X94376753Y-25342009D01*
X57150000Y-53735002D02*
X57150000Y-52944998D01*
X100851761Y-16692999D02*
X98877001Y-16692999D01*
X101417001Y-17258239D02*
X100851761Y-16692999D01*
X51340001Y-59545001D02*
X57150000Y-53735002D01*
X50549997Y-59545001D02*
X51340001Y-59545001D01*
X98877001Y-16692999D02*
X97790000Y-17780000D01*
X48774980Y-61320018D02*
X50549997Y-59545001D01*
X48774980Y-71634980D02*
X48774980Y-61320018D01*
X57150000Y-52944998D02*
X84752989Y-25342009D01*
X50800000Y-73660000D02*
X48774980Y-71634980D01*
X124460000Y-165100000D02*
X133350000Y-173990000D01*
X124460000Y-146050000D02*
X124460000Y-165100000D01*
X109220000Y-74930000D02*
X111454989Y-72695011D01*
X111454989Y-72695011D02*
X141275011Y-72695011D01*
X141275011Y-72695011D02*
X143510000Y-74930000D01*
X143510000Y-74930000D02*
X171450000Y-74930000D01*
X171450000Y-74930000D02*
X172720000Y-73660000D01*
X172720000Y-73660000D02*
X175260000Y-73660000D01*
%TO.N,Net-(Portmultiplexer1-Pad2)*%
X30029991Y-131335163D02*
X72537414Y-173842586D01*
X30029991Y-76650009D02*
X30029991Y-131335163D01*
X50800000Y-55880000D02*
X30029991Y-76650009D01*
X72537414Y-173842586D02*
X72684828Y-173990000D01*
%TO.N,Net-(Portmultiplexer1-Pad3)*%
X77470000Y-174694315D02*
X62795685Y-160020000D01*
X77470000Y-175260000D02*
X77470000Y-174694315D01*
X59351238Y-160020000D02*
X30480000Y-131148762D01*
X62795685Y-160020000D02*
X59351238Y-160020000D01*
X30480000Y-78740000D02*
X50800000Y-58420000D01*
X30480000Y-131148762D02*
X30480000Y-78740000D01*
%TO.N,Net-(Portmultiplexer1-Pad4)*%
X51925001Y-59834999D02*
X50800000Y-60960000D01*
X148572547Y-43256041D02*
X131993589Y-59834999D01*
X175849775Y-69839653D02*
X161633052Y-55622930D01*
X159387299Y-43256041D02*
X148572547Y-43256041D01*
X178023777Y-69839653D02*
X175849775Y-69839653D01*
X178589017Y-70404893D02*
X178023777Y-69839653D01*
X178589017Y-97942607D02*
X178589017Y-70404893D01*
X182429409Y-101782999D02*
X178589017Y-97942607D01*
X160024290Y-42619050D02*
X159387299Y-43256041D01*
X161067812Y-42619050D02*
X160024290Y-42619050D01*
X183401761Y-101782999D02*
X182429409Y-101782999D01*
X161633052Y-43184290D02*
X161067812Y-42619050D01*
X161633052Y-55622930D02*
X161633052Y-43184290D01*
X183967001Y-102348239D02*
X183401761Y-101782999D01*
X183967001Y-112836654D02*
X183967001Y-102348239D01*
X131993589Y-59834999D02*
X51925001Y-59834999D01*
X174795985Y-122007670D02*
X183967001Y-112836654D01*
X174795985Y-133664655D02*
X174795985Y-122007670D01*
X175557984Y-134426654D02*
X174795985Y-133664655D01*
%TO.N,Net-(Portmultiplexer1-Pad5)*%
X157335001Y-77325001D02*
X182880000Y-102870000D01*
X56420001Y-77325001D02*
X157335001Y-77325001D01*
X50259999Y-72245001D02*
X51340001Y-72245001D01*
X51340001Y-72245001D02*
X56420001Y-77325001D01*
X49224990Y-71209992D02*
X50259999Y-72245001D01*
X49224990Y-65075010D02*
X49224990Y-71209992D01*
X50800000Y-63500000D02*
X49224990Y-65075010D01*
%TO.N,Net-(Portmultiplexer1-Pad6)*%
X176183669Y-72245001D02*
X177502016Y-70926654D01*
X53828591Y-72245001D02*
X176183669Y-72245001D01*
X50259999Y-69705001D02*
X51288591Y-69705001D01*
X51288591Y-69705001D02*
X53828591Y-72245001D01*
X49674999Y-69120001D02*
X50259999Y-69705001D01*
X49674999Y-67165001D02*
X49674999Y-69120001D01*
X50800000Y-66040000D02*
X49674999Y-67165001D01*
%TO.N,Net-(Portmultiplexer1-Pad7)*%
X148758947Y-43706051D02*
X160546051Y-43706051D01*
X122759997Y-69705001D02*
X148758947Y-43706051D01*
X51925001Y-69705001D02*
X122759997Y-69705001D01*
X50800000Y-68580000D02*
X51925001Y-69705001D01*
%TO.N,Net-(Portmultiplexer1-Pad8)*%
X33020000Y-54610000D02*
X33020000Y-57150000D01*
%TO.N,sd6*%
X51925001Y-84945001D02*
X59834999Y-84945001D01*
X50800000Y-83820000D02*
X51925001Y-84945001D01*
X66729999Y-78050001D02*
X104140000Y-78050001D01*
X59834999Y-84945001D02*
X66729999Y-78050001D01*
%TO.N,sc6*%
X100330000Y-76200000D02*
X63500000Y-76200000D01*
X101600000Y-74930000D02*
X100330000Y-76200000D01*
X51925001Y-82405001D02*
X50800000Y-81280000D01*
X61104999Y-82405001D02*
X51925001Y-82405001D01*
X63500000Y-80010000D02*
X61104999Y-82405001D01*
%TO.N,Net-(U2-Pad3)*%
X67165001Y-124604999D02*
X60960000Y-130810000D01*
X79357001Y-124604999D02*
X67165001Y-124604999D01*
X84201000Y-119761000D02*
X79357001Y-124604999D01*
%TO.N,Net-(U2-Pad2)*%
X82186999Y-119235001D02*
X84201000Y-117221000D01*
X69994999Y-119235001D02*
X82186999Y-119235001D01*
X60960000Y-128270000D02*
X69994999Y-119235001D01*
%TO.N,Net-(U2-Pad5)*%
X59834999Y-126855001D02*
X60960000Y-125730000D01*
X59834999Y-131350001D02*
X59834999Y-126855001D01*
X60419999Y-131935001D02*
X59834999Y-131350001D01*
X77106999Y-131935001D02*
X60419999Y-131935001D01*
X84201000Y-124841000D02*
X77106999Y-131935001D01*
%TD*%
M02*
