%TF.GenerationSoftware,KiCad,Pcbnew,5.1.9+dfsg1-1+deb11u1*%
%TF.CreationDate,2024-06-09T12:20:22+02:00*%
%TF.ProjectId,pcb_boven,7063625f-626f-4766-956e-2e6b69636164,rev?*%
%TF.SameCoordinates,Original*%
%TF.FileFunction,Copper,L2,Bot*%
%TF.FilePolarity,Positive*%
%FSLAX46Y46*%
G04 Gerber Fmt 4.6, Leading zero omitted, Abs format (unit mm)*
G04 Created by KiCad (PCBNEW 5.1.9+dfsg1-1+deb11u1) date 2024-06-09 12:20:22*
%MOMM*%
%LPD*%
G01*
G04 APERTURE LIST*
%TA.AperFunction,ComponentPad*%
%ADD10C,1.524000*%
%TD*%
%TA.AperFunction,ComponentPad*%
%ADD11C,2.794000*%
%TD*%
%TA.AperFunction,ComponentPad*%
%ADD12C,6.000000*%
%TD*%
%TA.AperFunction,ComponentPad*%
%ADD13C,4.000000*%
%TD*%
%TA.AperFunction,ComponentPad*%
%ADD14R,3.800000X3.800000*%
%TD*%
%TA.AperFunction,ComponentPad*%
%ADD15O,1.600000X1.600000*%
%TD*%
%TA.AperFunction,ComponentPad*%
%ADD16R,1.600000X1.600000*%
%TD*%
%TA.AperFunction,ViaPad*%
%ADD17C,0.800000*%
%TD*%
%TA.AperFunction,Conductor*%
%ADD18C,0.250000*%
%TD*%
G04 APERTURE END LIST*
D10*
%TO.P,ir_sensor_9,3*%
%TO.N,Net-(Portmultiplexer1-Pad1)*%
X97790000Y-182880000D03*
%TO.P,ir_sensor_9,2*%
%TO.N,gnd*%
X100330000Y-182880000D03*
%TO.P,ir_sensor_9,1*%
%TO.N,3.3v*%
X102870000Y-182880000D03*
%TD*%
%TO.P,ir_sensor_1,3*%
%TO.N,Net-(Portmultiplexer1-Pad21)*%
X102870000Y-17780000D03*
%TO.P,ir_sensor_1,2*%
%TO.N,gnd*%
X100330000Y-17780000D03*
%TO.P,ir_sensor_1,1*%
%TO.N,3.3v*%
X97790000Y-17780000D03*
%TD*%
%TO.P,ir_sensor_2,3*%
%TO.N,Net-(Portmultiplexer1-Pad22)*%
X70926654Y-23157984D03*
%TO.P,ir_sensor_2,2*%
%TO.N,gnd*%
X68580000Y-24130000D03*
%TO.P,ir_sensor_2,1*%
%TO.N,3.3v*%
X66233346Y-25102016D03*
%TD*%
%TO.P,ir_sensor_8,3*%
%TO.N,Net-(Portmultiplexer1-Pad28)*%
X66233346Y-175557984D03*
%TO.P,ir_sensor_8,2*%
%TO.N,gnd*%
X68580000Y-176530000D03*
%TO.P,ir_sensor_8,1*%
%TO.N,3.3v*%
X70926654Y-177502016D03*
%TD*%
%TO.P,ir_sensor_12,3*%
%TO.N,Net-(Portmultiplexer1-Pad4)*%
X175557984Y-134426654D03*
%TO.P,ir_sensor_12,2*%
%TO.N,gnd*%
X176530000Y-132080000D03*
%TO.P,ir_sensor_12,1*%
%TO.N,3.3v*%
X177502016Y-129733346D03*
%TD*%
%TO.P,control_board1,48*%
%TO.N,5v*%
X73660000Y-99060000D03*
%TO.P,control_board1,47*%
%TO.N,gnd*%
X73660000Y-101600000D03*
%TO.P,control_board1,46*%
%TO.N,Net-(control_board1-Pad46)*%
X73660000Y-104140000D03*
%TO.P,control_board1,45*%
%TO.N,Net-(control_board1-Pad45)*%
X73660000Y-106680000D03*
%TO.P,control_board1,44*%
%TO.N,Net-(control_board1-Pad44)*%
X73660000Y-109220000D03*
%TO.P,control_board1,43*%
%TO.N,Net-(control_board1-Pad43)*%
X73660000Y-111760000D03*
%TO.P,control_board1,42*%
%TO.N,Net-(control_board1-Pad42)*%
X73660000Y-114300000D03*
%TO.P,control_board1,41*%
%TO.N,scl*%
X73660000Y-116840000D03*
%TO.P,control_board1,40*%
%TO.N,sda*%
X73660000Y-119380000D03*
%TO.P,control_board1,39*%
%TO.N,Net-(control_board1-Pad39)*%
X73660000Y-121920000D03*
%TO.P,control_board1,38*%
%TO.N,Net-(control_board1-Pad38)*%
X73660000Y-124460000D03*
%TO.P,control_board1,37*%
%TO.N,Net-(control_board1-Pad37)*%
X73660000Y-127000000D03*
%TO.P,control_board1,36*%
%TO.N,Net-(control_board1-Pad36)*%
X73660000Y-129540000D03*
%TO.P,control_board1,35*%
%TO.N,Net-(control_board1-Pad35)*%
X73660000Y-132080000D03*
%TO.P,control_board1,34*%
%TO.N,Net-(control_board1-Pad34)*%
X73660000Y-134620000D03*
%TO.P,control_board1,33*%
%TO.N,Net-(control_board1-Pad33)*%
X73660000Y-137160000D03*
%TO.P,control_board1,32*%
%TO.N,Net-(control_board1-Pad32)*%
X73660000Y-139700000D03*
%TO.P,control_board1,31*%
%TO.N,Net-(control_board1-Pad31)*%
X73660000Y-142240000D03*
%TO.P,control_board1,30*%
%TO.N,Net-(control_board1-Pad30)*%
X73660000Y-144780000D03*
%TO.P,control_board1,29*%
%TO.N,Net-(control_board1-Pad29)*%
X73660000Y-147320000D03*
%TO.P,control_board1,28*%
%TO.N,Net-(U2-Pad4)*%
X73660000Y-149860000D03*
%TO.P,control_board1,27*%
%TO.N,Net-(control_board1-Pad27)*%
X73660000Y-152400000D03*
%TO.P,control_board1,26*%
%TO.N,Net-(control_board1-Pad26)*%
X73660000Y-154940000D03*
%TO.P,control_board1,25*%
%TO.N,Net-(control_board1-Pad25)*%
X73660000Y-157480000D03*
%TO.P,control_board1,24*%
%TO.N,Net-(control_board1-Pad24)*%
X58420000Y-157480000D03*
%TO.P,control_board1,23*%
%TO.N,Net-(control_board1-Pad23)*%
X58420000Y-154940000D03*
%TO.P,control_board1,22*%
%TO.N,Net-(control_board1-Pad22)*%
X58420000Y-152400000D03*
%TO.P,control_board1,21*%
%TO.N,Net-(control_board1-Pad21)*%
X58420000Y-149860000D03*
%TO.P,control_board1,20*%
%TO.N,Net-(control_board1-Pad20)*%
X58420000Y-147320000D03*
%TO.P,control_board1,19*%
%TO.N,Net-(control_board1-Pad19)*%
X58420000Y-144780000D03*
%TO.P,control_board1,18*%
%TO.N,Net-(control_board1-Pad18)*%
X58420000Y-142240000D03*
%TO.P,control_board1,17*%
%TO.N,Net-(control_board1-Pad17)*%
X58420000Y-139700000D03*
%TO.P,control_board1,16*%
%TO.N,A*%
X58420000Y-137160000D03*
%TO.P,control_board1,15*%
%TO.N,Net-(control_board1-Pad15)*%
X58420000Y-134620000D03*
%TO.P,control_board1,14*%
%TO.N,Net-(U2-Pad3)*%
X58420000Y-132080000D03*
%TO.P,control_board1,13*%
%TO.N,Net-(U2-Pad2)*%
X58420000Y-129540000D03*
%TO.P,control_board1,12*%
%TO.N,Net-(U2-Pad5)*%
X58420000Y-127000000D03*
%TO.P,control_board1,11*%
%TO.N,B*%
X58420000Y-124460000D03*
%TO.P,control_board1,10*%
%TO.N,Net-(BZ1-Pad1)*%
X58420000Y-121920000D03*
%TO.P,control_board1,9*%
%TO.N,Net-(R7-Pad2)*%
X58420000Y-119380000D03*
%TO.P,control_board1,8*%
%TO.N,Net-(R6-Pad2)*%
X58420000Y-116840000D03*
%TO.P,control_board1,7*%
%TO.N,Net-(R5-Pad2)*%
X58420000Y-114300000D03*
%TO.P,control_board1,6*%
%TO.N,Net-(R4-Pad2)*%
X58420000Y-111760000D03*
%TO.P,control_board1,5*%
%TO.N,Net-(R3-Pad2)*%
X58420000Y-109220000D03*
%TO.P,control_board1,4*%
%TO.N,Net-(R2-Pad2)*%
X58420000Y-106680000D03*
%TO.P,control_board1,3*%
%TO.N,sda*%
X58420000Y-104140000D03*
%TO.P,control_board1,2*%
%TO.N,scl*%
X58420000Y-101600000D03*
%TO.P,control_board1,54*%
%TO.N,Net-(control_board1-Pad54)*%
X71120000Y-144780000D03*
%TO.P,control_board1,53*%
%TO.N,Net-(control_board1-Pad53)*%
X68580000Y-144780000D03*
%TO.P,control_board1,52*%
%TO.N,Net-(control_board1-Pad52)*%
X66040000Y-144780000D03*
%TO.P,control_board1,51*%
%TO.N,Net-(control_board1-Pad51)*%
X63500000Y-144780000D03*
%TO.P,control_board1,50*%
%TO.N,Net-(control_board1-Pad50)*%
X60960000Y-144780000D03*
%TO.P,control_board1,1*%
%TO.N,Net-(control_board1-Pad1)*%
X58420000Y-99060000D03*
%TD*%
%TO.P,U2,16*%
%TO.N,Net-(U2-Pad16)*%
X116459000Y-132461000D03*
%TO.P,U2,17*%
%TO.N,N/C*%
X116459000Y-135001000D03*
D11*
%TO.P,U2,screw*%
%TO.N,Net-(U2-Padscrew)*%
X115062000Y-95123000D03*
X85598000Y-95123000D03*
D10*
%TO.P,U2,9*%
%TO.N,3.3v*%
X84201000Y-135001000D03*
%TO.P,U2,8*%
%TO.N,Net-(U2-Pad8)*%
X84201000Y-132461000D03*
%TO.P,U2,7*%
%TO.N,sda*%
X84201000Y-129921000D03*
%TO.P,U2,6*%
%TO.N,scl*%
X84201000Y-127381000D03*
%TO.P,U2,5*%
%TO.N,Net-(U2-Pad5)*%
X84201000Y-124841000D03*
%TO.P,U2,4*%
%TO.N,Net-(U2-Pad4)*%
X84201000Y-122301000D03*
%TO.P,U2,3*%
%TO.N,Net-(U2-Pad3)*%
X84201000Y-119761000D03*
%TO.P,U2,10*%
%TO.N,Net-(U2-Pad10)*%
X116459000Y-117221000D03*
%TO.P,U2,11*%
%TO.N,Net-(U2-Pad11)*%
X116459000Y-119761000D03*
%TO.P,U2,12*%
%TO.N,Net-(U2-Pad12)*%
X116459000Y-122301000D03*
%TO.P,U2,13*%
%TO.N,Net-(U2-Pad13)*%
X116459000Y-124841000D03*
%TO.P,U2,14*%
%TO.N,Net-(U2-Pad14)*%
X116459000Y-127381000D03*
%TO.P,U2,15*%
%TO.N,Net-(R1-Pad2)*%
X116459000Y-129921000D03*
%TO.P,U2,2*%
%TO.N,Net-(U2-Pad2)*%
X84201000Y-117221000D03*
%TD*%
%TO.P,xt60,1*%
%TO.N,Net-(3V3_converter1-Pad1)*%
%TA.AperFunction,ComponentPad*%
G36*
G01*
X140510000Y-59920000D02*
X140510000Y-56920000D01*
G75*
G02*
X142010000Y-55420000I1500000J0D01*
G01*
X145010000Y-55420000D01*
G75*
G02*
X146510000Y-56920000I0J-1500000D01*
G01*
X146510000Y-59920000D01*
G75*
G02*
X145010000Y-61420000I-1500000J0D01*
G01*
X142010000Y-61420000D01*
G75*
G02*
X140510000Y-59920000I0J1500000D01*
G01*
G37*
%TD.AperFunction*%
D12*
%TO.P,xt60,2*%
%TO.N,Net-(3V3_converter1-Pad3)*%
X150710000Y-58420000D03*
%TD*%
D13*
%TO.P,xt30,2*%
%TO.N,Net-(3V3_converter1-Pad3)*%
X152320000Y-49530000D03*
D14*
%TO.P,xt30,1*%
%TO.N,Net-(3V3_converter1-Pad1)*%
X147320000Y-49530000D03*
%TD*%
D10*
%TO.P,U1,4*%
%TO.N,Net-(U1-Pad4)*%
X137160000Y-99060000D03*
%TO.P,U1,3*%
%TO.N,5v*%
X134620000Y-99060000D03*
%TO.P,U1,2*%
%TO.N,gnd*%
X132080000Y-99060000D03*
%TO.P,U1,1*%
%TO.N,sda*%
X129540000Y-99060000D03*
%TO.P,U1,0*%
%TO.N,scl*%
X127000000Y-99060000D03*
%TD*%
%TO.P,R7,2*%
%TO.N,Net-(R7-Pad2)*%
X146050000Y-121920000D03*
%TO.P,R7,1*%
%TO.N,gnd*%
X140970000Y-121920000D03*
%TD*%
%TO.P,R6,2*%
%TO.N,Net-(R6-Pad2)*%
X146050000Y-124460000D03*
%TO.P,R6,1*%
%TO.N,gnd*%
X140970000Y-124460000D03*
%TD*%
%TO.P,R5,2*%
%TO.N,Net-(R5-Pad2)*%
X146050000Y-127000000D03*
%TO.P,R5,1*%
%TO.N,gnd*%
X140970000Y-127000000D03*
%TD*%
%TO.P,R4,2*%
%TO.N,Net-(R4-Pad2)*%
X146050000Y-129540000D03*
%TO.P,R4,1*%
%TO.N,gnd*%
X140970000Y-129540000D03*
%TD*%
%TO.P,R3,2*%
%TO.N,Net-(R3-Pad2)*%
X146050000Y-132080000D03*
%TO.P,R3,1*%
%TO.N,gnd*%
X140970000Y-132080000D03*
%TD*%
%TO.P,R2,2*%
%TO.N,Net-(R2-Pad2)*%
X146050000Y-134620000D03*
%TO.P,R2,1*%
%TO.N,gnd*%
X140970000Y-134620000D03*
%TD*%
%TO.P,R1,2*%
%TO.N,Net-(R1-Pad2)*%
X129540000Y-140970000D03*
%TO.P,R1,1*%
%TO.N,gnd*%
X124460000Y-140970000D03*
%TD*%
D15*
%TO.P,Portmultiplexer1,28*%
%TO.N,Net-(Portmultiplexer1-Pad28)*%
X58420000Y-53340000D03*
%TO.P,Portmultiplexer1,14*%
%TO.N,Net-(Portmultiplexer1-Pad14)*%
X50800000Y-86360000D03*
%TO.P,Portmultiplexer1,27*%
%TO.N,Net-(Portmultiplexer1-Pad27)*%
X58420000Y-55880000D03*
%TO.P,Portmultiplexer1,13*%
%TO.N,sd6*%
X50800000Y-83820000D03*
%TO.P,Portmultiplexer1,26*%
%TO.N,Net-(Portmultiplexer1-Pad26)*%
X58420000Y-58420000D03*
%TO.P,Portmultiplexer1,12*%
%TO.N,sc6*%
X50800000Y-81280000D03*
%TO.P,Portmultiplexer1,25*%
%TO.N,Net-(Portmultiplexer1-Pad25)*%
X58420000Y-60960000D03*
%TO.P,Portmultiplexer1,11*%
%TO.N,Net-(Portmultiplexer1-Pad11)*%
X50800000Y-78740000D03*
%TO.P,Portmultiplexer1,24*%
%TO.N,Net-(Portmultiplexer1-Pad24)*%
X58420000Y-63500000D03*
%TO.P,Portmultiplexer1,10*%
%TO.N,gnd*%
X50800000Y-76200000D03*
%TO.P,Portmultiplexer1,23*%
%TO.N,Net-(Portmultiplexer1-Pad23)*%
X58420000Y-66040000D03*
%TO.P,Portmultiplexer1,9*%
%TO.N,3.3v*%
X50800000Y-73660000D03*
%TO.P,Portmultiplexer1,22*%
%TO.N,Net-(Portmultiplexer1-Pad22)*%
X58420000Y-68580000D03*
%TO.P,Portmultiplexer1,8*%
%TO.N,Net-(Portmultiplexer1-Pad8)*%
X50800000Y-71120000D03*
%TO.P,Portmultiplexer1,21*%
%TO.N,Net-(Portmultiplexer1-Pad21)*%
X58420000Y-71120000D03*
%TO.P,Portmultiplexer1,7*%
%TO.N,Net-(Portmultiplexer1-Pad7)*%
X50800000Y-68580000D03*
%TO.P,Portmultiplexer1,20*%
%TO.N,Net-(Portmultiplexer1-Pad20)*%
X58420000Y-73660000D03*
%TO.P,Portmultiplexer1,6*%
%TO.N,Net-(Portmultiplexer1-Pad6)*%
X50800000Y-66040000D03*
%TO.P,Portmultiplexer1,19*%
%TO.N,Net-(Portmultiplexer1-Pad19)*%
X58420000Y-76200000D03*
%TO.P,Portmultiplexer1,5*%
%TO.N,Net-(Portmultiplexer1-Pad5)*%
X50800000Y-63500000D03*
%TO.P,Portmultiplexer1,18*%
%TO.N,Net-(Portmultiplexer1-Pad18)*%
X58420000Y-78740000D03*
%TO.P,Portmultiplexer1,4*%
%TO.N,Net-(Portmultiplexer1-Pad4)*%
X50800000Y-60960000D03*
%TO.P,Portmultiplexer1,17*%
%TO.N,gnd*%
X58420000Y-81280000D03*
%TO.P,Portmultiplexer1,3*%
%TO.N,Net-(Portmultiplexer1-Pad3)*%
X50800000Y-58420000D03*
%TO.P,Portmultiplexer1,16*%
%TO.N,gnd*%
X58420000Y-83820000D03*
%TO.P,Portmultiplexer1,2*%
%TO.N,Net-(Portmultiplexer1-Pad2)*%
X50800000Y-55880000D03*
%TO.P,Portmultiplexer1,15*%
%TO.N,gnd*%
X58420000Y-86360000D03*
D16*
%TO.P,Portmultiplexer1,1*%
%TO.N,Net-(Portmultiplexer1-Pad1)*%
X50800000Y-53340000D03*
%TD*%
D10*
%TO.P,ir_sensor_16,3*%
%TO.N,Net-(Portmultiplexer1-Pad8)*%
X134426654Y-25102016D03*
%TO.P,ir_sensor_16,2*%
%TO.N,gnd*%
X132080000Y-24130000D03*
%TO.P,ir_sensor_16,1*%
%TO.N,3.3v*%
X129733346Y-23157984D03*
%TD*%
%TO.P,ir_sensor_15,3*%
%TO.N,Net-(Portmultiplexer1-Pad7)*%
X160546051Y-43706051D03*
%TO.P,ir_sensor_15,2*%
%TO.N,gnd*%
X158750000Y-41910000D03*
%TO.P,ir_sensor_15,1*%
%TO.N,3.3v*%
X156953949Y-40113949D03*
%TD*%
%TO.P,ir_sensor_14,3*%
%TO.N,Net-(Portmultiplexer1-Pad6)*%
X177502016Y-70926654D03*
%TO.P,ir_sensor_14,2*%
%TO.N,gnd*%
X176530000Y-68580000D03*
%TO.P,ir_sensor_14,1*%
%TO.N,3.3v*%
X175557984Y-66233346D03*
%TD*%
%TO.P,ir_sensor_13,3*%
%TO.N,Net-(Portmultiplexer1-Pad5)*%
X182880000Y-102870000D03*
%TO.P,ir_sensor_13,2*%
%TO.N,gnd*%
X182880000Y-100330000D03*
%TO.P,ir_sensor_13,1*%
%TO.N,3.3v*%
X182880000Y-97790000D03*
%TD*%
%TO.P,ir_sensor_11,3*%
%TO.N,Net-(Portmultiplexer1-Pad3)*%
X156953949Y-160546051D03*
%TO.P,ir_sensor_11,2*%
%TO.N,gnd*%
X158750000Y-158750000D03*
%TO.P,ir_sensor_11,1*%
%TO.N,3.3v*%
X160546051Y-156953949D03*
%TD*%
%TO.P,ir_sensor_10,3*%
%TO.N,Net-(Portmultiplexer1-Pad2)*%
X129733346Y-178772016D03*
%TO.P,ir_sensor_10,2*%
%TO.N,gnd*%
X132080000Y-177800000D03*
%TO.P,ir_sensor_10,1*%
%TO.N,3.3v*%
X134426654Y-176827984D03*
%TD*%
%TO.P,ir_sensor_7,3*%
%TO.N,Net-(Portmultiplexer1-Pad27)*%
X40113949Y-156953949D03*
%TO.P,ir_sensor_7,2*%
%TO.N,gnd*%
X41910000Y-158750000D03*
%TO.P,ir_sensor_7,1*%
%TO.N,3.3v*%
X43706051Y-160546051D03*
%TD*%
%TO.P,ir_sensor_6,3*%
%TO.N,Net-(Portmultiplexer1-Pad26)*%
X23157984Y-129733346D03*
%TO.P,ir_sensor_6,2*%
%TO.N,gnd*%
X24130000Y-132080000D03*
%TO.P,ir_sensor_6,1*%
%TO.N,3.3v*%
X25102016Y-134426654D03*
%TD*%
%TO.P,ir_sensor_5,3*%
%TO.N,Net-(Portmultiplexer1-Pad25)*%
X17780000Y-97790000D03*
%TO.P,ir_sensor_5,2*%
%TO.N,gnd*%
X17780000Y-100330000D03*
%TO.P,ir_sensor_5,1*%
%TO.N,3.3v*%
X17780000Y-102870000D03*
%TD*%
%TO.P,ir_sensor_4,3*%
%TO.N,Net-(Portmultiplexer1-Pad24)*%
X23832016Y-66233346D03*
%TO.P,ir_sensor_4,2*%
%TO.N,gnd*%
X22860000Y-68580000D03*
%TO.P,ir_sensor_4,1*%
%TO.N,3.3v*%
X21887984Y-70926654D03*
%TD*%
%TO.P,ir_sensor_3,3*%
%TO.N,Net-(Portmultiplexer1-Pad23)*%
X43706051Y-40113949D03*
%TO.P,ir_sensor_3,2*%
%TO.N,gnd*%
X41910000Y-41910000D03*
%TO.P,ir_sensor_3,1*%
%TO.N,3.3v*%
X40113949Y-43706051D03*
%TD*%
%TO.P,goal_kleur1,2*%
%TO.N,Net-(R1-Pad2)*%
X129540000Y-146050000D03*
%TO.P,goal_kleur1,1*%
%TO.N,3.3v*%
X124460000Y-146050000D03*
%TD*%
%TO.P,dip_swith_instellinen1,12*%
%TO.N,Net-(R2-Pad2)*%
X153670000Y-134620000D03*
%TO.P,dip_swith_instellinen1,11*%
%TO.N,Net-(R3-Pad2)*%
X153670000Y-132080000D03*
%TO.P,dip_swith_instellinen1,10*%
%TO.N,Net-(R4-Pad2)*%
X153670000Y-129540000D03*
%TO.P,dip_swith_instellinen1,9*%
%TO.N,Net-(R5-Pad2)*%
X153670000Y-127000000D03*
%TO.P,dip_swith_instellinen1,8*%
%TO.N,Net-(R6-Pad2)*%
X153670000Y-124460000D03*
%TO.P,dip_swith_instellinen1,7*%
%TO.N,Net-(R7-Pad2)*%
X153670000Y-121920000D03*
%TO.P,dip_swith_instellinen1,6*%
%TO.N,Net-(control_board1-Pad46)*%
X161290000Y-121920000D03*
%TO.P,dip_swith_instellinen1,5*%
X161290000Y-124460000D03*
%TO.P,dip_swith_instellinen1,4*%
X161290000Y-127000000D03*
%TO.P,dip_swith_instellinen1,3*%
X161290000Y-129540000D03*
%TO.P,dip_swith_instellinen1,2*%
X161290000Y-132080000D03*
%TO.P,dip_swith_instellinen1,1*%
X161290000Y-134620000D03*
%TD*%
%TO.P,BZ1,2*%
%TO.N,gnd*%
X97790000Y-143510000D03*
%TO.P,BZ1,1*%
%TO.N,Net-(BZ1-Pad1)*%
X92710000Y-143510000D03*
%TD*%
D17*
%TO.N,3.3v*%
X127000000Y-177800000D03*
%TD*%
D18*
%TO.N,gnd*%
X41910000Y-50607630D02*
X41910000Y-41910000D01*
X23937630Y-68580000D02*
X41910000Y-50607630D01*
X22860000Y-68580000D02*
X23937630Y-68580000D01*
X23621999Y-94488001D02*
X17780000Y-100330000D01*
X23621999Y-69341999D02*
X23621999Y-94488001D01*
X22860000Y-68580000D02*
X23621999Y-69341999D01*
X24891999Y-131318001D02*
X24130000Y-132080000D01*
X24891999Y-107441999D02*
X24891999Y-131318001D01*
X17780000Y-100330000D02*
X24891999Y-107441999D01*
X41910000Y-148782370D02*
X41910000Y-158750000D01*
X25207630Y-132080000D02*
X41910000Y-148782370D01*
X24130000Y-132080000D02*
X25207630Y-132080000D01*
X43518762Y-158750000D02*
X49530000Y-164761238D01*
X41910000Y-158750000D02*
X43518762Y-158750000D01*
X68580000Y-173990000D02*
X68580000Y-176530000D01*
X59351238Y-164761238D02*
X68580000Y-173990000D01*
X49530000Y-164761238D02*
X59351238Y-164761238D01*
X68694985Y-176415015D02*
X68580000Y-176530000D01*
X93865015Y-176415015D02*
X68694985Y-176415015D01*
X100330000Y-182880000D02*
X93865015Y-176415015D01*
X106171999Y-177038001D02*
X100330000Y-182880000D01*
X131318001Y-177038001D02*
X106171999Y-177038001D01*
X132080000Y-177800000D02*
X131318001Y-177038001D01*
%TO.N,3.3v*%
X21679574Y-68558435D02*
X21679574Y-70718244D01*
X22191577Y-67320347D02*
X22122291Y-67483749D01*
X21679574Y-70718244D02*
X21887984Y-70926654D01*
X24353777Y-67320347D02*
X22191577Y-67320347D01*
X21899127Y-68020248D02*
X21679574Y-68558435D01*
X34290000Y-57384124D02*
X24353777Y-67320347D01*
X34290000Y-49530000D02*
X34290000Y-57384124D01*
X22122291Y-67483749D02*
X21899127Y-68020248D01*
X40113949Y-43706051D02*
X34290000Y-49530000D01*
X21887984Y-80989637D02*
X21887984Y-70926654D01*
X16692999Y-86184622D02*
X21887984Y-80989637D01*
X16692999Y-101782999D02*
X16692999Y-86184622D01*
X17780000Y-102870000D02*
X16692999Y-101782999D01*
X24441989Y-109531989D02*
X17780000Y-102870000D01*
X24441989Y-130159249D02*
X24441989Y-109531989D01*
X23042999Y-131558239D02*
X24441989Y-130159249D01*
X23042999Y-133445267D02*
X23042999Y-131558239D01*
X24024386Y-134426654D02*
X23042999Y-133445267D01*
X25102016Y-134426654D02*
X24024386Y-134426654D01*
X31613956Y-140938594D02*
X25102016Y-134426654D01*
X31613956Y-150062718D02*
X31613956Y-140938594D01*
X42097289Y-160546051D02*
X31613956Y-150062718D01*
X43706051Y-160546051D02*
X42097289Y-160546051D01*
X48371248Y-165211248D02*
X43706051Y-160546051D01*
X54277848Y-165211248D02*
X48371248Y-165211248D01*
X67330615Y-178264015D02*
X54277848Y-165211248D01*
X70164655Y-178264015D02*
X67330615Y-178264015D01*
X70926654Y-177502016D02*
X70164655Y-178264015D01*
X101600000Y-184150000D02*
X102870000Y-182880000D01*
X97451238Y-184150000D02*
X101600000Y-184150000D01*
X90803254Y-177502016D02*
X97451238Y-184150000D01*
X70926654Y-177502016D02*
X90803254Y-177502016D01*
X107950000Y-177800000D02*
X127000000Y-177800000D01*
X102870000Y-182880000D02*
X107950000Y-177800000D01*
%TD*%
M02*
