%TF.GenerationSoftware,KiCad,Pcbnew,5.1.9+dfsg1-1+deb11u1*%
%TF.CreationDate,2024-06-09T17:33:59+02:00*%
%TF.ProjectId,pcb_boven,7063625f-626f-4766-956e-2e6b69636164,rev?*%
%TF.SameCoordinates,Original*%
%TF.FileFunction,Legend,Top*%
%TF.FilePolarity,Positive*%
%FSLAX46Y46*%
G04 Gerber Fmt 4.6, Leading zero omitted, Abs format (unit mm)*
G04 Created by KiCad (PCBNEW 5.1.9+dfsg1-1+deb11u1) date 2024-06-09 17:33:59*
%MOMM*%
%LPD*%
G01*
G04 APERTURE LIST*
%ADD10C,0.120000*%
%ADD11C,0.150000*%
%ADD12C,0.100000*%
%ADD13C,0.200000*%
%ADD14C,0.254000*%
G04 APERTURE END LIST*
D10*
%TO.C,Portmultiplexer1*%
X156828000Y-91634000D02*
X155178000Y-91634000D01*
X156828000Y-127314000D02*
X156828000Y-91634000D01*
X151528000Y-127314000D02*
X156828000Y-127314000D01*
X151528000Y-91634000D02*
X151528000Y-127314000D01*
X153178000Y-91634000D02*
X151528000Y-91634000D01*
X155178000Y-91634000D02*
G75*
G02*
X153178000Y-91634000I-1000000J0D01*
G01*
D11*
%TO.C,control_board1*%
X154822026Y-175387000D02*
G75*
G03*
X154822026Y-175387000I-898026J0D01*
G01*
X160274000Y-155702000D02*
X147574000Y-155702000D01*
X160274000Y-168402000D02*
X160274000Y-155702000D01*
X147574000Y-168402000D02*
X160274000Y-168402000D01*
X147574000Y-155702000D02*
X147574000Y-168402000D01*
X160275600Y-146072000D02*
X160025600Y-146072000D01*
X160275600Y-150072000D02*
X160275600Y-146072000D01*
X154025600Y-150072000D02*
X160275600Y-150072000D01*
X154025600Y-146072000D02*
X154025600Y-150072000D01*
X160025600Y-146072000D02*
X154025600Y-146072000D01*
X150624800Y-141681200D02*
X148084800Y-141681200D01*
X150624800Y-139141200D02*
X150624800Y-141681200D01*
X148084800Y-139141200D02*
X150624800Y-139141200D01*
X148084800Y-151841200D02*
X148084800Y-139141200D01*
X150624800Y-151841200D02*
X148084800Y-151841200D01*
X150624800Y-139141200D02*
X150624800Y-151841200D01*
X155194000Y-173482000D02*
X155194000Y-177292000D01*
X152654000Y-173482000D02*
X155194000Y-173482000D01*
X152654000Y-177292000D02*
X152654000Y-173482000D01*
X155194000Y-177292000D02*
X152654000Y-177292000D01*
X148844000Y-192532000D02*
X148844000Y-193802000D01*
X159004000Y-192532000D02*
X148844000Y-192532000D01*
X159004000Y-193802000D02*
X159004000Y-192532000D01*
X147574000Y-181102000D02*
X147574000Y-193802000D01*
X160274000Y-181102000D02*
X147574000Y-181102000D01*
X160274000Y-193802000D02*
X160274000Y-181102000D01*
X150114000Y-132842000D02*
X150114000Y-131572000D01*
X150114000Y-131572000D02*
X157734000Y-131572000D01*
X157734000Y-131572000D02*
X157734000Y-132842000D01*
X150114000Y-137922000D02*
X157734000Y-137922000D01*
X157734000Y-137922000D02*
X157734000Y-132842000D01*
X150114000Y-137922000D02*
X150114000Y-132842000D01*
X162814000Y-132842000D02*
X162814000Y-193802000D01*
X162814000Y-193802000D02*
X145034000Y-193802000D01*
X145034000Y-193802000D02*
X145034000Y-132842000D01*
X145034000Y-132842000D02*
X162814000Y-132842000D01*
D12*
G36*
X153469000Y-165757000D02*
G01*
X153215000Y-165503000D01*
X153596000Y-165249000D01*
X153850000Y-165503000D01*
X153469000Y-165757000D01*
G37*
X153469000Y-165757000D02*
X153215000Y-165503000D01*
X153596000Y-165249000D01*
X153850000Y-165503000D01*
X153469000Y-165757000D01*
G36*
X153977000Y-165376000D02*
G01*
X153723000Y-165122000D01*
X154104000Y-164868000D01*
X154358000Y-165122000D01*
X153977000Y-165376000D01*
G37*
X153977000Y-165376000D02*
X153723000Y-165122000D01*
X154104000Y-164868000D01*
X154358000Y-165122000D01*
X153977000Y-165376000D01*
G36*
X154485000Y-164995000D02*
G01*
X154231000Y-164741000D01*
X154612000Y-164487000D01*
X154866000Y-164741000D01*
X154485000Y-164995000D01*
G37*
X154485000Y-164995000D02*
X154231000Y-164741000D01*
X154612000Y-164487000D01*
X154866000Y-164741000D01*
X154485000Y-164995000D01*
G36*
X153596000Y-164995000D02*
G01*
X153342000Y-164741000D01*
X153723000Y-164487000D01*
X153977000Y-164741000D01*
X153596000Y-164995000D01*
G37*
X153596000Y-164995000D02*
X153342000Y-164741000D01*
X153723000Y-164487000D01*
X153977000Y-164741000D01*
X153596000Y-164995000D01*
G36*
X154104000Y-164614000D02*
G01*
X153850000Y-164360000D01*
X154231000Y-164106000D01*
X154485000Y-164360000D01*
X154104000Y-164614000D01*
G37*
X154104000Y-164614000D02*
X153850000Y-164360000D01*
X154231000Y-164106000D01*
X154485000Y-164360000D01*
X154104000Y-164614000D01*
G36*
X154612000Y-164233000D02*
G01*
X154358000Y-163979000D01*
X154739000Y-163725000D01*
X154993000Y-163979000D01*
X154612000Y-164233000D01*
G37*
X154612000Y-164233000D02*
X154358000Y-163979000D01*
X154739000Y-163725000D01*
X154993000Y-163979000D01*
X154612000Y-164233000D01*
G36*
X153850000Y-166138000D02*
G01*
X153596000Y-165884000D01*
X153977000Y-165630000D01*
X154231000Y-165884000D01*
X153850000Y-166138000D01*
G37*
X153850000Y-166138000D02*
X153596000Y-165884000D01*
X153977000Y-165630000D01*
X154231000Y-165884000D01*
X153850000Y-166138000D01*
G36*
X154231000Y-166519000D02*
G01*
X153977000Y-166265000D01*
X154358000Y-166011000D01*
X154612000Y-166265000D01*
X154231000Y-166519000D01*
G37*
X154231000Y-166519000D02*
X153977000Y-166265000D01*
X154358000Y-166011000D01*
X154612000Y-166265000D01*
X154231000Y-166519000D01*
D10*
%TO.C,U2*%
X193449056Y-136652000D02*
G75*
G03*
X193449056Y-136652000I-7775056J0D01*
G01*
X167894000Y-136652000D02*
X203454000Y-136652000D01*
X167894000Y-128397000D02*
X167894000Y-136652000D01*
X167894000Y-172847000D02*
X185674000Y-172847000D01*
X167894000Y-128397000D02*
X167894000Y-172847000D01*
X203454000Y-128397000D02*
X167894000Y-128397000D01*
X203454000Y-172847000D02*
X203454000Y-128397000D01*
X185674000Y-172847000D02*
X203454000Y-172847000D01*
%TO.C,xt60*%
X224604000Y-96292000D02*
X227454000Y-98892000D01*
X227454000Y-90592000D02*
X224604000Y-93142000D01*
X240304000Y-98892000D02*
X240304000Y-90592000D01*
X227454000Y-98892000D02*
X240304000Y-98892000D01*
X224604000Y-93142000D02*
X224604000Y-96292000D01*
X240304000Y-90592000D02*
X227454000Y-90592000D01*
%TO.C,xt30*%
X213825000Y-88506000D02*
X213825000Y-91326000D01*
X213825000Y-91326000D02*
X215525000Y-92626000D01*
X213825000Y-88506000D02*
X215525000Y-87206000D01*
X215525000Y-92626000D02*
X224245000Y-92626000D01*
X224245000Y-87206000D02*
X224245000Y-92626000D01*
X215525000Y-87206000D02*
X224245000Y-87206000D01*
D13*
%TO.C,5V_converter1*%
X245364000Y-108342000D02*
X244944000Y-108342000D01*
X245364000Y-119242000D02*
X245364000Y-108342000D01*
X245144000Y-119242000D02*
X245364000Y-119242000D01*
X237344000Y-119242000D02*
X240544000Y-119242000D01*
X237344000Y-108342000D02*
X240544000Y-108342000D01*
X230124000Y-108342000D02*
X230344000Y-108342000D01*
X230124000Y-119242000D02*
X230124000Y-108342000D01*
X230344000Y-119242000D02*
X230124000Y-119242000D01*
D12*
X231394000Y-120292000D02*
X231394000Y-120292000D01*
X231394000Y-120392000D02*
X231394000Y-120392000D01*
X231394000Y-120292000D02*
G75*
G02*
X231394000Y-120392000I0J-50000D01*
G01*
X231394000Y-120392000D02*
G75*
G02*
X231394000Y-120292000I0J50000D01*
G01*
D13*
%TO.C,3V3_converter1*%
X161984000Y-82042000D02*
X161984000Y-82042000D01*
X162084000Y-82042000D02*
X162084000Y-82042000D01*
X161984000Y-82042000D02*
X161984000Y-82042000D01*
X165504000Y-80862000D02*
X165504000Y-79112000D01*
X165504000Y-80862000D02*
X165504000Y-80862000D01*
X165504000Y-79112000D02*
X165504000Y-80862000D01*
X165504000Y-79112000D02*
X165504000Y-79112000D01*
X188064000Y-79112000D02*
X188064000Y-79112000D01*
X165504000Y-79112000D02*
X188064000Y-79112000D01*
X165504000Y-79112000D02*
X165504000Y-79112000D01*
X188064000Y-79112000D02*
X165504000Y-79112000D01*
X188064000Y-79112000D02*
X188064000Y-80862000D01*
X188064000Y-79112000D02*
X188064000Y-79112000D01*
X188064000Y-80862000D02*
X188064000Y-79112000D01*
X188064000Y-80862000D02*
X188064000Y-80862000D01*
X188064000Y-83262000D02*
X188064000Y-85862000D01*
X188064000Y-83262000D02*
X188064000Y-83262000D01*
X188064000Y-85862000D02*
X188064000Y-83262000D01*
X188064000Y-85862000D02*
X188064000Y-85862000D01*
X188064000Y-88262000D02*
X188064000Y-91062000D01*
X188064000Y-88262000D02*
X188064000Y-88262000D01*
X188064000Y-91062000D02*
X188064000Y-88262000D01*
X188064000Y-91062000D02*
X188064000Y-91062000D01*
X188064000Y-93462000D02*
X188064000Y-96062000D01*
X188064000Y-93462000D02*
X188064000Y-93462000D01*
X188064000Y-96062000D02*
X188064000Y-93462000D01*
X188064000Y-96062000D02*
X188064000Y-96062000D01*
X188064000Y-98462000D02*
X188064000Y-100212000D01*
X188064000Y-98462000D02*
X188064000Y-98462000D01*
X188064000Y-100212000D02*
X188064000Y-98462000D01*
X188064000Y-100212000D02*
X188064000Y-100212000D01*
X165504000Y-100212000D02*
X165504000Y-100212000D01*
X188064000Y-100212000D02*
X165504000Y-100212000D01*
X188064000Y-100212000D02*
X188064000Y-100212000D01*
X165504000Y-100212000D02*
X188064000Y-100212000D01*
X165504000Y-100212000D02*
X165504000Y-98462000D01*
X165504000Y-100212000D02*
X165504000Y-100212000D01*
X165504000Y-98462000D02*
X165504000Y-100212000D01*
X165504000Y-98462000D02*
X165504000Y-98462000D01*
X165504000Y-96262000D02*
X165504000Y-93262000D01*
X165504000Y-96262000D02*
X165504000Y-96262000D01*
X165504000Y-93262000D02*
X165504000Y-96262000D01*
X165504000Y-93262000D02*
X165504000Y-93262000D01*
X165504000Y-91062000D02*
X165504000Y-83062000D01*
X165504000Y-91062000D02*
X165504000Y-91062000D01*
X165504000Y-83062000D02*
X165504000Y-91062000D01*
X165504000Y-83062000D02*
X165504000Y-83062000D01*
X162084000Y-82042000D02*
G75*
G02*
X161984000Y-82042000I-50000J0D01*
G01*
X161984000Y-82042000D02*
G75*
G02*
X162084000Y-82042000I50000J0D01*
G01*
X162084000Y-82042000D02*
G75*
G02*
X161984000Y-82042000I-50000J0D01*
G01*
D10*
%TO.C,U1*%
X211074000Y-117602000D02*
X211074000Y-137922000D01*
X223774000Y-117602000D02*
X211074000Y-117602000D01*
X223774000Y-137922000D02*
X223774000Y-117602000D01*
X211074000Y-137922000D02*
X223774000Y-137922000D01*
X217424000Y-137922000D02*
X211074000Y-137922000D01*
%TO.C,screwhoel1*%
D11*
X181634309Y-216293261D02*
X181729547Y-216340880D01*
X181920023Y-216340880D01*
X182015261Y-216293261D01*
X182062880Y-216198023D01*
X182062880Y-216150404D01*
X182015261Y-216055166D01*
X181920023Y-216007547D01*
X181777166Y-216007547D01*
X181681928Y-215959928D01*
X181634309Y-215864690D01*
X181634309Y-215817071D01*
X181681928Y-215721833D01*
X181777166Y-215674214D01*
X181920023Y-215674214D01*
X182015261Y-215721833D01*
X182920023Y-216293261D02*
X182824785Y-216340880D01*
X182634309Y-216340880D01*
X182539071Y-216293261D01*
X182491452Y-216245642D01*
X182443833Y-216150404D01*
X182443833Y-215864690D01*
X182491452Y-215769452D01*
X182539071Y-215721833D01*
X182634309Y-215674214D01*
X182824785Y-215674214D01*
X182920023Y-215721833D01*
X183348595Y-216340880D02*
X183348595Y-215674214D01*
X183348595Y-215864690D02*
X183396214Y-215769452D01*
X183443833Y-215721833D01*
X183539071Y-215674214D01*
X183634309Y-215674214D01*
X184348595Y-216293261D02*
X184253357Y-216340880D01*
X184062880Y-216340880D01*
X183967642Y-216293261D01*
X183920023Y-216198023D01*
X183920023Y-215817071D01*
X183967642Y-215721833D01*
X184062880Y-215674214D01*
X184253357Y-215674214D01*
X184348595Y-215721833D01*
X184396214Y-215817071D01*
X184396214Y-215912309D01*
X183920023Y-216007547D01*
X184729547Y-215674214D02*
X184920023Y-216340880D01*
X185110500Y-215864690D01*
X185300976Y-216340880D01*
X185491452Y-215674214D01*
X185872404Y-216340880D02*
X185872404Y-215340880D01*
X186300976Y-216340880D02*
X186300976Y-215817071D01*
X186253357Y-215721833D01*
X186158119Y-215674214D01*
X186015261Y-215674214D01*
X185920023Y-215721833D01*
X185872404Y-215769452D01*
X186920023Y-216340880D02*
X186824785Y-216293261D01*
X186777166Y-216245642D01*
X186729547Y-216150404D01*
X186729547Y-215864690D01*
X186777166Y-215769452D01*
X186824785Y-215721833D01*
X186920023Y-215674214D01*
X187062880Y-215674214D01*
X187158119Y-215721833D01*
X187205738Y-215769452D01*
X187253357Y-215864690D01*
X187253357Y-216150404D01*
X187205738Y-216245642D01*
X187158119Y-216293261D01*
X187062880Y-216340880D01*
X186920023Y-216340880D01*
X188062880Y-216293261D02*
X187967642Y-216340880D01*
X187777166Y-216340880D01*
X187681928Y-216293261D01*
X187634309Y-216198023D01*
X187634309Y-215817071D01*
X187681928Y-215721833D01*
X187777166Y-215674214D01*
X187967642Y-215674214D01*
X188062880Y-215721833D01*
X188110500Y-215817071D01*
X188110500Y-215912309D01*
X187634309Y-216007547D01*
X188681928Y-216340880D02*
X188586690Y-216293261D01*
X188539071Y-216198023D01*
X188539071Y-215340880D01*
X189586690Y-216340880D02*
X189015261Y-216340880D01*
X189300976Y-216340880D02*
X189300976Y-215340880D01*
X189205738Y-215483738D01*
X189110500Y-215578976D01*
X189015261Y-215626595D01*
X108992099Y-174353260D02*
X109087337Y-174400879D01*
X109277813Y-174400879D01*
X109373051Y-174353260D01*
X109420670Y-174258022D01*
X109420670Y-174210403D01*
X109373051Y-174115165D01*
X109277813Y-174067546D01*
X109134956Y-174067546D01*
X109039718Y-174019927D01*
X108992099Y-173924689D01*
X108992099Y-173877070D01*
X109039718Y-173781832D01*
X109134956Y-173734213D01*
X109277813Y-173734213D01*
X109373051Y-173781832D01*
X110277813Y-174353260D02*
X110182575Y-174400879D01*
X109992099Y-174400879D01*
X109896861Y-174353260D01*
X109849242Y-174305641D01*
X109801623Y-174210403D01*
X109801623Y-173924689D01*
X109849242Y-173829451D01*
X109896861Y-173781832D01*
X109992099Y-173734213D01*
X110182575Y-173734213D01*
X110277813Y-173781832D01*
X110706385Y-174400879D02*
X110706385Y-173734213D01*
X110706385Y-173924689D02*
X110754004Y-173829451D01*
X110801623Y-173781832D01*
X110896861Y-173734213D01*
X110992099Y-173734213D01*
X111706385Y-174353260D02*
X111611147Y-174400879D01*
X111420670Y-174400879D01*
X111325432Y-174353260D01*
X111277813Y-174258022D01*
X111277813Y-173877070D01*
X111325432Y-173781832D01*
X111420670Y-173734213D01*
X111611147Y-173734213D01*
X111706385Y-173781832D01*
X111754004Y-173877070D01*
X111754004Y-173972308D01*
X111277813Y-174067546D01*
X112087337Y-173734213D02*
X112277813Y-174400879D01*
X112468290Y-173924689D01*
X112658766Y-174400879D01*
X112849242Y-173734213D01*
X113230194Y-174400879D02*
X113230194Y-173400879D01*
X113658766Y-174400879D02*
X113658766Y-173877070D01*
X113611147Y-173781832D01*
X113515909Y-173734213D01*
X113373051Y-173734213D01*
X113277813Y-173781832D01*
X113230194Y-173829451D01*
X114277813Y-174400879D02*
X114182575Y-174353260D01*
X114134956Y-174305641D01*
X114087337Y-174210403D01*
X114087337Y-173924689D01*
X114134956Y-173829451D01*
X114182575Y-173781832D01*
X114277813Y-173734213D01*
X114420670Y-173734213D01*
X114515909Y-173781832D01*
X114563528Y-173829451D01*
X114611147Y-173924689D01*
X114611147Y-174210403D01*
X114563528Y-174305641D01*
X114515909Y-174353260D01*
X114420670Y-174400879D01*
X114277813Y-174400879D01*
X115420670Y-174353260D02*
X115325432Y-174400879D01*
X115134956Y-174400879D01*
X115039718Y-174353260D01*
X114992099Y-174258022D01*
X114992099Y-173877070D01*
X115039718Y-173781832D01*
X115134956Y-173734213D01*
X115325432Y-173734213D01*
X115420670Y-173781832D01*
X115468290Y-173877070D01*
X115468290Y-173972308D01*
X114992099Y-174067546D01*
X116039718Y-174400879D02*
X115944480Y-174353260D01*
X115896861Y-174258022D01*
X115896861Y-173400879D01*
X116944480Y-174400879D02*
X116373051Y-174400879D01*
X116658766Y-174400879D02*
X116658766Y-173400879D01*
X116563528Y-173543737D01*
X116468290Y-173638975D01*
X116373051Y-173686594D01*
X181697809Y-48593261D02*
X181793047Y-48640880D01*
X181983523Y-48640880D01*
X182078761Y-48593261D01*
X182126380Y-48498023D01*
X182126380Y-48450404D01*
X182078761Y-48355166D01*
X181983523Y-48307547D01*
X181840666Y-48307547D01*
X181745428Y-48259928D01*
X181697809Y-48164690D01*
X181697809Y-48117071D01*
X181745428Y-48021833D01*
X181840666Y-47974214D01*
X181983523Y-47974214D01*
X182078761Y-48021833D01*
X182983523Y-48593261D02*
X182888285Y-48640880D01*
X182697809Y-48640880D01*
X182602571Y-48593261D01*
X182554952Y-48545642D01*
X182507333Y-48450404D01*
X182507333Y-48164690D01*
X182554952Y-48069452D01*
X182602571Y-48021833D01*
X182697809Y-47974214D01*
X182888285Y-47974214D01*
X182983523Y-48021833D01*
X183412095Y-48640880D02*
X183412095Y-47974214D01*
X183412095Y-48164690D02*
X183459714Y-48069452D01*
X183507333Y-48021833D01*
X183602571Y-47974214D01*
X183697809Y-47974214D01*
X184412095Y-48593261D02*
X184316857Y-48640880D01*
X184126380Y-48640880D01*
X184031142Y-48593261D01*
X183983523Y-48498023D01*
X183983523Y-48117071D01*
X184031142Y-48021833D01*
X184126380Y-47974214D01*
X184316857Y-47974214D01*
X184412095Y-48021833D01*
X184459714Y-48117071D01*
X184459714Y-48212309D01*
X183983523Y-48307547D01*
X184793047Y-47974214D02*
X184983523Y-48640880D01*
X185174000Y-48164690D01*
X185364476Y-48640880D01*
X185554952Y-47974214D01*
X185935904Y-48640880D02*
X185935904Y-47640880D01*
X186364476Y-48640880D02*
X186364476Y-48117071D01*
X186316857Y-48021833D01*
X186221619Y-47974214D01*
X186078761Y-47974214D01*
X185983523Y-48021833D01*
X185935904Y-48069452D01*
X186983523Y-48640880D02*
X186888285Y-48593261D01*
X186840666Y-48545642D01*
X186793047Y-48450404D01*
X186793047Y-48164690D01*
X186840666Y-48069452D01*
X186888285Y-48021833D01*
X186983523Y-47974214D01*
X187126380Y-47974214D01*
X187221619Y-48021833D01*
X187269238Y-48069452D01*
X187316857Y-48164690D01*
X187316857Y-48450404D01*
X187269238Y-48545642D01*
X187221619Y-48593261D01*
X187126380Y-48640880D01*
X186983523Y-48640880D01*
X188126380Y-48593261D02*
X188031142Y-48640880D01*
X187840666Y-48640880D01*
X187745428Y-48593261D01*
X187697809Y-48498023D01*
X187697809Y-48117071D01*
X187745428Y-48021833D01*
X187840666Y-47974214D01*
X188031142Y-47974214D01*
X188126380Y-48021833D01*
X188174000Y-48117071D01*
X188174000Y-48212309D01*
X187697809Y-48307547D01*
X188745428Y-48640880D02*
X188650190Y-48593261D01*
X188602571Y-48498023D01*
X188602571Y-47640880D01*
X189650190Y-48640880D02*
X189078761Y-48640880D01*
X189364476Y-48640880D02*
X189364476Y-47640880D01*
X189269238Y-47783738D01*
X189174000Y-47878976D01*
X189078761Y-47926595D01*
X263237471Y-182504689D02*
X263285090Y-182409451D01*
X263285090Y-182218975D01*
X263237471Y-182123737D01*
X263142233Y-182076118D01*
X263094614Y-182076118D01*
X262999376Y-182123737D01*
X262951757Y-182218975D01*
X262951757Y-182361832D01*
X262904138Y-182457070D01*
X262808900Y-182504689D01*
X262761281Y-182504689D01*
X262666043Y-182457070D01*
X262618424Y-182361832D01*
X262618424Y-182218975D01*
X262666043Y-182123737D01*
X263237471Y-181218975D02*
X263285090Y-181314213D01*
X263285090Y-181504689D01*
X263237471Y-181599927D01*
X263189852Y-181647546D01*
X263094614Y-181695165D01*
X262808900Y-181695165D01*
X262713662Y-181647546D01*
X262666043Y-181599927D01*
X262618424Y-181504689D01*
X262618424Y-181314213D01*
X262666043Y-181218975D01*
X263285090Y-180790403D02*
X262618424Y-180790403D01*
X262808900Y-180790403D02*
X262713662Y-180742784D01*
X262666043Y-180695165D01*
X262618424Y-180599927D01*
X262618424Y-180504689D01*
X263237471Y-179790403D02*
X263285090Y-179885641D01*
X263285090Y-180076118D01*
X263237471Y-180171356D01*
X263142233Y-180218975D01*
X262761281Y-180218975D01*
X262666043Y-180171356D01*
X262618424Y-180076118D01*
X262618424Y-179885641D01*
X262666043Y-179790403D01*
X262761281Y-179742784D01*
X262856519Y-179742784D01*
X262951757Y-180218975D01*
X262618424Y-179409451D02*
X263285090Y-179218975D01*
X262808900Y-179028499D01*
X263285090Y-178838022D01*
X262618424Y-178647546D01*
X263285090Y-178266594D02*
X262285090Y-178266594D01*
X263285090Y-177838022D02*
X262761281Y-177838022D01*
X262666043Y-177885641D01*
X262618424Y-177980879D01*
X262618424Y-178123737D01*
X262666043Y-178218975D01*
X262713662Y-178266594D01*
X263285090Y-177218975D02*
X263237471Y-177314213D01*
X263189852Y-177361832D01*
X263094614Y-177409451D01*
X262808900Y-177409451D01*
X262713662Y-177361832D01*
X262666043Y-177314213D01*
X262618424Y-177218975D01*
X262618424Y-177076118D01*
X262666043Y-176980879D01*
X262713662Y-176933260D01*
X262808900Y-176885641D01*
X263094614Y-176885641D01*
X263189852Y-176933260D01*
X263237471Y-176980879D01*
X263285090Y-177076118D01*
X263285090Y-177218975D01*
X263237471Y-176076118D02*
X263285090Y-176171356D01*
X263285090Y-176361832D01*
X263237471Y-176457070D01*
X263142233Y-176504689D01*
X262761281Y-176504689D01*
X262666043Y-176457070D01*
X262618424Y-176361832D01*
X262618424Y-176171356D01*
X262666043Y-176076118D01*
X262761281Y-176028499D01*
X262856519Y-176028499D01*
X262951757Y-176504689D01*
X263285090Y-175457070D02*
X263237471Y-175552308D01*
X263142233Y-175599927D01*
X262285090Y-175599927D01*
X263285090Y-174552308D02*
X263285090Y-175123737D01*
X263285090Y-174838022D02*
X262285090Y-174838022D01*
X262427948Y-174933260D01*
X262523186Y-175028499D01*
X262570805Y-175123737D01*
X254276519Y-90473262D02*
X254371757Y-90520881D01*
X254562233Y-90520881D01*
X254657471Y-90473262D01*
X254705090Y-90378024D01*
X254705090Y-90330405D01*
X254657471Y-90235167D01*
X254562233Y-90187548D01*
X254419376Y-90187548D01*
X254324138Y-90139929D01*
X254276519Y-90044691D01*
X254276519Y-89997072D01*
X254324138Y-89901834D01*
X254419376Y-89854215D01*
X254562233Y-89854215D01*
X254657471Y-89901834D01*
X255562233Y-90473262D02*
X255466995Y-90520881D01*
X255276519Y-90520881D01*
X255181281Y-90473262D01*
X255133662Y-90425643D01*
X255086043Y-90330405D01*
X255086043Y-90044691D01*
X255133662Y-89949453D01*
X255181281Y-89901834D01*
X255276519Y-89854215D01*
X255466995Y-89854215D01*
X255562233Y-89901834D01*
X255990805Y-90520881D02*
X255990805Y-89854215D01*
X255990805Y-90044691D02*
X256038424Y-89949453D01*
X256086043Y-89901834D01*
X256181281Y-89854215D01*
X256276519Y-89854215D01*
X256990805Y-90473262D02*
X256895567Y-90520881D01*
X256705090Y-90520881D01*
X256609852Y-90473262D01*
X256562233Y-90378024D01*
X256562233Y-89997072D01*
X256609852Y-89901834D01*
X256705090Y-89854215D01*
X256895567Y-89854215D01*
X256990805Y-89901834D01*
X257038424Y-89997072D01*
X257038424Y-90092310D01*
X256562233Y-90187548D01*
X257371757Y-89854215D02*
X257562233Y-90520881D01*
X257752710Y-90044691D01*
X257943186Y-90520881D01*
X258133662Y-89854215D01*
X258514614Y-90520881D02*
X258514614Y-89520881D01*
X258943186Y-90520881D02*
X258943186Y-89997072D01*
X258895567Y-89901834D01*
X258800329Y-89854215D01*
X258657471Y-89854215D01*
X258562233Y-89901834D01*
X258514614Y-89949453D01*
X259562233Y-90520881D02*
X259466995Y-90473262D01*
X259419376Y-90425643D01*
X259371757Y-90330405D01*
X259371757Y-90044691D01*
X259419376Y-89949453D01*
X259466995Y-89901834D01*
X259562233Y-89854215D01*
X259705090Y-89854215D01*
X259800329Y-89901834D01*
X259847948Y-89949453D01*
X259895567Y-90044691D01*
X259895567Y-90330405D01*
X259847948Y-90425643D01*
X259800329Y-90473262D01*
X259705090Y-90520881D01*
X259562233Y-90520881D01*
X260705090Y-90473262D02*
X260609852Y-90520881D01*
X260419376Y-90520881D01*
X260324138Y-90473262D01*
X260276519Y-90378024D01*
X260276519Y-89997072D01*
X260324138Y-89901834D01*
X260419376Y-89854215D01*
X260609852Y-89854215D01*
X260705090Y-89901834D01*
X260752710Y-89997072D01*
X260752710Y-90092310D01*
X260276519Y-90187548D01*
X261324138Y-90520881D02*
X261228900Y-90473262D01*
X261181281Y-90378024D01*
X261181281Y-89520881D01*
X262228900Y-90520881D02*
X261657471Y-90520881D01*
X261943186Y-90520881D02*
X261943186Y-89520881D01*
X261847948Y-89663739D01*
X261752710Y-89758977D01*
X261657471Y-89806596D01*
X108992099Y-90473262D02*
X109087337Y-90520881D01*
X109277813Y-90520881D01*
X109373051Y-90473262D01*
X109420670Y-90378024D01*
X109420670Y-90330405D01*
X109373051Y-90235167D01*
X109277813Y-90187548D01*
X109134956Y-90187548D01*
X109039718Y-90139929D01*
X108992099Y-90044691D01*
X108992099Y-89997072D01*
X109039718Y-89901834D01*
X109134956Y-89854215D01*
X109277813Y-89854215D01*
X109373051Y-89901834D01*
X110277813Y-90473262D02*
X110182575Y-90520881D01*
X109992099Y-90520881D01*
X109896861Y-90473262D01*
X109849242Y-90425643D01*
X109801623Y-90330405D01*
X109801623Y-90044691D01*
X109849242Y-89949453D01*
X109896861Y-89901834D01*
X109992099Y-89854215D01*
X110182575Y-89854215D01*
X110277813Y-89901834D01*
X110706385Y-90520881D02*
X110706385Y-89854215D01*
X110706385Y-90044691D02*
X110754004Y-89949453D01*
X110801623Y-89901834D01*
X110896861Y-89854215D01*
X110992099Y-89854215D01*
X111706385Y-90473262D02*
X111611147Y-90520881D01*
X111420670Y-90520881D01*
X111325432Y-90473262D01*
X111277813Y-90378024D01*
X111277813Y-89997072D01*
X111325432Y-89901834D01*
X111420670Y-89854215D01*
X111611147Y-89854215D01*
X111706385Y-89901834D01*
X111754004Y-89997072D01*
X111754004Y-90092310D01*
X111277813Y-90187548D01*
X112087337Y-89854215D02*
X112277813Y-90520881D01*
X112468290Y-90044691D01*
X112658766Y-90520881D01*
X112849242Y-89854215D01*
X113230194Y-90520881D02*
X113230194Y-89520881D01*
X113658766Y-90520881D02*
X113658766Y-89997072D01*
X113611147Y-89901834D01*
X113515909Y-89854215D01*
X113373051Y-89854215D01*
X113277813Y-89901834D01*
X113230194Y-89949453D01*
X114277813Y-90520881D02*
X114182575Y-90473262D01*
X114134956Y-90425643D01*
X114087337Y-90330405D01*
X114087337Y-90044691D01*
X114134956Y-89949453D01*
X114182575Y-89901834D01*
X114277813Y-89854215D01*
X114420670Y-89854215D01*
X114515909Y-89901834D01*
X114563528Y-89949453D01*
X114611147Y-90044691D01*
X114611147Y-90330405D01*
X114563528Y-90425643D01*
X114515909Y-90473262D01*
X114420670Y-90520881D01*
X114277813Y-90520881D01*
X115420670Y-90473262D02*
X115325432Y-90520881D01*
X115134956Y-90520881D01*
X115039718Y-90473262D01*
X114992099Y-90378024D01*
X114992099Y-89997072D01*
X115039718Y-89901834D01*
X115134956Y-89854215D01*
X115325432Y-89854215D01*
X115420670Y-89901834D01*
X115468290Y-89997072D01*
X115468290Y-90092310D01*
X114992099Y-90187548D01*
X116039718Y-90520881D02*
X115944480Y-90473262D01*
X115896861Y-90378024D01*
X115896861Y-89520881D01*
X116944480Y-90520881D02*
X116373051Y-90520881D01*
X116658766Y-90520881D02*
X116658766Y-89520881D01*
X116563528Y-89663739D01*
X116468290Y-89758977D01*
X116373051Y-89806596D01*
X181697809Y-48593261D02*
X181793047Y-48640880D01*
X181983523Y-48640880D01*
X182078761Y-48593261D01*
X182126380Y-48498023D01*
X182126380Y-48450404D01*
X182078761Y-48355166D01*
X181983523Y-48307547D01*
X181840666Y-48307547D01*
X181745428Y-48259928D01*
X181697809Y-48164690D01*
X181697809Y-48117071D01*
X181745428Y-48021833D01*
X181840666Y-47974214D01*
X181983523Y-47974214D01*
X182078761Y-48021833D01*
X182983523Y-48593261D02*
X182888285Y-48640880D01*
X182697809Y-48640880D01*
X182602571Y-48593261D01*
X182554952Y-48545642D01*
X182507333Y-48450404D01*
X182507333Y-48164690D01*
X182554952Y-48069452D01*
X182602571Y-48021833D01*
X182697809Y-47974214D01*
X182888285Y-47974214D01*
X182983523Y-48021833D01*
X183412095Y-48640880D02*
X183412095Y-47974214D01*
X183412095Y-48164690D02*
X183459714Y-48069452D01*
X183507333Y-48021833D01*
X183602571Y-47974214D01*
X183697809Y-47974214D01*
X184412095Y-48593261D02*
X184316857Y-48640880D01*
X184126380Y-48640880D01*
X184031142Y-48593261D01*
X183983523Y-48498023D01*
X183983523Y-48117071D01*
X184031142Y-48021833D01*
X184126380Y-47974214D01*
X184316857Y-47974214D01*
X184412095Y-48021833D01*
X184459714Y-48117071D01*
X184459714Y-48212309D01*
X183983523Y-48307547D01*
X184793047Y-47974214D02*
X184983523Y-48640880D01*
X185174000Y-48164690D01*
X185364476Y-48640880D01*
X185554952Y-47974214D01*
X185935904Y-48640880D02*
X185935904Y-47640880D01*
X186364476Y-48640880D02*
X186364476Y-48117071D01*
X186316857Y-48021833D01*
X186221619Y-47974214D01*
X186078761Y-47974214D01*
X185983523Y-48021833D01*
X185935904Y-48069452D01*
X186983523Y-48640880D02*
X186888285Y-48593261D01*
X186840666Y-48545642D01*
X186793047Y-48450404D01*
X186793047Y-48164690D01*
X186840666Y-48069452D01*
X186888285Y-48021833D01*
X186983523Y-47974214D01*
X187126380Y-47974214D01*
X187221619Y-48021833D01*
X187269238Y-48069452D01*
X187316857Y-48164690D01*
X187316857Y-48450404D01*
X187269238Y-48545642D01*
X187221619Y-48593261D01*
X187126380Y-48640880D01*
X186983523Y-48640880D01*
X188126380Y-48593261D02*
X188031142Y-48640880D01*
X187840666Y-48640880D01*
X187745428Y-48593261D01*
X187697809Y-48498023D01*
X187697809Y-48117071D01*
X187745428Y-48021833D01*
X187840666Y-47974214D01*
X188031142Y-47974214D01*
X188126380Y-48021833D01*
X188174000Y-48117071D01*
X188174000Y-48212309D01*
X187697809Y-48307547D01*
X188745428Y-48640880D02*
X188650190Y-48593261D01*
X188602571Y-48498023D01*
X188602571Y-47640880D01*
X189650190Y-48640880D02*
X189078761Y-48640880D01*
X189364476Y-48640880D02*
X189364476Y-47640880D01*
X189269238Y-47783738D01*
X189174000Y-47878976D01*
X189078761Y-47926595D01*
%TO.C,Portmultiplexer1*%
X148201809Y-91086380D02*
X148201809Y-90086380D01*
X148582761Y-90086380D01*
X148678000Y-90134000D01*
X148725619Y-90181619D01*
X148773238Y-90276857D01*
X148773238Y-90419714D01*
X148725619Y-90514952D01*
X148678000Y-90562571D01*
X148582761Y-90610190D01*
X148201809Y-90610190D01*
X149344666Y-91086380D02*
X149249428Y-91038761D01*
X149201809Y-90991142D01*
X149154190Y-90895904D01*
X149154190Y-90610190D01*
X149201809Y-90514952D01*
X149249428Y-90467333D01*
X149344666Y-90419714D01*
X149487523Y-90419714D01*
X149582761Y-90467333D01*
X149630380Y-90514952D01*
X149678000Y-90610190D01*
X149678000Y-90895904D01*
X149630380Y-90991142D01*
X149582761Y-91038761D01*
X149487523Y-91086380D01*
X149344666Y-91086380D01*
X150106571Y-91086380D02*
X150106571Y-90419714D01*
X150106571Y-90610190D02*
X150154190Y-90514952D01*
X150201809Y-90467333D01*
X150297047Y-90419714D01*
X150392285Y-90419714D01*
X150582761Y-90419714D02*
X150963714Y-90419714D01*
X150725619Y-90086380D02*
X150725619Y-90943523D01*
X150773238Y-91038761D01*
X150868476Y-91086380D01*
X150963714Y-91086380D01*
X151297047Y-91086380D02*
X151297047Y-90419714D01*
X151297047Y-90514952D02*
X151344666Y-90467333D01*
X151439904Y-90419714D01*
X151582761Y-90419714D01*
X151678000Y-90467333D01*
X151725619Y-90562571D01*
X151725619Y-91086380D01*
X151725619Y-90562571D02*
X151773238Y-90467333D01*
X151868476Y-90419714D01*
X152011333Y-90419714D01*
X152106571Y-90467333D01*
X152154190Y-90562571D01*
X152154190Y-91086380D01*
X153058952Y-90419714D02*
X153058952Y-91086380D01*
X152630380Y-90419714D02*
X152630380Y-90943523D01*
X152678000Y-91038761D01*
X152773238Y-91086380D01*
X152916095Y-91086380D01*
X153011333Y-91038761D01*
X153058952Y-90991142D01*
X153678000Y-91086380D02*
X153582761Y-91038761D01*
X153535142Y-90943523D01*
X153535142Y-90086380D01*
X153916095Y-90419714D02*
X154297047Y-90419714D01*
X154058952Y-90086380D02*
X154058952Y-90943523D01*
X154106571Y-91038761D01*
X154201809Y-91086380D01*
X154297047Y-91086380D01*
X154630380Y-91086380D02*
X154630380Y-90419714D01*
X154630380Y-90086380D02*
X154582761Y-90134000D01*
X154630380Y-90181619D01*
X154678000Y-90134000D01*
X154630380Y-90086380D01*
X154630380Y-90181619D01*
X155106571Y-90419714D02*
X155106571Y-91419714D01*
X155106571Y-90467333D02*
X155201809Y-90419714D01*
X155392285Y-90419714D01*
X155487523Y-90467333D01*
X155535142Y-90514952D01*
X155582761Y-90610190D01*
X155582761Y-90895904D01*
X155535142Y-90991142D01*
X155487523Y-91038761D01*
X155392285Y-91086380D01*
X155201809Y-91086380D01*
X155106571Y-91038761D01*
X156154190Y-91086380D02*
X156058952Y-91038761D01*
X156011333Y-90943523D01*
X156011333Y-90086380D01*
X156916095Y-91038761D02*
X156820857Y-91086380D01*
X156630380Y-91086380D01*
X156535142Y-91038761D01*
X156487523Y-90943523D01*
X156487523Y-90562571D01*
X156535142Y-90467333D01*
X156630380Y-90419714D01*
X156820857Y-90419714D01*
X156916095Y-90467333D01*
X156963714Y-90562571D01*
X156963714Y-90657809D01*
X156487523Y-90753047D01*
X157297047Y-91086380D02*
X157820857Y-90419714D01*
X157297047Y-90419714D02*
X157820857Y-91086380D01*
X158582761Y-91038761D02*
X158487523Y-91086380D01*
X158297047Y-91086380D01*
X158201809Y-91038761D01*
X158154190Y-90943523D01*
X158154190Y-90562571D01*
X158201809Y-90467333D01*
X158297047Y-90419714D01*
X158487523Y-90419714D01*
X158582761Y-90467333D01*
X158630380Y-90562571D01*
X158630380Y-90657809D01*
X158154190Y-90753047D01*
X159058952Y-91086380D02*
X159058952Y-90419714D01*
X159058952Y-90610190D02*
X159106571Y-90514952D01*
X159154190Y-90467333D01*
X159249428Y-90419714D01*
X159344666Y-90419714D01*
X160201809Y-91086380D02*
X159630380Y-91086380D01*
X159916095Y-91086380D02*
X159916095Y-90086380D01*
X159820857Y-90229238D01*
X159725619Y-90324476D01*
X159630380Y-90372095D01*
%TO.C,pcb_conn1*%
X175418714Y-114990095D02*
X176418714Y-114990095D01*
X175466333Y-114990095D02*
X175418714Y-114894857D01*
X175418714Y-114704380D01*
X175466333Y-114609142D01*
X175513952Y-114561523D01*
X175609190Y-114513904D01*
X175894904Y-114513904D01*
X175990142Y-114561523D01*
X176037761Y-114609142D01*
X176085380Y-114704380D01*
X176085380Y-114894857D01*
X176037761Y-114990095D01*
X176037761Y-113656761D02*
X176085380Y-113752000D01*
X176085380Y-113942476D01*
X176037761Y-114037714D01*
X175990142Y-114085333D01*
X175894904Y-114132952D01*
X175609190Y-114132952D01*
X175513952Y-114085333D01*
X175466333Y-114037714D01*
X175418714Y-113942476D01*
X175418714Y-113752000D01*
X175466333Y-113656761D01*
X176085380Y-113228190D02*
X175085380Y-113228190D01*
X175466333Y-113228190D02*
X175418714Y-113132952D01*
X175418714Y-112942476D01*
X175466333Y-112847238D01*
X175513952Y-112799619D01*
X175609190Y-112752000D01*
X175894904Y-112752000D01*
X175990142Y-112799619D01*
X176037761Y-112847238D01*
X176085380Y-112942476D01*
X176085380Y-113132952D01*
X176037761Y-113228190D01*
X176180619Y-112561523D02*
X176180619Y-111799619D01*
X176037761Y-111132952D02*
X176085380Y-111228190D01*
X176085380Y-111418666D01*
X176037761Y-111513904D01*
X175990142Y-111561523D01*
X175894904Y-111609142D01*
X175609190Y-111609142D01*
X175513952Y-111561523D01*
X175466333Y-111513904D01*
X175418714Y-111418666D01*
X175418714Y-111228190D01*
X175466333Y-111132952D01*
X176085380Y-110561523D02*
X176037761Y-110656761D01*
X175990142Y-110704380D01*
X175894904Y-110752000D01*
X175609190Y-110752000D01*
X175513952Y-110704380D01*
X175466333Y-110656761D01*
X175418714Y-110561523D01*
X175418714Y-110418666D01*
X175466333Y-110323428D01*
X175513952Y-110275809D01*
X175609190Y-110228190D01*
X175894904Y-110228190D01*
X175990142Y-110275809D01*
X176037761Y-110323428D01*
X176085380Y-110418666D01*
X176085380Y-110561523D01*
X175418714Y-109799619D02*
X176085380Y-109799619D01*
X175513952Y-109799619D02*
X175466333Y-109752000D01*
X175418714Y-109656761D01*
X175418714Y-109513904D01*
X175466333Y-109418666D01*
X175561571Y-109371047D01*
X176085380Y-109371047D01*
X175418714Y-108894857D02*
X176085380Y-108894857D01*
X175513952Y-108894857D02*
X175466333Y-108847238D01*
X175418714Y-108752000D01*
X175418714Y-108609142D01*
X175466333Y-108513904D01*
X175561571Y-108466285D01*
X176085380Y-108466285D01*
X176085380Y-107466285D02*
X176085380Y-108037714D01*
X176085380Y-107752000D02*
X175085380Y-107752000D01*
X175228238Y-107847238D01*
X175323476Y-107942476D01*
X175371095Y-108037714D01*
%TO.C,control_board1*%
X164488761Y-168274380D02*
X164536380Y-168369619D01*
X164536380Y-168560095D01*
X164488761Y-168655333D01*
X164441142Y-168702952D01*
X164345904Y-168750571D01*
X164060190Y-168750571D01*
X163964952Y-168702952D01*
X163917333Y-168655333D01*
X163869714Y-168560095D01*
X163869714Y-168369619D01*
X163917333Y-168274380D01*
X164536380Y-167702952D02*
X164488761Y-167798190D01*
X164441142Y-167845809D01*
X164345904Y-167893428D01*
X164060190Y-167893428D01*
X163964952Y-167845809D01*
X163917333Y-167798190D01*
X163869714Y-167702952D01*
X163869714Y-167560095D01*
X163917333Y-167464857D01*
X163964952Y-167417238D01*
X164060190Y-167369619D01*
X164345904Y-167369619D01*
X164441142Y-167417238D01*
X164488761Y-167464857D01*
X164536380Y-167560095D01*
X164536380Y-167702952D01*
X163869714Y-166941047D02*
X164536380Y-166941047D01*
X163964952Y-166941047D02*
X163917333Y-166893428D01*
X163869714Y-166798190D01*
X163869714Y-166655333D01*
X163917333Y-166560095D01*
X164012571Y-166512476D01*
X164536380Y-166512476D01*
X163869714Y-166179142D02*
X163869714Y-165798190D01*
X163536380Y-166036285D02*
X164393523Y-166036285D01*
X164488761Y-165988666D01*
X164536380Y-165893428D01*
X164536380Y-165798190D01*
X164536380Y-165464857D02*
X163869714Y-165464857D01*
X164060190Y-165464857D02*
X163964952Y-165417238D01*
X163917333Y-165369619D01*
X163869714Y-165274380D01*
X163869714Y-165179142D01*
X164536380Y-164702952D02*
X164488761Y-164798190D01*
X164441142Y-164845809D01*
X164345904Y-164893428D01*
X164060190Y-164893428D01*
X163964952Y-164845809D01*
X163917333Y-164798190D01*
X163869714Y-164702952D01*
X163869714Y-164560095D01*
X163917333Y-164464857D01*
X163964952Y-164417238D01*
X164060190Y-164369619D01*
X164345904Y-164369619D01*
X164441142Y-164417238D01*
X164488761Y-164464857D01*
X164536380Y-164560095D01*
X164536380Y-164702952D01*
X164536380Y-163798190D02*
X164488761Y-163893428D01*
X164393523Y-163941047D01*
X163536380Y-163941047D01*
X164631619Y-163655333D02*
X164631619Y-162893428D01*
X164536380Y-162655333D02*
X163536380Y-162655333D01*
X163917333Y-162655333D02*
X163869714Y-162560095D01*
X163869714Y-162369619D01*
X163917333Y-162274380D01*
X163964952Y-162226761D01*
X164060190Y-162179142D01*
X164345904Y-162179142D01*
X164441142Y-162226761D01*
X164488761Y-162274380D01*
X164536380Y-162369619D01*
X164536380Y-162560095D01*
X164488761Y-162655333D01*
X164536380Y-161607714D02*
X164488761Y-161702952D01*
X164441142Y-161750571D01*
X164345904Y-161798190D01*
X164060190Y-161798190D01*
X163964952Y-161750571D01*
X163917333Y-161702952D01*
X163869714Y-161607714D01*
X163869714Y-161464857D01*
X163917333Y-161369619D01*
X163964952Y-161322000D01*
X164060190Y-161274380D01*
X164345904Y-161274380D01*
X164441142Y-161322000D01*
X164488761Y-161369619D01*
X164536380Y-161464857D01*
X164536380Y-161607714D01*
X164536380Y-160417238D02*
X164012571Y-160417238D01*
X163917333Y-160464857D01*
X163869714Y-160560095D01*
X163869714Y-160750571D01*
X163917333Y-160845809D01*
X164488761Y-160417238D02*
X164536380Y-160512476D01*
X164536380Y-160750571D01*
X164488761Y-160845809D01*
X164393523Y-160893428D01*
X164298285Y-160893428D01*
X164203047Y-160845809D01*
X164155428Y-160750571D01*
X164155428Y-160512476D01*
X164107809Y-160417238D01*
X164536380Y-159941047D02*
X163869714Y-159941047D01*
X164060190Y-159941047D02*
X163964952Y-159893428D01*
X163917333Y-159845809D01*
X163869714Y-159750571D01*
X163869714Y-159655333D01*
X164536380Y-158893428D02*
X163536380Y-158893428D01*
X164488761Y-158893428D02*
X164536380Y-158988666D01*
X164536380Y-159179142D01*
X164488761Y-159274380D01*
X164441142Y-159322000D01*
X164345904Y-159369619D01*
X164060190Y-159369619D01*
X163964952Y-159322000D01*
X163917333Y-159274380D01*
X163869714Y-159179142D01*
X163869714Y-158988666D01*
X163917333Y-158893428D01*
X164536380Y-157893428D02*
X164536380Y-158464857D01*
X164536380Y-158179142D02*
X163536380Y-158179142D01*
X163679238Y-158274380D01*
X163774476Y-158369619D01*
X163822095Y-158464857D01*
X150887180Y-148165723D02*
X151696704Y-148165723D01*
X151791942Y-148118104D01*
X151839561Y-148070485D01*
X151887180Y-147975247D01*
X151887180Y-147784771D01*
X151839561Y-147689533D01*
X151791942Y-147641914D01*
X151696704Y-147594295D01*
X150887180Y-147594295D01*
X151839561Y-147165723D02*
X151887180Y-147022866D01*
X151887180Y-146784771D01*
X151839561Y-146689533D01*
X151791942Y-146641914D01*
X151696704Y-146594295D01*
X151601466Y-146594295D01*
X151506228Y-146641914D01*
X151458609Y-146689533D01*
X151410990Y-146784771D01*
X151363371Y-146975247D01*
X151315752Y-147070485D01*
X151268133Y-147118104D01*
X151172895Y-147165723D01*
X151077657Y-147165723D01*
X150982419Y-147118104D01*
X150934800Y-147070485D01*
X150887180Y-146975247D01*
X150887180Y-146737152D01*
X150934800Y-146594295D01*
X151363371Y-145832390D02*
X151410990Y-145689533D01*
X151458609Y-145641914D01*
X151553847Y-145594295D01*
X151696704Y-145594295D01*
X151791942Y-145641914D01*
X151839561Y-145689533D01*
X151887180Y-145784771D01*
X151887180Y-146165723D01*
X150887180Y-146165723D01*
X150887180Y-145832390D01*
X150934800Y-145737152D01*
X150982419Y-145689533D01*
X151077657Y-145641914D01*
X151172895Y-145641914D01*
X151268133Y-145689533D01*
X151315752Y-145737152D01*
X151363371Y-145832390D01*
X151363371Y-146165723D01*
X151887180Y-144403819D02*
X150887180Y-144403819D01*
X151363371Y-144403819D02*
X151363371Y-143832390D01*
X151887180Y-143832390D02*
X150887180Y-143832390D01*
X151887180Y-143213342D02*
X151839561Y-143308580D01*
X151791942Y-143356200D01*
X151696704Y-143403819D01*
X151410990Y-143403819D01*
X151315752Y-143356200D01*
X151268133Y-143308580D01*
X151220514Y-143213342D01*
X151220514Y-143070485D01*
X151268133Y-142975247D01*
X151315752Y-142927628D01*
X151410990Y-142880009D01*
X151696704Y-142880009D01*
X151791942Y-142927628D01*
X151839561Y-142975247D01*
X151887180Y-143070485D01*
X151887180Y-143213342D01*
X151839561Y-142499057D02*
X151887180Y-142403819D01*
X151887180Y-142213342D01*
X151839561Y-142118104D01*
X151744323Y-142070485D01*
X151696704Y-142070485D01*
X151601466Y-142118104D01*
X151553847Y-142213342D01*
X151553847Y-142356200D01*
X151506228Y-142451438D01*
X151410990Y-142499057D01*
X151363371Y-142499057D01*
X151268133Y-142451438D01*
X151220514Y-142356200D01*
X151220514Y-142213342D01*
X151268133Y-142118104D01*
X151220514Y-141784771D02*
X151220514Y-141403819D01*
X150887180Y-141641914D02*
X151744323Y-141641914D01*
X151839561Y-141594295D01*
X151887180Y-141499057D01*
X151887180Y-141403819D01*
X154343457Y-151185571D02*
X154676790Y-151185571D01*
X154819647Y-151709380D02*
X154343457Y-151709380D01*
X154343457Y-150709380D01*
X154819647Y-150709380D01*
X155105361Y-151042714D02*
X155486314Y-151042714D01*
X155248219Y-150709380D02*
X155248219Y-151566523D01*
X155295838Y-151661761D01*
X155391076Y-151709380D01*
X155486314Y-151709380D01*
X155819647Y-151709380D02*
X155819647Y-150709380D01*
X156248219Y-151709380D02*
X156248219Y-151185571D01*
X156200600Y-151090333D01*
X156105361Y-151042714D01*
X155962504Y-151042714D01*
X155867266Y-151090333D01*
X155819647Y-151137952D01*
X157105361Y-151661761D02*
X157010123Y-151709380D01*
X156819647Y-151709380D01*
X156724409Y-151661761D01*
X156676790Y-151566523D01*
X156676790Y-151185571D01*
X156724409Y-151090333D01*
X156819647Y-151042714D01*
X157010123Y-151042714D01*
X157105361Y-151090333D01*
X157152980Y-151185571D01*
X157152980Y-151280809D01*
X156676790Y-151376047D01*
X157581552Y-151709380D02*
X157581552Y-151042714D01*
X157581552Y-151233190D02*
X157629171Y-151137952D01*
X157676790Y-151090333D01*
X157772028Y-151042714D01*
X157867266Y-151042714D01*
X158200600Y-151042714D02*
X158200600Y-151709380D01*
X158200600Y-151137952D02*
X158248219Y-151090333D01*
X158343457Y-151042714D01*
X158486314Y-151042714D01*
X158581552Y-151090333D01*
X158629171Y-151185571D01*
X158629171Y-151709380D01*
X159486314Y-151661761D02*
X159391076Y-151709380D01*
X159200600Y-151709380D01*
X159105361Y-151661761D01*
X159057742Y-151566523D01*
X159057742Y-151185571D01*
X159105361Y-151090333D01*
X159200600Y-151042714D01*
X159391076Y-151042714D01*
X159486314Y-151090333D01*
X159533933Y-151185571D01*
X159533933Y-151280809D01*
X159057742Y-151376047D01*
X159819647Y-151042714D02*
X160200600Y-151042714D01*
X159962504Y-150709380D02*
X159962504Y-151566523D01*
X160010123Y-151661761D01*
X160105361Y-151709380D01*
X160200600Y-151709380D01*
X152662095Y-136104380D02*
X152662095Y-136913904D01*
X152709714Y-137009142D01*
X152757333Y-137056761D01*
X152852571Y-137104380D01*
X153043047Y-137104380D01*
X153138285Y-137056761D01*
X153185904Y-137009142D01*
X153233523Y-136913904D01*
X153233523Y-136104380D01*
X153662095Y-137056761D02*
X153804952Y-137104380D01*
X154043047Y-137104380D01*
X154138285Y-137056761D01*
X154185904Y-137009142D01*
X154233523Y-136913904D01*
X154233523Y-136818666D01*
X154185904Y-136723428D01*
X154138285Y-136675809D01*
X154043047Y-136628190D01*
X153852571Y-136580571D01*
X153757333Y-136532952D01*
X153709714Y-136485333D01*
X153662095Y-136390095D01*
X153662095Y-136294857D01*
X153709714Y-136199619D01*
X153757333Y-136152000D01*
X153852571Y-136104380D01*
X154090666Y-136104380D01*
X154233523Y-136152000D01*
X154995428Y-136580571D02*
X155138285Y-136628190D01*
X155185904Y-136675809D01*
X155233523Y-136771047D01*
X155233523Y-136913904D01*
X155185904Y-137009142D01*
X155138285Y-137056761D01*
X155043047Y-137104380D01*
X154662095Y-137104380D01*
X154662095Y-136104380D01*
X154995428Y-136104380D01*
X155090666Y-136152000D01*
X155138285Y-136199619D01*
X155185904Y-136294857D01*
X155185904Y-136390095D01*
X155138285Y-136485333D01*
X155090666Y-136532952D01*
X154995428Y-136580571D01*
X154662095Y-136580571D01*
X154376380Y-190571047D02*
X153376380Y-190571047D01*
X154090666Y-190237714D01*
X153376380Y-189904380D01*
X154376380Y-189904380D01*
X154376380Y-189428190D02*
X153709714Y-189428190D01*
X153376380Y-189428190D02*
X153424000Y-189475809D01*
X153471619Y-189428190D01*
X153424000Y-189380571D01*
X153376380Y-189428190D01*
X153471619Y-189428190D01*
X154328761Y-188523428D02*
X154376380Y-188618666D01*
X154376380Y-188809142D01*
X154328761Y-188904380D01*
X154281142Y-188952000D01*
X154185904Y-188999619D01*
X153900190Y-188999619D01*
X153804952Y-188952000D01*
X153757333Y-188904380D01*
X153709714Y-188809142D01*
X153709714Y-188618666D01*
X153757333Y-188523428D01*
X154376380Y-188094857D02*
X153709714Y-188094857D01*
X153900190Y-188094857D02*
X153804952Y-188047238D01*
X153757333Y-187999619D01*
X153709714Y-187904380D01*
X153709714Y-187809142D01*
X154376380Y-187332952D02*
X154328761Y-187428190D01*
X154281142Y-187475809D01*
X154185904Y-187523428D01*
X153900190Y-187523428D01*
X153804952Y-187475809D01*
X153757333Y-187428190D01*
X153709714Y-187332952D01*
X153709714Y-187190095D01*
X153757333Y-187094857D01*
X153804952Y-187047238D01*
X153900190Y-186999619D01*
X154185904Y-186999619D01*
X154281142Y-187047238D01*
X154328761Y-187094857D01*
X154376380Y-187190095D01*
X154376380Y-187332952D01*
X154328761Y-185856761D02*
X154376380Y-185713904D01*
X154376380Y-185475809D01*
X154328761Y-185380571D01*
X154281142Y-185332952D01*
X154185904Y-185285333D01*
X154090666Y-185285333D01*
X153995428Y-185332952D01*
X153947809Y-185380571D01*
X153900190Y-185475809D01*
X153852571Y-185666285D01*
X153804952Y-185761523D01*
X153757333Y-185809142D01*
X153662095Y-185856761D01*
X153566857Y-185856761D01*
X153471619Y-185809142D01*
X153424000Y-185761523D01*
X153376380Y-185666285D01*
X153376380Y-185428190D01*
X153424000Y-185285333D01*
X154376380Y-184856761D02*
X153376380Y-184856761D01*
X153376380Y-184618666D01*
X153424000Y-184475809D01*
X153519238Y-184380571D01*
X153614476Y-184332952D01*
X153804952Y-184285333D01*
X153947809Y-184285333D01*
X154138285Y-184332952D01*
X154233523Y-184380571D01*
X154328761Y-184475809D01*
X154376380Y-184618666D01*
X154376380Y-184856761D01*
X150840666Y-162368666D02*
X150840666Y-161668666D01*
X151074000Y-162168666D01*
X151307333Y-161668666D01*
X151307333Y-162368666D01*
X151640666Y-162368666D02*
X151640666Y-161668666D01*
X151974000Y-162368666D02*
X151974000Y-161668666D01*
X152207333Y-162168666D01*
X152440666Y-161668666D01*
X152440666Y-162368666D01*
X152707333Y-161668666D02*
X153174000Y-162368666D01*
X153174000Y-161668666D02*
X152707333Y-162368666D01*
X153840666Y-162368666D02*
X153607333Y-162035333D01*
X153440666Y-162368666D02*
X153440666Y-161668666D01*
X153707333Y-161668666D01*
X153774000Y-161702000D01*
X153807333Y-161735333D01*
X153840666Y-161802000D01*
X153840666Y-161902000D01*
X153807333Y-161968666D01*
X153774000Y-162002000D01*
X153707333Y-162035333D01*
X153440666Y-162035333D01*
X154040666Y-161668666D02*
X154440666Y-161668666D01*
X154240666Y-162368666D02*
X154240666Y-161668666D01*
X155040666Y-162368666D02*
X154640666Y-162368666D01*
X154840666Y-162368666D02*
X154840666Y-161668666D01*
X154774000Y-161768666D01*
X154707333Y-161835333D01*
X154640666Y-161868666D01*
X155474000Y-161668666D02*
X155540666Y-161668666D01*
X155607333Y-161702000D01*
X155640666Y-161735333D01*
X155674000Y-161802000D01*
X155707333Y-161935333D01*
X155707333Y-162102000D01*
X155674000Y-162235333D01*
X155640666Y-162302000D01*
X155607333Y-162335333D01*
X155540666Y-162368666D01*
X155474000Y-162368666D01*
X155407333Y-162335333D01*
X155374000Y-162302000D01*
X155340666Y-162235333D01*
X155307333Y-162102000D01*
X155307333Y-161935333D01*
X155340666Y-161802000D01*
X155374000Y-161735333D01*
X155407333Y-161702000D01*
X155474000Y-161668666D01*
X156307333Y-161668666D02*
X156174000Y-161668666D01*
X156107333Y-161702000D01*
X156074000Y-161735333D01*
X156007333Y-161835333D01*
X155974000Y-161968666D01*
X155974000Y-162235333D01*
X156007333Y-162302000D01*
X156040666Y-162335333D01*
X156107333Y-162368666D01*
X156240666Y-162368666D01*
X156307333Y-162335333D01*
X156340666Y-162302000D01*
X156374000Y-162235333D01*
X156374000Y-162068666D01*
X156340666Y-162002000D01*
X156307333Y-161968666D01*
X156240666Y-161935333D01*
X156107333Y-161935333D01*
X156040666Y-161968666D01*
X156007333Y-162002000D01*
X155974000Y-162068666D01*
X156640666Y-161735333D02*
X156674000Y-161702000D01*
X156740666Y-161668666D01*
X156907333Y-161668666D01*
X156974000Y-161702000D01*
X157007333Y-161735333D01*
X157040666Y-161802000D01*
X157040666Y-161868666D01*
X157007333Y-161968666D01*
X156607333Y-162368666D01*
X157040666Y-162368666D01*
X152720666Y-161098666D02*
X152720666Y-160398666D01*
X152887333Y-160398666D01*
X152987333Y-160432000D01*
X153054000Y-160498666D01*
X153087333Y-160565333D01*
X153120666Y-160698666D01*
X153120666Y-160798666D01*
X153087333Y-160932000D01*
X153054000Y-160998666D01*
X152987333Y-161065333D01*
X152887333Y-161098666D01*
X152720666Y-161098666D01*
X153320666Y-160398666D02*
X153554000Y-161098666D01*
X153787333Y-160398666D01*
X154220666Y-160398666D02*
X154220666Y-160898666D01*
X154187333Y-160998666D01*
X154120666Y-161065333D01*
X154020666Y-161098666D01*
X153954000Y-161098666D01*
X154854000Y-160398666D02*
X154720666Y-160398666D01*
X154654000Y-160432000D01*
X154620666Y-160465333D01*
X154554000Y-160565333D01*
X154520666Y-160698666D01*
X154520666Y-160965333D01*
X154554000Y-161032000D01*
X154587333Y-161065333D01*
X154654000Y-161098666D01*
X154787333Y-161098666D01*
X154854000Y-161065333D01*
X154887333Y-161032000D01*
X154920666Y-160965333D01*
X154920666Y-160798666D01*
X154887333Y-160732000D01*
X154854000Y-160698666D01*
X154787333Y-160665333D01*
X154654000Y-160665333D01*
X154587333Y-160698666D01*
X154554000Y-160732000D01*
X154520666Y-160798666D01*
X155187333Y-160898666D02*
X155520666Y-160898666D01*
X155120666Y-161098666D02*
X155354000Y-160398666D01*
X155587333Y-161098666D01*
%TO.C,ir_sensor_9*%
X181674000Y-240482380D02*
X181674000Y-239815714D01*
X181674000Y-239482380D02*
X181626380Y-239530000D01*
X181674000Y-239577619D01*
X181721619Y-239530000D01*
X181674000Y-239482380D01*
X181674000Y-239577619D01*
X182150190Y-240482380D02*
X182150190Y-239815714D01*
X182150190Y-240006190D02*
X182197809Y-239910952D01*
X182245428Y-239863333D01*
X182340666Y-239815714D01*
X182435904Y-239815714D01*
X182531142Y-240577619D02*
X183293047Y-240577619D01*
X183483523Y-240434761D02*
X183578761Y-240482380D01*
X183769238Y-240482380D01*
X183864476Y-240434761D01*
X183912095Y-240339523D01*
X183912095Y-240291904D01*
X183864476Y-240196666D01*
X183769238Y-240149047D01*
X183626380Y-240149047D01*
X183531142Y-240101428D01*
X183483523Y-240006190D01*
X183483523Y-239958571D01*
X183531142Y-239863333D01*
X183626380Y-239815714D01*
X183769238Y-239815714D01*
X183864476Y-239863333D01*
X184721619Y-240434761D02*
X184626380Y-240482380D01*
X184435904Y-240482380D01*
X184340666Y-240434761D01*
X184293047Y-240339523D01*
X184293047Y-239958571D01*
X184340666Y-239863333D01*
X184435904Y-239815714D01*
X184626380Y-239815714D01*
X184721619Y-239863333D01*
X184769238Y-239958571D01*
X184769238Y-240053809D01*
X184293047Y-240149047D01*
X185197809Y-239815714D02*
X185197809Y-240482380D01*
X185197809Y-239910952D02*
X185245428Y-239863333D01*
X185340666Y-239815714D01*
X185483523Y-239815714D01*
X185578761Y-239863333D01*
X185626380Y-239958571D01*
X185626380Y-240482380D01*
X186054952Y-240434761D02*
X186150190Y-240482380D01*
X186340666Y-240482380D01*
X186435904Y-240434761D01*
X186483523Y-240339523D01*
X186483523Y-240291904D01*
X186435904Y-240196666D01*
X186340666Y-240149047D01*
X186197809Y-240149047D01*
X186102571Y-240101428D01*
X186054952Y-240006190D01*
X186054952Y-239958571D01*
X186102571Y-239863333D01*
X186197809Y-239815714D01*
X186340666Y-239815714D01*
X186435904Y-239863333D01*
X187054952Y-240482380D02*
X186959714Y-240434761D01*
X186912095Y-240387142D01*
X186864476Y-240291904D01*
X186864476Y-240006190D01*
X186912095Y-239910952D01*
X186959714Y-239863333D01*
X187054952Y-239815714D01*
X187197809Y-239815714D01*
X187293047Y-239863333D01*
X187340666Y-239910952D01*
X187388285Y-240006190D01*
X187388285Y-240291904D01*
X187340666Y-240387142D01*
X187293047Y-240434761D01*
X187197809Y-240482380D01*
X187054952Y-240482380D01*
X187816857Y-240482380D02*
X187816857Y-239815714D01*
X187816857Y-240006190D02*
X187864476Y-239910952D01*
X187912095Y-239863333D01*
X188007333Y-239815714D01*
X188102571Y-239815714D01*
X188197809Y-240577619D02*
X188959714Y-240577619D01*
X189245428Y-240482380D02*
X189435904Y-240482380D01*
X189531142Y-240434761D01*
X189578761Y-240387142D01*
X189674000Y-240244285D01*
X189721619Y-240053809D01*
X189721619Y-239672857D01*
X189674000Y-239577619D01*
X189626380Y-239530000D01*
X189531142Y-239482380D01*
X189340666Y-239482380D01*
X189245428Y-239530000D01*
X189197809Y-239577619D01*
X189150190Y-239672857D01*
X189150190Y-239910952D01*
X189197809Y-240006190D01*
X189245428Y-240053809D01*
X189340666Y-240101428D01*
X189531142Y-240101428D01*
X189626380Y-240053809D01*
X189674000Y-240006190D01*
X189721619Y-239910952D01*
X182792714Y-234465761D02*
X182887952Y-234513380D01*
X183078428Y-234513380D01*
X183173666Y-234465761D01*
X183221285Y-234370523D01*
X183221285Y-234322904D01*
X183173666Y-234227666D01*
X183078428Y-234180047D01*
X182935571Y-234180047D01*
X182840333Y-234132428D01*
X182792714Y-234037190D01*
X182792714Y-233989571D01*
X182840333Y-233894333D01*
X182935571Y-233846714D01*
X183078428Y-233846714D01*
X183173666Y-233894333D01*
X185293047Y-234132428D02*
X186054952Y-234132428D01*
X187833047Y-234132428D02*
X188594952Y-234132428D01*
X188214000Y-234513380D02*
X188214000Y-233751476D01*
%TO.C,ir_sensor_1*%
X181674000Y-33599380D02*
X181674000Y-32932714D01*
X181674000Y-32599380D02*
X181626380Y-32647000D01*
X181674000Y-32694619D01*
X181721619Y-32647000D01*
X181674000Y-32599380D01*
X181674000Y-32694619D01*
X182150190Y-33599380D02*
X182150190Y-32932714D01*
X182150190Y-33123190D02*
X182197809Y-33027952D01*
X182245428Y-32980333D01*
X182340666Y-32932714D01*
X182435904Y-32932714D01*
X182531142Y-33694619D02*
X183293047Y-33694619D01*
X183483523Y-33551761D02*
X183578761Y-33599380D01*
X183769238Y-33599380D01*
X183864476Y-33551761D01*
X183912095Y-33456523D01*
X183912095Y-33408904D01*
X183864476Y-33313666D01*
X183769238Y-33266047D01*
X183626380Y-33266047D01*
X183531142Y-33218428D01*
X183483523Y-33123190D01*
X183483523Y-33075571D01*
X183531142Y-32980333D01*
X183626380Y-32932714D01*
X183769238Y-32932714D01*
X183864476Y-32980333D01*
X184721619Y-33551761D02*
X184626380Y-33599380D01*
X184435904Y-33599380D01*
X184340666Y-33551761D01*
X184293047Y-33456523D01*
X184293047Y-33075571D01*
X184340666Y-32980333D01*
X184435904Y-32932714D01*
X184626380Y-32932714D01*
X184721619Y-32980333D01*
X184769238Y-33075571D01*
X184769238Y-33170809D01*
X184293047Y-33266047D01*
X185197809Y-32932714D02*
X185197809Y-33599380D01*
X185197809Y-33027952D02*
X185245428Y-32980333D01*
X185340666Y-32932714D01*
X185483523Y-32932714D01*
X185578761Y-32980333D01*
X185626380Y-33075571D01*
X185626380Y-33599380D01*
X186054952Y-33551761D02*
X186150190Y-33599380D01*
X186340666Y-33599380D01*
X186435904Y-33551761D01*
X186483523Y-33456523D01*
X186483523Y-33408904D01*
X186435904Y-33313666D01*
X186340666Y-33266047D01*
X186197809Y-33266047D01*
X186102571Y-33218428D01*
X186054952Y-33123190D01*
X186054952Y-33075571D01*
X186102571Y-32980333D01*
X186197809Y-32932714D01*
X186340666Y-32932714D01*
X186435904Y-32980333D01*
X187054952Y-33599380D02*
X186959714Y-33551761D01*
X186912095Y-33504142D01*
X186864476Y-33408904D01*
X186864476Y-33123190D01*
X186912095Y-33027952D01*
X186959714Y-32980333D01*
X187054952Y-32932714D01*
X187197809Y-32932714D01*
X187293047Y-32980333D01*
X187340666Y-33027952D01*
X187388285Y-33123190D01*
X187388285Y-33408904D01*
X187340666Y-33504142D01*
X187293047Y-33551761D01*
X187197809Y-33599380D01*
X187054952Y-33599380D01*
X187816857Y-33599380D02*
X187816857Y-32932714D01*
X187816857Y-33123190D02*
X187864476Y-33027952D01*
X187912095Y-32980333D01*
X188007333Y-32932714D01*
X188102571Y-32932714D01*
X188197809Y-33694619D02*
X188959714Y-33694619D01*
X189721619Y-33599380D02*
X189150190Y-33599380D01*
X189435904Y-33599380D02*
X189435904Y-32599380D01*
X189340666Y-32742238D01*
X189245428Y-32837476D01*
X189150190Y-32885095D01*
X188126714Y-39520761D02*
X188221952Y-39568380D01*
X188412428Y-39568380D01*
X188507666Y-39520761D01*
X188555285Y-39425523D01*
X188555285Y-39377904D01*
X188507666Y-39282666D01*
X188412428Y-39235047D01*
X188269571Y-39235047D01*
X188174333Y-39187428D01*
X188126714Y-39092190D01*
X188126714Y-39044571D01*
X188174333Y-38949333D01*
X188269571Y-38901714D01*
X188412428Y-38901714D01*
X188507666Y-38949333D01*
X185293047Y-39187428D02*
X186054952Y-39187428D01*
X182753047Y-39187428D02*
X183514952Y-39187428D01*
X183134000Y-39568380D02*
X183134000Y-38806476D01*
%TO.C,ir_sensor_2*%
X142361568Y-42975371D02*
X142106446Y-42359451D01*
X141978885Y-42051491D02*
X141953113Y-42113708D01*
X142015331Y-42139480D01*
X142041102Y-42077262D01*
X141978885Y-42051491D01*
X142015331Y-42139480D01*
X142801511Y-42793141D02*
X142546388Y-42177221D01*
X142619280Y-42353198D02*
X142626829Y-42246986D01*
X142652600Y-42184769D01*
X142722365Y-42104329D01*
X142810354Y-42067883D01*
X143189911Y-42735345D02*
X143893819Y-42443777D01*
X144015127Y-42238902D02*
X144121339Y-42246450D01*
X144297316Y-42173558D01*
X144367081Y-42093118D01*
X144374629Y-41986906D01*
X144356406Y-41942912D01*
X144275966Y-41873146D01*
X144169755Y-41865598D01*
X144037772Y-41920267D01*
X143931560Y-41912719D01*
X143851120Y-41842953D01*
X143832897Y-41798959D01*
X143840445Y-41692748D01*
X143910211Y-41612307D01*
X144042193Y-41557638D01*
X144148405Y-41565186D01*
X145158978Y-41765103D02*
X145089212Y-41845543D01*
X144913235Y-41918436D01*
X144807024Y-41910887D01*
X144726583Y-41841122D01*
X144580799Y-41489168D01*
X144588348Y-41382956D01*
X144658113Y-41302516D01*
X144834090Y-41229624D01*
X144940302Y-41237172D01*
X145020742Y-41306937D01*
X145057188Y-41394926D01*
X144653691Y-41665145D01*
X145362021Y-41010948D02*
X145617144Y-41626867D01*
X145398467Y-41098936D02*
X145424239Y-41036719D01*
X145494004Y-40956278D01*
X145625987Y-40901609D01*
X145732198Y-40909158D01*
X145812639Y-40978923D01*
X146013092Y-41462860D01*
X146390817Y-41254859D02*
X146497029Y-41262407D01*
X146673006Y-41189515D01*
X146742771Y-41109074D01*
X146750320Y-41002863D01*
X146732097Y-40958869D01*
X146651656Y-40889103D01*
X146545445Y-40881555D01*
X146413462Y-40936224D01*
X146307250Y-40928676D01*
X146226810Y-40858910D01*
X146208587Y-40814916D01*
X146216135Y-40708704D01*
X146285901Y-40628264D01*
X146417884Y-40573595D01*
X146524095Y-40581143D01*
X147332920Y-40916169D02*
X147226708Y-40908621D01*
X147164491Y-40882850D01*
X147084051Y-40813084D01*
X146974713Y-40549119D01*
X146982261Y-40442907D01*
X147008032Y-40380690D01*
X147077798Y-40300250D01*
X147209780Y-40245581D01*
X147315992Y-40253129D01*
X147378209Y-40278900D01*
X147458649Y-40348666D01*
X147567988Y-40612631D01*
X147560439Y-40718843D01*
X147534668Y-40781060D01*
X147464903Y-40861500D01*
X147332920Y-40916169D01*
X148036828Y-40624601D02*
X147781706Y-40008681D01*
X147854598Y-40184658D02*
X147862146Y-40078447D01*
X147887917Y-40016230D01*
X147957683Y-39935789D01*
X148045671Y-39899343D01*
X148425228Y-40566805D02*
X149129136Y-40275237D01*
X148922430Y-39278465D02*
X148948201Y-39216248D01*
X149017967Y-39135808D01*
X149237938Y-39044693D01*
X149344150Y-39052241D01*
X149406367Y-39078012D01*
X149486807Y-39147778D01*
X149523253Y-39235766D01*
X149533928Y-39385972D01*
X149224673Y-40132580D01*
X149796599Y-39895680D01*
X150589113Y-45976666D02*
X150695325Y-45984215D01*
X150871302Y-45911322D01*
X150941067Y-45830882D01*
X150948615Y-45724671D01*
X150930392Y-45680676D01*
X150849952Y-45610911D01*
X150743740Y-45603363D01*
X150611758Y-45658032D01*
X150505546Y-45650483D01*
X150425106Y-45580718D01*
X150406883Y-45536724D01*
X150414431Y-45430512D01*
X150484197Y-45350072D01*
X150616179Y-45295403D01*
X150722391Y-45302951D01*
X147843586Y-46753104D02*
X148547494Y-46461536D01*
X145496932Y-47725120D02*
X146200840Y-47433552D01*
X145994670Y-47931290D02*
X145703102Y-47227382D01*
%TO.C,ir_sensor_8*%
X142015331Y-231164519D02*
X142270453Y-230548600D01*
X142398014Y-230240640D02*
X142335797Y-230266411D01*
X142361568Y-230328628D01*
X142423785Y-230302857D01*
X142398014Y-230240640D01*
X142361568Y-230328628D01*
X142455273Y-231346749D02*
X142710396Y-230730830D01*
X142637504Y-230906807D02*
X142717944Y-230837041D01*
X142780161Y-230811270D01*
X142886373Y-230803722D01*
X142974361Y-230840168D01*
X142770781Y-231580522D02*
X143474690Y-231872091D01*
X143705336Y-231813000D02*
X143775101Y-231893440D01*
X143951078Y-231966332D01*
X144057290Y-231958784D01*
X144137730Y-231889018D01*
X144155953Y-231845024D01*
X144148405Y-231738813D01*
X144078639Y-231658372D01*
X143946657Y-231603703D01*
X143876891Y-231523263D01*
X143869343Y-231417051D01*
X143887566Y-231373057D01*
X143968006Y-231303292D01*
X144074218Y-231295743D01*
X144206201Y-231350412D01*
X144275966Y-231430853D01*
X144849187Y-232286798D02*
X144742975Y-232294347D01*
X144566998Y-232221454D01*
X144497232Y-232141014D01*
X144489684Y-232034803D01*
X144635468Y-231682849D01*
X144715909Y-231613083D01*
X144822120Y-231605535D01*
X144998097Y-231678427D01*
X145067863Y-231758867D01*
X145075411Y-231865079D01*
X145038965Y-231953067D01*
X144562576Y-231858826D01*
X145526028Y-231897103D02*
X145270906Y-232513023D01*
X145489582Y-231985092D02*
X145551800Y-231959320D01*
X145658011Y-231951772D01*
X145789994Y-232006441D01*
X145859760Y-232086882D01*
X145867308Y-232193093D01*
X145666855Y-232677030D01*
X146081026Y-232797043D02*
X146150791Y-232877483D01*
X146326768Y-232950375D01*
X146432980Y-232942827D01*
X146513420Y-232873062D01*
X146531643Y-232829067D01*
X146524095Y-232722856D01*
X146454330Y-232642415D01*
X146322347Y-232587746D01*
X146252581Y-232507306D01*
X146245033Y-232401095D01*
X146263256Y-232357100D01*
X146343696Y-232287335D01*
X146449908Y-232279787D01*
X146581891Y-232334456D01*
X146651656Y-232414896D01*
X146986682Y-233223721D02*
X146916917Y-233143280D01*
X146891146Y-233081063D01*
X146883597Y-232974851D01*
X146992936Y-232710886D01*
X147073376Y-232641120D01*
X147135593Y-232615349D01*
X147241805Y-232607801D01*
X147373788Y-232662470D01*
X147443553Y-232742910D01*
X147469324Y-232805128D01*
X147476872Y-232911339D01*
X147367534Y-233175305D01*
X147287094Y-233245070D01*
X147224877Y-233270841D01*
X147118665Y-233278390D01*
X146986682Y-233223721D01*
X147690591Y-233515289D02*
X147945713Y-232899369D01*
X147872821Y-233075346D02*
X147953261Y-233005581D01*
X148015478Y-232979810D01*
X148121690Y-232972261D01*
X148209679Y-233008707D01*
X148006099Y-233749062D02*
X148710007Y-234040630D01*
X149317083Y-233570494D02*
X149247318Y-233490054D01*
X149221547Y-233427837D01*
X149213998Y-233321625D01*
X149232221Y-233277631D01*
X149312662Y-233207866D01*
X149374879Y-233182094D01*
X149481091Y-233174546D01*
X149657068Y-233247438D01*
X149726833Y-233327878D01*
X149752604Y-233390096D01*
X149760153Y-233496307D01*
X149741930Y-233540302D01*
X149661489Y-233610067D01*
X149599272Y-233635838D01*
X149493060Y-233643387D01*
X149317083Y-233570494D01*
X149210872Y-233578043D01*
X149148655Y-233603814D01*
X149068214Y-233673579D01*
X148995322Y-233849556D01*
X149002870Y-233955768D01*
X149028642Y-234017985D01*
X149098407Y-234098426D01*
X149274384Y-234171318D01*
X149380596Y-234163769D01*
X149442813Y-234137998D01*
X149523253Y-234068233D01*
X149596145Y-233892256D01*
X149588597Y-233786044D01*
X149562826Y-233723827D01*
X149493060Y-233643387D01*
X145351349Y-226034001D02*
X145421114Y-226114441D01*
X145597091Y-226187334D01*
X145703303Y-226179785D01*
X145783743Y-226110020D01*
X145801966Y-226066026D01*
X145794418Y-225959814D01*
X145724652Y-225879374D01*
X145592670Y-225824705D01*
X145522904Y-225744264D01*
X145515356Y-225638053D01*
X145533579Y-225594059D01*
X145614019Y-225524293D01*
X145720231Y-225516745D01*
X145852213Y-225571414D01*
X145921979Y-225651854D01*
X147788917Y-226682878D02*
X148492825Y-226974446D01*
X150135571Y-227654894D02*
X150839479Y-227946462D01*
X150341741Y-228152632D02*
X150633309Y-227448724D01*
%TO.C,ir_sensor_12*%
X280131289Y-180369611D02*
X279515369Y-180114489D01*
X279207410Y-179986928D02*
X279233181Y-180049145D01*
X279295398Y-180023374D01*
X279269627Y-179961156D01*
X279207410Y-179986928D01*
X279295398Y-180023374D01*
X280313519Y-179929668D02*
X279697600Y-179674546D01*
X279873577Y-179747438D02*
X279803811Y-179666998D01*
X279778040Y-179604781D01*
X279770492Y-179498569D01*
X279806938Y-179410580D01*
X280547292Y-179614160D02*
X280838860Y-178910252D01*
X280779770Y-178679606D02*
X280860210Y-178609840D01*
X280933102Y-178433863D01*
X280925554Y-178327652D01*
X280855788Y-178247212D01*
X280811794Y-178228988D01*
X280705582Y-178236537D01*
X280625142Y-178306302D01*
X280570473Y-178438285D01*
X280490033Y-178508051D01*
X280383821Y-178515599D01*
X280339827Y-178497376D01*
X280270061Y-178416935D01*
X280262513Y-178310724D01*
X280317182Y-178178741D01*
X280397623Y-178108976D01*
X281253568Y-177535755D02*
X281261116Y-177641967D01*
X281188224Y-177817944D01*
X281107784Y-177887709D01*
X281001572Y-177895257D01*
X280649618Y-177749473D01*
X280579853Y-177669033D01*
X280572305Y-177562821D01*
X280645197Y-177386844D01*
X280725637Y-177317079D01*
X280831849Y-177309531D01*
X280919837Y-177345977D01*
X280825595Y-177822365D01*
X280863873Y-176858913D02*
X281479793Y-177114035D01*
X280951861Y-176895359D02*
X280926090Y-176833142D01*
X280918542Y-176726930D01*
X280973211Y-176594948D01*
X281053651Y-176525182D01*
X281159863Y-176517634D01*
X281643800Y-176718087D01*
X281763813Y-176303916D02*
X281844253Y-176234150D01*
X281917145Y-176058173D01*
X281909597Y-175951962D01*
X281839831Y-175871521D01*
X281795837Y-175853298D01*
X281689626Y-175860846D01*
X281609185Y-175930612D01*
X281554516Y-176062595D01*
X281474076Y-176132360D01*
X281367864Y-176139909D01*
X281323870Y-176121685D01*
X281254105Y-176041245D01*
X281246556Y-175935034D01*
X281301225Y-175803051D01*
X281381666Y-175733285D01*
X282190490Y-175398259D02*
X282110050Y-175468025D01*
X282047833Y-175493796D01*
X281941621Y-175501344D01*
X281677656Y-175392006D01*
X281607890Y-175311566D01*
X281582119Y-175249348D01*
X281574571Y-175143137D01*
X281629240Y-175011154D01*
X281709680Y-174941389D01*
X281771897Y-174915617D01*
X281878109Y-174908069D01*
X282142074Y-175017407D01*
X282211840Y-175097848D01*
X282237611Y-175160065D01*
X282245159Y-175266276D01*
X282190490Y-175398259D01*
X282482059Y-174694351D02*
X281866139Y-174439229D01*
X282042116Y-174512121D02*
X281972351Y-174431680D01*
X281946579Y-174369463D01*
X281939031Y-174263252D01*
X281975477Y-174175263D01*
X282715831Y-174378843D02*
X283007400Y-173674935D01*
X283210980Y-172934580D02*
X282992303Y-173462512D01*
X283101641Y-173198546D02*
X282177762Y-172815863D01*
X282273299Y-172958520D01*
X282324841Y-173082955D01*
X282332389Y-173189166D01*
X282520873Y-172236389D02*
X282495101Y-172174172D01*
X282487553Y-172067960D01*
X282578668Y-171847989D01*
X282659109Y-171778223D01*
X282721326Y-171752452D01*
X282827537Y-171744904D01*
X282915526Y-171781350D01*
X283029286Y-171880013D01*
X283338541Y-172626621D01*
X283575440Y-172054695D01*
X275183001Y-176593650D02*
X275263441Y-176523885D01*
X275336334Y-176347908D01*
X275328785Y-176241696D01*
X275259020Y-176161256D01*
X275215026Y-176143033D01*
X275108814Y-176150581D01*
X275028374Y-176220347D01*
X274973705Y-176352329D01*
X274893264Y-176422095D01*
X274787053Y-176429643D01*
X274743059Y-176411420D01*
X274673293Y-176330980D01*
X274665745Y-176224768D01*
X274720414Y-176092786D01*
X274800854Y-176023020D01*
X275831878Y-174156082D02*
X276123446Y-173452174D01*
X276803894Y-171809428D02*
X277095462Y-171105520D01*
X277301632Y-171603258D02*
X276597724Y-171311690D01*
%TO.C,U2*%
X186182095Y-148804380D02*
X186182095Y-149613904D01*
X186229714Y-149709142D01*
X186277333Y-149756761D01*
X186372571Y-149804380D01*
X186563047Y-149804380D01*
X186658285Y-149756761D01*
X186705904Y-149709142D01*
X186753523Y-149613904D01*
X186753523Y-148804380D01*
X187182095Y-148899619D02*
X187229714Y-148852000D01*
X187324952Y-148804380D01*
X187563047Y-148804380D01*
X187658285Y-148852000D01*
X187705904Y-148899619D01*
X187753523Y-148994857D01*
X187753523Y-149090095D01*
X187705904Y-149232952D01*
X187134476Y-149804380D01*
X187753523Y-149804380D01*
%TO.C,xt60*%
X230954000Y-89894380D02*
X231477809Y-89227714D01*
X230954000Y-89227714D02*
X231477809Y-89894380D01*
X231715904Y-89227714D02*
X232096857Y-89227714D01*
X231858761Y-88894380D02*
X231858761Y-89751523D01*
X231906380Y-89846761D01*
X232001619Y-89894380D01*
X232096857Y-89894380D01*
X232858761Y-88894380D02*
X232668285Y-88894380D01*
X232573047Y-88942000D01*
X232525428Y-88989619D01*
X232430190Y-89132476D01*
X232382571Y-89322952D01*
X232382571Y-89703904D01*
X232430190Y-89799142D01*
X232477809Y-89846761D01*
X232573047Y-89894380D01*
X232763523Y-89894380D01*
X232858761Y-89846761D01*
X232906380Y-89799142D01*
X232954000Y-89703904D01*
X232954000Y-89465809D01*
X232906380Y-89370571D01*
X232858761Y-89322952D01*
X232763523Y-89275333D01*
X232573047Y-89275333D01*
X232477809Y-89322952D01*
X232430190Y-89370571D01*
X232382571Y-89465809D01*
X233573047Y-88894380D02*
X233668285Y-88894380D01*
X233763523Y-88942000D01*
X233811142Y-88989619D01*
X233858761Y-89084857D01*
X233906380Y-89275333D01*
X233906380Y-89513428D01*
X233858761Y-89703904D01*
X233811142Y-89799142D01*
X233763523Y-89846761D01*
X233668285Y-89894380D01*
X233573047Y-89894380D01*
X233477809Y-89846761D01*
X233430190Y-89799142D01*
X233382571Y-89703904D01*
X233334952Y-89513428D01*
X233334952Y-89275333D01*
X233382571Y-89084857D01*
X233430190Y-88989619D01*
X233477809Y-88942000D01*
X233573047Y-88894380D01*
%TO.C,xt30*%
X217535000Y-86368380D02*
X218058809Y-85701714D01*
X217535000Y-85701714D02*
X218058809Y-86368380D01*
X218296904Y-85701714D02*
X218677857Y-85701714D01*
X218439761Y-85368380D02*
X218439761Y-86225523D01*
X218487380Y-86320761D01*
X218582619Y-86368380D01*
X218677857Y-86368380D01*
X218915952Y-85368380D02*
X219535000Y-85368380D01*
X219201666Y-85749333D01*
X219344523Y-85749333D01*
X219439761Y-85796952D01*
X219487380Y-85844571D01*
X219535000Y-85939809D01*
X219535000Y-86177904D01*
X219487380Y-86273142D01*
X219439761Y-86320761D01*
X219344523Y-86368380D01*
X219058809Y-86368380D01*
X218963571Y-86320761D01*
X218915952Y-86273142D01*
X220154047Y-85368380D02*
X220249285Y-85368380D01*
X220344523Y-85416000D01*
X220392142Y-85463619D01*
X220439761Y-85558857D01*
X220487380Y-85749333D01*
X220487380Y-85987428D01*
X220439761Y-86177904D01*
X220392142Y-86273142D01*
X220344523Y-86320761D01*
X220249285Y-86368380D01*
X220154047Y-86368380D01*
X220058809Y-86320761D01*
X220011190Y-86273142D01*
X219963571Y-86177904D01*
X219915952Y-85987428D01*
X219915952Y-85749333D01*
X219963571Y-85558857D01*
X220011190Y-85463619D01*
X220058809Y-85416000D01*
X220154047Y-85368380D01*
X211963571Y-90023142D02*
X213106428Y-90023142D01*
X224963571Y-90023142D02*
X226106428Y-90023142D01*
X225535000Y-90594571D02*
X225535000Y-89451714D01*
%TO.C,5V_converter1*%
D14*
X231998761Y-110556523D02*
X231394000Y-110556523D01*
X231333523Y-111161285D01*
X231394000Y-111100809D01*
X231514952Y-111040333D01*
X231817333Y-111040333D01*
X231938285Y-111100809D01*
X231998761Y-111161285D01*
X232059238Y-111282238D01*
X232059238Y-111584619D01*
X231998761Y-111705571D01*
X231938285Y-111766047D01*
X231817333Y-111826523D01*
X231514952Y-111826523D01*
X231394000Y-111766047D01*
X231333523Y-111705571D01*
X232422095Y-110556523D02*
X232845428Y-111826523D01*
X233268761Y-110556523D01*
X233389714Y-111947476D02*
X234357333Y-111947476D01*
X235204000Y-111766047D02*
X235083047Y-111826523D01*
X234841142Y-111826523D01*
X234720190Y-111766047D01*
X234659714Y-111705571D01*
X234599238Y-111584619D01*
X234599238Y-111221761D01*
X234659714Y-111100809D01*
X234720190Y-111040333D01*
X234841142Y-110979857D01*
X235083047Y-110979857D01*
X235204000Y-111040333D01*
X235929714Y-111826523D02*
X235808761Y-111766047D01*
X235748285Y-111705571D01*
X235687809Y-111584619D01*
X235687809Y-111221761D01*
X235748285Y-111100809D01*
X235808761Y-111040333D01*
X235929714Y-110979857D01*
X236111142Y-110979857D01*
X236232095Y-111040333D01*
X236292571Y-111100809D01*
X236353047Y-111221761D01*
X236353047Y-111584619D01*
X236292571Y-111705571D01*
X236232095Y-111766047D01*
X236111142Y-111826523D01*
X235929714Y-111826523D01*
X236897333Y-110979857D02*
X236897333Y-111826523D01*
X236897333Y-111100809D02*
X236957809Y-111040333D01*
X237078761Y-110979857D01*
X237260190Y-110979857D01*
X237381142Y-111040333D01*
X237441619Y-111161285D01*
X237441619Y-111826523D01*
X237925428Y-110979857D02*
X238227809Y-111826523D01*
X238530190Y-110979857D01*
X239497809Y-111766047D02*
X239376857Y-111826523D01*
X239134952Y-111826523D01*
X239014000Y-111766047D01*
X238953523Y-111645095D01*
X238953523Y-111161285D01*
X239014000Y-111040333D01*
X239134952Y-110979857D01*
X239376857Y-110979857D01*
X239497809Y-111040333D01*
X239558285Y-111161285D01*
X239558285Y-111282238D01*
X238953523Y-111403190D01*
X240102571Y-111826523D02*
X240102571Y-110979857D01*
X240102571Y-111221761D02*
X240163047Y-111100809D01*
X240223523Y-111040333D01*
X240344476Y-110979857D01*
X240465428Y-110979857D01*
X240707333Y-110979857D02*
X241191142Y-110979857D01*
X240888761Y-110556523D02*
X240888761Y-111645095D01*
X240949238Y-111766047D01*
X241070190Y-111826523D01*
X241191142Y-111826523D01*
X242098285Y-111766047D02*
X241977333Y-111826523D01*
X241735428Y-111826523D01*
X241614476Y-111766047D01*
X241554000Y-111645095D01*
X241554000Y-111161285D01*
X241614476Y-111040333D01*
X241735428Y-110979857D01*
X241977333Y-110979857D01*
X242098285Y-111040333D01*
X242158761Y-111161285D01*
X242158761Y-111282238D01*
X241554000Y-111403190D01*
X242703047Y-111826523D02*
X242703047Y-110979857D01*
X242703047Y-111221761D02*
X242763523Y-111100809D01*
X242824000Y-111040333D01*
X242944952Y-110979857D01*
X243065904Y-110979857D01*
X244154476Y-111826523D02*
X243428761Y-111826523D01*
X243791619Y-111826523D02*
X243791619Y-110556523D01*
X243670666Y-110737952D01*
X243549714Y-110858904D01*
X243428761Y-110919380D01*
%TO.C,3V3_converter1*%
X169708285Y-88966523D02*
X170494476Y-88966523D01*
X170071142Y-89450333D01*
X170252571Y-89450333D01*
X170373523Y-89510809D01*
X170434000Y-89571285D01*
X170494476Y-89692238D01*
X170494476Y-89994619D01*
X170434000Y-90115571D01*
X170373523Y-90176047D01*
X170252571Y-90236523D01*
X169889714Y-90236523D01*
X169768761Y-90176047D01*
X169708285Y-90115571D01*
X170857333Y-88966523D02*
X171280666Y-90236523D01*
X171704000Y-88966523D01*
X172006380Y-88966523D02*
X172792571Y-88966523D01*
X172369238Y-89450333D01*
X172550666Y-89450333D01*
X172671619Y-89510809D01*
X172732095Y-89571285D01*
X172792571Y-89692238D01*
X172792571Y-89994619D01*
X172732095Y-90115571D01*
X172671619Y-90176047D01*
X172550666Y-90236523D01*
X172187809Y-90236523D01*
X172066857Y-90176047D01*
X172006380Y-90115571D01*
X173034476Y-90357476D02*
X174002095Y-90357476D01*
X174848761Y-90176047D02*
X174727809Y-90236523D01*
X174485904Y-90236523D01*
X174364952Y-90176047D01*
X174304476Y-90115571D01*
X174244000Y-89994619D01*
X174244000Y-89631761D01*
X174304476Y-89510809D01*
X174364952Y-89450333D01*
X174485904Y-89389857D01*
X174727809Y-89389857D01*
X174848761Y-89450333D01*
X175574476Y-90236523D02*
X175453523Y-90176047D01*
X175393047Y-90115571D01*
X175332571Y-89994619D01*
X175332571Y-89631761D01*
X175393047Y-89510809D01*
X175453523Y-89450333D01*
X175574476Y-89389857D01*
X175755904Y-89389857D01*
X175876857Y-89450333D01*
X175937333Y-89510809D01*
X175997809Y-89631761D01*
X175997809Y-89994619D01*
X175937333Y-90115571D01*
X175876857Y-90176047D01*
X175755904Y-90236523D01*
X175574476Y-90236523D01*
X176542095Y-89389857D02*
X176542095Y-90236523D01*
X176542095Y-89510809D02*
X176602571Y-89450333D01*
X176723523Y-89389857D01*
X176904952Y-89389857D01*
X177025904Y-89450333D01*
X177086380Y-89571285D01*
X177086380Y-90236523D01*
X177570190Y-89389857D02*
X177872571Y-90236523D01*
X178174952Y-89389857D01*
X179142571Y-90176047D02*
X179021619Y-90236523D01*
X178779714Y-90236523D01*
X178658761Y-90176047D01*
X178598285Y-90055095D01*
X178598285Y-89571285D01*
X178658761Y-89450333D01*
X178779714Y-89389857D01*
X179021619Y-89389857D01*
X179142571Y-89450333D01*
X179203047Y-89571285D01*
X179203047Y-89692238D01*
X178598285Y-89813190D01*
X179747333Y-90236523D02*
X179747333Y-89389857D01*
X179747333Y-89631761D02*
X179807809Y-89510809D01*
X179868285Y-89450333D01*
X179989238Y-89389857D01*
X180110190Y-89389857D01*
X180352095Y-89389857D02*
X180835904Y-89389857D01*
X180533523Y-88966523D02*
X180533523Y-90055095D01*
X180594000Y-90176047D01*
X180714952Y-90236523D01*
X180835904Y-90236523D01*
X181743047Y-90176047D02*
X181622095Y-90236523D01*
X181380190Y-90236523D01*
X181259238Y-90176047D01*
X181198761Y-90055095D01*
X181198761Y-89571285D01*
X181259238Y-89450333D01*
X181380190Y-89389857D01*
X181622095Y-89389857D01*
X181743047Y-89450333D01*
X181803523Y-89571285D01*
X181803523Y-89692238D01*
X181198761Y-89813190D01*
X182347809Y-90236523D02*
X182347809Y-89389857D01*
X182347809Y-89631761D02*
X182408285Y-89510809D01*
X182468761Y-89450333D01*
X182589714Y-89389857D01*
X182710666Y-89389857D01*
X183799238Y-90236523D02*
X183073523Y-90236523D01*
X183436380Y-90236523D02*
X183436380Y-88966523D01*
X183315428Y-89147952D01*
X183194476Y-89268904D01*
X183073523Y-89329380D01*
%TO.C,U1*%
D11*
X216662095Y-118324380D02*
X216662095Y-119133904D01*
X216709714Y-119229142D01*
X216757333Y-119276761D01*
X216852571Y-119324380D01*
X217043047Y-119324380D01*
X217138285Y-119276761D01*
X217185904Y-119229142D01*
X217233523Y-119133904D01*
X217233523Y-118324380D01*
X218233523Y-119324380D02*
X217662095Y-119324380D01*
X217947809Y-119324380D02*
X217947809Y-118324380D01*
X217852571Y-118467238D01*
X217757333Y-118562476D01*
X217662095Y-118610095D01*
%TO.C,R7*%
X228687333Y-153614380D02*
X228354000Y-153138190D01*
X228115904Y-153614380D02*
X228115904Y-152614380D01*
X228496857Y-152614380D01*
X228592095Y-152662000D01*
X228639714Y-152709619D01*
X228687333Y-152804857D01*
X228687333Y-152947714D01*
X228639714Y-153042952D01*
X228592095Y-153090571D01*
X228496857Y-153138190D01*
X228115904Y-153138190D01*
X229020666Y-152614380D02*
X229687333Y-152614380D01*
X229258761Y-153614380D01*
%TO.C,R6*%
X228687333Y-156154380D02*
X228354000Y-155678190D01*
X228115904Y-156154380D02*
X228115904Y-155154380D01*
X228496857Y-155154380D01*
X228592095Y-155202000D01*
X228639714Y-155249619D01*
X228687333Y-155344857D01*
X228687333Y-155487714D01*
X228639714Y-155582952D01*
X228592095Y-155630571D01*
X228496857Y-155678190D01*
X228115904Y-155678190D01*
X229544476Y-155154380D02*
X229354000Y-155154380D01*
X229258761Y-155202000D01*
X229211142Y-155249619D01*
X229115904Y-155392476D01*
X229068285Y-155582952D01*
X229068285Y-155963904D01*
X229115904Y-156059142D01*
X229163523Y-156106761D01*
X229258761Y-156154380D01*
X229449238Y-156154380D01*
X229544476Y-156106761D01*
X229592095Y-156059142D01*
X229639714Y-155963904D01*
X229639714Y-155725809D01*
X229592095Y-155630571D01*
X229544476Y-155582952D01*
X229449238Y-155535333D01*
X229258761Y-155535333D01*
X229163523Y-155582952D01*
X229115904Y-155630571D01*
X229068285Y-155725809D01*
%TO.C,R5*%
X228687333Y-158694380D02*
X228354000Y-158218190D01*
X228115904Y-158694380D02*
X228115904Y-157694380D01*
X228496857Y-157694380D01*
X228592095Y-157742000D01*
X228639714Y-157789619D01*
X228687333Y-157884857D01*
X228687333Y-158027714D01*
X228639714Y-158122952D01*
X228592095Y-158170571D01*
X228496857Y-158218190D01*
X228115904Y-158218190D01*
X229592095Y-157694380D02*
X229115904Y-157694380D01*
X229068285Y-158170571D01*
X229115904Y-158122952D01*
X229211142Y-158075333D01*
X229449238Y-158075333D01*
X229544476Y-158122952D01*
X229592095Y-158170571D01*
X229639714Y-158265809D01*
X229639714Y-158503904D01*
X229592095Y-158599142D01*
X229544476Y-158646761D01*
X229449238Y-158694380D01*
X229211142Y-158694380D01*
X229115904Y-158646761D01*
X229068285Y-158599142D01*
%TO.C,R4*%
X228687333Y-161234380D02*
X228354000Y-160758190D01*
X228115904Y-161234380D02*
X228115904Y-160234380D01*
X228496857Y-160234380D01*
X228592095Y-160282000D01*
X228639714Y-160329619D01*
X228687333Y-160424857D01*
X228687333Y-160567714D01*
X228639714Y-160662952D01*
X228592095Y-160710571D01*
X228496857Y-160758190D01*
X228115904Y-160758190D01*
X229544476Y-160567714D02*
X229544476Y-161234380D01*
X229306380Y-160186761D02*
X229068285Y-160901047D01*
X229687333Y-160901047D01*
%TO.C,R3*%
X228687333Y-163774380D02*
X228354000Y-163298190D01*
X228115904Y-163774380D02*
X228115904Y-162774380D01*
X228496857Y-162774380D01*
X228592095Y-162822000D01*
X228639714Y-162869619D01*
X228687333Y-162964857D01*
X228687333Y-163107714D01*
X228639714Y-163202952D01*
X228592095Y-163250571D01*
X228496857Y-163298190D01*
X228115904Y-163298190D01*
X229020666Y-162774380D02*
X229639714Y-162774380D01*
X229306380Y-163155333D01*
X229449238Y-163155333D01*
X229544476Y-163202952D01*
X229592095Y-163250571D01*
X229639714Y-163345809D01*
X229639714Y-163583904D01*
X229592095Y-163679142D01*
X229544476Y-163726761D01*
X229449238Y-163774380D01*
X229163523Y-163774380D01*
X229068285Y-163726761D01*
X229020666Y-163679142D01*
%TO.C,R2*%
X228687333Y-166314380D02*
X228354000Y-165838190D01*
X228115904Y-166314380D02*
X228115904Y-165314380D01*
X228496857Y-165314380D01*
X228592095Y-165362000D01*
X228639714Y-165409619D01*
X228687333Y-165504857D01*
X228687333Y-165647714D01*
X228639714Y-165742952D01*
X228592095Y-165790571D01*
X228496857Y-165838190D01*
X228115904Y-165838190D01*
X229068285Y-165409619D02*
X229115904Y-165362000D01*
X229211142Y-165314380D01*
X229449238Y-165314380D01*
X229544476Y-165362000D01*
X229592095Y-165409619D01*
X229639714Y-165504857D01*
X229639714Y-165600095D01*
X229592095Y-165742952D01*
X229020666Y-166314380D01*
X229639714Y-166314380D01*
%TO.C,R1*%
X212177333Y-172664380D02*
X211844000Y-172188190D01*
X211605904Y-172664380D02*
X211605904Y-171664380D01*
X211986857Y-171664380D01*
X212082095Y-171712000D01*
X212129714Y-171759619D01*
X212177333Y-171854857D01*
X212177333Y-171997714D01*
X212129714Y-172092952D01*
X212082095Y-172140571D01*
X211986857Y-172188190D01*
X211605904Y-172188190D01*
X213129714Y-172664380D02*
X212558285Y-172664380D01*
X212844000Y-172664380D02*
X212844000Y-171664380D01*
X212748761Y-171807238D01*
X212653523Y-171902476D01*
X212558285Y-171950095D01*
%TO.C,ir_sensor_16*%
X221155452Y-39731673D02*
X221410574Y-39115753D01*
X221538135Y-38807794D02*
X221475918Y-38833565D01*
X221501689Y-38895782D01*
X221563907Y-38870011D01*
X221538135Y-38807794D01*
X221501689Y-38895782D01*
X221595395Y-39913903D02*
X221850517Y-39297984D01*
X221777625Y-39473961D02*
X221858065Y-39404195D01*
X221920282Y-39378424D01*
X222026494Y-39370876D01*
X222114483Y-39407322D01*
X221910903Y-40147676D02*
X222614811Y-40439244D01*
X222845457Y-40380154D02*
X222915223Y-40460594D01*
X223091200Y-40533486D01*
X223197411Y-40525938D01*
X223277851Y-40456172D01*
X223296075Y-40412178D01*
X223288526Y-40305966D01*
X223218761Y-40225526D01*
X223086778Y-40170857D01*
X223017012Y-40090417D01*
X223009464Y-39984205D01*
X223027687Y-39940211D01*
X223108128Y-39870445D01*
X223214339Y-39862897D01*
X223346322Y-39917566D01*
X223416087Y-39998007D01*
X223989308Y-40853952D02*
X223883096Y-40861500D01*
X223707119Y-40788608D01*
X223637354Y-40708168D01*
X223629806Y-40601956D01*
X223775590Y-40250002D01*
X223856030Y-40180237D01*
X223962242Y-40172689D01*
X224138219Y-40245581D01*
X224207984Y-40326021D01*
X224215532Y-40432233D01*
X224179086Y-40520221D01*
X223702698Y-40425979D01*
X224666150Y-40464257D02*
X224411028Y-41080177D01*
X224629704Y-40552245D02*
X224691921Y-40526474D01*
X224798133Y-40518926D01*
X224930115Y-40573595D01*
X224999881Y-40654035D01*
X225007429Y-40760247D01*
X224806976Y-41244184D01*
X225221147Y-41364197D02*
X225290913Y-41444637D01*
X225466890Y-41517529D01*
X225573101Y-41509981D01*
X225653542Y-41440215D01*
X225671765Y-41396221D01*
X225664217Y-41290010D01*
X225594451Y-41209569D01*
X225462468Y-41154900D01*
X225392703Y-41074460D01*
X225385154Y-40968248D01*
X225403378Y-40924254D01*
X225483818Y-40854489D01*
X225590029Y-40846940D01*
X225722012Y-40901609D01*
X225791778Y-40982050D01*
X226126804Y-41790874D02*
X226057038Y-41710434D01*
X226031267Y-41648217D01*
X226023719Y-41542005D01*
X226133057Y-41278040D01*
X226213497Y-41208274D01*
X226275715Y-41182503D01*
X226381926Y-41174955D01*
X226513909Y-41229624D01*
X226583674Y-41310064D01*
X226609446Y-41372281D01*
X226616994Y-41478493D01*
X226507656Y-41742458D01*
X226427215Y-41812224D01*
X226364998Y-41837995D01*
X226258787Y-41845543D01*
X226126804Y-41790874D01*
X226830712Y-42082443D02*
X227085834Y-41466523D01*
X227012942Y-41642500D02*
X227093383Y-41572735D01*
X227155600Y-41546963D01*
X227261811Y-41539415D01*
X227349800Y-41575861D01*
X227146220Y-42316215D02*
X227850128Y-42607784D01*
X228590483Y-42811364D02*
X228062551Y-42592687D01*
X228326517Y-42702025D02*
X228709200Y-41778146D01*
X228566543Y-41873683D01*
X228442108Y-41925225D01*
X228335897Y-41932773D01*
X229765063Y-42215498D02*
X229589086Y-42142606D01*
X229482874Y-42150155D01*
X229420657Y-42175926D01*
X229277999Y-42271463D01*
X229161113Y-42429217D01*
X229015329Y-42781171D01*
X229022877Y-42887382D01*
X229048648Y-42949599D01*
X229118414Y-43030040D01*
X229294391Y-43102932D01*
X229400602Y-43095384D01*
X229462820Y-43069612D01*
X229543260Y-42999847D01*
X229634375Y-42779876D01*
X229626827Y-42673664D01*
X229601056Y-42611447D01*
X229531290Y-42531006D01*
X229355313Y-42458114D01*
X229249101Y-42465663D01*
X229186884Y-42491434D01*
X229106444Y-42561199D01*
X225290911Y-47853893D02*
X225360676Y-47934333D01*
X225536653Y-48007226D01*
X225642865Y-47999677D01*
X225723305Y-47929912D01*
X225741528Y-47885918D01*
X225733980Y-47779706D01*
X225664214Y-47699266D01*
X225532232Y-47644597D01*
X225462466Y-47564156D01*
X225454918Y-47457945D01*
X225473141Y-47413951D01*
X225553581Y-47344185D01*
X225659793Y-47336637D01*
X225791775Y-47391306D01*
X225861541Y-47471746D01*
X222800505Y-46461536D02*
X223504413Y-46753104D01*
X220453851Y-45489520D02*
X221157759Y-45781088D01*
X220660021Y-45987258D02*
X220951589Y-45283350D01*
%TO.C,ir_sensor_15*%
X255377075Y-60618634D02*
X255848480Y-60147230D01*
X256084182Y-59911528D02*
X256016838Y-59911528D01*
X256016838Y-59978871D01*
X256084182Y-59978871D01*
X256084182Y-59911528D01*
X256016838Y-59978871D01*
X255713793Y-60955352D02*
X256185197Y-60483947D01*
X256050510Y-60618634D02*
X256151526Y-60584963D01*
X256218869Y-60584963D01*
X256319884Y-60618634D01*
X256387228Y-60685978D01*
X255915823Y-61292070D02*
X256454571Y-61830818D01*
X256690274Y-61864489D02*
X256723945Y-61965505D01*
X256858632Y-62100192D01*
X256959648Y-62133863D01*
X257060663Y-62100192D01*
X257094335Y-62066520D01*
X257128006Y-61965505D01*
X257094335Y-61864489D01*
X256993319Y-61763474D01*
X256959648Y-61662459D01*
X256993319Y-61561444D01*
X257026991Y-61527772D01*
X257128006Y-61494100D01*
X257229022Y-61527772D01*
X257330037Y-61628787D01*
X257363709Y-61729802D01*
X257565739Y-62739955D02*
X257464724Y-62706283D01*
X257330037Y-62571596D01*
X257296365Y-62470581D01*
X257330037Y-62369566D01*
X257599411Y-62100192D01*
X257700426Y-62066520D01*
X257801441Y-62100192D01*
X257936128Y-62234879D01*
X257969800Y-62335894D01*
X257936128Y-62436909D01*
X257868785Y-62504253D01*
X257464724Y-62234879D01*
X258340189Y-62638940D02*
X257868785Y-63110344D01*
X258272846Y-62706283D02*
X258340189Y-62706283D01*
X258441205Y-62739955D01*
X258542220Y-62840970D01*
X258575892Y-62941985D01*
X258542220Y-63043001D01*
X258171831Y-63413390D01*
X258508548Y-63682764D02*
X258542220Y-63783779D01*
X258676907Y-63918466D01*
X258777922Y-63952138D01*
X258878937Y-63918466D01*
X258912609Y-63884794D01*
X258946281Y-63783779D01*
X258912609Y-63682764D01*
X258811594Y-63581749D01*
X258777922Y-63480733D01*
X258811594Y-63379718D01*
X258845266Y-63346046D01*
X258946281Y-63312375D01*
X259047296Y-63346046D01*
X259148311Y-63447062D01*
X259181983Y-63548077D01*
X259181983Y-64423542D02*
X259148311Y-64322527D01*
X259148311Y-64255184D01*
X259181983Y-64154168D01*
X259384014Y-63952138D01*
X259485029Y-63918466D01*
X259552372Y-63918466D01*
X259653388Y-63952138D01*
X259754403Y-64053153D01*
X259788075Y-64154168D01*
X259788075Y-64221512D01*
X259754403Y-64322527D01*
X259552372Y-64524558D01*
X259451357Y-64558229D01*
X259384014Y-64558229D01*
X259282998Y-64524558D01*
X259181983Y-64423542D01*
X259720731Y-64962290D02*
X260192136Y-64490886D01*
X260057449Y-64625573D02*
X260158464Y-64591901D01*
X260225807Y-64591901D01*
X260326823Y-64625573D01*
X260394166Y-64692916D01*
X259922762Y-65299008D02*
X260461510Y-65837756D01*
X261067601Y-66309161D02*
X260663540Y-65905099D01*
X260865571Y-66107130D02*
X261572677Y-65400023D01*
X261404319Y-65433695D01*
X261269632Y-65433695D01*
X261168616Y-65400023D01*
X262414471Y-66241817D02*
X262077754Y-65905099D01*
X261707365Y-66208145D01*
X261774708Y-66208145D01*
X261875723Y-66241817D01*
X262044082Y-66410176D01*
X262077754Y-66511191D01*
X262077754Y-66578535D01*
X262044082Y-66679550D01*
X261875723Y-66847909D01*
X261774708Y-66881580D01*
X261707365Y-66881580D01*
X261606349Y-66847909D01*
X261437990Y-66679550D01*
X261404319Y-66578535D01*
X261404319Y-66511191D01*
X256089503Y-69705159D02*
X256123174Y-69806174D01*
X256257861Y-69940861D01*
X256358877Y-69974533D01*
X256459892Y-69940861D01*
X256493564Y-69907189D01*
X256527236Y-69806174D01*
X256493564Y-69705159D01*
X256392548Y-69604143D01*
X256358877Y-69503128D01*
X256392548Y-69402113D01*
X256426220Y-69368441D01*
X256527236Y-69334769D01*
X256628251Y-69368441D01*
X256729266Y-69469456D01*
X256762938Y-69570471D01*
X254321500Y-67465751D02*
X254860248Y-68004499D01*
X252525449Y-65669700D02*
X253064197Y-66208448D01*
X252525449Y-66208448D02*
X253064197Y-65669700D01*
%TO.C,ir_sensor_14*%
X279124414Y-93214279D02*
X279740334Y-92959157D01*
X280048294Y-92831596D02*
X279986076Y-92805825D01*
X279960305Y-92868042D01*
X280022522Y-92893813D01*
X280048294Y-92831596D01*
X279960305Y-92868042D01*
X279306644Y-93654222D02*
X279922564Y-93399100D01*
X279746587Y-93471992D02*
X279852798Y-93479540D01*
X279915016Y-93505311D01*
X279995456Y-93575077D01*
X280031902Y-93663065D01*
X279364440Y-94042622D02*
X279656008Y-94746530D01*
X279860883Y-94867838D02*
X279853335Y-94974050D01*
X279926227Y-95150027D01*
X280006667Y-95219793D01*
X280112879Y-95227341D01*
X280156873Y-95209118D01*
X280226639Y-95128677D01*
X280234187Y-95022466D01*
X280179518Y-94890483D01*
X280187066Y-94784272D01*
X280256831Y-94703831D01*
X280300826Y-94685608D01*
X280407037Y-94693156D01*
X280487478Y-94762922D01*
X280542147Y-94894905D01*
X280534598Y-95001116D01*
X280334682Y-96011689D02*
X280254241Y-95941924D01*
X280181349Y-95765947D01*
X280188897Y-95659735D01*
X280258663Y-95579295D01*
X280610617Y-95433511D01*
X280716829Y-95441059D01*
X280797269Y-95510824D01*
X280870161Y-95686801D01*
X280862613Y-95793013D01*
X280792847Y-95873453D01*
X280704859Y-95909899D01*
X280434640Y-95506403D01*
X281088837Y-96214733D02*
X280472918Y-96469855D01*
X281000849Y-96251179D02*
X281063066Y-96276950D01*
X281143506Y-96346715D01*
X281198175Y-96478698D01*
X281190627Y-96584910D01*
X281120862Y-96665350D01*
X280636925Y-96865803D01*
X280844926Y-97243529D02*
X280837378Y-97349740D01*
X280910270Y-97525717D01*
X280990710Y-97595483D01*
X281096922Y-97603031D01*
X281140916Y-97584808D01*
X281210682Y-97504368D01*
X281218230Y-97398156D01*
X281163561Y-97266173D01*
X281171109Y-97159962D01*
X281240875Y-97079521D01*
X281284869Y-97061298D01*
X281391080Y-97068847D01*
X281471521Y-97138612D01*
X281526190Y-97270595D01*
X281518642Y-97376807D01*
X281183615Y-98185631D02*
X281191164Y-98079420D01*
X281216935Y-98017202D01*
X281286700Y-97936762D01*
X281550666Y-97827424D01*
X281656877Y-97834972D01*
X281719095Y-97860743D01*
X281799535Y-97930509D01*
X281854204Y-98062492D01*
X281846656Y-98168703D01*
X281820885Y-98230921D01*
X281751119Y-98311361D01*
X281487154Y-98420699D01*
X281380942Y-98413151D01*
X281318725Y-98387379D01*
X281238284Y-98317614D01*
X281183615Y-98185631D01*
X281475184Y-98889539D02*
X282091103Y-98634417D01*
X281915126Y-98707309D02*
X282021338Y-98714857D01*
X282083555Y-98740629D01*
X282163995Y-98810394D01*
X282200442Y-98898383D01*
X281532979Y-99277940D02*
X281824548Y-99981848D01*
X282204105Y-100649310D02*
X281985428Y-100121379D01*
X282094766Y-100385344D02*
X283018646Y-100002661D01*
X282850217Y-99969341D01*
X282725783Y-99917799D01*
X282645342Y-99848033D01*
X283148039Y-101186084D02*
X282532119Y-101441207D01*
X283408878Y-100820329D02*
X282657849Y-100873703D01*
X282894748Y-101445628D01*
X276305349Y-101881767D02*
X276297800Y-101987979D01*
X276370693Y-102163956D01*
X276451133Y-102233721D01*
X276557344Y-102241269D01*
X276601339Y-102223046D01*
X276671104Y-102142606D01*
X276678652Y-102036394D01*
X276623983Y-101904412D01*
X276631532Y-101798200D01*
X276701297Y-101717760D01*
X276745291Y-101699537D01*
X276851503Y-101707085D01*
X276931943Y-101776851D01*
X276986612Y-101908833D01*
X276979064Y-102015045D01*
X275528911Y-99136240D02*
X275820479Y-99840148D01*
X274556895Y-96789586D02*
X274848463Y-97493494D01*
X274350725Y-97287324D02*
X275054633Y-96995756D01*
%TO.C,ir_sensor_13*%
X289631380Y-141128190D02*
X288964714Y-141128190D01*
X288631380Y-141128190D02*
X288679000Y-141175809D01*
X288726619Y-141128190D01*
X288679000Y-141080571D01*
X288631380Y-141128190D01*
X288726619Y-141128190D01*
X289631380Y-140652000D02*
X288964714Y-140652000D01*
X289155190Y-140652000D02*
X289059952Y-140604380D01*
X289012333Y-140556761D01*
X288964714Y-140461523D01*
X288964714Y-140366285D01*
X289726619Y-140271047D02*
X289726619Y-139509142D01*
X289583761Y-139318666D02*
X289631380Y-139223428D01*
X289631380Y-139032952D01*
X289583761Y-138937714D01*
X289488523Y-138890095D01*
X289440904Y-138890095D01*
X289345666Y-138937714D01*
X289298047Y-139032952D01*
X289298047Y-139175809D01*
X289250428Y-139271047D01*
X289155190Y-139318666D01*
X289107571Y-139318666D01*
X289012333Y-139271047D01*
X288964714Y-139175809D01*
X288964714Y-139032952D01*
X289012333Y-138937714D01*
X289583761Y-138080571D02*
X289631380Y-138175809D01*
X289631380Y-138366285D01*
X289583761Y-138461523D01*
X289488523Y-138509142D01*
X289107571Y-138509142D01*
X289012333Y-138461523D01*
X288964714Y-138366285D01*
X288964714Y-138175809D01*
X289012333Y-138080571D01*
X289107571Y-138032952D01*
X289202809Y-138032952D01*
X289298047Y-138509142D01*
X288964714Y-137604380D02*
X289631380Y-137604380D01*
X289059952Y-137604380D02*
X289012333Y-137556761D01*
X288964714Y-137461523D01*
X288964714Y-137318666D01*
X289012333Y-137223428D01*
X289107571Y-137175809D01*
X289631380Y-137175809D01*
X289583761Y-136747238D02*
X289631380Y-136652000D01*
X289631380Y-136461523D01*
X289583761Y-136366285D01*
X289488523Y-136318666D01*
X289440904Y-136318666D01*
X289345666Y-136366285D01*
X289298047Y-136461523D01*
X289298047Y-136604380D01*
X289250428Y-136699619D01*
X289155190Y-136747238D01*
X289107571Y-136747238D01*
X289012333Y-136699619D01*
X288964714Y-136604380D01*
X288964714Y-136461523D01*
X289012333Y-136366285D01*
X289631380Y-135747238D02*
X289583761Y-135842476D01*
X289536142Y-135890095D01*
X289440904Y-135937714D01*
X289155190Y-135937714D01*
X289059952Y-135890095D01*
X289012333Y-135842476D01*
X288964714Y-135747238D01*
X288964714Y-135604380D01*
X289012333Y-135509142D01*
X289059952Y-135461523D01*
X289155190Y-135413904D01*
X289440904Y-135413904D01*
X289536142Y-135461523D01*
X289583761Y-135509142D01*
X289631380Y-135604380D01*
X289631380Y-135747238D01*
X289631380Y-134985333D02*
X288964714Y-134985333D01*
X289155190Y-134985333D02*
X289059952Y-134937714D01*
X289012333Y-134890095D01*
X288964714Y-134794857D01*
X288964714Y-134699619D01*
X289726619Y-134604380D02*
X289726619Y-133842476D01*
X289631380Y-133080571D02*
X289631380Y-133652000D01*
X289631380Y-133366285D02*
X288631380Y-133366285D01*
X288774238Y-133461523D01*
X288869476Y-133556761D01*
X288917095Y-133652000D01*
X288631380Y-132747238D02*
X288631380Y-132128190D01*
X289012333Y-132461523D01*
X289012333Y-132318666D01*
X289059952Y-132223428D01*
X289107571Y-132175809D01*
X289202809Y-132128190D01*
X289440904Y-132128190D01*
X289536142Y-132175809D01*
X289583761Y-132223428D01*
X289631380Y-132318666D01*
X289631380Y-132604380D01*
X289583761Y-132699619D01*
X289536142Y-132747238D01*
X283614761Y-139533285D02*
X283662380Y-139438047D01*
X283662380Y-139247571D01*
X283614761Y-139152333D01*
X283519523Y-139104714D01*
X283471904Y-139104714D01*
X283376666Y-139152333D01*
X283329047Y-139247571D01*
X283329047Y-139390428D01*
X283281428Y-139485666D01*
X283186190Y-139533285D01*
X283138571Y-139533285D01*
X283043333Y-139485666D01*
X282995714Y-139390428D01*
X282995714Y-139247571D01*
X283043333Y-139152333D01*
X283281428Y-137032952D02*
X283281428Y-136271047D01*
X283281428Y-134492952D02*
X283281428Y-133731047D01*
X283662380Y-134112000D02*
X282900476Y-134112000D01*
%TO.C,ir_sensor_11*%
X256016838Y-213325128D02*
X255545434Y-212853723D01*
X255309732Y-212618021D02*
X255309732Y-212685365D01*
X255377075Y-212685365D01*
X255377075Y-212618021D01*
X255309732Y-212618021D01*
X255377075Y-212685365D01*
X256353556Y-212988410D02*
X255882151Y-212517006D01*
X256016838Y-212651693D02*
X255983167Y-212550677D01*
X255983167Y-212483334D01*
X256016838Y-212382319D01*
X256084182Y-212314975D01*
X256690274Y-212786380D02*
X257229022Y-212247632D01*
X257262693Y-212011929D02*
X257363709Y-211978258D01*
X257498396Y-211843571D01*
X257532067Y-211742555D01*
X257498396Y-211641540D01*
X257464724Y-211607868D01*
X257363709Y-211574197D01*
X257262693Y-211607868D01*
X257161678Y-211708884D01*
X257060663Y-211742555D01*
X256959648Y-211708884D01*
X256925976Y-211675212D01*
X256892304Y-211574197D01*
X256925976Y-211473181D01*
X257026991Y-211372166D01*
X257128006Y-211338494D01*
X258138159Y-211136464D02*
X258104487Y-211237479D01*
X257969800Y-211372166D01*
X257868785Y-211405838D01*
X257767770Y-211372166D01*
X257498396Y-211102792D01*
X257464724Y-211001777D01*
X257498396Y-210900762D01*
X257633083Y-210766075D01*
X257734098Y-210732403D01*
X257835113Y-210766075D01*
X257902457Y-210833418D01*
X257633083Y-211237479D01*
X258037144Y-210362014D02*
X258508548Y-210833418D01*
X258104487Y-210429357D02*
X258104487Y-210362014D01*
X258138159Y-210260998D01*
X258239174Y-210159983D01*
X258340189Y-210126311D01*
X258441205Y-210159983D01*
X258811594Y-210530372D01*
X259080968Y-210193655D02*
X259181983Y-210159983D01*
X259316670Y-210025296D01*
X259350342Y-209924281D01*
X259316670Y-209823266D01*
X259282998Y-209789594D01*
X259181983Y-209755922D01*
X259080968Y-209789594D01*
X258979953Y-209890609D01*
X258878937Y-209924281D01*
X258777922Y-209890609D01*
X258744250Y-209856937D01*
X258710579Y-209755922D01*
X258744250Y-209654907D01*
X258845266Y-209553892D01*
X258946281Y-209520220D01*
X259821746Y-209520220D02*
X259720731Y-209553892D01*
X259653388Y-209553892D01*
X259552372Y-209520220D01*
X259350342Y-209318189D01*
X259316670Y-209217174D01*
X259316670Y-209149831D01*
X259350342Y-209048815D01*
X259451357Y-208947800D01*
X259552372Y-208914128D01*
X259619716Y-208914128D01*
X259720731Y-208947800D01*
X259922762Y-209149831D01*
X259956433Y-209250846D01*
X259956433Y-209318189D01*
X259922762Y-209419205D01*
X259821746Y-209520220D01*
X260360494Y-208981472D02*
X259889090Y-208510067D01*
X260023777Y-208644754D02*
X259990105Y-208543739D01*
X259990105Y-208476396D01*
X260023777Y-208375380D01*
X260091120Y-208308037D01*
X260697212Y-208779441D02*
X261235960Y-208240693D01*
X261707365Y-207634602D02*
X261303303Y-208038663D01*
X261505334Y-207836632D02*
X260798227Y-207129526D01*
X260831899Y-207297884D01*
X260831899Y-207432571D01*
X260798227Y-207533587D01*
X262380800Y-206961167D02*
X261976739Y-207365228D01*
X262178769Y-207163197D02*
X261471662Y-206456090D01*
X261505334Y-206624449D01*
X261505334Y-206759136D01*
X261471662Y-206860151D01*
X252890215Y-207942968D02*
X252991230Y-207909297D01*
X253125917Y-207774610D01*
X253159589Y-207673594D01*
X253125917Y-207572579D01*
X253092245Y-207538907D01*
X252991230Y-207505236D01*
X252890215Y-207538907D01*
X252789199Y-207639923D01*
X252688184Y-207673594D01*
X252587169Y-207639923D01*
X252553497Y-207606251D01*
X252519825Y-207505236D01*
X252553497Y-207404220D01*
X252654512Y-207303205D01*
X252755528Y-207269533D01*
X254422515Y-205939263D02*
X254961263Y-205400515D01*
X256218566Y-204143212D02*
X256757314Y-203604464D01*
X256757314Y-204143212D02*
X256218566Y-203604464D01*
%TO.C,ir_sensor_10*%
X221374689Y-234408217D02*
X221119567Y-233792297D01*
X220992006Y-233484337D02*
X220966235Y-233546555D01*
X221028452Y-233572326D01*
X221054223Y-233510109D01*
X220992006Y-233484337D01*
X221028452Y-233572326D01*
X221814632Y-234225987D02*
X221559510Y-233610067D01*
X221632402Y-233786044D02*
X221639950Y-233679833D01*
X221665721Y-233617615D01*
X221735487Y-233537175D01*
X221823475Y-233500729D01*
X222203032Y-234168191D02*
X222906940Y-233876623D01*
X223028248Y-233671748D02*
X223134460Y-233679296D01*
X223310437Y-233606404D01*
X223380203Y-233525964D01*
X223387751Y-233419752D01*
X223369528Y-233375758D01*
X223289087Y-233305992D01*
X223182876Y-233298444D01*
X223050893Y-233353113D01*
X222944682Y-233345565D01*
X222864241Y-233275800D01*
X222846018Y-233231805D01*
X222853566Y-233125594D01*
X222923332Y-233045153D01*
X223055315Y-232990484D01*
X223161526Y-232998033D01*
X224172099Y-233197949D02*
X224102334Y-233278390D01*
X223926357Y-233351282D01*
X223820145Y-233343734D01*
X223739705Y-233273968D01*
X223593921Y-232922014D01*
X223601469Y-232815802D01*
X223671234Y-232735362D01*
X223847211Y-232662470D01*
X223953423Y-232670018D01*
X224033863Y-232739784D01*
X224070309Y-232827772D01*
X223666813Y-233097991D01*
X224375143Y-232443794D02*
X224630265Y-233059713D01*
X224411589Y-232531782D02*
X224437360Y-232469565D01*
X224507125Y-232389125D01*
X224639108Y-232334456D01*
X224745320Y-232342004D01*
X224825760Y-232411769D01*
X225026213Y-232895706D01*
X225403939Y-232687705D02*
X225510150Y-232695253D01*
X225686127Y-232622361D01*
X225755893Y-232541921D01*
X225763441Y-232435709D01*
X225745218Y-232391715D01*
X225664778Y-232321949D01*
X225558566Y-232314401D01*
X225426583Y-232369070D01*
X225320372Y-232361522D01*
X225239931Y-232291756D01*
X225221708Y-232247762D01*
X225229257Y-232141551D01*
X225299022Y-232061110D01*
X225431005Y-232006441D01*
X225537217Y-232013989D01*
X226346041Y-232349016D02*
X226239830Y-232341467D01*
X226177612Y-232315696D01*
X226097172Y-232245931D01*
X225987834Y-231981965D01*
X225995382Y-231875754D01*
X226021153Y-231813536D01*
X226090919Y-231733096D01*
X226222902Y-231678427D01*
X226329113Y-231685975D01*
X226391331Y-231711746D01*
X226471771Y-231781512D01*
X226581109Y-232045477D01*
X226573561Y-232151689D01*
X226547789Y-232213906D01*
X226478024Y-232294347D01*
X226346041Y-232349016D01*
X227049949Y-232057447D02*
X226794827Y-231441528D01*
X226867719Y-231617505D02*
X226875267Y-231511293D01*
X226901039Y-231449076D01*
X226970804Y-231368636D01*
X227058793Y-231332189D01*
X227438350Y-231999652D02*
X228142258Y-231708083D01*
X228809720Y-231328526D02*
X228281789Y-231547203D01*
X228545754Y-231437865D02*
X228163071Y-230513985D01*
X228129751Y-230682414D01*
X228078209Y-230806848D01*
X228008443Y-230887289D01*
X228998962Y-230167748D02*
X229086950Y-230131302D01*
X229193162Y-230138850D01*
X229255379Y-230164621D01*
X229335820Y-230234387D01*
X229452706Y-230392141D01*
X229543821Y-230612112D01*
X229572719Y-230806312D01*
X229565171Y-230912524D01*
X229539399Y-230974741D01*
X229469634Y-231055181D01*
X229381645Y-231091627D01*
X229275434Y-231084079D01*
X229213217Y-231058308D01*
X229132776Y-230988542D01*
X229015890Y-230830788D01*
X228924775Y-230610817D01*
X228895877Y-230416617D01*
X228903425Y-230310405D01*
X228929196Y-230248188D01*
X228998962Y-230167748D01*
X220545729Y-228239242D02*
X220651941Y-228246791D01*
X220827918Y-228173898D01*
X220897683Y-228093458D01*
X220905231Y-227987247D01*
X220887008Y-227943252D01*
X220806568Y-227873487D01*
X220700356Y-227865939D01*
X220568374Y-227920608D01*
X220462162Y-227913059D01*
X220381722Y-227843294D01*
X220363499Y-227799300D01*
X220371047Y-227693088D01*
X220440813Y-227612648D01*
X220572795Y-227557979D01*
X220679007Y-227565527D01*
X222728174Y-226974446D02*
X223432082Y-226682878D01*
X225074828Y-226002430D02*
X225778736Y-225710862D01*
X225572566Y-226208600D02*
X225280998Y-225504692D01*
%TO.C,ir_sensor_7*%
X109319538Y-207186505D02*
X109790942Y-206715100D01*
X110026645Y-206479398D02*
X109959301Y-206479398D01*
X109959301Y-206546742D01*
X110026645Y-206546742D01*
X110026645Y-206479398D01*
X109959301Y-206546742D01*
X109656255Y-207523223D02*
X110127660Y-207051818D01*
X109992973Y-207186505D02*
X110093988Y-207152833D01*
X110161332Y-207152833D01*
X110262347Y-207186505D01*
X110329690Y-207253849D01*
X109858286Y-207859940D02*
X110397034Y-208398688D01*
X110632736Y-208432360D02*
X110666408Y-208533375D01*
X110801095Y-208668062D01*
X110902110Y-208701734D01*
X111003125Y-208668062D01*
X111036797Y-208634390D01*
X111070469Y-208533375D01*
X111036797Y-208432360D01*
X110935782Y-208331345D01*
X110902110Y-208230329D01*
X110935782Y-208129314D01*
X110969454Y-208095642D01*
X111070469Y-208061971D01*
X111171484Y-208095642D01*
X111272499Y-208196658D01*
X111306171Y-208297673D01*
X111508202Y-209307825D02*
X111407186Y-209274154D01*
X111272499Y-209139467D01*
X111238828Y-209038451D01*
X111272499Y-208937436D01*
X111541873Y-208668062D01*
X111642889Y-208634390D01*
X111743904Y-208668062D01*
X111878591Y-208802749D01*
X111912263Y-208903764D01*
X111878591Y-209004780D01*
X111811247Y-209072123D01*
X111407186Y-208802749D01*
X112282652Y-209206810D02*
X111811247Y-209678215D01*
X112215308Y-209274154D02*
X112282652Y-209274154D01*
X112383667Y-209307825D01*
X112484682Y-209408841D01*
X112518354Y-209509856D01*
X112484682Y-209610871D01*
X112114293Y-209981260D01*
X112451011Y-210250634D02*
X112484682Y-210351650D01*
X112619369Y-210486337D01*
X112720385Y-210520008D01*
X112821400Y-210486337D01*
X112855072Y-210452665D01*
X112888743Y-210351650D01*
X112855072Y-210250634D01*
X112754056Y-210149619D01*
X112720385Y-210048604D01*
X112754056Y-209947589D01*
X112787728Y-209913917D01*
X112888743Y-209880245D01*
X112989759Y-209913917D01*
X113090774Y-210014932D01*
X113124446Y-210115947D01*
X113124446Y-210991413D02*
X113090774Y-210890398D01*
X113090774Y-210823054D01*
X113124446Y-210722039D01*
X113326476Y-210520008D01*
X113427491Y-210486337D01*
X113494835Y-210486337D01*
X113595850Y-210520008D01*
X113696865Y-210621024D01*
X113730537Y-210722039D01*
X113730537Y-210789382D01*
X113696865Y-210890398D01*
X113494835Y-211092428D01*
X113393820Y-211126100D01*
X113326476Y-211126100D01*
X113225461Y-211092428D01*
X113124446Y-210991413D01*
X113663194Y-211530161D02*
X114134598Y-211058756D01*
X113999911Y-211193443D02*
X114100926Y-211159772D01*
X114168270Y-211159772D01*
X114269285Y-211193443D01*
X114336629Y-211260787D01*
X113865224Y-211866878D02*
X114403972Y-212405626D01*
X115279438Y-211732191D02*
X115750842Y-212203596D01*
X114740690Y-212607657D01*
X114364980Y-203723164D02*
X114398651Y-203824179D01*
X114533338Y-203958866D01*
X114634354Y-203992538D01*
X114735369Y-203958866D01*
X114769041Y-203925194D01*
X114802713Y-203824179D01*
X114769041Y-203723164D01*
X114668025Y-203622148D01*
X114634354Y-203521133D01*
X114668025Y-203420118D01*
X114701697Y-203386446D01*
X114802712Y-203352774D01*
X114903728Y-203386446D01*
X115004743Y-203487461D01*
X115038415Y-203588477D01*
X116368685Y-205255464D02*
X116907433Y-205794212D01*
X118164736Y-207051515D02*
X118703484Y-207590263D01*
X118164736Y-207590263D02*
X118703484Y-207051515D01*
%TO.C,ir_sensor_6*%
X88354012Y-172665632D02*
X88969932Y-172410510D01*
X89277892Y-172282949D02*
X89215675Y-172257177D01*
X89189903Y-172319395D01*
X89252121Y-172345166D01*
X89277892Y-172282949D01*
X89189903Y-172319395D01*
X88536242Y-173105575D02*
X89152162Y-172850452D01*
X88976185Y-172923344D02*
X89082397Y-172930893D01*
X89144614Y-172956664D01*
X89225054Y-173026429D01*
X89261500Y-173114418D01*
X88594038Y-173493975D02*
X88885606Y-174197883D01*
X89090481Y-174319191D02*
X89082933Y-174425403D01*
X89155825Y-174601380D01*
X89236265Y-174671145D01*
X89342477Y-174678693D01*
X89386471Y-174660470D01*
X89456237Y-174580030D01*
X89463785Y-174473819D01*
X89409116Y-174341836D01*
X89416664Y-174235624D01*
X89486430Y-174155184D01*
X89530424Y-174136961D01*
X89636635Y-174144509D01*
X89717076Y-174214275D01*
X89771745Y-174346257D01*
X89764197Y-174452469D01*
X89564280Y-175463042D02*
X89483840Y-175393276D01*
X89410947Y-175217299D01*
X89418496Y-175111088D01*
X89488261Y-175030647D01*
X89840215Y-174884863D01*
X89946427Y-174892412D01*
X90026867Y-174962177D01*
X90099759Y-175138154D01*
X90092211Y-175244366D01*
X90022446Y-175324806D01*
X89934457Y-175361252D01*
X89664238Y-174957755D01*
X90318435Y-175666085D02*
X89702516Y-175921208D01*
X90230447Y-175702531D02*
X90292664Y-175728303D01*
X90373105Y-175798068D01*
X90427774Y-175930051D01*
X90420225Y-176036262D01*
X90350460Y-176116703D01*
X89866523Y-176317156D01*
X90074524Y-176694881D02*
X90066976Y-176801093D01*
X90139868Y-176977070D01*
X90220309Y-177046835D01*
X90326520Y-177054384D01*
X90370514Y-177036161D01*
X90440280Y-176955720D01*
X90447828Y-176849509D01*
X90393159Y-176717526D01*
X90400707Y-176611314D01*
X90470473Y-176530874D01*
X90514467Y-176512651D01*
X90620679Y-176520199D01*
X90701119Y-176589965D01*
X90755788Y-176721948D01*
X90748240Y-176828159D01*
X90413214Y-177636984D02*
X90420762Y-177530772D01*
X90446533Y-177468555D01*
X90516299Y-177388115D01*
X90780264Y-177278777D01*
X90886476Y-177286325D01*
X90948693Y-177312096D01*
X91029133Y-177381862D01*
X91083802Y-177513844D01*
X91076254Y-177620056D01*
X91050483Y-177682273D01*
X90980717Y-177762713D01*
X90716752Y-177872052D01*
X90610540Y-177864503D01*
X90548323Y-177838732D01*
X90467883Y-177768967D01*
X90413214Y-177636984D01*
X90704782Y-178340892D02*
X91320702Y-178085770D01*
X91144725Y-178158662D02*
X91250936Y-178166210D01*
X91313153Y-178191981D01*
X91393594Y-178261747D01*
X91430040Y-178349735D01*
X90762578Y-178729292D02*
X91054146Y-179433200D01*
X92321136Y-179629991D02*
X92248244Y-179454014D01*
X92167804Y-179384248D01*
X92105587Y-179358477D01*
X91937158Y-179325157D01*
X91742958Y-179354055D01*
X91391004Y-179499839D01*
X91321238Y-179580280D01*
X91295467Y-179642497D01*
X91287919Y-179748708D01*
X91360811Y-179924686D01*
X91441251Y-179994451D01*
X91503468Y-180020222D01*
X91609680Y-180027771D01*
X91829651Y-179936655D01*
X91899417Y-179856215D01*
X91925188Y-179793998D01*
X91932736Y-179687786D01*
X91859844Y-179511809D01*
X91779404Y-179442044D01*
X91717186Y-179416272D01*
X91610975Y-179408724D01*
X94340757Y-171396729D02*
X94333208Y-171502941D01*
X94406101Y-171678918D01*
X94486541Y-171748683D01*
X94592752Y-171756231D01*
X94636747Y-171738008D01*
X94706512Y-171657568D01*
X94714060Y-171551356D01*
X94659391Y-171419374D01*
X94666940Y-171313162D01*
X94736705Y-171232722D01*
X94780699Y-171214499D01*
X94886911Y-171222047D01*
X94967351Y-171291813D01*
X95022020Y-171423795D01*
X95014472Y-171530007D01*
X95605553Y-173579174D02*
X95897121Y-174283082D01*
X96577569Y-175925828D02*
X96869137Y-176629736D01*
X96371399Y-176423566D02*
X97075307Y-176131998D01*
%TO.C,ir_sensor_5*%
X82621380Y-140652000D02*
X81954714Y-140652000D01*
X81621380Y-140652000D02*
X81669000Y-140699619D01*
X81716619Y-140652000D01*
X81669000Y-140604380D01*
X81621380Y-140652000D01*
X81716619Y-140652000D01*
X82621380Y-140175809D02*
X81954714Y-140175809D01*
X82145190Y-140175809D02*
X82049952Y-140128190D01*
X82002333Y-140080571D01*
X81954714Y-139985333D01*
X81954714Y-139890095D01*
X82716619Y-139794857D02*
X82716619Y-139032952D01*
X82573761Y-138842476D02*
X82621380Y-138747238D01*
X82621380Y-138556761D01*
X82573761Y-138461523D01*
X82478523Y-138413904D01*
X82430904Y-138413904D01*
X82335666Y-138461523D01*
X82288047Y-138556761D01*
X82288047Y-138699619D01*
X82240428Y-138794857D01*
X82145190Y-138842476D01*
X82097571Y-138842476D01*
X82002333Y-138794857D01*
X81954714Y-138699619D01*
X81954714Y-138556761D01*
X82002333Y-138461523D01*
X82573761Y-137604380D02*
X82621380Y-137699619D01*
X82621380Y-137890095D01*
X82573761Y-137985333D01*
X82478523Y-138032952D01*
X82097571Y-138032952D01*
X82002333Y-137985333D01*
X81954714Y-137890095D01*
X81954714Y-137699619D01*
X82002333Y-137604380D01*
X82097571Y-137556761D01*
X82192809Y-137556761D01*
X82288047Y-138032952D01*
X81954714Y-137128190D02*
X82621380Y-137128190D01*
X82049952Y-137128190D02*
X82002333Y-137080571D01*
X81954714Y-136985333D01*
X81954714Y-136842476D01*
X82002333Y-136747238D01*
X82097571Y-136699619D01*
X82621380Y-136699619D01*
X82573761Y-136271047D02*
X82621380Y-136175809D01*
X82621380Y-135985333D01*
X82573761Y-135890095D01*
X82478523Y-135842476D01*
X82430904Y-135842476D01*
X82335666Y-135890095D01*
X82288047Y-135985333D01*
X82288047Y-136128190D01*
X82240428Y-136223428D01*
X82145190Y-136271047D01*
X82097571Y-136271047D01*
X82002333Y-136223428D01*
X81954714Y-136128190D01*
X81954714Y-135985333D01*
X82002333Y-135890095D01*
X82621380Y-135271047D02*
X82573761Y-135366285D01*
X82526142Y-135413904D01*
X82430904Y-135461523D01*
X82145190Y-135461523D01*
X82049952Y-135413904D01*
X82002333Y-135366285D01*
X81954714Y-135271047D01*
X81954714Y-135128190D01*
X82002333Y-135032952D01*
X82049952Y-134985333D01*
X82145190Y-134937714D01*
X82430904Y-134937714D01*
X82526142Y-134985333D01*
X82573761Y-135032952D01*
X82621380Y-135128190D01*
X82621380Y-135271047D01*
X82621380Y-134509142D02*
X81954714Y-134509142D01*
X82145190Y-134509142D02*
X82049952Y-134461523D01*
X82002333Y-134413904D01*
X81954714Y-134318666D01*
X81954714Y-134223428D01*
X82716619Y-134128190D02*
X82716619Y-133366285D01*
X81621380Y-132652000D02*
X81621380Y-133128190D01*
X82097571Y-133175809D01*
X82049952Y-133128190D01*
X82002333Y-133032952D01*
X82002333Y-132794857D01*
X82049952Y-132699619D01*
X82097571Y-132652000D01*
X82192809Y-132604380D01*
X82430904Y-132604380D01*
X82526142Y-132652000D01*
X82573761Y-132699619D01*
X82621380Y-132794857D01*
X82621380Y-133032952D01*
X82573761Y-133128190D01*
X82526142Y-133175809D01*
X88542761Y-134199285D02*
X88590380Y-134104047D01*
X88590380Y-133913571D01*
X88542761Y-133818333D01*
X88447523Y-133770714D01*
X88399904Y-133770714D01*
X88304666Y-133818333D01*
X88257047Y-133913571D01*
X88257047Y-134056428D01*
X88209428Y-134151666D01*
X88114190Y-134199285D01*
X88066571Y-134199285D01*
X87971333Y-134151666D01*
X87923714Y-134056428D01*
X87923714Y-133913571D01*
X87971333Y-133818333D01*
X88209428Y-137032952D02*
X88209428Y-136271047D01*
X88209428Y-139572952D02*
X88209428Y-138811047D01*
X88590380Y-139192000D02*
X87828476Y-139192000D01*
%TO.C,ir_sensor_4*%
X89316903Y-100984604D02*
X88700984Y-100729482D01*
X88393024Y-100601921D02*
X88418795Y-100664138D01*
X88481012Y-100638367D01*
X88455241Y-100576150D01*
X88393024Y-100601921D01*
X88481012Y-100638367D01*
X89499133Y-100544662D02*
X88883214Y-100289539D01*
X89059191Y-100362431D02*
X88989425Y-100281991D01*
X88963654Y-100219774D01*
X88956106Y-100113562D01*
X88992552Y-100025574D01*
X89732906Y-100229154D02*
X90024475Y-99525245D01*
X89965384Y-99294599D02*
X90045824Y-99224834D01*
X90118716Y-99048857D01*
X90111168Y-98942645D01*
X90041402Y-98862205D01*
X89997408Y-98843982D01*
X89891197Y-98851530D01*
X89810756Y-98921296D01*
X89756087Y-99053278D01*
X89675647Y-99123044D01*
X89569435Y-99130592D01*
X89525441Y-99112369D01*
X89455676Y-99031929D01*
X89448127Y-98925717D01*
X89502796Y-98793734D01*
X89583237Y-98723969D01*
X90439182Y-98150748D02*
X90446731Y-98256960D01*
X90373838Y-98432937D01*
X90293398Y-98502703D01*
X90187187Y-98510251D01*
X89835233Y-98364467D01*
X89765467Y-98284026D01*
X89757919Y-98177815D01*
X89830811Y-98001838D01*
X89911251Y-97932072D01*
X90017463Y-97924524D01*
X90105451Y-97960970D01*
X90011210Y-98437359D01*
X90049487Y-97473907D02*
X90665407Y-97729029D01*
X90137476Y-97510353D02*
X90111704Y-97448135D01*
X90104156Y-97341924D01*
X90158825Y-97209941D01*
X90239266Y-97140175D01*
X90345477Y-97132627D01*
X90829414Y-97333080D01*
X90949427Y-96918909D02*
X91029867Y-96849144D01*
X91102759Y-96673167D01*
X91095211Y-96566955D01*
X91025446Y-96486515D01*
X90981451Y-96468292D01*
X90875240Y-96475840D01*
X90794799Y-96545605D01*
X90740130Y-96677588D01*
X90659690Y-96747354D01*
X90553479Y-96754902D01*
X90509484Y-96736679D01*
X90439719Y-96656239D01*
X90432171Y-96550027D01*
X90486840Y-96418044D01*
X90567280Y-96348279D01*
X91376105Y-96013253D02*
X91295664Y-96083018D01*
X91233447Y-96108789D01*
X91127235Y-96116338D01*
X90863270Y-96006999D01*
X90793504Y-95926559D01*
X90767733Y-95864342D01*
X90760185Y-95758130D01*
X90814854Y-95626147D01*
X90895294Y-95556382D01*
X90957512Y-95530611D01*
X91063723Y-95523063D01*
X91327689Y-95632401D01*
X91397454Y-95712841D01*
X91423225Y-95775058D01*
X91430774Y-95881270D01*
X91376105Y-96013253D01*
X91667673Y-95309344D02*
X91051753Y-95054222D01*
X91227730Y-95127114D02*
X91157965Y-95046674D01*
X91132194Y-94984457D01*
X91124645Y-94878245D01*
X91161091Y-94790256D01*
X91901446Y-94993836D02*
X92193014Y-94289928D01*
X91744228Y-93382440D02*
X92360148Y-93637562D01*
X91301159Y-93456627D02*
X91869958Y-93949944D01*
X92106857Y-93378018D01*
X97256893Y-97289088D02*
X97337333Y-97219323D01*
X97410226Y-97043346D01*
X97402677Y-96937134D01*
X97332912Y-96856694D01*
X97288918Y-96838471D01*
X97182706Y-96846019D01*
X97102266Y-96915785D01*
X97047597Y-97047767D01*
X96967156Y-97117533D01*
X96860945Y-97125081D01*
X96816951Y-97106858D01*
X96747185Y-97026418D01*
X96739637Y-96920206D01*
X96794306Y-96788224D01*
X96874746Y-96718458D01*
X95864536Y-99779494D02*
X96156104Y-99075586D01*
X94892520Y-102126148D02*
X95184088Y-101422240D01*
X95390258Y-101919978D02*
X94686350Y-101628410D01*
%TO.C,ir_sensor_3*%
X109899352Y-66556206D02*
X109427947Y-66084802D01*
X109192245Y-65849099D02*
X109192245Y-65916443D01*
X109259589Y-65916443D01*
X109259589Y-65849099D01*
X109192245Y-65849099D01*
X109259589Y-65916443D01*
X110236070Y-66219489D02*
X109764665Y-65748084D01*
X109899352Y-65882771D02*
X109865680Y-65781756D01*
X109865680Y-65714412D01*
X109899352Y-65613397D01*
X109966696Y-65546054D01*
X110572787Y-66017458D02*
X111111535Y-65478710D01*
X111145207Y-65243008D02*
X111246222Y-65209336D01*
X111380909Y-65074649D01*
X111414581Y-64973634D01*
X111380909Y-64872619D01*
X111347237Y-64838947D01*
X111246222Y-64805275D01*
X111145207Y-64838947D01*
X111044192Y-64939962D01*
X110943176Y-64973634D01*
X110842161Y-64939962D01*
X110808489Y-64906290D01*
X110774818Y-64805275D01*
X110808489Y-64704260D01*
X110909505Y-64603245D01*
X111010520Y-64569573D01*
X112020672Y-64367542D02*
X111987001Y-64468558D01*
X111852314Y-64603245D01*
X111751298Y-64636916D01*
X111650283Y-64603245D01*
X111380909Y-64333871D01*
X111347237Y-64232855D01*
X111380909Y-64131840D01*
X111515596Y-63997153D01*
X111616611Y-63963481D01*
X111717627Y-63997153D01*
X111784970Y-64064497D01*
X111515596Y-64468558D01*
X111919657Y-63593092D02*
X112391062Y-64064497D01*
X111987001Y-63660436D02*
X111987001Y-63593092D01*
X112020672Y-63492077D01*
X112121688Y-63391062D01*
X112222703Y-63357390D01*
X112323718Y-63391062D01*
X112694107Y-63761451D01*
X112963481Y-63424733D02*
X113064497Y-63391062D01*
X113199184Y-63256375D01*
X113232855Y-63155359D01*
X113199184Y-63054344D01*
X113165512Y-63020672D01*
X113064497Y-62987001D01*
X112963481Y-63020672D01*
X112862466Y-63121688D01*
X112761451Y-63155359D01*
X112660436Y-63121688D01*
X112626764Y-63088016D01*
X112593092Y-62987001D01*
X112626764Y-62885985D01*
X112727779Y-62784970D01*
X112828794Y-62751298D01*
X113704260Y-62751298D02*
X113603245Y-62784970D01*
X113535901Y-62784970D01*
X113434886Y-62751298D01*
X113232855Y-62549268D01*
X113199184Y-62448253D01*
X113199184Y-62380909D01*
X113232855Y-62279894D01*
X113333871Y-62178879D01*
X113434886Y-62145207D01*
X113502229Y-62145207D01*
X113603245Y-62178879D01*
X113805275Y-62380909D01*
X113838947Y-62481924D01*
X113838947Y-62549268D01*
X113805275Y-62650283D01*
X113704260Y-62751298D01*
X114243008Y-62212550D02*
X113771603Y-61741146D01*
X113906290Y-61875833D02*
X113872619Y-61774818D01*
X113872619Y-61707474D01*
X113906290Y-61606459D01*
X113973634Y-61539115D01*
X114579725Y-62010520D02*
X115118473Y-61471772D01*
X114445038Y-60596306D02*
X114882771Y-60158573D01*
X114916443Y-60663650D01*
X115017458Y-60562634D01*
X115118473Y-60528963D01*
X115185817Y-60528963D01*
X115286832Y-60562634D01*
X115455191Y-60730993D01*
X115488863Y-60832009D01*
X115488863Y-60899352D01*
X115455191Y-61000367D01*
X115253161Y-61202398D01*
X115152145Y-61236070D01*
X115084802Y-61236070D01*
X118649159Y-66180496D02*
X118750174Y-66146825D01*
X118884861Y-66012138D01*
X118918533Y-65911122D01*
X118884861Y-65810107D01*
X118851189Y-65776435D01*
X118750174Y-65742764D01*
X118649159Y-65776435D01*
X118548143Y-65877451D01*
X118447128Y-65911122D01*
X118346113Y-65877451D01*
X118312441Y-65843779D01*
X118278769Y-65742764D01*
X118312441Y-65641748D01*
X118413456Y-65540733D01*
X118514472Y-65507061D01*
X116409751Y-67948499D02*
X116948499Y-67409751D01*
X114613700Y-69744550D02*
X115152448Y-69205802D01*
X115152448Y-69744550D02*
X114613700Y-69205802D01*
%TO.C,goal_kleur1*%
X208677333Y-171997714D02*
X208677333Y-172807238D01*
X208629714Y-172902476D01*
X208582095Y-172950095D01*
X208486857Y-172997714D01*
X208344000Y-172997714D01*
X208248761Y-172950095D01*
X208677333Y-172616761D02*
X208582095Y-172664380D01*
X208391619Y-172664380D01*
X208296380Y-172616761D01*
X208248761Y-172569142D01*
X208201142Y-172473904D01*
X208201142Y-172188190D01*
X208248761Y-172092952D01*
X208296380Y-172045333D01*
X208391619Y-171997714D01*
X208582095Y-171997714D01*
X208677333Y-172045333D01*
X209296380Y-172664380D02*
X209201142Y-172616761D01*
X209153523Y-172569142D01*
X209105904Y-172473904D01*
X209105904Y-172188190D01*
X209153523Y-172092952D01*
X209201142Y-172045333D01*
X209296380Y-171997714D01*
X209439238Y-171997714D01*
X209534476Y-172045333D01*
X209582095Y-172092952D01*
X209629714Y-172188190D01*
X209629714Y-172473904D01*
X209582095Y-172569142D01*
X209534476Y-172616761D01*
X209439238Y-172664380D01*
X209296380Y-172664380D01*
X210486857Y-172664380D02*
X210486857Y-172140571D01*
X210439238Y-172045333D01*
X210344000Y-171997714D01*
X210153523Y-171997714D01*
X210058285Y-172045333D01*
X210486857Y-172616761D02*
X210391619Y-172664380D01*
X210153523Y-172664380D01*
X210058285Y-172616761D01*
X210010666Y-172521523D01*
X210010666Y-172426285D01*
X210058285Y-172331047D01*
X210153523Y-172283428D01*
X210391619Y-172283428D01*
X210486857Y-172235809D01*
X211105904Y-172664380D02*
X211010666Y-172616761D01*
X210963047Y-172521523D01*
X210963047Y-171664380D01*
X211248761Y-172759619D02*
X212010666Y-172759619D01*
X212248761Y-172664380D02*
X212248761Y-171664380D01*
X212344000Y-172283428D02*
X212629714Y-172664380D01*
X212629714Y-171997714D02*
X212248761Y-172378666D01*
X213201142Y-172664380D02*
X213105904Y-172616761D01*
X213058285Y-172521523D01*
X213058285Y-171664380D01*
X213963047Y-172616761D02*
X213867809Y-172664380D01*
X213677333Y-172664380D01*
X213582095Y-172616761D01*
X213534476Y-172521523D01*
X213534476Y-172140571D01*
X213582095Y-172045333D01*
X213677333Y-171997714D01*
X213867809Y-171997714D01*
X213963047Y-172045333D01*
X214010666Y-172140571D01*
X214010666Y-172235809D01*
X213534476Y-172331047D01*
X214867809Y-171997714D02*
X214867809Y-172664380D01*
X214439238Y-171997714D02*
X214439238Y-172521523D01*
X214486857Y-172616761D01*
X214582095Y-172664380D01*
X214724952Y-172664380D01*
X214820190Y-172616761D01*
X214867809Y-172569142D01*
X215344000Y-172664380D02*
X215344000Y-171997714D01*
X215344000Y-172188190D02*
X215391619Y-172092952D01*
X215439238Y-172045333D01*
X215534476Y-171997714D01*
X215629714Y-171997714D01*
X216486857Y-172664380D02*
X215915428Y-172664380D01*
X216201142Y-172664380D02*
X216201142Y-171664380D01*
X216105904Y-171807238D01*
X216010666Y-171902476D01*
X215915428Y-171950095D01*
%TO.C,dip_swith_instellinen1*%
X236570190Y-176474380D02*
X236570190Y-175474380D01*
X236570190Y-176426761D02*
X236474952Y-176474380D01*
X236284476Y-176474380D01*
X236189238Y-176426761D01*
X236141619Y-176379142D01*
X236094000Y-176283904D01*
X236094000Y-175998190D01*
X236141619Y-175902952D01*
X236189238Y-175855333D01*
X236284476Y-175807714D01*
X236474952Y-175807714D01*
X236570190Y-175855333D01*
X237046380Y-176474380D02*
X237046380Y-175807714D01*
X237046380Y-175474380D02*
X236998761Y-175522000D01*
X237046380Y-175569619D01*
X237094000Y-175522000D01*
X237046380Y-175474380D01*
X237046380Y-175569619D01*
X237522571Y-175807714D02*
X237522571Y-176807714D01*
X237522571Y-175855333D02*
X237617809Y-175807714D01*
X237808285Y-175807714D01*
X237903523Y-175855333D01*
X237951142Y-175902952D01*
X237998761Y-175998190D01*
X237998761Y-176283904D01*
X237951142Y-176379142D01*
X237903523Y-176426761D01*
X237808285Y-176474380D01*
X237617809Y-176474380D01*
X237522571Y-176426761D01*
X238189238Y-176569619D02*
X238951142Y-176569619D01*
X239141619Y-176426761D02*
X239236857Y-176474380D01*
X239427333Y-176474380D01*
X239522571Y-176426761D01*
X239570190Y-176331523D01*
X239570190Y-176283904D01*
X239522571Y-176188666D01*
X239427333Y-176141047D01*
X239284476Y-176141047D01*
X239189238Y-176093428D01*
X239141619Y-175998190D01*
X239141619Y-175950571D01*
X239189238Y-175855333D01*
X239284476Y-175807714D01*
X239427333Y-175807714D01*
X239522571Y-175855333D01*
X239903523Y-175807714D02*
X240094000Y-176474380D01*
X240284476Y-175998190D01*
X240474952Y-176474380D01*
X240665428Y-175807714D01*
X241046380Y-176474380D02*
X241046380Y-175807714D01*
X241046380Y-175474380D02*
X240998761Y-175522000D01*
X241046380Y-175569619D01*
X241094000Y-175522000D01*
X241046380Y-175474380D01*
X241046380Y-175569619D01*
X241379714Y-175807714D02*
X241760666Y-175807714D01*
X241522571Y-175474380D02*
X241522571Y-176331523D01*
X241570190Y-176426761D01*
X241665428Y-176474380D01*
X241760666Y-176474380D01*
X242094000Y-176474380D02*
X242094000Y-175474380D01*
X242522571Y-176474380D02*
X242522571Y-175950571D01*
X242474952Y-175855333D01*
X242379714Y-175807714D01*
X242236857Y-175807714D01*
X242141619Y-175855333D01*
X242094000Y-175902952D01*
X242760666Y-176569619D02*
X243522571Y-176569619D01*
X243760666Y-176474380D02*
X243760666Y-175807714D01*
X243760666Y-175474380D02*
X243713047Y-175522000D01*
X243760666Y-175569619D01*
X243808285Y-175522000D01*
X243760666Y-175474380D01*
X243760666Y-175569619D01*
X244236857Y-175807714D02*
X244236857Y-176474380D01*
X244236857Y-175902952D02*
X244284476Y-175855333D01*
X244379714Y-175807714D01*
X244522571Y-175807714D01*
X244617809Y-175855333D01*
X244665428Y-175950571D01*
X244665428Y-176474380D01*
X245094000Y-176426761D02*
X245189238Y-176474380D01*
X245379714Y-176474380D01*
X245474952Y-176426761D01*
X245522571Y-176331523D01*
X245522571Y-176283904D01*
X245474952Y-176188666D01*
X245379714Y-176141047D01*
X245236857Y-176141047D01*
X245141619Y-176093428D01*
X245094000Y-175998190D01*
X245094000Y-175950571D01*
X245141619Y-175855333D01*
X245236857Y-175807714D01*
X245379714Y-175807714D01*
X245474952Y-175855333D01*
X245808285Y-175807714D02*
X246189238Y-175807714D01*
X245951142Y-175474380D02*
X245951142Y-176331523D01*
X245998761Y-176426761D01*
X246094000Y-176474380D01*
X246189238Y-176474380D01*
X246903523Y-176426761D02*
X246808285Y-176474380D01*
X246617809Y-176474380D01*
X246522571Y-176426761D01*
X246474952Y-176331523D01*
X246474952Y-175950571D01*
X246522571Y-175855333D01*
X246617809Y-175807714D01*
X246808285Y-175807714D01*
X246903523Y-175855333D01*
X246951142Y-175950571D01*
X246951142Y-176045809D01*
X246474952Y-176141047D01*
X247522571Y-176474380D02*
X247427333Y-176426761D01*
X247379714Y-176331523D01*
X247379714Y-175474380D01*
X248046380Y-176474380D02*
X247951142Y-176426761D01*
X247903523Y-176331523D01*
X247903523Y-175474380D01*
X248427333Y-176474380D02*
X248427333Y-175807714D01*
X248427333Y-175474380D02*
X248379714Y-175522000D01*
X248427333Y-175569619D01*
X248474952Y-175522000D01*
X248427333Y-175474380D01*
X248427333Y-175569619D01*
X248903523Y-175807714D02*
X248903523Y-176474380D01*
X248903523Y-175902952D02*
X248951142Y-175855333D01*
X249046380Y-175807714D01*
X249189238Y-175807714D01*
X249284476Y-175855333D01*
X249332095Y-175950571D01*
X249332095Y-176474380D01*
X250189238Y-176426761D02*
X250094000Y-176474380D01*
X249903523Y-176474380D01*
X249808285Y-176426761D01*
X249760666Y-176331523D01*
X249760666Y-175950571D01*
X249808285Y-175855333D01*
X249903523Y-175807714D01*
X250094000Y-175807714D01*
X250189238Y-175855333D01*
X250236857Y-175950571D01*
X250236857Y-176045809D01*
X249760666Y-176141047D01*
X250665428Y-175807714D02*
X250665428Y-176474380D01*
X250665428Y-175902952D02*
X250713047Y-175855333D01*
X250808285Y-175807714D01*
X250951142Y-175807714D01*
X251046380Y-175855333D01*
X251094000Y-175950571D01*
X251094000Y-176474380D01*
X252094000Y-176474380D02*
X251522571Y-176474380D01*
X251808285Y-176474380D02*
X251808285Y-175474380D01*
X251713047Y-175617238D01*
X251617809Y-175712476D01*
X251522571Y-175760095D01*
%TO.C,BZ1*%
X179713047Y-174680571D02*
X179855904Y-174728190D01*
X179903523Y-174775809D01*
X179951142Y-174871047D01*
X179951142Y-175013904D01*
X179903523Y-175109142D01*
X179855904Y-175156761D01*
X179760666Y-175204380D01*
X179379714Y-175204380D01*
X179379714Y-174204380D01*
X179713047Y-174204380D01*
X179808285Y-174252000D01*
X179855904Y-174299619D01*
X179903523Y-174394857D01*
X179903523Y-174490095D01*
X179855904Y-174585333D01*
X179808285Y-174632952D01*
X179713047Y-174680571D01*
X179379714Y-174680571D01*
X180284476Y-174204380D02*
X180951142Y-174204380D01*
X180284476Y-175204380D01*
X180951142Y-175204380D01*
X181855904Y-175204380D02*
X181284476Y-175204380D01*
X181570190Y-175204380D02*
X181570190Y-174204380D01*
X181474952Y-174347238D01*
X181379714Y-174442476D01*
X181284476Y-174490095D01*
%TD*%
M02*
