%TF.GenerationSoftware,KiCad,Pcbnew,5.1.9+dfsg1-1+deb11u1*%
%TF.CreationDate,2024-06-24T23:42:04+02:00*%
%TF.ProjectId,pcb_boven,7063625f-626f-4766-956e-2e6b69636164,rev?*%
%TF.SameCoordinates,Original*%
%TF.FileFunction,Copper,L2,Bot*%
%TF.FilePolarity,Positive*%
%FSLAX46Y46*%
G04 Gerber Fmt 4.6, Leading zero omitted, Abs format (unit mm)*
G04 Created by KiCad (PCBNEW 5.1.9+dfsg1-1+deb11u1) date 2024-06-24 23:42:04*
%MOMM*%
%LPD*%
G01*
G04 APERTURE LIST*
%TA.AperFunction,ComponentPad*%
%ADD10C,1.524000*%
%TD*%
%TA.AperFunction,ComponentPad*%
%ADD11C,5.080000*%
%TD*%
%TA.AperFunction,ComponentPad*%
%ADD12O,1.600000X1.600000*%
%TD*%
%TA.AperFunction,ComponentPad*%
%ADD13R,1.600000X1.600000*%
%TD*%
%TA.AperFunction,ComponentPad*%
%ADD14C,1.300000*%
%TD*%
%TA.AperFunction,ComponentPad*%
%ADD15C,1.600000*%
%TD*%
%TA.AperFunction,ComponentPad*%
%ADD16R,1.300000X1.300000*%
%TD*%
%TA.AperFunction,ComponentPad*%
%ADD17C,2.794000*%
%TD*%
%TA.AperFunction,ComponentPad*%
%ADD18C,6.000000*%
%TD*%
%TA.AperFunction,ComponentPad*%
%ADD19C,4.000000*%
%TD*%
%TA.AperFunction,ComponentPad*%
%ADD20R,3.800000X3.800000*%
%TD*%
%TA.AperFunction,ViaPad*%
%ADD21C,0.800000*%
%TD*%
%TA.AperFunction,Conductor*%
%ADD22C,0.250000*%
%TD*%
G04 APERTURE END LIST*
D10*
%TO.P,SW1,8*%
%TO.N,Net-(R2-Pad2)*%
X239014000Y-171069000D03*
%TO.P,SW1,7*%
%TO.N,Net-(R3-Pad2)*%
X239014000Y-168529000D03*
%TO.P,SW1,6*%
%TO.N,Net-(R4-Pad2)*%
X239014000Y-165989000D03*
%TO.P,SW1,5*%
%TO.N,Net-(R5-Pad2)*%
X239014000Y-163449000D03*
%TO.P,SW1,4*%
%TO.N,Net-(SW1-Pad1)*%
X246634000Y-163449000D03*
%TO.P,SW1,3*%
X246634000Y-165989000D03*
%TO.P,SW1,2*%
X246634000Y-168529000D03*
%TO.P,SW1,1*%
X246634000Y-171069000D03*
%TD*%
%TO.P,R5,2*%
%TO.N,Net-(R5-Pad2)*%
X233426000Y-163322000D03*
%TO.P,R5,1*%
%TO.N,gnd*%
X224536000Y-163322000D03*
%TD*%
%TO.P,R4,2*%
%TO.N,Net-(R4-Pad2)*%
X233426000Y-165862000D03*
%TO.P,R4,1*%
%TO.N,gnd*%
X224536000Y-165862000D03*
%TD*%
%TO.P,R3,2*%
%TO.N,Net-(R3-Pad2)*%
X233426000Y-168402000D03*
%TO.P,R3,1*%
%TO.N,gnd*%
X224536000Y-168402000D03*
%TD*%
%TO.P,R2,2*%
%TO.N,Net-(R2-Pad2)*%
X233426000Y-170942000D03*
%TO.P,R2,1*%
%TO.N,gnd*%
X224536000Y-170942000D03*
%TD*%
%TO.P,R1,2*%
%TO.N,Net-(R1-Pad2)*%
X216662000Y-177292000D03*
%TO.P,R1,1*%
%TO.N,gnd*%
X207772000Y-177292000D03*
%TD*%
%TO.P,pwr_sw1,2*%
%TO.N,gnd*%
X203390500Y-89408000D03*
%TO.P,pwr_sw1,1*%
%TO.N,Net-(3V3_converter1-Pad2)*%
X198310500Y-89408000D03*
%TD*%
%TO.P,extrapins1,10*%
%TO.N,scl*%
X245681500Y-125222000D03*
%TO.P,extrapins1,9*%
%TO.N,sda*%
X245681500Y-127762000D03*
%TO.P,extrapins1,8*%
%TO.N,25*%
X245681500Y-130302000D03*
%TO.P,extrapins1,7*%
%TO.N,26*%
X245681500Y-132842000D03*
%TO.P,extrapins1,6*%
%TO.N,3.3v*%
X245681500Y-135382000D03*
%TO.P,extrapins1,5*%
%TO.N,gnd*%
X245681500Y-137922000D03*
%TO.P,extrapins1,4*%
%TO.N,5v*%
X245681500Y-140462000D03*
%TO.P,extrapins1,3*%
%TO.N,12V*%
X245681500Y-143002000D03*
%TO.P,extrapins1,2*%
%TO.N,27*%
X245681500Y-145542000D03*
%TO.P,extrapins1,1*%
%TO.N,28*%
X245681500Y-148082000D03*
%TD*%
D11*
%TO.P,screwhoel1,1*%
%TO.N,gnd*%
X185610500Y-219088500D03*
%TD*%
%TO.P,screwhoel1,1*%
%TO.N,gnd*%
X114163405Y-177838499D03*
%TD*%
%TO.P,screwhoel1,1*%
%TO.N,gnd*%
X185610500Y-54088500D03*
%TD*%
%TO.P,screwhoel1,1*%
%TO.N,gnd*%
X257057595Y-95338501D03*
%TD*%
%TO.P,screwhoel1,1*%
%TO.N,gnd*%
X257057595Y-177838499D03*
%TD*%
%TO.P,screwhoel1,1*%
%TO.N,gnd*%
X114163405Y-95338501D03*
%TD*%
D12*
%TO.P,Portmultiplexer1,28*%
%TO.N,Net-(Portmultiplexer1-Pad28)*%
X157988000Y-92964000D03*
%TO.P,Portmultiplexer1,14*%
%TO.N,Net-(Portmultiplexer1-Pad14)*%
X150368000Y-125984000D03*
%TO.P,Portmultiplexer1,27*%
%TO.N,Net-(Portmultiplexer1-Pad27)*%
X157988000Y-95504000D03*
%TO.P,Portmultiplexer1,13*%
%TO.N,sda*%
X150368000Y-123444000D03*
%TO.P,Portmultiplexer1,26*%
%TO.N,Net-(Portmultiplexer1-Pad26)*%
X157988000Y-98044000D03*
%TO.P,Portmultiplexer1,12*%
%TO.N,scl*%
X150368000Y-120904000D03*
%TO.P,Portmultiplexer1,25*%
%TO.N,Net-(Portmultiplexer1-Pad25)*%
X157988000Y-100584000D03*
%TO.P,Portmultiplexer1,11*%
%TO.N,Net-(Portmultiplexer1-Pad11)*%
X150368000Y-118364000D03*
%TO.P,Portmultiplexer1,24*%
%TO.N,Net-(Portmultiplexer1-Pad24)*%
X157988000Y-103124000D03*
%TO.P,Portmultiplexer1,10*%
%TO.N,gnd*%
X150368000Y-115824000D03*
%TO.P,Portmultiplexer1,23*%
%TO.N,Net-(Portmultiplexer1-Pad23)*%
X157988000Y-105664000D03*
%TO.P,Portmultiplexer1,9*%
%TO.N,3.3v*%
X150368000Y-113284000D03*
%TO.P,Portmultiplexer1,22*%
%TO.N,Net-(Portmultiplexer1-Pad22)*%
X157988000Y-108204000D03*
%TO.P,Portmultiplexer1,8*%
%TO.N,Net-(Portmultiplexer1-Pad8)*%
X150368000Y-110744000D03*
%TO.P,Portmultiplexer1,21*%
%TO.N,Net-(Portmultiplexer1-Pad21)*%
X157988000Y-110744000D03*
%TO.P,Portmultiplexer1,7*%
%TO.N,Net-(Portmultiplexer1-Pad7)*%
X150368000Y-108204000D03*
%TO.P,Portmultiplexer1,20*%
%TO.N,Net-(Portmultiplexer1-Pad20)*%
X157988000Y-113284000D03*
%TO.P,Portmultiplexer1,6*%
%TO.N,Net-(Portmultiplexer1-Pad6)*%
X150368000Y-105664000D03*
%TO.P,Portmultiplexer1,19*%
%TO.N,Net-(Portmultiplexer1-Pad19)*%
X157988000Y-115824000D03*
%TO.P,Portmultiplexer1,5*%
%TO.N,Net-(Portmultiplexer1-Pad5)*%
X150368000Y-103124000D03*
%TO.P,Portmultiplexer1,18*%
%TO.N,Net-(Portmultiplexer1-Pad18)*%
X157988000Y-118364000D03*
%TO.P,Portmultiplexer1,4*%
%TO.N,Net-(Portmultiplexer1-Pad4)*%
X150368000Y-100584000D03*
%TO.P,Portmultiplexer1,17*%
%TO.N,gnd*%
X157988000Y-120904000D03*
%TO.P,Portmultiplexer1,3*%
%TO.N,Net-(Portmultiplexer1-Pad3)*%
X150368000Y-98044000D03*
%TO.P,Portmultiplexer1,16*%
%TO.N,gnd*%
X157988000Y-123444000D03*
%TO.P,Portmultiplexer1,2*%
%TO.N,Net-(Portmultiplexer1-Pad2)*%
X150368000Y-95504000D03*
%TO.P,Portmultiplexer1,15*%
%TO.N,gnd*%
X157988000Y-125984000D03*
D13*
%TO.P,Portmultiplexer1,1*%
%TO.N,Net-(Portmultiplexer1-Pad1)*%
X150368000Y-92964000D03*
%TD*%
D10*
%TO.P,pcb_conn1,10*%
%TO.N,B*%
X199644000Y-111252000D03*
%TO.P,pcb_conn1,9*%
%TO.N,A*%
X197104000Y-111252000D03*
%TO.P,pcb_conn1,8*%
%TO.N,3.3v*%
X194564000Y-111252000D03*
%TO.P,pcb_conn1,7*%
%TO.N,12V*%
X192024000Y-111252000D03*
%TO.P,pcb_conn1,6*%
%TO.N,Net-(pcb_conn1-Pad6)*%
X189484000Y-111252000D03*
%TO.P,pcb_conn1,5*%
%TO.N,Net-(pcb_conn1-Pad5)*%
X186944000Y-111252000D03*
%TO.P,pcb_conn1,4*%
%TO.N,sda*%
X184404000Y-111252000D03*
%TO.P,pcb_conn1,3*%
%TO.N,scl*%
X181864000Y-111252000D03*
%TO.P,pcb_conn1,2*%
%TO.N,gnd*%
X179324000Y-111252000D03*
%TO.P,pcb_conn1,1*%
%TO.N,5v*%
X176784000Y-111252000D03*
%TD*%
D14*
%TO.P,control_board1,66*%
%TO.N,Net-(control_board1-Pad66)*%
X155194000Y-134842000D03*
%TO.P,control_board1,67*%
%TO.N,Net-(control_board1-Pad67)*%
X152654000Y-134842000D03*
D15*
%TO.P,control_board1,54*%
%TO.N,Net-(control_board1-Pad54)*%
X159004000Y-179832000D03*
%TO.P,control_board1,53*%
%TO.N,Net-(control_board1-Pad53)*%
X156464000Y-179832000D03*
%TO.P,control_board1,52*%
%TO.N,Net-(control_board1-Pad52)*%
X153924000Y-179832000D03*
%TO.P,control_board1,51*%
%TO.N,Net-(control_board1-Pad51)*%
X151384000Y-179832000D03*
%TO.P,control_board1,50*%
%TO.N,Net-(control_board1-Pad50)*%
X148844000Y-179832000D03*
D14*
%TO.P,control_board1,62*%
%TO.N,Net-(control_board1-Pad62)*%
X155105600Y-147082000D03*
%TO.P,control_board1,63*%
%TO.N,Net-(control_board1-Pad63)*%
X155105600Y-149082000D03*
%TO.P,control_board1,64*%
%TO.N,Net-(control_board1-Pad64)*%
X157105600Y-149082000D03*
%TO.P,control_board1,61*%
%TO.N,Net-(control_board1-Pad61)*%
X157105600Y-147082000D03*
%TO.P,control_board1,65*%
%TO.N,Net-(control_board1-Pad65)*%
X159105600Y-149082000D03*
D16*
%TO.P,control_board1,60*%
%TO.N,Net-(control_board1-Pad60)*%
X159105600Y-147082000D03*
D15*
%TO.P,control_board1,17*%
%TO.N,25*%
X146304000Y-174752000D03*
%TO.P,control_board1,18*%
%TO.N,26*%
X146304000Y-177292000D03*
%TO.P,control_board1,19*%
%TO.N,27*%
X146304000Y-179832000D03*
%TO.P,control_board1,20*%
%TO.N,28*%
X146304000Y-182372000D03*
%TO.P,control_board1,16*%
%TO.N,A*%
X146304000Y-172212000D03*
%TO.P,control_board1,15*%
%TO.N,Net-(control_board1-Pad15)*%
X146304000Y-169672000D03*
%TO.P,control_board1,14*%
%TO.N,Net-(control_board1-Pad14)*%
X146304000Y-167132000D03*
%TO.P,control_board1,21*%
%TO.N,Net-(control_board1-Pad21)*%
X146304000Y-184912000D03*
%TO.P,control_board1,22*%
%TO.N,Net-(control_board1-Pad22)*%
X146304000Y-187452000D03*
%TO.P,control_board1,23*%
%TO.N,Net-(control_board1-Pad23)*%
X146304000Y-189992000D03*
%TO.P,control_board1,24*%
%TO.N,Net-(control_board1-Pad24)*%
X146304000Y-192532000D03*
%TO.P,control_board1,25*%
%TO.N,Net-(control_board1-Pad25)*%
X161544000Y-192532000D03*
%TO.P,control_board1,26*%
%TO.N,Net-(control_board1-Pad26)*%
X161544000Y-189992000D03*
%TO.P,control_board1,27*%
%TO.N,Net-(control_board1-Pad27)*%
X161544000Y-187452000D03*
%TO.P,control_board1,28*%
%TO.N,Net-(control_board1-Pad28)*%
X161544000Y-184912000D03*
%TO.P,control_board1,29*%
%TO.N,Net-(control_board1-Pad29)*%
X161544000Y-182372000D03*
%TO.P,control_board1,30*%
%TO.N,Net-(control_board1-Pad30)*%
X161544000Y-179832000D03*
%TO.P,control_board1,31*%
%TO.N,Net-(control_board1-Pad31)*%
X161544000Y-177292000D03*
%TO.P,control_board1,32*%
%TO.N,Net-(control_board1-Pad32)*%
X161544000Y-174752000D03*
%TO.P,control_board1,33*%
%TO.N,Net-(control_board1-Pad33)*%
X161544000Y-172212000D03*
%TO.P,control_board1,34*%
%TO.N,Net-(control_board1-Pad34)*%
X161544000Y-169672000D03*
%TO.P,control_board1,13*%
%TO.N,Net-(control_board1-Pad13)*%
X146304000Y-164592000D03*
%TO.P,control_board1,12*%
%TO.N,Net-(control_board1-Pad12)*%
X146304000Y-162052000D03*
%TO.P,control_board1,11*%
%TO.N,B*%
X146304000Y-159512000D03*
%TO.P,control_board1,10*%
%TO.N,Net-(BZ1-Pad1)*%
X146304000Y-156972000D03*
%TO.P,control_board1,9*%
%TO.N,Net-(control_board1-Pad9)*%
X146304000Y-154432000D03*
%TO.P,control_board1,8*%
%TO.N,Net-(control_board1-Pad8)*%
X146304000Y-151892000D03*
%TO.P,control_board1,7*%
%TO.N,Net-(R5-Pad2)*%
X146304000Y-149352000D03*
%TO.P,control_board1,6*%
%TO.N,Net-(R4-Pad2)*%
X146304000Y-146812000D03*
%TO.P,control_board1,5*%
%TO.N,Net-(R3-Pad2)*%
X146304000Y-144272000D03*
%TO.P,control_board1,4*%
%TO.N,Net-(R2-Pad2)*%
X146304000Y-141732000D03*
%TO.P,control_board1,3*%
%TO.N,Net-(U2-Pad7)*%
X146304000Y-139192000D03*
%TO.P,control_board1,2*%
%TO.N,Net-(U2-Pad6)*%
X146304000Y-136652000D03*
D13*
%TO.P,control_board1,1*%
%TO.N,Net-(control_board1-Pad1)*%
X146304000Y-134112000D03*
D15*
%TO.P,control_board1,35*%
%TO.N,Net-(control_board1-Pad35)*%
X161544000Y-167132000D03*
%TO.P,control_board1,36*%
%TO.N,Net-(control_board1-Pad36)*%
X161544000Y-164592000D03*
%TO.P,control_board1,37*%
%TO.N,Net-(control_board1-Pad37)*%
X161544000Y-162052000D03*
%TO.P,control_board1,38*%
%TO.N,Net-(control_board1-Pad38)*%
X161544000Y-159512000D03*
%TO.P,control_board1,39*%
%TO.N,Net-(control_board1-Pad39)*%
X161544000Y-156972000D03*
%TO.P,control_board1,40*%
%TO.N,sda*%
X161544000Y-154432000D03*
%TO.P,control_board1,41*%
%TO.N,scl*%
X161544000Y-151892000D03*
%TO.P,control_board1,42*%
%TO.N,Net-(control_board1-Pad42)*%
X161544000Y-149352000D03*
%TO.P,control_board1,43*%
%TO.N,Net-(control_board1-Pad43)*%
X161544000Y-146812000D03*
%TO.P,control_board1,44*%
%TO.N,Net-(control_board1-Pad44)*%
X161544000Y-144272000D03*
%TO.P,control_board1,45*%
%TO.N,Net-(control_board1-Pad45)*%
X161544000Y-141732000D03*
%TO.P,control_board1,46*%
%TO.N,Net-(SW1-Pad1)*%
X161544000Y-139192000D03*
%TO.P,control_board1,47*%
%TO.N,gnd*%
X161544000Y-136652000D03*
%TO.P,control_board1,48*%
%TO.N,5v*%
X161544000Y-134112000D03*
D13*
%TO.P,control_board1,55*%
%TO.N,Net-(control_board1-Pad55)*%
X149354800Y-140411200D03*
D15*
%TO.P,control_board1,56*%
%TO.N,Net-(control_board1-Pad56)*%
X149354800Y-142951200D03*
%TO.P,control_board1,57*%
%TO.N,Net-(control_board1-Pad57)*%
X149354800Y-145491200D03*
%TO.P,control_board1,58*%
%TO.N,Net-(control_board1-Pad58)*%
X149354800Y-148031200D03*
%TO.P,control_board1,59*%
%TO.N,Net-(control_board1-Pad59)*%
X149354800Y-150571200D03*
%TO.P,control_board1,49*%
%TO.N,Net-(control_board1-Pad49)*%
X159004000Y-136652000D03*
%TD*%
D10*
%TO.P,ir_sensor_9,3*%
%TO.N,Net-(Portmultiplexer1-Pad1)*%
X183070500Y-234588500D03*
%TO.P,ir_sensor_9,2*%
%TO.N,gnd*%
X185610500Y-234588500D03*
%TO.P,ir_sensor_9,1*%
%TO.N,3.3v*%
X188150500Y-234588500D03*
%TD*%
%TO.P,ir_sensor_1,3*%
%TO.N,Net-(Portmultiplexer1-Pad21)*%
X188150500Y-38588500D03*
%TO.P,ir_sensor_1,2*%
%TO.N,gnd*%
X185610500Y-38588500D03*
%TO.P,ir_sensor_1,1*%
%TO.N,3.3v*%
X183070500Y-38588500D03*
%TD*%
%TO.P,ir_sensor_2,3*%
%TO.N,Net-(Portmultiplexer1-Pad22)*%
X150454178Y-45076290D03*
%TO.P,ir_sensor_2,2*%
%TO.N,gnd*%
X148107524Y-46048306D03*
%TO.P,ir_sensor_2,1*%
%TO.N,3.3v*%
X145760870Y-47020322D03*
%TD*%
%TO.P,ir_sensor_8,3*%
%TO.N,Net-(Portmultiplexer1-Pad28)*%
X145760870Y-226156678D03*
%TO.P,ir_sensor_8,2*%
%TO.N,gnd*%
X148107524Y-227128694D03*
%TO.P,ir_sensor_8,1*%
%TO.N,3.3v*%
X150454178Y-228100710D03*
%TD*%
%TO.P,ir_sensor_12,3*%
%TO.N,Net-(Portmultiplexer1-Pad4)*%
X275178678Y-176438130D03*
%TO.P,ir_sensor_12,2*%
%TO.N,gnd*%
X276150694Y-174091476D03*
%TO.P,ir_sensor_12,1*%
%TO.N,3.3v*%
X277122710Y-171744822D03*
%TD*%
%TO.P,U2,16*%
%TO.N,Net-(U2-Pad16)*%
X201803000Y-168783000D03*
%TO.P,U2,17*%
%TO.N,gnd*%
X201803000Y-171323000D03*
D17*
%TO.P,U2,screw*%
X200406000Y-131445000D03*
X170942000Y-131445000D03*
D10*
%TO.P,U2,9*%
%TO.N,3.3v*%
X169545000Y-171323000D03*
%TO.P,U2,8*%
%TO.N,Net-(U2-Pad8)*%
X169545000Y-168783000D03*
%TO.P,U2,7*%
%TO.N,Net-(U2-Pad7)*%
X169545000Y-166243000D03*
%TO.P,U2,6*%
%TO.N,Net-(U2-Pad6)*%
X169545000Y-163703000D03*
%TO.P,U2,5*%
%TO.N,Net-(U2-Pad5)*%
X169545000Y-161163000D03*
%TO.P,U2,4*%
%TO.N,Net-(U2-Pad4)*%
X169545000Y-158623000D03*
%TO.P,U2,3*%
%TO.N,Net-(U2-Pad3)*%
X169545000Y-156083000D03*
%TO.P,U2,10*%
%TO.N,Net-(U2-Pad10)*%
X201803000Y-153543000D03*
%TO.P,U2,11*%
%TO.N,Net-(U2-Pad11)*%
X201803000Y-156083000D03*
%TO.P,U2,12*%
%TO.N,Net-(U2-Pad12)*%
X201803000Y-158623000D03*
%TO.P,U2,13*%
%TO.N,Net-(U2-Pad13)*%
X201803000Y-161163000D03*
%TO.P,U2,14*%
%TO.N,Net-(U2-Pad14)*%
X201803000Y-163703000D03*
%TO.P,U2,15*%
%TO.N,Net-(R1-Pad2)*%
X201803000Y-166243000D03*
%TO.P,U2,2*%
%TO.N,Net-(U2-Pad2)*%
X169545000Y-153543000D03*
%TD*%
%TO.P,xt60,1*%
%TO.N,12V*%
%TA.AperFunction,ComponentPad*%
G36*
G01*
X234744000Y-89384000D02*
X234744000Y-86384000D01*
G75*
G02*
X236244000Y-84884000I1500000J0D01*
G01*
X239244000Y-84884000D01*
G75*
G02*
X240744000Y-86384000I0J-1500000D01*
G01*
X240744000Y-89384000D01*
G75*
G02*
X239244000Y-90884000I-1500000J0D01*
G01*
X236244000Y-90884000D01*
G75*
G02*
X234744000Y-89384000I0J1500000D01*
G01*
G37*
%TD.AperFunction*%
D18*
%TO.P,xt60,2*%
%TO.N,gnd*%
X244944000Y-87884000D03*
%TD*%
D19*
%TO.P,xt30,2*%
%TO.N,gnd*%
X221535000Y-89916000D03*
D20*
%TO.P,xt30,1*%
%TO.N,12V*%
X216535000Y-89916000D03*
%TD*%
D10*
%TO.P,U1,4*%
%TO.N,Net-(U1-Pad4)*%
X222504000Y-135382000D03*
%TO.P,U1,3*%
%TO.N,5v*%
X219964000Y-135382000D03*
%TO.P,U1,2*%
%TO.N,gnd*%
X217424000Y-135382000D03*
%TO.P,U1,1*%
%TO.N,sda*%
X214884000Y-135382000D03*
%TO.P,U1,0*%
%TO.N,scl*%
X212344000Y-135382000D03*
%TD*%
%TO.P,ir_sensor_16,3*%
%TO.N,Net-(Portmultiplexer1-Pad8)*%
X225460130Y-47020322D03*
%TO.P,ir_sensor_16,2*%
%TO.N,gnd*%
X223113476Y-46048306D03*
%TO.P,ir_sensor_16,1*%
%TO.N,3.3v*%
X220766822Y-45076290D03*
%TD*%
%TO.P,ir_sensor_15,3*%
%TO.N,Net-(Portmultiplexer1-Pad7)*%
X258499066Y-70884138D03*
%TO.P,ir_sensor_15,2*%
%TO.N,gnd*%
X256703015Y-69088087D03*
%TO.P,ir_sensor_15,1*%
%TO.N,3.3v*%
X254906964Y-67292036D03*
%TD*%
%TO.P,ir_sensor_14,3*%
%TO.N,Net-(Portmultiplexer1-Pad6)*%
X277122710Y-101432178D03*
%TO.P,ir_sensor_14,2*%
%TO.N,gnd*%
X276150694Y-99085524D03*
%TO.P,ir_sensor_14,1*%
%TO.N,3.3v*%
X275178678Y-96738870D03*
%TD*%
%TO.P,ir_sensor_13,3*%
%TO.N,Net-(Portmultiplexer1-Pad5)*%
X283610500Y-139128500D03*
%TO.P,ir_sensor_13,2*%
%TO.N,gnd*%
X283610500Y-136588500D03*
%TO.P,ir_sensor_13,1*%
%TO.N,3.3v*%
X283610500Y-134048500D03*
%TD*%
%TO.P,ir_sensor_11,3*%
%TO.N,Net-(Portmultiplexer1-Pad3)*%
X253110913Y-207681015D03*
%TO.P,ir_sensor_11,2*%
%TO.N,gnd*%
X254906964Y-205884964D03*
%TO.P,ir_sensor_11,1*%
%TO.N,3.3v*%
X256703015Y-204088913D03*
%TD*%
%TO.P,ir_sensor_10,3*%
%TO.N,Net-(Portmultiplexer1-Pad2)*%
X220766822Y-228100710D03*
%TO.P,ir_sensor_10,2*%
%TO.N,gnd*%
X223113476Y-227128694D03*
%TO.P,ir_sensor_10,1*%
%TO.N,3.3v*%
X225460130Y-226156678D03*
%TD*%
%TO.P,ir_sensor_7,3*%
%TO.N,Net-(Portmultiplexer1-Pad27)*%
X114517985Y-204088913D03*
%TO.P,ir_sensor_7,2*%
%TO.N,gnd*%
X116314036Y-205884964D03*
%TO.P,ir_sensor_7,1*%
%TO.N,3.3v*%
X118110087Y-207681015D03*
%TD*%
%TO.P,ir_sensor_6,3*%
%TO.N,Net-(Portmultiplexer1-Pad26)*%
X94098290Y-171744822D03*
%TO.P,ir_sensor_6,2*%
%TO.N,gnd*%
X95070306Y-174091476D03*
%TO.P,ir_sensor_6,1*%
%TO.N,3.3v*%
X96042322Y-176438130D03*
%TD*%
%TO.P,ir_sensor_5,3*%
%TO.N,Net-(Portmultiplexer1-Pad25)*%
X87610500Y-134048500D03*
%TO.P,ir_sensor_5,2*%
%TO.N,gnd*%
X87610500Y-136588500D03*
%TO.P,ir_sensor_5,1*%
%TO.N,3.3v*%
X87610500Y-139128500D03*
%TD*%
%TO.P,ir_sensor_4,3*%
%TO.N,Net-(Portmultiplexer1-Pad24)*%
X96042322Y-96738870D03*
%TO.P,ir_sensor_4,2*%
%TO.N,gnd*%
X95070306Y-99085524D03*
%TO.P,ir_sensor_4,1*%
%TO.N,3.3v*%
X94098290Y-101432178D03*
%TD*%
%TO.P,ir_sensor_3,3*%
%TO.N,Net-(Portmultiplexer1-Pad23)*%
X118110087Y-65495985D03*
%TO.P,ir_sensor_3,2*%
%TO.N,gnd*%
X116314036Y-67292036D03*
%TO.P,ir_sensor_3,1*%
%TO.N,3.3v*%
X114517985Y-69088087D03*
%TD*%
%TO.P,goal_kleur1,2*%
%TO.N,Net-(R1-Pad2)*%
X214884000Y-182372000D03*
%TO.P,goal_kleur1,1*%
%TO.N,3.3v*%
X209804000Y-182372000D03*
%TD*%
%TO.P,BZ1,2*%
%TO.N,gnd*%
X183134000Y-179832000D03*
%TO.P,BZ1,1*%
%TO.N,Net-(BZ1-Pad1)*%
X178054000Y-179832000D03*
%TD*%
D21*
%TO.N,gnd*%
X241808000Y-123698000D03*
X214693500Y-96964500D03*
X218440000Y-104140000D03*
X231648000Y-115506500D03*
X141732000Y-123952000D03*
X123380500Y-63817500D03*
%TO.N,5v*%
X247904000Y-123317000D03*
%TO.N,scl*%
X212344000Y-128997999D03*
X218757500Y-142113000D03*
X171291250Y-142144750D03*
X174752000Y-114490500D03*
%TO.N,sda*%
X205994000Y-123952000D03*
X174724903Y-115542903D03*
%TO.N,A*%
X198374000Y-115062000D03*
%TO.N,B*%
X199644000Y-116332000D03*
X179324000Y-136652000D03*
%TO.N,Net-(R2-Pad2)*%
X231394000Y-170942000D03*
%TO.N,3.3v*%
X194183000Y-98932001D03*
X193167000Y-82677000D03*
X175768000Y-109283500D03*
%TO.N,Net-(Portmultiplexer1-Pad1)*%
X164592000Y-190627000D03*
%TO.N,Net-(Portmultiplexer1-Pad2)*%
X164846000Y-189484000D03*
%TO.N,Net-(Portmultiplexer1-Pad3)*%
X168275000Y-107035019D03*
%TO.N,Net-(Portmultiplexer1-Pad4)*%
X163957000Y-104584500D03*
X197167500Y-104177000D03*
X228663500Y-107035019D03*
%TO.N,Net-(Portmultiplexer1-Pad5)*%
X162941000Y-104775000D03*
%TO.N,Net-(Portmultiplexer1-Pad6)*%
X154337961Y-111442500D03*
X166576988Y-106305385D03*
%TO.N,Net-(Portmultiplexer1-Pad7)*%
X165680108Y-105863108D03*
%TO.N,Net-(Portmultiplexer1-Pad8)*%
X164973000Y-105156000D03*
%TO.N,Net-(3V3_converter1-Pad2)*%
X167703500Y-92075000D03*
%TO.N,Net-(U2-Pad7)*%
X151320500Y-143065500D03*
%TO.N,Net-(U2-Pad6)*%
X152527000Y-143827500D03*
%TO.N,12V*%
X237109000Y-103695500D03*
X193839000Y-100584000D03*
%TO.N,25*%
X218157499Y-142913002D03*
X164909500Y-143510000D03*
%TO.N,26*%
X220091000Y-150114000D03*
%TO.N,27*%
X183261000Y-184023000D03*
%TD*%
D22*
%TO.N,gnd*%
X165481000Y-125984000D02*
X170942000Y-131445000D01*
X157988000Y-125984000D02*
X165481000Y-125984000D01*
X217424000Y-135382000D02*
X228790500Y-124015500D01*
X228790500Y-124015500D02*
X237617000Y-124015500D01*
X237617000Y-124015500D02*
X241617500Y-120015000D01*
X241617500Y-120015000D02*
X241617500Y-119126000D01*
X241617500Y-123507500D02*
X241808000Y-123698000D01*
X241617500Y-119126000D02*
X241617500Y-123507500D01*
X218440000Y-100711000D02*
X218440000Y-104140000D01*
X214693500Y-96964500D02*
X218440000Y-100711000D01*
X231648000Y-115506500D02*
X232092500Y-115951000D01*
X232092500Y-115951000D02*
X238760000Y-115951000D01*
X238760000Y-115951000D02*
X241808000Y-118999000D01*
X241808000Y-118999000D02*
X241808000Y-123698000D01*
X241618990Y-84558990D02*
X244944000Y-87884000D01*
X235488056Y-84558990D02*
X241618990Y-84558990D01*
X230131046Y-89916000D02*
X235488056Y-84558990D01*
X221535000Y-89916000D02*
X230131046Y-89916000D01*
X141732000Y-123952000D02*
X141732000Y-120904000D01*
X146812000Y-115824000D02*
X150368000Y-115824000D01*
X141732000Y-120904000D02*
X146812000Y-115824000D01*
X185610500Y-54088500D02*
X185610500Y-74866500D01*
X185610500Y-74866500D02*
X191008000Y-80264000D01*
X194246500Y-80264000D02*
X203390500Y-89408000D01*
X191008000Y-80264000D02*
X194246500Y-80264000D01*
X119905964Y-67292036D02*
X116314036Y-67292036D01*
X123380500Y-63817500D02*
X119905964Y-67292036D01*
%TO.N,5v*%
X247904000Y-138239500D02*
X247904000Y-123317000D01*
X245681500Y-140462000D02*
X247904000Y-138239500D01*
%TO.N,scl*%
X212344000Y-128997999D02*
X212344000Y-135382000D01*
X171323000Y-142113000D02*
X171291250Y-142144750D01*
X218757500Y-142113000D02*
X171323000Y-142113000D01*
X178625500Y-114490500D02*
X181864000Y-111252000D01*
X174752000Y-114490500D02*
X178625500Y-114490500D01*
%TO.N,sda*%
X214884000Y-130464997D02*
X214884000Y-135382000D01*
X208371003Y-123952000D02*
X214884000Y-130464997D01*
X205994000Y-123952000D02*
X208371003Y-123952000D01*
X220485761Y-136469001D02*
X215971001Y-136469001D01*
X221416999Y-135537763D02*
X220485761Y-136469001D01*
X215971001Y-136469001D02*
X214884000Y-135382000D01*
X221416999Y-134860239D02*
X221416999Y-135537763D01*
X228515238Y-127762000D02*
X221416999Y-134860239D01*
X245681500Y-127762000D02*
X228515238Y-127762000D01*
X183472762Y-111252000D02*
X184404000Y-111252000D01*
X179181859Y-115542903D02*
X183472762Y-111252000D01*
X174724903Y-115542903D02*
X179181859Y-115542903D01*
%TO.N,A*%
X143828971Y-134402027D02*
X143828971Y-169736971D01*
X145243999Y-132986999D02*
X143828971Y-134402027D01*
X157004001Y-132986999D02*
X145243999Y-132986999D01*
X160418999Y-136401997D02*
X157004001Y-132986999D01*
X160418999Y-137192001D02*
X160418999Y-136401997D01*
X143828971Y-169736971D02*
X146304000Y-172212000D01*
X161003999Y-137777001D02*
X160418999Y-137192001D01*
X176224684Y-137777001D02*
X161003999Y-137777001D01*
X198374000Y-115627685D02*
X176224684Y-137777001D01*
X198374000Y-115062000D02*
X198374000Y-115627685D01*
%TO.N,B*%
X199644000Y-116332000D02*
X179324000Y-136652000D01*
%TO.N,Net-(R5-Pad2)*%
X239014000Y-163322000D02*
X240284000Y-162052000D01*
X240284000Y-162052000D02*
X241554000Y-162052000D01*
X241554000Y-162052000D02*
X244094000Y-159512000D01*
X244094000Y-159512000D02*
X225044000Y-140462000D01*
X144278981Y-147326981D02*
X146304000Y-149352000D01*
X145763999Y-135526999D02*
X144278981Y-137012017D01*
X146844001Y-135526999D02*
X145763999Y-135526999D01*
X147429001Y-136111999D02*
X146844001Y-135526999D01*
X154605409Y-136111999D02*
X147429001Y-136111999D01*
X158955410Y-140462000D02*
X154605409Y-136111999D01*
X144278981Y-137012017D02*
X144278981Y-147326981D01*
X225044000Y-140462000D02*
X158955410Y-140462000D01*
%TO.N,Net-(R4-Pad2)*%
X161003999Y-143146999D02*
X162958999Y-143146999D01*
X155923999Y-138066999D02*
X161003999Y-143146999D01*
X145763999Y-138066999D02*
X155923999Y-138066999D01*
X144728990Y-139102008D02*
X145763999Y-138066999D01*
X144728990Y-145236990D02*
X144728990Y-139102008D01*
X146304000Y-146812000D02*
X144728990Y-145236990D01*
X166173990Y-146361990D02*
X222395572Y-146361990D01*
X162958999Y-143146999D02*
X166173990Y-146361990D01*
X237744000Y-164592000D02*
X239014000Y-165862000D01*
X237744000Y-161710418D02*
X237744000Y-164592000D01*
X222395572Y-146361990D02*
X237744000Y-161710418D01*
%TO.N,Net-(R3-Pad2)*%
X232481001Y-157083829D02*
X222209172Y-146812000D01*
X232481001Y-161869001D02*
X232481001Y-157083829D01*
X239014000Y-168402000D02*
X232481001Y-161869001D01*
X222209172Y-146812000D02*
X164084000Y-146812000D01*
X145178999Y-143146999D02*
X146304000Y-144272000D01*
X145178999Y-141191999D02*
X145178999Y-143146999D01*
X145763999Y-140606999D02*
X145178999Y-141191999D01*
X146973999Y-140606999D02*
X145763999Y-140606999D01*
X148294799Y-139286199D02*
X146973999Y-140606999D01*
X159942013Y-145397001D02*
X153831211Y-139286199D01*
X162669001Y-145397001D02*
X159942013Y-145397001D01*
X153831211Y-139286199D02*
X148294799Y-139286199D01*
X164084000Y-146812000D02*
X162669001Y-145397001D01*
%TO.N,Net-(R2-Pad2)*%
X232481001Y-169854999D02*
X231394000Y-170942000D01*
X231915761Y-167314999D02*
X232481001Y-167880239D01*
X230306999Y-155546237D02*
X230306999Y-166383761D01*
X232481001Y-167880239D02*
X232481001Y-169854999D01*
X222987761Y-148226999D02*
X230306999Y-155546237D01*
X230306999Y-166383761D02*
X231238237Y-167314999D01*
X161293997Y-148226999D02*
X222987761Y-148226999D01*
X160418999Y-146510397D02*
X160418999Y-147352001D01*
X231238237Y-167314999D02*
X231915761Y-167314999D01*
X160418999Y-147352001D02*
X161293997Y-148226999D01*
X155640602Y-141732000D02*
X160418999Y-146510397D01*
X146304000Y-141732000D02*
X155640602Y-141732000D01*
%TO.N,3.3v*%
X193167000Y-97916001D02*
X193167000Y-82677000D01*
X194183000Y-98932001D02*
X193167000Y-97916001D01*
X193632762Y-111252000D02*
X194564000Y-111252000D01*
X191664262Y-109283500D02*
X193632762Y-111252000D01*
X175768000Y-109283500D02*
X191664262Y-109283500D01*
X246768501Y-134294999D02*
X246768501Y-116276001D01*
X245681500Y-135382000D02*
X246768501Y-134294999D01*
X246768501Y-116276001D02*
X244411500Y-113919000D01*
X244411500Y-113919000D02*
X206311500Y-113919000D01*
X206311500Y-113919000D02*
X202057000Y-109664500D01*
X196151500Y-109664500D02*
X194564000Y-111252000D01*
X202057000Y-109664500D02*
X196151500Y-109664500D01*
%TO.N,Net-(Portmultiplexer1-Pad21)*%
X159766000Y-88773000D02*
X159766000Y-89152590D01*
X132461000Y-61468000D02*
X159766000Y-88773000D01*
X159766000Y-89152590D02*
X160528705Y-89915295D01*
X160528705Y-89915295D02*
X160274000Y-89660590D01*
X161813059Y-106918941D02*
X157988000Y-110744000D01*
X161813059Y-91053551D02*
X161813059Y-106918941D01*
X161549449Y-90789941D02*
X161813059Y-91053551D01*
X161403351Y-90789941D02*
X161549449Y-90789941D01*
X160528705Y-89915295D02*
X161403351Y-90789941D01*
X135671230Y-61468000D02*
X154657730Y-42481500D01*
X132461000Y-61468000D02*
X135671230Y-61468000D01*
X187219262Y-38588500D02*
X188150500Y-38588500D01*
X183326262Y-42481500D02*
X187219262Y-38588500D01*
X154657730Y-42481500D02*
X183326262Y-42481500D01*
%TO.N,Net-(Portmultiplexer1-Pad22)*%
X157988000Y-108204000D02*
X161363049Y-104828951D01*
X161363049Y-91239951D02*
X161216951Y-91239951D01*
X161363049Y-104828951D02*
X161363049Y-91239951D01*
X161216951Y-91239951D02*
X128143000Y-58166000D01*
X150339193Y-44961305D02*
X150454178Y-45076290D01*
X147585763Y-44961305D02*
X150339193Y-44961305D01*
X147020523Y-45526545D02*
X147585763Y-44961305D01*
X145645885Y-45526545D02*
X147020523Y-45526545D01*
X144673869Y-46498561D02*
X145645885Y-45526545D01*
X133985000Y-58166000D02*
X144673869Y-47477131D01*
X144673869Y-47477131D02*
X144673869Y-46498561D01*
X128143000Y-58166000D02*
X133985000Y-58166000D01*
%TO.N,Net-(Portmultiplexer1-Pad23)*%
X160913039Y-102738961D02*
X157988000Y-105664000D01*
X160913039Y-91678397D02*
X160913039Y-102738961D01*
X129178641Y-59944000D02*
X160913039Y-91678397D01*
X123662072Y-59944000D02*
X129178641Y-59944000D01*
X118110087Y-65495985D02*
X123662072Y-59944000D01*
%TO.N,Net-(Portmultiplexer1-Pad24)*%
X179070000Y-195707000D02*
X179762990Y-196399990D01*
X149827999Y-117238999D02*
X147320000Y-119746998D01*
X147320000Y-119746998D02*
X147320000Y-122426590D01*
X150618003Y-117238999D02*
X149827999Y-117238999D01*
X140970000Y-128776590D02*
X140970000Y-191408642D01*
X159087201Y-90488971D02*
X156888799Y-90488972D01*
X156888799Y-90488972D02*
X155062961Y-92314809D01*
X147320000Y-122426590D02*
X140970000Y-128776590D01*
X157988000Y-103124000D02*
X160463029Y-100648971D01*
X145268358Y-195707000D02*
X179070000Y-195707000D01*
X160463029Y-100648971D02*
X160463029Y-91864797D01*
X155062961Y-112794041D02*
X150618003Y-117238999D01*
X179762990Y-196399990D02*
X179762990Y-228727000D01*
X140970000Y-191408642D02*
X145268358Y-195707000D01*
X160463029Y-91864797D02*
X159087201Y-90488971D01*
X155062961Y-92314809D02*
X155062961Y-112794041D01*
X179762990Y-228727000D02*
X164846000Y-228727000D01*
X164846000Y-224280892D02*
X124015500Y-183450392D01*
X164846000Y-228727000D02*
X164846000Y-224280892D01*
X124015500Y-124712048D02*
X96042322Y-96738870D01*
X124015500Y-183450392D02*
X124015500Y-124712048D01*
%TO.N,Net-(Portmultiplexer1-Pad25)*%
X160013020Y-98558980D02*
X157988000Y-100584000D01*
X160013020Y-92051198D02*
X160013020Y-98558980D01*
X157075199Y-90938981D02*
X158900802Y-90938980D01*
X155512970Y-92501208D02*
X157075199Y-90938981D01*
X150117997Y-119489001D02*
X152544999Y-119489001D01*
X158900802Y-90938980D02*
X160013020Y-92051198D01*
X148082000Y-121524998D02*
X150117997Y-119489001D01*
X155448000Y-117602000D02*
X155512969Y-117537031D01*
X87610500Y-134048500D02*
X100838000Y-134048500D01*
X152544999Y-119489001D02*
X154432000Y-117602000D01*
X123565490Y-156775990D02*
X123565490Y-189732490D01*
X148082000Y-122301000D02*
X148082000Y-121524998D01*
X100838000Y-134048500D02*
X123565490Y-156775990D01*
X180143990Y-229177010D02*
X180213000Y-229108000D01*
X145396768Y-195199000D02*
X141732000Y-191534232D01*
X123565490Y-189732490D02*
X163010010Y-229177010D01*
X163010010Y-229177010D02*
X180143990Y-229177010D01*
X179451000Y-195199000D02*
X145396768Y-195199000D01*
X155512969Y-117537031D02*
X155512970Y-92501208D01*
X180213000Y-229108000D02*
X180213000Y-195961000D01*
X154432000Y-117602000D02*
X155448000Y-117602000D01*
X141732000Y-128651000D02*
X148082000Y-122301000D01*
X180213000Y-195961000D02*
X179451000Y-195199000D01*
X141732000Y-191534232D02*
X141732000Y-128651000D01*
%TO.N,Net-(Portmultiplexer1-Pad26)*%
X180212982Y-194691000D02*
X180346981Y-194557020D01*
X180346981Y-194557020D02*
X180458610Y-194557020D01*
X145525178Y-194691000D02*
X180212982Y-194691000D01*
X142478942Y-191644764D02*
X145525178Y-194691000D01*
X142478941Y-129668057D02*
X142478942Y-191644764D01*
X155962979Y-119627021D02*
X153271001Y-122318999D01*
X155962979Y-92687609D02*
X155962979Y-119627021D01*
X157261598Y-91388990D02*
X155962979Y-92687609D01*
X153271001Y-122318999D02*
X149827999Y-122318999D01*
X159563010Y-92237598D02*
X158714401Y-91388989D01*
X158714401Y-91388989D02*
X157261598Y-91388990D01*
X159563010Y-96468990D02*
X159563010Y-92237598D01*
X157988000Y-98044000D02*
X159563010Y-96468990D01*
X149827999Y-122318999D02*
X142478941Y-129668057D01*
X180458610Y-194557020D02*
X180709980Y-194808390D01*
X180709980Y-194808390D02*
X180709980Y-229370200D01*
X180453160Y-229627020D02*
X162444020Y-229627020D01*
X180709980Y-229370200D02*
X180453160Y-229627020D01*
X162444020Y-229627020D02*
X118364000Y-185547000D01*
X112309930Y-171744822D02*
X94098290Y-171744822D01*
X118364000Y-177798892D02*
X112309930Y-171744822D01*
X118364000Y-185547000D02*
X118364000Y-177798892D01*
%TO.N,Net-(Portmultiplexer1-Pad27)*%
X181159990Y-194621990D02*
X180645011Y-194107011D01*
X181159990Y-229556600D02*
X181159990Y-194621990D01*
X142928951Y-131758047D02*
X150117997Y-124569001D01*
X142928951Y-191458363D02*
X142928951Y-131758047D01*
X145577598Y-194107010D02*
X142928951Y-191458363D01*
X150117997Y-124569001D02*
X151909999Y-124569001D01*
X180645011Y-194107011D02*
X145577598Y-194107010D01*
X153797000Y-122682000D02*
X154178000Y-122682000D01*
X151909999Y-124569001D02*
X153797000Y-122682000D01*
X154178000Y-122682000D02*
X156412989Y-120447011D01*
X159113001Y-94378999D02*
X157988000Y-95504000D01*
X158528001Y-91838999D02*
X159113001Y-92423999D01*
X157447999Y-91838999D02*
X158528001Y-91838999D01*
X159113001Y-92423999D02*
X159113001Y-94378999D01*
X156412989Y-92874009D02*
X157447999Y-91838999D01*
X156412989Y-120447011D02*
X156412989Y-92874009D01*
X180639560Y-230077030D02*
X181159990Y-229556600D01*
X162257620Y-230077030D02*
X180639560Y-230077030D01*
X136269503Y-204088913D02*
X162257620Y-230077030D01*
X114517985Y-204088913D02*
X136269503Y-204088913D01*
%TO.N,Net-(Portmultiplexer1-Pad28)*%
X145480013Y-132536989D02*
X144577011Y-132536989D01*
X156862999Y-121154003D02*
X145480013Y-132536989D01*
X156862999Y-94089001D02*
X156862999Y-121154003D01*
X157988000Y-92964000D02*
X156862999Y-94089001D01*
X145763999Y-193657001D02*
X180992999Y-193657001D01*
X143378961Y-191271963D02*
X145763999Y-193657001D01*
X143378961Y-133735039D02*
X143378961Y-191271963D01*
X144577011Y-132536989D02*
X143378961Y-133735039D01*
X180992999Y-193657001D02*
X181610000Y-194274002D01*
X181610000Y-194274002D02*
X181610000Y-229743000D01*
X146522869Y-225394679D02*
X145760870Y-226156678D01*
X149356909Y-225394679D02*
X146522869Y-225394679D01*
X154489269Y-230527039D02*
X149356909Y-225394679D01*
X180825961Y-230527039D02*
X154489269Y-230527039D01*
X181610000Y-229743000D02*
X180825961Y-230527039D01*
%TO.N,Net-(Portmultiplexer1-Pad1)*%
X164592000Y-190627000D02*
X164592000Y-190627000D01*
X182060010Y-233578010D02*
X183070500Y-234588500D01*
X182060010Y-194087602D02*
X182060010Y-233578010D01*
X179234408Y-191262000D02*
X182060010Y-194087602D01*
X165227000Y-191262000D02*
X179234408Y-191262000D01*
X164592000Y-190627000D02*
X165227000Y-191262000D01*
%TO.N,Net-(Portmultiplexer1-Pad2)*%
X178092818Y-189484000D02*
X182753000Y-194144182D01*
X164846000Y-189484000D02*
X178092818Y-189484000D01*
X220766822Y-228100710D02*
X183633290Y-228100710D01*
X182510020Y-194387162D02*
X182753000Y-194144182D01*
X182510020Y-229479390D02*
X182510020Y-194387162D01*
X183633290Y-228356120D02*
X182510020Y-229479390D01*
X183633290Y-228100710D02*
X183633290Y-228356120D01*
%TO.N,Net-(Portmultiplexer1-Pad3)*%
X244201781Y-107210039D02*
X243205000Y-107210039D01*
X239753961Y-107210039D02*
X238760000Y-108204000D01*
X243205000Y-107210039D02*
X239753961Y-107210039D01*
X238760000Y-108204000D02*
X238760000Y-111061500D01*
X238760000Y-111061500D02*
X237172500Y-112649000D01*
X237172500Y-112649000D02*
X231711500Y-112649000D01*
X231711500Y-112649000D02*
X227393500Y-108331000D01*
X227393500Y-108331000D02*
X204914500Y-108331000D01*
X204914500Y-108331000D02*
X203644500Y-107061000D01*
X168300981Y-107061000D02*
X168275000Y-107035019D01*
X203644500Y-107061000D02*
X168300981Y-107061000D01*
X253110913Y-206072253D02*
X268097000Y-191086166D01*
X253110913Y-207681015D02*
X253110913Y-206072253D01*
X268097000Y-163830000D02*
X267462000Y-163195000D01*
X268097000Y-191086166D02*
X268097000Y-163830000D01*
X267462000Y-163195000D02*
X267462000Y-89916000D01*
X265621910Y-88075910D02*
X265621910Y-85789910D01*
X267462000Y-89916000D02*
X265621910Y-88075910D01*
X265621910Y-85789910D02*
X244201781Y-107210039D01*
X265686820Y-85725000D02*
X265621910Y-85789910D01*
%TO.N,Net-(Portmultiplexer1-Pad4)*%
X164364500Y-104177000D02*
X197167500Y-104177000D01*
X163957000Y-104584500D02*
X164364500Y-104177000D01*
X268980490Y-170239942D02*
X275178678Y-176438130D01*
X268980490Y-90227990D02*
X268980490Y-170239942D01*
X266508795Y-87756295D02*
X268980490Y-90227990D01*
X266508795Y-84266615D02*
X266508795Y-87756295D01*
X244015381Y-106760029D02*
X266508795Y-84266615D01*
X228938490Y-106760029D02*
X244015381Y-106760029D01*
X228663500Y-107035019D02*
X228938490Y-106760029D01*
%TO.N,Net-(Portmultiplexer1-Pad5)*%
X165196386Y-107030386D02*
X162941000Y-104775000D01*
X166924989Y-107030386D02*
X165196386Y-107030386D01*
X167645356Y-106310019D02*
X166924989Y-107030386D01*
X266446000Y-83693000D02*
X243828981Y-106310019D01*
X243828981Y-106310019D02*
X167645356Y-106310019D01*
X268027990Y-85149400D02*
X266571590Y-83693000D01*
X266571590Y-83693000D02*
X266446000Y-83693000D01*
X268027990Y-88615830D02*
X268027990Y-85149400D01*
X269430500Y-90018340D02*
X268027990Y-88615830D01*
X269430500Y-90805000D02*
X269430500Y-90018340D01*
X274091677Y-129609677D02*
X274091677Y-95466177D01*
X274091677Y-95466177D02*
X269430500Y-90805000D01*
X283610500Y-139128500D02*
X274091677Y-129609677D01*
%TO.N,Net-(Portmultiplexer1-Pad6)*%
X154337961Y-109633961D02*
X154337961Y-111442500D01*
X150368000Y-105664000D02*
X154337961Y-109633961D01*
X243519811Y-105860009D02*
X266321820Y-83058000D01*
X167022364Y-105860009D02*
X243519811Y-105860009D01*
X166576988Y-106305385D02*
X167022364Y-105860009D01*
X266321820Y-83058000D02*
X268478000Y-83058000D01*
X277237695Y-101317193D02*
X277122710Y-101432178D01*
X277237695Y-98563763D02*
X277237695Y-101317193D01*
X276733000Y-98059068D02*
X277237695Y-98563763D01*
X276733000Y-96684430D02*
X276733000Y-98059068D01*
X268478000Y-88429430D02*
X276733000Y-96684430D01*
X268478000Y-83058000D02*
X268478000Y-88429430D01*
%TO.N,Net-(Portmultiplexer1-Pad7)*%
X266261009Y-82482401D02*
X243333410Y-105410000D01*
X166133216Y-105410000D02*
X165680108Y-105863108D01*
X243333410Y-105410000D02*
X166133216Y-105410000D01*
X258889549Y-70884138D02*
X258499066Y-70884138D01*
X266261009Y-78255598D02*
X258889549Y-70884138D01*
X266261009Y-82482401D02*
X266261009Y-78255598D01*
%TO.N,Net-(Portmultiplexer1-Pad8)*%
X165227000Y-104902000D02*
X164973000Y-105156000D01*
X265811000Y-82296000D02*
X243205000Y-104902000D01*
X243713000Y-60198000D02*
X265811000Y-82296000D01*
X243205000Y-104902000D02*
X165227000Y-104902000D01*
X238637808Y-60198000D02*
X243713000Y-60198000D01*
X225460130Y-47020322D02*
X238637808Y-60198000D01*
%TO.N,Net-(3V3_converter1-Pad2)*%
X193515001Y-81951999D02*
X177826501Y-81951999D01*
X198310500Y-86747498D02*
X193515001Y-81951999D01*
X177826501Y-81951999D02*
X167703500Y-92075000D01*
X198310500Y-89408000D02*
X198310500Y-86747498D01*
%TO.N,Net-(U2-Pad7)*%
X151320500Y-144739902D02*
X151320500Y-143065500D01*
X155573601Y-148057001D02*
X154637599Y-148057001D01*
X156130599Y-149550001D02*
X156130599Y-148613999D01*
X156130599Y-148613999D02*
X155573601Y-148057001D01*
X159887597Y-153306999D02*
X156130599Y-149550001D01*
X162669001Y-153891999D02*
X162084001Y-153306999D01*
X162669001Y-162923001D02*
X162669001Y-153891999D01*
X165989000Y-166243000D02*
X162669001Y-162923001D01*
X154637599Y-148057001D02*
X151320500Y-144739902D01*
X162084001Y-153306999D02*
X159887597Y-153306999D01*
X169545000Y-166243000D02*
X165989000Y-166243000D01*
%TO.N,Net-(U2-Pad6)*%
X169169631Y-165155999D02*
X168917501Y-165155999D01*
X169545000Y-164780630D02*
X169169631Y-165155999D01*
X169545000Y-163703000D02*
X169545000Y-164780630D01*
X168917501Y-165155999D02*
X168280510Y-165792990D01*
X168280510Y-165792990D02*
X166175400Y-165792990D01*
X156130599Y-146663997D02*
X153294102Y-143827500D01*
X153294102Y-143827500D02*
X152527000Y-143827500D01*
X156130599Y-147550001D02*
X156130599Y-146663997D01*
X156637599Y-148057001D02*
X156130599Y-147550001D01*
X157523603Y-148057001D02*
X156637599Y-148057001D01*
X158080601Y-148613999D02*
X157523603Y-148057001D01*
X158080601Y-149500003D02*
X158080601Y-148613999D01*
X159057599Y-150477001D02*
X158080601Y-149500003D01*
X161794003Y-150477001D02*
X159057599Y-150477001D01*
X166175400Y-154858398D02*
X161794003Y-150477001D01*
X166175400Y-165792990D02*
X166175400Y-154858398D01*
%TO.N,12V*%
X237045500Y-103695500D02*
X237109000Y-103695500D01*
X205867000Y-100584000D02*
X216535000Y-89916000D01*
X193839000Y-100584000D02*
X205867000Y-100584000D01*
X237109000Y-88519000D02*
X237744000Y-87884000D01*
X237109000Y-103695500D02*
X237109000Y-88519000D01*
%TO.N,25*%
X165506498Y-142913002D02*
X164909500Y-143510000D01*
X218157499Y-142913002D02*
X165506498Y-142913002D01*
%TO.N,26*%
X171696499Y-162250001D02*
X183705500Y-150241000D01*
X219964000Y-150241000D02*
X220091000Y-150114000D01*
X183705500Y-150241000D02*
X219964000Y-150241000D01*
X149969001Y-173626999D02*
X146304000Y-177292000D01*
X163092239Y-173626999D02*
X149969001Y-173626999D01*
X169023239Y-167695999D02*
X163092239Y-173626999D01*
X171267001Y-167695999D02*
X169023239Y-167695999D01*
X171696499Y-167266501D02*
X171267001Y-167695999D01*
X171696499Y-162250001D02*
X171696499Y-167266501D01*
%TO.N,27*%
X147718999Y-181246999D02*
X146304000Y-179832000D01*
X180484999Y-181246999D02*
X147718999Y-181246999D01*
X183261000Y-184023000D02*
X180484999Y-181246999D01*
%TO.N,28*%
X147429001Y-183497001D02*
X181147501Y-183497001D01*
X146304000Y-182372000D02*
X147429001Y-183497001D01*
X182398501Y-184748001D02*
X217587999Y-184748001D01*
X181147501Y-183497001D02*
X182398501Y-184748001D01*
X217587999Y-184748001D02*
X228854000Y-173482000D01*
X228854000Y-173482000D02*
X247586500Y-173482000D01*
X247721001Y-173347499D02*
X247721001Y-150121501D01*
X247721001Y-150121501D02*
X245681500Y-148082000D01*
X247586500Y-173482000D02*
X247721001Y-173347499D01*
%TO.N,Net-(control_board1-Pad9)*%
X148145500Y-154432000D02*
X146304000Y-154432000D01*
%TO.N,Net-(SW1-Pad1)*%
X227584000Y-139192000D02*
X161544000Y-139192000D01*
X246634000Y-158242000D02*
X227584000Y-139192000D01*
X246634000Y-168402000D02*
X246634000Y-165862000D01*
X246634000Y-165862000D02*
X246634000Y-163322000D01*
X246634000Y-160782000D02*
X246634000Y-158242000D01*
X246634000Y-171069000D02*
X246634000Y-169989500D01*
X246634000Y-169989500D02*
X246634000Y-168402000D01*
X246634000Y-170942000D02*
X246634000Y-169989500D01*
X246634000Y-163449000D02*
X246634000Y-161417000D01*
X246634000Y-163322000D02*
X246634000Y-161417000D01*
X246634000Y-163449000D02*
X246634000Y-161099500D01*
X246634000Y-161099500D02*
X246634000Y-160782000D01*
X246634000Y-161417000D02*
X246634000Y-161099500D01*
%TD*%
M02*
