M48
; DRILL file {KiCad 5.1.9+dfsg1-1+deb11u1} date Sun Jun  9 17:34:01 2024
; FORMAT={-:-/ absolute / inch / decimal}
; #@! TF.CreationDate,2024-06-09T17:34:01+02:00
; #@! TF.GenerationSoftware,Kicad,Pcbnew,5.1.9+dfsg1-1+deb11u1
; #@! TF.FileFunction,Plated,1,2,PTH
FMAT,2
INCH
T1C0.0138
T2C0.0157
T3C0.0300
T4C0.0315
T5C0.0433
T6C0.0600
T7C0.1063
T8C0.1772
%
G90
G05
T1
X4.4476Y-3.7263
X4.4476Y-7.0287
X7.3075Y-8.6799
X7.31Y-2.0775
X7.31Y-2.0775
X10.1674Y-3.7263
X10.1674Y-7.0287
T2
X4.955Y-2.355
X6.0763Y-4.3875
X6.415Y-4.125
X6.455Y-4.1175
X6.48Y-7.505
X6.49Y-7.46
X6.495Y-4.14
X6.5228Y-4.1678
X6.5581Y-4.1853
X6.625Y-4.214
X6.7025Y-4.6265
X6.92Y-4.3025
X6.925Y-4.655
X7.06Y-5.38
X7.605Y-3.255
X7.645Y-3.895
X7.7625Y-4.1015
X7.81Y-4.53
X7.86Y-4.58
X8.11Y-4.88
X8.36Y-5.0787
X8.4525Y-3.8175
X8.6Y-4.1
X9.0025Y-4.214
X9.12Y-4.5475
X9.335Y-4.0825
X9.52Y-4.87
T3
X3.435Y-5.28
X3.435Y-5.38
X3.435Y-5.48
X3.7017Y-6.7676
X3.7067Y-3.9924
X3.74Y-6.86
X3.745Y-3.9
X3.7783Y-6.9524
X3.7833Y-3.8076
X4.4962Y-2.7085
X4.4986Y-8.0436
X4.5669Y-2.6378
X4.5693Y-8.1143
X4.6376Y-2.5671
X4.64Y-8.185
X5.7276Y-1.8383
X5.7276Y-8.9217
X5.82Y-1.8
X5.82Y-8.96
X5.9124Y-1.7617
X5.9124Y-8.9983
X6.675Y-6.045
X6.675Y-6.145
X6.675Y-6.245
X6.675Y-6.345
X6.675Y-6.445
X6.675Y-6.545
X6.675Y-6.645
X6.675Y-6.745
X6.96Y-4.38
X7.01Y-7.08
X7.06Y-4.38
X7.16Y-4.38
X7.21Y-1.505
X7.21Y-7.08
X7.21Y-9.25
X7.26Y-4.38
X7.31Y-1.505
X7.31Y-9.25
X7.36Y-4.38
X7.41Y-1.505
X7.41Y-9.25
X7.46Y-4.38
X7.56Y-4.38
X7.66Y-4.38
X7.76Y-4.38
X7.86Y-4.38
X7.945Y-6.045
X7.945Y-6.145
X7.945Y-6.245
X7.945Y-6.345
X7.945Y-6.445
X7.945Y-6.545
X7.945Y-6.645
X7.945Y-6.745
X8.26Y-6.98
X8.26Y-7.18
X8.36Y-5.33
X8.46Y-5.33
X8.46Y-6.98
X8.46Y-7.18
X8.56Y-5.33
X8.66Y-5.33
X8.7026Y-8.9983
X8.7076Y-1.7617
X8.76Y-5.33
X8.795Y-8.96
X8.8Y-1.8
X8.8874Y-8.9217
X8.8924Y-1.8383
X8.91Y-6.23
X8.91Y-6.33
X8.91Y-6.43
X8.91Y-6.53
X8.91Y-6.63
X8.91Y-6.73
X9.11Y-6.23
X9.11Y-6.33
X9.11Y-6.43
X9.11Y-6.53
X9.11Y-6.63
X9.11Y-6.73
X9.41Y-6.23
X9.41Y-6.33
X9.41Y-6.43
X9.41Y-6.53
X9.41Y-6.63
X9.41Y-6.73
X9.71Y-6.23
X9.71Y-6.33
X9.71Y-6.43
X9.71Y-6.53
X9.71Y-6.63
X9.71Y-6.73
X9.9793Y-2.5693
X9.9793Y-8.1907
X10.05Y-2.64
X10.05Y-8.12
X10.1207Y-2.7107
X10.1207Y-8.0493
X10.85Y-3.81
X10.8567Y-6.9474
X10.8883Y-3.9024
X10.895Y-6.855
X10.9265Y-3.9948
X10.9333Y-6.7626
X11.185Y-5.28
X11.185Y-5.38
X11.185Y-5.48
T4
X5.92Y-3.66
X5.92Y-3.76
X5.92Y-3.86
X5.92Y-3.96
X5.92Y-4.06
X5.92Y-4.16
X5.92Y-4.26
X5.92Y-4.36
X5.92Y-4.46
X5.92Y-4.56
X5.92Y-4.66
X5.92Y-4.76
X5.92Y-4.86
X5.92Y-4.96
X6.01Y-5.3087
X6.1065Y-5.7906
X6.1065Y-5.8694
X6.11Y-5.3087
X6.1853Y-5.7906
X6.1853Y-5.8694
X6.22Y-3.66
X6.22Y-3.76
X6.22Y-3.86
X6.22Y-3.96
X6.22Y-4.06
X6.22Y-4.16
X6.22Y-4.26
X6.22Y-4.36
X6.22Y-4.46
X6.22Y-4.56
X6.22Y-4.66
X6.22Y-4.76
X6.22Y-4.86
X6.22Y-4.96
X6.264Y-5.7906
X6.264Y-5.8694
T5
X5.76Y-5.28
X5.76Y-5.38
X5.76Y-5.48
X5.76Y-5.58
X5.76Y-5.68
X5.76Y-5.78
X5.76Y-5.88
X5.76Y-5.98
X5.76Y-6.08
X5.76Y-6.18
X5.76Y-6.28
X5.76Y-6.38
X5.76Y-6.48
X5.76Y-6.58
X5.76Y-6.68
X5.76Y-6.78
X5.76Y-6.88
X5.76Y-6.98
X5.76Y-7.08
X5.76Y-7.18
X5.76Y-7.28
X5.76Y-7.38
X5.76Y-7.48
X5.76Y-7.58
X5.86Y-7.08
X5.8801Y-5.528
X5.8801Y-5.628
X5.8801Y-5.728
X5.8801Y-5.828
X5.8801Y-5.928
X5.96Y-7.08
X6.06Y-7.08
X6.16Y-7.08
X6.26Y-5.38
X6.26Y-7.08
X6.36Y-5.28
X6.36Y-5.38
X6.36Y-5.48
X6.36Y-5.58
X6.36Y-5.68
X6.36Y-5.78
X6.36Y-5.88
X6.36Y-5.98
X6.36Y-6.08
X6.36Y-6.18
X6.36Y-6.28
X6.36Y-6.38
X6.36Y-6.48
X6.36Y-6.58
X6.36Y-6.68
X6.36Y-6.78
X6.36Y-6.88
X6.36Y-6.98
X6.36Y-7.08
X6.36Y-7.18
X6.36Y-7.28
X6.36Y-7.38
X6.36Y-7.48
X6.36Y-7.58
T6
X6.73Y-5.175
X7.89Y-5.175
T7
X8.525Y-3.54
X8.7219Y-3.54
T8
X9.01Y-3.73
X9.2935Y-3.73
T0
M30
