%TF.GenerationSoftware,KiCad,Pcbnew,5.1.9+dfsg1-1+deb11u1*%
%TF.CreationDate,2024-06-24T23:42:04+02:00*%
%TF.ProjectId,pcb_boven,7063625f-626f-4766-956e-2e6b69636164,rev?*%
%TF.SameCoordinates,Original*%
%TF.FileFunction,Soldermask,Top*%
%TF.FilePolarity,Negative*%
%FSLAX46Y46*%
G04 Gerber Fmt 4.6, Leading zero omitted, Abs format (unit mm)*
G04 Created by KiCad (PCBNEW 5.1.9+dfsg1-1+deb11u1) date 2024-06-24 23:42:04*
%MOMM*%
%LPD*%
G01*
G04 APERTURE LIST*
%ADD10C,1.524000*%
%ADD11C,5.080000*%
%ADD12O,1.600000X1.600000*%
%ADD13R,1.600000X1.600000*%
%ADD14C,1.300000*%
%ADD15C,1.600000*%
%ADD16R,1.300000X1.300000*%
%ADD17C,2.794000*%
%ADD18C,6.000000*%
%ADD19C,4.000000*%
%ADD20R,3.800000X3.800000*%
%ADD21R,1.200000X1.800000*%
%ADD22R,3.200000X1.200000*%
G04 APERTURE END LIST*
D10*
%TO.C,SW1*%
X239014000Y-171069000D03*
X239014000Y-168529000D03*
X239014000Y-165989000D03*
X239014000Y-163449000D03*
X246634000Y-163449000D03*
X246634000Y-165989000D03*
X246634000Y-168529000D03*
X246634000Y-171069000D03*
%TD*%
%TO.C,R5*%
X233426000Y-163322000D03*
X224536000Y-163322000D03*
%TD*%
%TO.C,R4*%
X233426000Y-165862000D03*
X224536000Y-165862000D03*
%TD*%
%TO.C,R3*%
X233426000Y-168402000D03*
X224536000Y-168402000D03*
%TD*%
%TO.C,R2*%
X233426000Y-170942000D03*
X224536000Y-170942000D03*
%TD*%
%TO.C,R1*%
X216662000Y-177292000D03*
X207772000Y-177292000D03*
%TD*%
%TO.C,pwr_sw1*%
X203390500Y-89408000D03*
X198310500Y-89408000D03*
%TD*%
%TO.C,extrapins1*%
X245681500Y-125222000D03*
X245681500Y-127762000D03*
X245681500Y-130302000D03*
X245681500Y-132842000D03*
X245681500Y-135382000D03*
X245681500Y-137922000D03*
X245681500Y-140462000D03*
X245681500Y-143002000D03*
X245681500Y-145542000D03*
X245681500Y-148082000D03*
%TD*%
D11*
%TO.C,screwhoel1*%
X185610500Y-219088500D03*
%TD*%
%TO.C,screwhoel1*%
X114163405Y-177838499D03*
%TD*%
%TO.C,screwhoel1*%
X185610500Y-54088500D03*
%TD*%
%TO.C,screwhoel1*%
X257057595Y-95338501D03*
%TD*%
%TO.C,screwhoel1*%
X257057595Y-177838499D03*
%TD*%
%TO.C,screwhoel1*%
X114163405Y-95338501D03*
%TD*%
D12*
%TO.C,Portmultiplexer1*%
X157988000Y-92964000D03*
X150368000Y-125984000D03*
X157988000Y-95504000D03*
X150368000Y-123444000D03*
X157988000Y-98044000D03*
X150368000Y-120904000D03*
X157988000Y-100584000D03*
X150368000Y-118364000D03*
X157988000Y-103124000D03*
X150368000Y-115824000D03*
X157988000Y-105664000D03*
X150368000Y-113284000D03*
X157988000Y-108204000D03*
X150368000Y-110744000D03*
X157988000Y-110744000D03*
X150368000Y-108204000D03*
X157988000Y-113284000D03*
X150368000Y-105664000D03*
X157988000Y-115824000D03*
X150368000Y-103124000D03*
X157988000Y-118364000D03*
X150368000Y-100584000D03*
X157988000Y-120904000D03*
X150368000Y-98044000D03*
X157988000Y-123444000D03*
X150368000Y-95504000D03*
X157988000Y-125984000D03*
D13*
X150368000Y-92964000D03*
%TD*%
D10*
%TO.C,pcb_conn1*%
X199644000Y-111252000D03*
X197104000Y-111252000D03*
X194564000Y-111252000D03*
X192024000Y-111252000D03*
X189484000Y-111252000D03*
X186944000Y-111252000D03*
X184404000Y-111252000D03*
X181864000Y-111252000D03*
X179324000Y-111252000D03*
X176784000Y-111252000D03*
%TD*%
D14*
%TO.C,control_board1*%
X155194000Y-134842000D03*
X152654000Y-134842000D03*
D15*
X159004000Y-179832000D03*
X156464000Y-179832000D03*
X153924000Y-179832000D03*
X151384000Y-179832000D03*
X148844000Y-179832000D03*
D14*
X155105600Y-147082000D03*
X155105600Y-149082000D03*
X157105600Y-149082000D03*
X157105600Y-147082000D03*
X159105600Y-149082000D03*
D16*
X159105600Y-147082000D03*
D15*
X146304000Y-174752000D03*
X146304000Y-177292000D03*
X146304000Y-179832000D03*
X146304000Y-182372000D03*
X146304000Y-172212000D03*
X146304000Y-169672000D03*
X146304000Y-167132000D03*
X146304000Y-184912000D03*
X146304000Y-187452000D03*
X146304000Y-189992000D03*
X146304000Y-192532000D03*
X161544000Y-192532000D03*
X161544000Y-189992000D03*
X161544000Y-187452000D03*
X161544000Y-184912000D03*
X161544000Y-182372000D03*
X161544000Y-179832000D03*
X161544000Y-177292000D03*
X161544000Y-174752000D03*
X161544000Y-172212000D03*
X161544000Y-169672000D03*
X146304000Y-164592000D03*
X146304000Y-162052000D03*
X146304000Y-159512000D03*
X146304000Y-156972000D03*
X146304000Y-154432000D03*
X146304000Y-151892000D03*
X146304000Y-149352000D03*
X146304000Y-146812000D03*
X146304000Y-144272000D03*
X146304000Y-141732000D03*
X146304000Y-139192000D03*
X146304000Y-136652000D03*
D13*
X146304000Y-134112000D03*
D15*
X161544000Y-167132000D03*
X161544000Y-164592000D03*
X161544000Y-162052000D03*
X161544000Y-159512000D03*
X161544000Y-156972000D03*
X161544000Y-154432000D03*
X161544000Y-151892000D03*
X161544000Y-149352000D03*
X161544000Y-146812000D03*
X161544000Y-144272000D03*
X161544000Y-141732000D03*
X161544000Y-139192000D03*
X161544000Y-136652000D03*
X161544000Y-134112000D03*
D13*
X149354800Y-140411200D03*
D15*
X149354800Y-142951200D03*
X149354800Y-145491200D03*
X149354800Y-148031200D03*
X149354800Y-150571200D03*
X159004000Y-136652000D03*
%TD*%
D10*
%TO.C,ir_sensor_9*%
X183070500Y-234588500D03*
X185610500Y-234588500D03*
X188150500Y-234588500D03*
%TD*%
%TO.C,ir_sensor_1*%
X188150500Y-38588500D03*
X185610500Y-38588500D03*
X183070500Y-38588500D03*
%TD*%
%TO.C,ir_sensor_2*%
X150454178Y-45076290D03*
X148107524Y-46048306D03*
X145760870Y-47020322D03*
%TD*%
%TO.C,ir_sensor_8*%
X145760870Y-226156678D03*
X148107524Y-227128694D03*
X150454178Y-228100710D03*
%TD*%
%TO.C,ir_sensor_12*%
X275178678Y-176438130D03*
X276150694Y-174091476D03*
X277122710Y-171744822D03*
%TD*%
%TO.C,U2*%
X201803000Y-168783000D03*
X201803000Y-171323000D03*
D17*
X200406000Y-131445000D03*
X170942000Y-131445000D03*
D10*
X169545000Y-171323000D03*
X169545000Y-168783000D03*
X169545000Y-166243000D03*
X169545000Y-163703000D03*
X169545000Y-161163000D03*
X169545000Y-158623000D03*
X169545000Y-156083000D03*
X201803000Y-153543000D03*
X201803000Y-156083000D03*
X201803000Y-158623000D03*
X201803000Y-161163000D03*
X201803000Y-163703000D03*
X201803000Y-166243000D03*
X169545000Y-153543000D03*
%TD*%
%TO.C,xt60*%
G36*
G01*
X234744000Y-89384000D02*
X234744000Y-86384000D01*
G75*
G02*
X236244000Y-84884000I1500000J0D01*
G01*
X239244000Y-84884000D01*
G75*
G02*
X240744000Y-86384000I0J-1500000D01*
G01*
X240744000Y-89384000D01*
G75*
G02*
X239244000Y-90884000I-1500000J0D01*
G01*
X236244000Y-90884000D01*
G75*
G02*
X234744000Y-89384000I0J1500000D01*
G01*
G37*
D18*
X244944000Y-87884000D03*
%TD*%
D19*
%TO.C,xt30*%
X221535000Y-89916000D03*
D20*
X216535000Y-89916000D03*
%TD*%
D21*
%TO.C,5V_converter1*%
X231394000Y-118892000D03*
X233934000Y-118892000D03*
X236474000Y-118892000D03*
X241554000Y-118892000D03*
X244094000Y-118892000D03*
X244094000Y-108692000D03*
X241554000Y-108692000D03*
X236474000Y-108692000D03*
X233934000Y-108692000D03*
X231394000Y-108692000D03*
%TD*%
D22*
%TO.C,3V3_converter1*%
X164184000Y-82042000D03*
X164184000Y-92202000D03*
X164184000Y-97282000D03*
X189384000Y-97282000D03*
X189384000Y-92202000D03*
X189384000Y-87122000D03*
X189384000Y-82042000D03*
%TD*%
D10*
%TO.C,U1*%
X222504000Y-135382000D03*
X219964000Y-135382000D03*
X217424000Y-135382000D03*
X214884000Y-135382000D03*
X212344000Y-135382000D03*
%TD*%
%TO.C,ir_sensor_16*%
X225460130Y-47020322D03*
X223113476Y-46048306D03*
X220766822Y-45076290D03*
%TD*%
%TO.C,ir_sensor_15*%
X258499066Y-70884138D03*
X256703015Y-69088087D03*
X254906964Y-67292036D03*
%TD*%
%TO.C,ir_sensor_14*%
X277122710Y-101432178D03*
X276150694Y-99085524D03*
X275178678Y-96738870D03*
%TD*%
%TO.C,ir_sensor_13*%
X283610500Y-139128500D03*
X283610500Y-136588500D03*
X283610500Y-134048500D03*
%TD*%
%TO.C,ir_sensor_11*%
X253110913Y-207681015D03*
X254906964Y-205884964D03*
X256703015Y-204088913D03*
%TD*%
%TO.C,ir_sensor_10*%
X220766822Y-228100710D03*
X223113476Y-227128694D03*
X225460130Y-226156678D03*
%TD*%
%TO.C,ir_sensor_7*%
X114517985Y-204088913D03*
X116314036Y-205884964D03*
X118110087Y-207681015D03*
%TD*%
%TO.C,ir_sensor_6*%
X94098290Y-171744822D03*
X95070306Y-174091476D03*
X96042322Y-176438130D03*
%TD*%
%TO.C,ir_sensor_5*%
X87610500Y-134048500D03*
X87610500Y-136588500D03*
X87610500Y-139128500D03*
%TD*%
%TO.C,ir_sensor_4*%
X96042322Y-96738870D03*
X95070306Y-99085524D03*
X94098290Y-101432178D03*
%TD*%
%TO.C,ir_sensor_3*%
X118110087Y-65495985D03*
X116314036Y-67292036D03*
X114517985Y-69088087D03*
%TD*%
%TO.C,goal_kleur1*%
X214884000Y-182372000D03*
X209804000Y-182372000D03*
%TD*%
%TO.C,BZ1*%
X183134000Y-179832000D03*
X178054000Y-179832000D03*
%TD*%
M02*
