%TF.GenerationSoftware,KiCad,Pcbnew,5.1.9+dfsg1-1+deb11u1*%
%TF.CreationDate,2024-06-09T13:45:24+02:00*%
%TF.ProjectId,pcb_boven,7063625f-626f-4766-956e-2e6b69636164,rev?*%
%TF.SameCoordinates,Original*%
%TF.FileFunction,Copper,L1,Top*%
%TF.FilePolarity,Positive*%
%FSLAX46Y46*%
G04 Gerber Fmt 4.6, Leading zero omitted, Abs format (unit mm)*
G04 Created by KiCad (PCBNEW 5.1.9+dfsg1-1+deb11u1) date 2024-06-09 13:45:24*
%MOMM*%
%LPD*%
G01*
G04 APERTURE LIST*
%TA.AperFunction,ComponentPad*%
%ADD10C,1.524000*%
%TD*%
%TA.AperFunction,ComponentPad*%
%ADD11C,1.300000*%
%TD*%
%TA.AperFunction,ComponentPad*%
%ADD12C,1.600000*%
%TD*%
%TA.AperFunction,ComponentPad*%
%ADD13R,1.300000X1.300000*%
%TD*%
%TA.AperFunction,ComponentPad*%
%ADD14R,1.600000X1.600000*%
%TD*%
%TA.AperFunction,ComponentPad*%
%ADD15C,2.794000*%
%TD*%
%TA.AperFunction,ComponentPad*%
%ADD16C,6.000000*%
%TD*%
%TA.AperFunction,ComponentPad*%
%ADD17C,4.000000*%
%TD*%
%TA.AperFunction,ComponentPad*%
%ADD18R,3.800000X3.800000*%
%TD*%
%TA.AperFunction,SMDPad,CuDef*%
%ADD19R,1.200000X1.800000*%
%TD*%
%TA.AperFunction,SMDPad,CuDef*%
%ADD20R,3.200000X1.200000*%
%TD*%
%TA.AperFunction,ComponentPad*%
%ADD21O,1.600000X1.600000*%
%TD*%
%TA.AperFunction,ViaPad*%
%ADD22C,0.800000*%
%TD*%
%TA.AperFunction,Conductor*%
%ADD23C,0.250000*%
%TD*%
G04 APERTURE END LIST*
D10*
%TO.P,pcb_conn1,10*%
%TO.N,B*%
X114300000Y-74930000D03*
%TO.P,pcb_conn1,9*%
%TO.N,A*%
X111760000Y-74930000D03*
%TO.P,pcb_conn1,8*%
%TO.N,3.3v*%
X109220000Y-74930000D03*
%TO.P,pcb_conn1,7*%
%TO.N,Net-(pcb_conn1-Pad7)*%
X106680000Y-74930000D03*
%TO.P,pcb_conn1,6*%
%TO.N,sd6*%
X104140000Y-74930000D03*
%TO.P,pcb_conn1,5*%
%TO.N,sc6*%
X101600000Y-74930000D03*
%TO.P,pcb_conn1,4*%
%TO.N,sda*%
X99060000Y-74930000D03*
%TO.P,pcb_conn1,3*%
%TO.N,scl*%
X96520000Y-74930000D03*
%TO.P,pcb_conn1,2*%
%TO.N,gnd*%
X93980000Y-74930000D03*
%TO.P,pcb_conn1,1*%
%TO.N,5v*%
X91440000Y-74930000D03*
%TD*%
D11*
%TO.P,control_board1,66*%
%TO.N,Net-(control_board1-Pad66)*%
X69850000Y-98520000D03*
%TO.P,control_board1,67*%
%TO.N,Net-(control_board1-Pad67)*%
X67310000Y-98520000D03*
D12*
%TO.P,control_board1,54*%
%TO.N,Net-(control_board1-Pad54)*%
X73660000Y-143510000D03*
%TO.P,control_board1,53*%
%TO.N,Net-(control_board1-Pad53)*%
X71120000Y-143510000D03*
%TO.P,control_board1,52*%
%TO.N,Net-(control_board1-Pad52)*%
X68580000Y-143510000D03*
%TO.P,control_board1,51*%
%TO.N,Net-(control_board1-Pad51)*%
X66040000Y-143510000D03*
%TO.P,control_board1,50*%
%TO.N,Net-(control_board1-Pad50)*%
X63500000Y-143510000D03*
D11*
%TO.P,control_board1,62*%
%TO.N,Net-(control_board1-Pad62)*%
X69761600Y-110760000D03*
%TO.P,control_board1,63*%
%TO.N,Net-(control_board1-Pad63)*%
X69761600Y-112760000D03*
%TO.P,control_board1,64*%
%TO.N,Net-(control_board1-Pad64)*%
X71761600Y-112760000D03*
%TO.P,control_board1,61*%
%TO.N,Net-(control_board1-Pad61)*%
X71761600Y-110760000D03*
%TO.P,control_board1,65*%
%TO.N,Net-(control_board1-Pad65)*%
X73761600Y-112760000D03*
D13*
%TO.P,control_board1,60*%
%TO.N,Net-(control_board1-Pad60)*%
X73761600Y-110760000D03*
D12*
%TO.P,control_board1,17*%
%TO.N,Net-(control_board1-Pad17)*%
X60960000Y-138430000D03*
%TO.P,control_board1,18*%
%TO.N,Net-(control_board1-Pad18)*%
X60960000Y-140970000D03*
%TO.P,control_board1,19*%
%TO.N,Net-(control_board1-Pad19)*%
X60960000Y-143510000D03*
%TO.P,control_board1,20*%
%TO.N,Net-(control_board1-Pad20)*%
X60960000Y-146050000D03*
%TO.P,control_board1,16*%
%TO.N,A*%
X60960000Y-135890000D03*
%TO.P,control_board1,15*%
%TO.N,Net-(control_board1-Pad15)*%
X60960000Y-133350000D03*
%TO.P,control_board1,14*%
%TO.N,Net-(U2-Pad3)*%
X60960000Y-130810000D03*
%TO.P,control_board1,21*%
%TO.N,Net-(control_board1-Pad21)*%
X60960000Y-148590000D03*
%TO.P,control_board1,22*%
%TO.N,Net-(control_board1-Pad22)*%
X60960000Y-151130000D03*
%TO.P,control_board1,23*%
%TO.N,Net-(control_board1-Pad23)*%
X60960000Y-153670000D03*
%TO.P,control_board1,24*%
%TO.N,Net-(control_board1-Pad24)*%
X60960000Y-156210000D03*
%TO.P,control_board1,25*%
%TO.N,Net-(control_board1-Pad25)*%
X76200000Y-156210000D03*
%TO.P,control_board1,26*%
%TO.N,Net-(control_board1-Pad26)*%
X76200000Y-153670000D03*
%TO.P,control_board1,27*%
%TO.N,Net-(control_board1-Pad27)*%
X76200000Y-151130000D03*
%TO.P,control_board1,28*%
%TO.N,Net-(U2-Pad4)*%
X76200000Y-148590000D03*
%TO.P,control_board1,29*%
%TO.N,Net-(control_board1-Pad29)*%
X76200000Y-146050000D03*
%TO.P,control_board1,30*%
%TO.N,Net-(control_board1-Pad30)*%
X76200000Y-143510000D03*
%TO.P,control_board1,31*%
%TO.N,Net-(control_board1-Pad31)*%
X76200000Y-140970000D03*
%TO.P,control_board1,32*%
%TO.N,Net-(control_board1-Pad32)*%
X76200000Y-138430000D03*
%TO.P,control_board1,33*%
%TO.N,Net-(control_board1-Pad33)*%
X76200000Y-135890000D03*
%TO.P,control_board1,34*%
%TO.N,Net-(control_board1-Pad34)*%
X76200000Y-133350000D03*
%TO.P,control_board1,13*%
%TO.N,Net-(U2-Pad2)*%
X60960000Y-128270000D03*
%TO.P,control_board1,12*%
%TO.N,Net-(U2-Pad5)*%
X60960000Y-125730000D03*
%TO.P,control_board1,11*%
%TO.N,B*%
X60960000Y-123190000D03*
%TO.P,control_board1,10*%
%TO.N,Net-(BZ1-Pad1)*%
X60960000Y-120650000D03*
%TO.P,control_board1,9*%
%TO.N,Net-(R7-Pad2)*%
X60960000Y-118110000D03*
%TO.P,control_board1,8*%
%TO.N,Net-(R6-Pad2)*%
X60960000Y-115570000D03*
%TO.P,control_board1,7*%
%TO.N,Net-(R5-Pad2)*%
X60960000Y-113030000D03*
%TO.P,control_board1,6*%
%TO.N,Net-(R4-Pad2)*%
X60960000Y-110490000D03*
%TO.P,control_board1,5*%
%TO.N,Net-(R3-Pad2)*%
X60960000Y-107950000D03*
%TO.P,control_board1,4*%
%TO.N,Net-(R2-Pad2)*%
X60960000Y-105410000D03*
%TO.P,control_board1,3*%
%TO.N,Net-(control_board1-Pad3)*%
X60960000Y-102870000D03*
%TO.P,control_board1,2*%
%TO.N,Net-(control_board1-Pad2)*%
X60960000Y-100330000D03*
D14*
%TO.P,control_board1,1*%
%TO.N,Net-(control_board1-Pad1)*%
X60960000Y-97790000D03*
D12*
%TO.P,control_board1,35*%
%TO.N,Net-(control_board1-Pad35)*%
X76200000Y-130810000D03*
%TO.P,control_board1,36*%
%TO.N,Net-(control_board1-Pad36)*%
X76200000Y-128270000D03*
%TO.P,control_board1,37*%
%TO.N,Net-(control_board1-Pad37)*%
X76200000Y-125730000D03*
%TO.P,control_board1,38*%
%TO.N,Net-(control_board1-Pad38)*%
X76200000Y-123190000D03*
%TO.P,control_board1,39*%
%TO.N,Net-(control_board1-Pad39)*%
X76200000Y-120650000D03*
%TO.P,control_board1,40*%
%TO.N,sda*%
X76200000Y-118110000D03*
%TO.P,control_board1,41*%
%TO.N,scl*%
X76200000Y-115570000D03*
%TO.P,control_board1,42*%
%TO.N,Net-(control_board1-Pad42)*%
X76200000Y-113030000D03*
%TO.P,control_board1,43*%
%TO.N,Net-(control_board1-Pad43)*%
X76200000Y-110490000D03*
%TO.P,control_board1,44*%
%TO.N,Net-(control_board1-Pad44)*%
X76200000Y-107950000D03*
%TO.P,control_board1,45*%
%TO.N,Net-(control_board1-Pad45)*%
X76200000Y-105410000D03*
%TO.P,control_board1,46*%
%TO.N,Net-(control_board1-Pad46)*%
X76200000Y-102870000D03*
%TO.P,control_board1,47*%
%TO.N,gnd*%
X76200000Y-100330000D03*
%TO.P,control_board1,48*%
%TO.N,5v*%
X76200000Y-97790000D03*
D14*
%TO.P,control_board1,55*%
%TO.N,Net-(control_board1-Pad55)*%
X64010800Y-104089200D03*
D12*
%TO.P,control_board1,56*%
%TO.N,Net-(control_board1-Pad56)*%
X64010800Y-106629200D03*
%TO.P,control_board1,57*%
%TO.N,Net-(control_board1-Pad57)*%
X64010800Y-109169200D03*
%TO.P,control_board1,58*%
%TO.N,Net-(control_board1-Pad58)*%
X64010800Y-111709200D03*
%TO.P,control_board1,59*%
%TO.N,Net-(control_board1-Pad59)*%
X64010800Y-114249200D03*
%TO.P,control_board1,49*%
%TO.N,Net-(control_board1-Pad49)*%
X73660000Y-100330000D03*
%TD*%
D10*
%TO.P,ir_sensor_9,3*%
%TO.N,Net-(Portmultiplexer1-Pad1)*%
X97790000Y-182880000D03*
%TO.P,ir_sensor_9,2*%
%TO.N,gnd*%
X100330000Y-182880000D03*
%TO.P,ir_sensor_9,1*%
%TO.N,3.3v*%
X102870000Y-182880000D03*
%TD*%
%TO.P,ir_sensor_1,3*%
%TO.N,Net-(Portmultiplexer1-Pad21)*%
X102870000Y-17780000D03*
%TO.P,ir_sensor_1,2*%
%TO.N,gnd*%
X100330000Y-17780000D03*
%TO.P,ir_sensor_1,1*%
%TO.N,3.3v*%
X97790000Y-17780000D03*
%TD*%
%TO.P,ir_sensor_2,3*%
%TO.N,Net-(Portmultiplexer1-Pad22)*%
X70926654Y-23157984D03*
%TO.P,ir_sensor_2,2*%
%TO.N,gnd*%
X68580000Y-24130000D03*
%TO.P,ir_sensor_2,1*%
%TO.N,3.3v*%
X66233346Y-25102016D03*
%TD*%
%TO.P,ir_sensor_8,3*%
%TO.N,Net-(Portmultiplexer1-Pad28)*%
X66233346Y-175557984D03*
%TO.P,ir_sensor_8,2*%
%TO.N,gnd*%
X68580000Y-176530000D03*
%TO.P,ir_sensor_8,1*%
%TO.N,3.3v*%
X70926654Y-177502016D03*
%TD*%
%TO.P,ir_sensor_12,3*%
%TO.N,Net-(Portmultiplexer1-Pad4)*%
X175557984Y-134426654D03*
%TO.P,ir_sensor_12,2*%
%TO.N,gnd*%
X176530000Y-132080000D03*
%TO.P,ir_sensor_12,1*%
%TO.N,3.3v*%
X177502016Y-129733346D03*
%TD*%
%TO.P,U2,16*%
%TO.N,Net-(U2-Pad16)*%
X116459000Y-132461000D03*
%TO.P,U2,17*%
%TO.N,gnd*%
X116459000Y-135001000D03*
D15*
%TO.P,U2,screw*%
X115062000Y-95123000D03*
X85598000Y-95123000D03*
D10*
%TO.P,U2,9*%
%TO.N,3.3v*%
X84201000Y-135001000D03*
%TO.P,U2,8*%
%TO.N,Net-(U2-Pad8)*%
X84201000Y-132461000D03*
%TO.P,U2,7*%
%TO.N,Net-(U2-Pad7)*%
X84201000Y-129921000D03*
%TO.P,U2,6*%
%TO.N,Net-(U2-Pad6)*%
X84201000Y-127381000D03*
%TO.P,U2,5*%
%TO.N,Net-(U2-Pad5)*%
X84201000Y-124841000D03*
%TO.P,U2,4*%
%TO.N,Net-(U2-Pad4)*%
X84201000Y-122301000D03*
%TO.P,U2,3*%
%TO.N,Net-(U2-Pad3)*%
X84201000Y-119761000D03*
%TO.P,U2,10*%
%TO.N,Net-(U2-Pad10)*%
X116459000Y-117221000D03*
%TO.P,U2,11*%
%TO.N,Net-(U2-Pad11)*%
X116459000Y-119761000D03*
%TO.P,U2,12*%
%TO.N,Net-(U2-Pad12)*%
X116459000Y-122301000D03*
%TO.P,U2,13*%
%TO.N,Net-(U2-Pad13)*%
X116459000Y-124841000D03*
%TO.P,U2,14*%
%TO.N,Net-(U2-Pad14)*%
X116459000Y-127381000D03*
%TO.P,U2,15*%
%TO.N,Net-(R1-Pad2)*%
X116459000Y-129921000D03*
%TO.P,U2,2*%
%TO.N,Net-(U2-Pad2)*%
X84201000Y-117221000D03*
%TD*%
%TO.P,xt60,1*%
%TO.N,Net-(3V3_converter1-Pad1)*%
%TA.AperFunction,ComponentPad*%
G36*
G01*
X140510000Y-59920000D02*
X140510000Y-56920000D01*
G75*
G02*
X142010000Y-55420000I1500000J0D01*
G01*
X145010000Y-55420000D01*
G75*
G02*
X146510000Y-56920000I0J-1500000D01*
G01*
X146510000Y-59920000D01*
G75*
G02*
X145010000Y-61420000I-1500000J0D01*
G01*
X142010000Y-61420000D01*
G75*
G02*
X140510000Y-59920000I0J1500000D01*
G01*
G37*
%TD.AperFunction*%
D16*
%TO.P,xt60,2*%
%TO.N,Net-(3V3_converter1-Pad3)*%
X150710000Y-58420000D03*
%TD*%
D17*
%TO.P,xt30,2*%
%TO.N,Net-(3V3_converter1-Pad3)*%
X152320000Y-49530000D03*
D18*
%TO.P,xt30,1*%
%TO.N,Net-(3V3_converter1-Pad1)*%
X147320000Y-49530000D03*
%TD*%
D19*
%TO.P,5V_converter1,1*%
%TO.N,Net-(3V3_converter1-Pad3)*%
X146050000Y-82570000D03*
%TO.P,5V_converter1,2*%
%TO.N,Net-(3V3_converter1-Pad1)*%
X148590000Y-82570000D03*
%TO.P,5V_converter1,3*%
%TO.N,Net-(5V_converter1-Pad3)*%
X151130000Y-82570000D03*
%TO.P,5V_converter1,5*%
%TO.N,gnd*%
X156210000Y-82570000D03*
%TO.P,5V_converter1,6*%
%TO.N,Net-(5V_converter1-Pad6)*%
X158750000Y-82570000D03*
%TO.P,5V_converter1,7*%
%TO.N,Net-(5V_converter1-Pad7)*%
X158750000Y-72370000D03*
%TO.P,5V_converter1,8*%
%TO.N,5v*%
X156210000Y-72370000D03*
%TO.P,5V_converter1,10*%
%TO.N,Net-(5V_converter1-Pad10)*%
X151130000Y-72370000D03*
%TO.P,5V_converter1,11*%
%TO.N,Net-(5V_converter1-Pad11)*%
X148590000Y-72370000D03*
%TO.P,5V_converter1,12*%
%TO.N,Net-(5V_converter1-Pad12)*%
X146050000Y-72370000D03*
%TD*%
D20*
%TO.P,3V3_converter1,1*%
%TO.N,Net-(3V3_converter1-Pad1)*%
X78840000Y-45720000D03*
%TO.P,3V3_converter1,2*%
%TO.N,Net-(3V3_converter1-Pad2)*%
X78840000Y-55880000D03*
%TO.P,3V3_converter1,3*%
%TO.N,Net-(3V3_converter1-Pad3)*%
X78840000Y-60960000D03*
%TO.P,3V3_converter1,4*%
%TO.N,Net-(3V3_converter1-Pad4)*%
X104040000Y-60960000D03*
%TO.P,3V3_converter1,5*%
%TO.N,gnd*%
X104040000Y-55880000D03*
%TO.P,3V3_converter1,6*%
%TO.N,Net-(3V3_converter1-Pad6)*%
X104040000Y-50800000D03*
%TO.P,3V3_converter1,7*%
%TO.N,3.3v*%
X104040000Y-45720000D03*
%TD*%
D10*
%TO.P,U1,4*%
%TO.N,Net-(U1-Pad4)*%
X137160000Y-99060000D03*
%TO.P,U1,3*%
%TO.N,5v*%
X134620000Y-99060000D03*
%TO.P,U1,2*%
%TO.N,gnd*%
X132080000Y-99060000D03*
%TO.P,U1,1*%
%TO.N,sda*%
X129540000Y-99060000D03*
%TO.P,U1,0*%
%TO.N,scl*%
X127000000Y-99060000D03*
%TD*%
%TO.P,R7,2*%
%TO.N,Net-(R7-Pad2)*%
X146050000Y-121920000D03*
%TO.P,R7,1*%
%TO.N,gnd*%
X140970000Y-121920000D03*
%TD*%
%TO.P,R6,2*%
%TO.N,Net-(R6-Pad2)*%
X146050000Y-124460000D03*
%TO.P,R6,1*%
%TO.N,gnd*%
X140970000Y-124460000D03*
%TD*%
%TO.P,R5,2*%
%TO.N,Net-(R5-Pad2)*%
X146050000Y-127000000D03*
%TO.P,R5,1*%
%TO.N,gnd*%
X140970000Y-127000000D03*
%TD*%
%TO.P,R4,2*%
%TO.N,Net-(R4-Pad2)*%
X146050000Y-129540000D03*
%TO.P,R4,1*%
%TO.N,gnd*%
X140970000Y-129540000D03*
%TD*%
%TO.P,R3,2*%
%TO.N,Net-(R3-Pad2)*%
X146050000Y-132080000D03*
%TO.P,R3,1*%
%TO.N,gnd*%
X140970000Y-132080000D03*
%TD*%
%TO.P,R2,2*%
%TO.N,Net-(R2-Pad2)*%
X146050000Y-134620000D03*
%TO.P,R2,1*%
%TO.N,gnd*%
X140970000Y-134620000D03*
%TD*%
%TO.P,R1,2*%
%TO.N,Net-(R1-Pad2)*%
X129540000Y-140970000D03*
%TO.P,R1,1*%
%TO.N,gnd*%
X124460000Y-140970000D03*
%TD*%
D21*
%TO.P,Portmultiplexer1,28*%
%TO.N,Net-(Portmultiplexer1-Pad28)*%
X58420000Y-53340000D03*
%TO.P,Portmultiplexer1,14*%
%TO.N,Net-(Portmultiplexer1-Pad14)*%
X50800000Y-86360000D03*
%TO.P,Portmultiplexer1,27*%
%TO.N,Net-(Portmultiplexer1-Pad27)*%
X58420000Y-55880000D03*
%TO.P,Portmultiplexer1,13*%
%TO.N,sd6*%
X50800000Y-83820000D03*
%TO.P,Portmultiplexer1,26*%
%TO.N,Net-(Portmultiplexer1-Pad26)*%
X58420000Y-58420000D03*
%TO.P,Portmultiplexer1,12*%
%TO.N,sc6*%
X50800000Y-81280000D03*
%TO.P,Portmultiplexer1,25*%
%TO.N,Net-(Portmultiplexer1-Pad25)*%
X58420000Y-60960000D03*
%TO.P,Portmultiplexer1,11*%
%TO.N,Net-(Portmultiplexer1-Pad11)*%
X50800000Y-78740000D03*
%TO.P,Portmultiplexer1,24*%
%TO.N,Net-(Portmultiplexer1-Pad24)*%
X58420000Y-63500000D03*
%TO.P,Portmultiplexer1,10*%
%TO.N,gnd*%
X50800000Y-76200000D03*
%TO.P,Portmultiplexer1,23*%
%TO.N,Net-(Portmultiplexer1-Pad23)*%
X58420000Y-66040000D03*
%TO.P,Portmultiplexer1,9*%
%TO.N,3.3v*%
X50800000Y-73660000D03*
%TO.P,Portmultiplexer1,22*%
%TO.N,Net-(Portmultiplexer1-Pad22)*%
X58420000Y-68580000D03*
%TO.P,Portmultiplexer1,8*%
%TO.N,Net-(Portmultiplexer1-Pad8)*%
X50800000Y-71120000D03*
%TO.P,Portmultiplexer1,21*%
%TO.N,Net-(Portmultiplexer1-Pad21)*%
X58420000Y-71120000D03*
%TO.P,Portmultiplexer1,7*%
%TO.N,Net-(Portmultiplexer1-Pad7)*%
X50800000Y-68580000D03*
%TO.P,Portmultiplexer1,20*%
%TO.N,Net-(Portmultiplexer1-Pad20)*%
X58420000Y-73660000D03*
%TO.P,Portmultiplexer1,6*%
%TO.N,Net-(Portmultiplexer1-Pad6)*%
X50800000Y-66040000D03*
%TO.P,Portmultiplexer1,19*%
%TO.N,Net-(Portmultiplexer1-Pad19)*%
X58420000Y-76200000D03*
%TO.P,Portmultiplexer1,5*%
%TO.N,Net-(Portmultiplexer1-Pad5)*%
X50800000Y-63500000D03*
%TO.P,Portmultiplexer1,18*%
%TO.N,Net-(Portmultiplexer1-Pad18)*%
X58420000Y-78740000D03*
%TO.P,Portmultiplexer1,4*%
%TO.N,Net-(Portmultiplexer1-Pad4)*%
X50800000Y-60960000D03*
%TO.P,Portmultiplexer1,17*%
%TO.N,gnd*%
X58420000Y-81280000D03*
%TO.P,Portmultiplexer1,3*%
%TO.N,Net-(Portmultiplexer1-Pad3)*%
X50800000Y-58420000D03*
%TO.P,Portmultiplexer1,16*%
%TO.N,gnd*%
X58420000Y-83820000D03*
%TO.P,Portmultiplexer1,2*%
%TO.N,Net-(Portmultiplexer1-Pad2)*%
X50800000Y-55880000D03*
%TO.P,Portmultiplexer1,15*%
%TO.N,gnd*%
X58420000Y-86360000D03*
D14*
%TO.P,Portmultiplexer1,1*%
%TO.N,Net-(Portmultiplexer1-Pad1)*%
X50800000Y-53340000D03*
%TD*%
D10*
%TO.P,ir_sensor_16,3*%
%TO.N,Net-(Portmultiplexer1-Pad8)*%
X134426654Y-25102016D03*
%TO.P,ir_sensor_16,2*%
%TO.N,gnd*%
X132080000Y-24130000D03*
%TO.P,ir_sensor_16,1*%
%TO.N,3.3v*%
X129733346Y-23157984D03*
%TD*%
%TO.P,ir_sensor_15,3*%
%TO.N,Net-(Portmultiplexer1-Pad7)*%
X160546051Y-43706051D03*
%TO.P,ir_sensor_15,2*%
%TO.N,gnd*%
X158750000Y-41910000D03*
%TO.P,ir_sensor_15,1*%
%TO.N,3.3v*%
X156953949Y-40113949D03*
%TD*%
%TO.P,ir_sensor_14,3*%
%TO.N,Net-(Portmultiplexer1-Pad6)*%
X177502016Y-70926654D03*
%TO.P,ir_sensor_14,2*%
%TO.N,gnd*%
X176530000Y-68580000D03*
%TO.P,ir_sensor_14,1*%
%TO.N,3.3v*%
X175557984Y-66233346D03*
%TD*%
%TO.P,ir_sensor_13,3*%
%TO.N,Net-(Portmultiplexer1-Pad5)*%
X182880000Y-102870000D03*
%TO.P,ir_sensor_13,2*%
%TO.N,gnd*%
X182880000Y-100330000D03*
%TO.P,ir_sensor_13,1*%
%TO.N,3.3v*%
X182880000Y-97790000D03*
%TD*%
%TO.P,ir_sensor_11,3*%
%TO.N,Net-(Portmultiplexer1-Pad3)*%
X156953949Y-160546051D03*
%TO.P,ir_sensor_11,2*%
%TO.N,gnd*%
X158750000Y-158750000D03*
%TO.P,ir_sensor_11,1*%
%TO.N,3.3v*%
X160546051Y-156953949D03*
%TD*%
%TO.P,ir_sensor_10,3*%
%TO.N,Net-(Portmultiplexer1-Pad2)*%
X129733346Y-178772016D03*
%TO.P,ir_sensor_10,2*%
%TO.N,gnd*%
X132080000Y-177800000D03*
%TO.P,ir_sensor_10,1*%
%TO.N,3.3v*%
X134426654Y-176827984D03*
%TD*%
%TO.P,ir_sensor_7,3*%
%TO.N,Net-(Portmultiplexer1-Pad27)*%
X40113949Y-156953949D03*
%TO.P,ir_sensor_7,2*%
%TO.N,gnd*%
X41910000Y-158750000D03*
%TO.P,ir_sensor_7,1*%
%TO.N,3.3v*%
X43706051Y-160546051D03*
%TD*%
%TO.P,ir_sensor_6,3*%
%TO.N,Net-(Portmultiplexer1-Pad26)*%
X23157984Y-129733346D03*
%TO.P,ir_sensor_6,2*%
%TO.N,gnd*%
X24130000Y-132080000D03*
%TO.P,ir_sensor_6,1*%
%TO.N,3.3v*%
X25102016Y-134426654D03*
%TD*%
%TO.P,ir_sensor_5,3*%
%TO.N,Net-(Portmultiplexer1-Pad25)*%
X17780000Y-97790000D03*
%TO.P,ir_sensor_5,2*%
%TO.N,gnd*%
X17780000Y-100330000D03*
%TO.P,ir_sensor_5,1*%
%TO.N,3.3v*%
X17780000Y-102870000D03*
%TD*%
%TO.P,ir_sensor_4,3*%
%TO.N,Net-(Portmultiplexer1-Pad24)*%
X23832016Y-66233346D03*
%TO.P,ir_sensor_4,2*%
%TO.N,gnd*%
X22860000Y-68580000D03*
%TO.P,ir_sensor_4,1*%
%TO.N,3.3v*%
X21887984Y-70926654D03*
%TD*%
%TO.P,ir_sensor_3,3*%
%TO.N,Net-(Portmultiplexer1-Pad23)*%
X43706051Y-40113949D03*
%TO.P,ir_sensor_3,2*%
%TO.N,gnd*%
X41910000Y-41910000D03*
%TO.P,ir_sensor_3,1*%
%TO.N,3.3v*%
X40113949Y-43706051D03*
%TD*%
%TO.P,goal_kleur1,2*%
%TO.N,Net-(R1-Pad2)*%
X129540000Y-146050000D03*
%TO.P,goal_kleur1,1*%
%TO.N,3.3v*%
X124460000Y-146050000D03*
%TD*%
%TO.P,dip_swith_instellinen1,12*%
%TO.N,Net-(R2-Pad2)*%
X153670000Y-134620000D03*
%TO.P,dip_swith_instellinen1,11*%
%TO.N,Net-(R3-Pad2)*%
X153670000Y-132080000D03*
%TO.P,dip_swith_instellinen1,10*%
%TO.N,Net-(R4-Pad2)*%
X153670000Y-129540000D03*
%TO.P,dip_swith_instellinen1,9*%
%TO.N,Net-(R5-Pad2)*%
X153670000Y-127000000D03*
%TO.P,dip_swith_instellinen1,8*%
%TO.N,Net-(R6-Pad2)*%
X153670000Y-124460000D03*
%TO.P,dip_swith_instellinen1,7*%
%TO.N,Net-(R7-Pad2)*%
X153670000Y-121920000D03*
%TO.P,dip_swith_instellinen1,6*%
%TO.N,Net-(control_board1-Pad46)*%
X161290000Y-121920000D03*
%TO.P,dip_swith_instellinen1,5*%
X161290000Y-124460000D03*
%TO.P,dip_swith_instellinen1,4*%
X161290000Y-127000000D03*
%TO.P,dip_swith_instellinen1,3*%
X161290000Y-129540000D03*
%TO.P,dip_swith_instellinen1,2*%
X161290000Y-132080000D03*
%TO.P,dip_swith_instellinen1,1*%
X161290000Y-134620000D03*
%TD*%
%TO.P,BZ1,2*%
%TO.N,gnd*%
X97790000Y-143510000D03*
%TO.P,BZ1,1*%
%TO.N,Net-(BZ1-Pad1)*%
X92710000Y-143510000D03*
%TD*%
D22*
%TO.N,scl*%
X127000000Y-92675999D03*
%TO.N,sda*%
X120650000Y-87630000D03*
%TO.N,A*%
X113030000Y-78740000D03*
%TO.N,B*%
X114300000Y-80010000D03*
X93980000Y-100330000D03*
%TO.N,3.3v*%
X127000000Y-177800000D03*
X162560000Y-45720000D03*
X133350000Y-173990000D03*
X175260000Y-73660000D03*
%TO.N,Net-(Portmultiplexer1-Pad2)*%
X72537414Y-173842586D03*
%TO.N,Net-(Portmultiplexer1-Pad3)*%
X77470000Y-175260000D03*
%TO.N,Net-(Portmultiplexer1-Pad8)*%
X33020000Y-54610000D03*
X33020000Y-57150000D03*
%TO.N,sd6*%
X104140000Y-78050001D03*
%TO.N,sc6*%
X63500000Y-76200000D03*
X63500000Y-80010000D03*
%TD*%
D23*
%TO.N,gnd*%
X58420000Y-86360000D02*
X58420000Y-83820000D01*
X58420000Y-83820000D02*
X58420000Y-81280000D01*
X140970000Y-121920000D02*
X140970000Y-124460000D01*
X140970000Y-127000000D02*
X140970000Y-124460000D01*
X140970000Y-127000000D02*
X140970000Y-129540000D01*
X140970000Y-129540000D02*
X140970000Y-132080000D01*
X140970000Y-132080000D02*
X140970000Y-134620000D01*
X101417001Y-147137001D02*
X97790000Y-143510000D01*
X124981761Y-147137001D02*
X101417001Y-147137001D01*
X125547001Y-146571761D02*
X124981761Y-147137001D01*
X125547001Y-143665763D02*
X125547001Y-146571761D01*
X124460000Y-142578762D02*
X125547001Y-143665763D01*
X177607630Y-132080000D02*
X176530000Y-132080000D01*
X178589017Y-131098613D02*
X177607630Y-132080000D01*
X178589017Y-108769745D02*
X178589017Y-131098613D01*
X183967001Y-103391761D02*
X178589017Y-108769745D01*
X183967001Y-101417001D02*
X183967001Y-103391761D01*
X182880000Y-100330000D02*
X183967001Y-101417001D01*
X174345975Y-65836593D02*
X174345975Y-113385975D01*
X175036223Y-65146345D02*
X174345975Y-65836593D01*
X176079745Y-65146345D02*
X175036223Y-65146345D01*
X174345975Y-113385975D02*
X170180000Y-117551950D01*
X170180000Y-117551950D02*
X170180000Y-134620000D01*
X159459050Y-158040950D02*
X158750000Y-158750000D01*
X159459050Y-145340950D02*
X159459050Y-158040950D01*
X170180000Y-134620000D02*
X159459050Y-145340950D01*
X155866948Y-44933548D02*
X176644985Y-65711585D01*
X156432188Y-39026948D02*
X155866948Y-39592188D01*
X155866948Y-39592188D02*
X155866948Y-44933548D01*
X157475710Y-39026948D02*
X156432188Y-39026948D01*
X158750000Y-40301238D02*
X157475710Y-39026948D01*
X158750000Y-41910000D02*
X158750000Y-40301238D01*
X151690950Y-145340950D02*
X159459050Y-145340950D01*
X140970000Y-134620000D02*
X151690950Y-145340950D01*
X122428000Y-140970000D02*
X116459000Y-135001000D01*
X124460000Y-140970000D02*
X122428000Y-140970000D01*
X140970000Y-136228762D02*
X140970000Y-134620000D01*
X130061761Y-147137001D02*
X140970000Y-136228762D01*
X129018239Y-147137001D02*
X130061761Y-147137001D01*
X124460000Y-142578762D02*
X129018239Y-147137001D01*
X124460000Y-140970000D02*
X124460000Y-142578762D01*
X128143000Y-95123000D02*
X115062000Y-95123000D01*
X132080000Y-99060000D02*
X128143000Y-95123000D01*
X115062000Y-95123000D02*
X85598000Y-95123000D01*
X81407000Y-95123000D02*
X76200000Y-100330000D01*
X85598000Y-95123000D02*
X81407000Y-95123000D01*
X132080000Y-113030000D02*
X140970000Y-121920000D01*
X132080000Y-99060000D02*
X132080000Y-113030000D01*
X176644985Y-68465015D02*
X176530000Y-68580000D01*
X176644985Y-65711585D02*
X176644985Y-68465015D01*
X172483655Y-65146345D02*
X176079745Y-65146345D01*
X176079745Y-65146345D02*
X176644985Y-65711585D01*
X156210000Y-81420000D02*
X172483655Y-65146345D01*
X156210000Y-82570000D02*
X156210000Y-81420000D01*
X132194985Y-24015015D02*
X132080000Y-24130000D01*
X135513655Y-25623777D02*
X135513655Y-24580255D01*
X135513655Y-24580255D02*
X134948415Y-24015015D01*
X114492431Y-46645001D02*
X135513655Y-25623777D01*
X82550003Y-46645001D02*
X114492431Y-46645001D01*
X80700001Y-44794999D02*
X82550003Y-46645001D01*
X76979999Y-44794999D02*
X80700001Y-44794999D01*
X76914999Y-44859999D02*
X76979999Y-44794999D01*
X76914999Y-46580001D02*
X76914999Y-44859999D01*
X86214998Y-55880000D02*
X76914999Y-46580001D01*
X134948415Y-24015015D02*
X132194985Y-24015015D01*
X104040000Y-55880000D02*
X86214998Y-55880000D01*
X103114999Y-56805001D02*
X104040000Y-55880000D01*
X80209997Y-56805001D02*
X103114999Y-56805001D01*
X76914999Y-60099999D02*
X80209997Y-56805001D01*
X76914999Y-61820001D02*
X76914999Y-60099999D01*
X79864998Y-64770000D02*
X76914999Y-61820001D01*
X83820000Y-64770000D02*
X79864998Y-64770000D01*
X93980000Y-74930000D02*
X83820000Y-64770000D01*
%TO.N,Net-(BZ1-Pad1)*%
X86504999Y-149715001D02*
X92710000Y-143510000D01*
X75659999Y-149715001D02*
X86504999Y-149715001D01*
X72534999Y-146590001D02*
X75659999Y-149715001D01*
X72534999Y-132224999D02*
X72534999Y-146590001D01*
X60960000Y-120650000D02*
X72534999Y-132224999D01*
%TO.N,5v*%
X135707001Y-97972999D02*
X134620000Y-99060000D01*
X137812003Y-97972999D02*
X135707001Y-97972999D01*
X156210000Y-79575002D02*
X137812003Y-97972999D01*
X156210000Y-72370000D02*
X156210000Y-79575002D01*
X80589001Y-93400999D02*
X76200000Y-97790000D01*
X128960999Y-93400999D02*
X80589001Y-93400999D01*
X134620000Y-99060000D02*
X128960999Y-93400999D01*
X91440000Y-82550000D02*
X76200000Y-97790000D01*
X91440000Y-74930000D02*
X91440000Y-82550000D01*
%TO.N,scl*%
X92710000Y-99060000D02*
X76200000Y-115570000D01*
X127000000Y-99060000D02*
X92710000Y-99060000D01*
X94898684Y-86069725D02*
X100251959Y-91423000D01*
X94898684Y-76551316D02*
X94898684Y-86069725D01*
X100251959Y-91423000D02*
X125747000Y-91423000D01*
X96520000Y-74930000D02*
X94898684Y-76551316D01*
X125747000Y-91423000D02*
X127000000Y-92675999D01*
%TO.N,sda*%
X76200000Y-118110000D02*
X92710000Y-101600000D01*
X127000000Y-101600000D02*
X129540000Y-99060000D01*
X92710000Y-101600000D02*
X127000000Y-101600000D01*
X109037001Y-76017001D02*
X120650000Y-87630000D01*
X100147001Y-76017001D02*
X109037001Y-76017001D01*
X99060000Y-74930000D02*
X100147001Y-76017001D01*
%TO.N,A*%
X111760000Y-77470000D02*
X113030000Y-78740000D01*
X111760000Y-74930000D02*
X111760000Y-77470000D01*
%TO.N,B*%
X114300000Y-74930000D02*
X114300000Y-80010000D01*
X59834999Y-122064999D02*
X60960000Y-123190000D01*
X59834999Y-120109999D02*
X59834999Y-122064999D01*
X60419999Y-119524999D02*
X59834999Y-120109999D01*
X64040001Y-116984999D02*
X61500001Y-119524999D01*
X76450003Y-116984999D02*
X64040001Y-116984999D01*
X61500001Y-119524999D02*
X60419999Y-119524999D01*
X93105002Y-100330000D02*
X76450003Y-116984999D01*
X93980000Y-100330000D02*
X93105002Y-100330000D01*
%TO.N,Net-(R7-Pad2)*%
X153670000Y-121920000D02*
X146050000Y-121920000D01*
%TO.N,Net-(R6-Pad2)*%
X146050000Y-124460000D02*
X153670000Y-124460000D01*
%TO.N,Net-(R5-Pad2)*%
X153670000Y-127000000D02*
X146050000Y-127000000D01*
%TO.N,Net-(R4-Pad2)*%
X146050000Y-129540000D02*
X153670000Y-129540000D01*
%TO.N,Net-(R3-Pad2)*%
X153670000Y-132080000D02*
X146050000Y-132080000D01*
%TO.N,Net-(R2-Pad2)*%
X146050000Y-134620000D02*
X153670000Y-134620000D01*
%TO.N,Net-(R1-Pad2)*%
X127508000Y-140970000D02*
X116459000Y-129921000D01*
X129540000Y-140970000D02*
X127508000Y-140970000D01*
X129540000Y-140970000D02*
X129540000Y-146050000D01*
%TO.N,3.3v*%
X104040000Y-24030000D02*
X97790000Y-17780000D01*
X104040000Y-45720000D02*
X104040000Y-24030000D01*
X128861330Y-24030000D02*
X129733346Y-23157984D01*
X104040000Y-24030000D02*
X128861330Y-24030000D01*
X124460000Y-146050000D02*
X121920000Y-146050000D01*
X110871000Y-135001000D02*
X84201000Y-135001000D01*
X121920000Y-146050000D02*
X110871000Y-135001000D01*
X133664655Y-176065985D02*
X134426654Y-176827984D01*
X128734015Y-176065985D02*
X133664655Y-176065985D01*
X127000000Y-177800000D02*
X128734015Y-176065985D01*
X177267892Y-129733346D02*
X177502016Y-129733346D01*
X160546051Y-146455187D02*
X177267892Y-129733346D01*
X160546051Y-156953949D02*
X160546051Y-146455187D01*
X177502016Y-103167984D02*
X182880000Y-97790000D01*
X177502016Y-129733346D02*
X177502016Y-103167984D01*
X182880000Y-97790000D02*
X182880000Y-81280000D01*
X174795985Y-66995345D02*
X175557984Y-66233346D01*
X174795985Y-73195985D02*
X174795985Y-66995345D01*
X156953949Y-41722711D02*
X156953949Y-40113949D01*
X158228239Y-42997001D02*
X156953949Y-41722711D01*
X159271761Y-42997001D02*
X158228239Y-42997001D01*
X161067812Y-42619050D02*
X159649712Y-42619050D01*
X159649712Y-42619050D02*
X159271761Y-42997001D01*
X162560000Y-44111238D02*
X161067812Y-42619050D01*
X162560000Y-45720000D02*
X162560000Y-44111238D01*
X134426654Y-175066654D02*
X134426654Y-176827984D01*
X133350000Y-173990000D02*
X134426654Y-175066654D01*
X175260000Y-73660000D02*
X176530000Y-74930000D01*
X176530000Y-74930000D02*
X174795985Y-73195985D01*
X182880000Y-81280000D02*
X176530000Y-74930000D01*
%TO.N,Net-(Portmultiplexer1-Pad21)*%
X97268239Y-16692999D02*
X72390000Y-41571238D01*
X101782999Y-16692999D02*
X97268239Y-16692999D01*
X102870000Y-17780000D02*
X101782999Y-16692999D01*
X72390000Y-57150000D02*
X72390000Y-41571238D01*
X58420000Y-71120000D02*
X72390000Y-57150000D01*
%TO.N,Net-(Portmultiplexer1-Pad22)*%
X70926654Y-56073346D02*
X58420000Y-68580000D01*
X70926654Y-23157984D02*
X70926654Y-56073346D01*
%TO.N,Net-(Portmultiplexer1-Pad23)*%
X61345040Y-63114960D02*
X58420000Y-66040000D01*
X61345040Y-52054398D02*
X61345040Y-63114960D01*
X49404591Y-40113949D02*
X61345040Y-52054398D01*
X43706051Y-40113949D02*
X49404591Y-40113949D01*
%TO.N,Net-(Portmultiplexer1-Pad24)*%
X23832016Y-66233346D02*
X23832016Y-65067984D01*
X60895030Y-61024970D02*
X58420000Y-63500000D01*
X59519203Y-50864971D02*
X60895030Y-52240798D01*
X38035029Y-50864971D02*
X59519203Y-50864971D01*
X60895030Y-52240798D02*
X60895030Y-61024970D01*
X23832016Y-65067984D02*
X38035029Y-50864971D01*
%TO.N,Net-(Portmultiplexer1-Pad25)*%
X17780000Y-97790000D02*
X19050000Y-97790000D01*
X19050000Y-97790000D02*
X27940000Y-106680000D01*
X32145002Y-106680000D02*
X37225002Y-101600000D01*
X27940000Y-106680000D02*
X32145002Y-106680000D01*
X37225002Y-101600000D02*
X52070000Y-101600000D01*
X60445020Y-52427198D02*
X60445020Y-58934980D01*
X59332802Y-51314980D02*
X60445020Y-52427198D01*
X60445020Y-58934980D02*
X58420000Y-60960000D01*
X56240018Y-51314980D02*
X59332802Y-51314980D01*
X52070000Y-55484998D02*
X56240018Y-51314980D01*
X52070000Y-101600000D02*
X52070000Y-55484998D01*
%TO.N,Net-(Portmultiplexer1-Pad26)*%
X57693598Y-51764990D02*
X53340000Y-56118588D01*
X59146401Y-51764989D02*
X57693598Y-51764990D01*
X59995010Y-52613598D02*
X59146401Y-51764989D01*
X59995010Y-56844990D02*
X59995010Y-52613598D01*
X58420000Y-58420000D02*
X59995010Y-56844990D01*
X53340000Y-56118588D02*
X53340000Y-121920000D01*
X45526654Y-129733346D02*
X23157984Y-129733346D01*
X53340000Y-121920000D02*
X45526654Y-129733346D01*
%TO.N,Net-(Portmultiplexer1-Pad27)*%
X59545001Y-54754999D02*
X58420000Y-55880000D01*
X58960001Y-52214999D02*
X59545001Y-52799999D01*
X57879999Y-52214999D02*
X58960001Y-52214999D01*
X54159990Y-55935008D02*
X57879999Y-52214999D01*
X54159990Y-150310010D02*
X54159990Y-55935008D01*
X47516051Y-156953949D02*
X54159990Y-150310010D01*
X59545001Y-52799999D02*
X59545001Y-54754999D01*
X40113949Y-156953949D02*
X47516051Y-156953949D01*
%TO.N,Net-(Portmultiplexer1-Pad28)*%
X54610000Y-163934638D02*
X66233346Y-175557984D01*
X54610000Y-57150000D02*
X54610000Y-163934638D01*
X58420000Y-53340000D02*
X54610000Y-57150000D01*
%TO.N,Net-(Portmultiplexer1-Pad1)*%
X26662379Y-77477621D02*
X50800000Y-53340000D01*
X25400000Y-77477621D02*
X26662379Y-77477621D01*
X16692999Y-86184622D02*
X25400000Y-77477621D01*
X16692999Y-109711033D02*
X16692999Y-86184622D01*
X22070983Y-115089017D02*
X16692999Y-109711033D01*
X22636223Y-130820347D02*
X22070983Y-130255107D01*
X97790000Y-182880000D02*
X83820000Y-182880000D01*
X41010288Y-158040950D02*
X39592188Y-158040950D01*
X39592188Y-158040950D02*
X39026948Y-157475710D01*
X34884243Y-130820347D02*
X22636223Y-130820347D01*
X22070983Y-130255107D02*
X22070983Y-115089017D01*
X83820000Y-182880000D02*
X67320347Y-166380347D01*
X66755107Y-176644985D02*
X63299358Y-176644985D01*
X67320347Y-166380347D02*
X67320347Y-176079745D01*
X67320347Y-176079745D02*
X66755107Y-176644985D01*
X63299358Y-176644985D02*
X44317372Y-157662999D01*
X44317372Y-157662999D02*
X41388239Y-157662999D01*
X39026948Y-157475710D02*
X39026948Y-134963052D01*
X41388239Y-157662999D02*
X41010288Y-158040950D01*
X39026948Y-134963052D02*
X34884243Y-130820347D01*
%TO.N,Net-(Portmultiplexer1-Pad2)*%
X114475947Y-183967001D02*
X119372948Y-179070000D01*
X96649551Y-183967001D02*
X114475947Y-183967001D01*
X96136385Y-183453835D02*
X96649551Y-183967001D01*
X83425862Y-183453835D02*
X96136385Y-183453835D01*
X73814613Y-173842586D02*
X83425862Y-183453835D01*
X72537414Y-173842586D02*
X73814613Y-173842586D01*
X129435362Y-179070000D02*
X129733346Y-178772016D01*
X119372948Y-179070000D02*
X129435362Y-179070000D01*
%TO.N,Net-(Portmultiplexer1-Pad3)*%
X156953949Y-160546051D02*
X137903949Y-160546051D01*
X137903949Y-160546051D02*
X137903949Y-163086051D01*
X122571124Y-178418876D02*
X80628876Y-178418876D01*
X80628876Y-178418876D02*
X77470000Y-175260000D01*
X137903949Y-163086051D02*
X122571124Y-178418876D01*
%TO.N,Net-(Portmultiplexer1-Pad8)*%
X133664655Y-25864015D02*
X132205253Y-25864015D01*
X132205253Y-25864015D02*
X130820347Y-24479109D01*
X43184290Y-39026948D02*
X33020000Y-49191238D01*
X55622930Y-39026948D02*
X43184290Y-39026948D01*
X134426654Y-25102016D02*
X133664655Y-25864015D01*
X97081838Y-16242990D02*
X91253845Y-22070983D01*
X130820347Y-24479109D02*
X130820347Y-22636223D01*
X91253845Y-22070983D02*
X70404893Y-22070983D01*
X130820347Y-22636223D02*
X130255107Y-22070983D01*
X130255107Y-22070983D02*
X108769745Y-22070983D01*
X102941752Y-16242990D02*
X97081838Y-16242990D01*
X33020000Y-49191238D02*
X33020000Y-54610000D01*
X108769745Y-22070983D02*
X102941752Y-16242990D01*
X70404893Y-22070983D02*
X69839653Y-22636223D01*
X69839653Y-22636223D02*
X69839653Y-24810225D01*
X69839653Y-24810225D02*
X55622930Y-39026948D01*
X49674999Y-69994999D02*
X50800000Y-71120000D01*
X50311409Y-54465001D02*
X49674999Y-55101411D01*
X51925001Y-54400001D02*
X51860001Y-54465001D01*
X49674999Y-55101411D02*
X49674999Y-69994999D01*
X51925001Y-52279999D02*
X51925001Y-54400001D01*
X51860001Y-54465001D02*
X50311409Y-54465001D01*
X51860001Y-52214999D02*
X51925001Y-52279999D01*
X37955001Y-52214999D02*
X51860001Y-52214999D01*
X33020000Y-57150000D02*
X37955001Y-52214999D01*
%TO.N,sd6*%
X103052999Y-73842999D02*
X104140000Y-74930000D01*
X97972999Y-74408239D02*
X98538239Y-73842999D01*
X98538239Y-73842999D02*
X103052999Y-73842999D01*
X97972999Y-75451761D02*
X97972999Y-74408239D01*
X100571239Y-78050001D02*
X97972999Y-75451761D01*
X104140000Y-78050001D02*
X100571239Y-78050001D01*
%TO.N,sc6*%
X63500000Y-76200000D02*
X63500000Y-80010000D01*
%TO.N,Net-(3V3_converter1-Pad1)*%
X143510000Y-53340000D02*
X147320000Y-49530000D01*
X143510000Y-58420000D02*
X143510000Y-53340000D01*
X82650000Y-49530000D02*
X78840000Y-45720000D01*
X147320000Y-49530000D02*
X82650000Y-49530000D01*
X154645001Y-76514999D02*
X148590000Y-82570000D01*
X154645001Y-48413999D02*
X154645001Y-76514999D01*
X153436001Y-47204999D02*
X154645001Y-48413999D01*
X149645001Y-47204999D02*
X153436001Y-47204999D01*
X147320000Y-49530000D02*
X149645001Y-47204999D01*
%TO.N,Net-(3V3_converter1-Pad3)*%
X147244999Y-61885001D02*
X150710000Y-58420000D01*
X79765001Y-61885001D02*
X147244999Y-61885001D01*
X78840000Y-60960000D02*
X79765001Y-61885001D01*
X152320000Y-56810000D02*
X150710000Y-58420000D01*
X152320000Y-49530000D02*
X152320000Y-56810000D01*
X147664999Y-80955001D02*
X146050000Y-82570000D01*
X147664999Y-61465001D02*
X147664999Y-80955001D01*
X150710000Y-58420000D02*
X147664999Y-61465001D01*
%TO.N,Net-(U2-Pad4)*%
X83113999Y-123388001D02*
X84201000Y-122301000D01*
X83113999Y-141676001D02*
X83113999Y-123388001D01*
X76200000Y-148590000D02*
X83113999Y-141676001D01*
%TD*%
M02*
