%TF.GenerationSoftware,KiCad,Pcbnew,5.1.9+dfsg1-1+deb11u1*%
%TF.CreationDate,2024-06-24T23:42:04+02:00*%
%TF.ProjectId,pcb_boven,7063625f-626f-4766-956e-2e6b69636164,rev?*%
%TF.SameCoordinates,Original*%
%TF.FileFunction,Legend,Top*%
%TF.FilePolarity,Positive*%
%FSLAX46Y46*%
G04 Gerber Fmt 4.6, Leading zero omitted, Abs format (unit mm)*
G04 Created by KiCad (PCBNEW 5.1.9+dfsg1-1+deb11u1) date 2024-06-24 23:42:04*
%MOMM*%
%LPD*%
G01*
G04 APERTURE LIST*
%ADD10C,0.120000*%
%ADD11C,0.100000*%
%ADD12C,0.150000*%
%ADD13C,0.200000*%
%ADD14C,0.254000*%
G04 APERTURE END LIST*
D10*
%TO.C,Portmultiplexer1*%
X156828000Y-91634000D02*
X155178000Y-91634000D01*
X156828000Y-127314000D02*
X156828000Y-91634000D01*
X151528000Y-127314000D02*
X156828000Y-127314000D01*
X151528000Y-91634000D02*
X151528000Y-127314000D01*
X153178000Y-91634000D02*
X151528000Y-91634000D01*
X155178000Y-91634000D02*
G75*
G02*
X153178000Y-91634000I-1000000J0D01*
G01*
D11*
%TO.C,control_board1*%
G36*
X154231000Y-166519000D02*
G01*
X153977000Y-166265000D01*
X154358000Y-166011000D01*
X154612000Y-166265000D01*
X154231000Y-166519000D01*
G37*
X154231000Y-166519000D02*
X153977000Y-166265000D01*
X154358000Y-166011000D01*
X154612000Y-166265000D01*
X154231000Y-166519000D01*
G36*
X153850000Y-166138000D02*
G01*
X153596000Y-165884000D01*
X153977000Y-165630000D01*
X154231000Y-165884000D01*
X153850000Y-166138000D01*
G37*
X153850000Y-166138000D02*
X153596000Y-165884000D01*
X153977000Y-165630000D01*
X154231000Y-165884000D01*
X153850000Y-166138000D01*
G36*
X154612000Y-164233000D02*
G01*
X154358000Y-163979000D01*
X154739000Y-163725000D01*
X154993000Y-163979000D01*
X154612000Y-164233000D01*
G37*
X154612000Y-164233000D02*
X154358000Y-163979000D01*
X154739000Y-163725000D01*
X154993000Y-163979000D01*
X154612000Y-164233000D01*
G36*
X154104000Y-164614000D02*
G01*
X153850000Y-164360000D01*
X154231000Y-164106000D01*
X154485000Y-164360000D01*
X154104000Y-164614000D01*
G37*
X154104000Y-164614000D02*
X153850000Y-164360000D01*
X154231000Y-164106000D01*
X154485000Y-164360000D01*
X154104000Y-164614000D01*
G36*
X153596000Y-164995000D02*
G01*
X153342000Y-164741000D01*
X153723000Y-164487000D01*
X153977000Y-164741000D01*
X153596000Y-164995000D01*
G37*
X153596000Y-164995000D02*
X153342000Y-164741000D01*
X153723000Y-164487000D01*
X153977000Y-164741000D01*
X153596000Y-164995000D01*
G36*
X154485000Y-164995000D02*
G01*
X154231000Y-164741000D01*
X154612000Y-164487000D01*
X154866000Y-164741000D01*
X154485000Y-164995000D01*
G37*
X154485000Y-164995000D02*
X154231000Y-164741000D01*
X154612000Y-164487000D01*
X154866000Y-164741000D01*
X154485000Y-164995000D01*
G36*
X153977000Y-165376000D02*
G01*
X153723000Y-165122000D01*
X154104000Y-164868000D01*
X154358000Y-165122000D01*
X153977000Y-165376000D01*
G37*
X153977000Y-165376000D02*
X153723000Y-165122000D01*
X154104000Y-164868000D01*
X154358000Y-165122000D01*
X153977000Y-165376000D01*
G36*
X153469000Y-165757000D02*
G01*
X153215000Y-165503000D01*
X153596000Y-165249000D01*
X153850000Y-165503000D01*
X153469000Y-165757000D01*
G37*
X153469000Y-165757000D02*
X153215000Y-165503000D01*
X153596000Y-165249000D01*
X153850000Y-165503000D01*
X153469000Y-165757000D01*
D12*
X145034000Y-132842000D02*
X162814000Y-132842000D01*
X145034000Y-193802000D02*
X145034000Y-132842000D01*
X162814000Y-193802000D02*
X145034000Y-193802000D01*
X162814000Y-132842000D02*
X162814000Y-193802000D01*
X150114000Y-137922000D02*
X150114000Y-132842000D01*
X157734000Y-137922000D02*
X157734000Y-132842000D01*
X150114000Y-137922000D02*
X157734000Y-137922000D01*
X157734000Y-131572000D02*
X157734000Y-132842000D01*
X150114000Y-131572000D02*
X157734000Y-131572000D01*
X150114000Y-132842000D02*
X150114000Y-131572000D01*
X160274000Y-193802000D02*
X160274000Y-181102000D01*
X160274000Y-181102000D02*
X147574000Y-181102000D01*
X147574000Y-181102000D02*
X147574000Y-193802000D01*
X159004000Y-193802000D02*
X159004000Y-192532000D01*
X159004000Y-192532000D02*
X148844000Y-192532000D01*
X148844000Y-192532000D02*
X148844000Y-193802000D01*
X155194000Y-177292000D02*
X152654000Y-177292000D01*
X152654000Y-177292000D02*
X152654000Y-173482000D01*
X152654000Y-173482000D02*
X155194000Y-173482000D01*
X155194000Y-173482000D02*
X155194000Y-177292000D01*
X150624800Y-139141200D02*
X150624800Y-151841200D01*
X150624800Y-151841200D02*
X148084800Y-151841200D01*
X148084800Y-151841200D02*
X148084800Y-139141200D01*
X148084800Y-139141200D02*
X150624800Y-139141200D01*
X150624800Y-139141200D02*
X150624800Y-141681200D01*
X150624800Y-141681200D02*
X148084800Y-141681200D01*
X160025600Y-146072000D02*
X154025600Y-146072000D01*
X154025600Y-146072000D02*
X154025600Y-150072000D01*
X154025600Y-150072000D02*
X160275600Y-150072000D01*
X160275600Y-150072000D02*
X160275600Y-146072000D01*
X160275600Y-146072000D02*
X160025600Y-146072000D01*
X147574000Y-155702000D02*
X147574000Y-168402000D01*
X147574000Y-168402000D02*
X160274000Y-168402000D01*
X160274000Y-168402000D02*
X160274000Y-155702000D01*
X160274000Y-155702000D02*
X147574000Y-155702000D01*
X154822026Y-175387000D02*
G75*
G03*
X154822026Y-175387000I-898026J0D01*
G01*
D10*
%TO.C,U2*%
X193449056Y-136652000D02*
G75*
G03*
X193449056Y-136652000I-7775056J0D01*
G01*
X167894000Y-136652000D02*
X203454000Y-136652000D01*
X167894000Y-128397000D02*
X167894000Y-136652000D01*
X167894000Y-172847000D02*
X185674000Y-172847000D01*
X167894000Y-128397000D02*
X167894000Y-172847000D01*
X203454000Y-128397000D02*
X167894000Y-128397000D01*
X203454000Y-172847000D02*
X203454000Y-128397000D01*
X185674000Y-172847000D02*
X203454000Y-172847000D01*
%TO.C,xt60*%
X233494000Y-89434000D02*
X236344000Y-92034000D01*
X236344000Y-83734000D02*
X233494000Y-86284000D01*
X249194000Y-92034000D02*
X249194000Y-83734000D01*
X236344000Y-92034000D02*
X249194000Y-92034000D01*
X233494000Y-86284000D02*
X233494000Y-89434000D01*
X249194000Y-83734000D02*
X236344000Y-83734000D01*
%TO.C,xt30*%
X213825000Y-88506000D02*
X213825000Y-91326000D01*
X213825000Y-91326000D02*
X215525000Y-92626000D01*
X213825000Y-88506000D02*
X215525000Y-87206000D01*
X215525000Y-92626000D02*
X224245000Y-92626000D01*
X224245000Y-87206000D02*
X224245000Y-92626000D01*
X215525000Y-87206000D02*
X224245000Y-87206000D01*
D11*
%TO.C,5V_converter1*%
X231394000Y-120392000D02*
X231394000Y-120392000D01*
X231394000Y-120292000D02*
X231394000Y-120292000D01*
D13*
X230344000Y-119242000D02*
X230124000Y-119242000D01*
X230124000Y-119242000D02*
X230124000Y-108342000D01*
X230124000Y-108342000D02*
X230344000Y-108342000D01*
X237344000Y-108342000D02*
X240544000Y-108342000D01*
X237344000Y-119242000D02*
X240544000Y-119242000D01*
X245144000Y-119242000D02*
X245364000Y-119242000D01*
X245364000Y-119242000D02*
X245364000Y-108342000D01*
X245364000Y-108342000D02*
X244944000Y-108342000D01*
D11*
X231394000Y-120292000D02*
G75*
G02*
X231394000Y-120392000I0J-50000D01*
G01*
X231394000Y-120392000D02*
G75*
G02*
X231394000Y-120292000I0J50000D01*
G01*
D13*
%TO.C,3V3_converter1*%
X165504000Y-83062000D02*
X165504000Y-83062000D01*
X165504000Y-83062000D02*
X165504000Y-91062000D01*
X165504000Y-91062000D02*
X165504000Y-91062000D01*
X165504000Y-91062000D02*
X165504000Y-83062000D01*
X165504000Y-93262000D02*
X165504000Y-93262000D01*
X165504000Y-93262000D02*
X165504000Y-96262000D01*
X165504000Y-96262000D02*
X165504000Y-96262000D01*
X165504000Y-96262000D02*
X165504000Y-93262000D01*
X165504000Y-98462000D02*
X165504000Y-98462000D01*
X165504000Y-98462000D02*
X165504000Y-100212000D01*
X165504000Y-100212000D02*
X165504000Y-100212000D01*
X165504000Y-100212000D02*
X165504000Y-98462000D01*
X165504000Y-100212000D02*
X188064000Y-100212000D01*
X188064000Y-100212000D02*
X188064000Y-100212000D01*
X188064000Y-100212000D02*
X165504000Y-100212000D01*
X165504000Y-100212000D02*
X165504000Y-100212000D01*
X188064000Y-100212000D02*
X188064000Y-100212000D01*
X188064000Y-100212000D02*
X188064000Y-98462000D01*
X188064000Y-98462000D02*
X188064000Y-98462000D01*
X188064000Y-98462000D02*
X188064000Y-100212000D01*
X188064000Y-96062000D02*
X188064000Y-96062000D01*
X188064000Y-96062000D02*
X188064000Y-93462000D01*
X188064000Y-93462000D02*
X188064000Y-93462000D01*
X188064000Y-93462000D02*
X188064000Y-96062000D01*
X188064000Y-91062000D02*
X188064000Y-91062000D01*
X188064000Y-91062000D02*
X188064000Y-88262000D01*
X188064000Y-88262000D02*
X188064000Y-88262000D01*
X188064000Y-88262000D02*
X188064000Y-91062000D01*
X188064000Y-85862000D02*
X188064000Y-85862000D01*
X188064000Y-85862000D02*
X188064000Y-83262000D01*
X188064000Y-83262000D02*
X188064000Y-83262000D01*
X188064000Y-83262000D02*
X188064000Y-85862000D01*
X188064000Y-80862000D02*
X188064000Y-80862000D01*
X188064000Y-80862000D02*
X188064000Y-79112000D01*
X188064000Y-79112000D02*
X188064000Y-79112000D01*
X188064000Y-79112000D02*
X188064000Y-80862000D01*
X188064000Y-79112000D02*
X165504000Y-79112000D01*
X165504000Y-79112000D02*
X165504000Y-79112000D01*
X165504000Y-79112000D02*
X188064000Y-79112000D01*
X188064000Y-79112000D02*
X188064000Y-79112000D01*
X165504000Y-79112000D02*
X165504000Y-79112000D01*
X165504000Y-79112000D02*
X165504000Y-80862000D01*
X165504000Y-80862000D02*
X165504000Y-80862000D01*
X165504000Y-80862000D02*
X165504000Y-79112000D01*
X161984000Y-82042000D02*
X161984000Y-82042000D01*
X162084000Y-82042000D02*
X162084000Y-82042000D01*
X161984000Y-82042000D02*
X161984000Y-82042000D01*
X162084000Y-82042000D02*
G75*
G02*
X161984000Y-82042000I-50000J0D01*
G01*
X161984000Y-82042000D02*
G75*
G02*
X162084000Y-82042000I50000J0D01*
G01*
X162084000Y-82042000D02*
G75*
G02*
X161984000Y-82042000I-50000J0D01*
G01*
D10*
%TO.C,U1*%
X211074000Y-117602000D02*
X211074000Y-137922000D01*
X223774000Y-117602000D02*
X211074000Y-117602000D01*
X223774000Y-137922000D02*
X223774000Y-117602000D01*
X211074000Y-137922000D02*
X223774000Y-137922000D01*
X217424000Y-137922000D02*
X211074000Y-137922000D01*
%TO.C,SW1*%
D12*
X238950666Y-176053761D02*
X239093523Y-176101380D01*
X239331619Y-176101380D01*
X239426857Y-176053761D01*
X239474476Y-176006142D01*
X239522095Y-175910904D01*
X239522095Y-175815666D01*
X239474476Y-175720428D01*
X239426857Y-175672809D01*
X239331619Y-175625190D01*
X239141142Y-175577571D01*
X239045904Y-175529952D01*
X238998285Y-175482333D01*
X238950666Y-175387095D01*
X238950666Y-175291857D01*
X238998285Y-175196619D01*
X239045904Y-175149000D01*
X239141142Y-175101380D01*
X239379238Y-175101380D01*
X239522095Y-175149000D01*
X239855428Y-175101380D02*
X240093523Y-176101380D01*
X240284000Y-175387095D01*
X240474476Y-176101380D01*
X240712571Y-175101380D01*
X241617333Y-176101380D02*
X241045904Y-176101380D01*
X241331619Y-176101380D02*
X241331619Y-175101380D01*
X241236380Y-175244238D01*
X241141142Y-175339476D01*
X241045904Y-175387095D01*
%TO.C,R5*%
X229449333Y-158694380D02*
X229116000Y-158218190D01*
X228877904Y-158694380D02*
X228877904Y-157694380D01*
X229258857Y-157694380D01*
X229354095Y-157742000D01*
X229401714Y-157789619D01*
X229449333Y-157884857D01*
X229449333Y-158027714D01*
X229401714Y-158122952D01*
X229354095Y-158170571D01*
X229258857Y-158218190D01*
X228877904Y-158218190D01*
X230354095Y-157694380D02*
X229877904Y-157694380D01*
X229830285Y-158170571D01*
X229877904Y-158122952D01*
X229973142Y-158075333D01*
X230211238Y-158075333D01*
X230306476Y-158122952D01*
X230354095Y-158170571D01*
X230401714Y-158265809D01*
X230401714Y-158503904D01*
X230354095Y-158599142D01*
X230306476Y-158646761D01*
X230211238Y-158694380D01*
X229973142Y-158694380D01*
X229877904Y-158646761D01*
X229830285Y-158599142D01*
%TO.C,R4*%
X229449333Y-161234380D02*
X229116000Y-160758190D01*
X228877904Y-161234380D02*
X228877904Y-160234380D01*
X229258857Y-160234380D01*
X229354095Y-160282000D01*
X229401714Y-160329619D01*
X229449333Y-160424857D01*
X229449333Y-160567714D01*
X229401714Y-160662952D01*
X229354095Y-160710571D01*
X229258857Y-160758190D01*
X228877904Y-160758190D01*
X230306476Y-160567714D02*
X230306476Y-161234380D01*
X230068380Y-160186761D02*
X229830285Y-160901047D01*
X230449333Y-160901047D01*
%TO.C,R3*%
X229449333Y-163774380D02*
X229116000Y-163298190D01*
X228877904Y-163774380D02*
X228877904Y-162774380D01*
X229258857Y-162774380D01*
X229354095Y-162822000D01*
X229401714Y-162869619D01*
X229449333Y-162964857D01*
X229449333Y-163107714D01*
X229401714Y-163202952D01*
X229354095Y-163250571D01*
X229258857Y-163298190D01*
X228877904Y-163298190D01*
X229782666Y-162774380D02*
X230401714Y-162774380D01*
X230068380Y-163155333D01*
X230211238Y-163155333D01*
X230306476Y-163202952D01*
X230354095Y-163250571D01*
X230401714Y-163345809D01*
X230401714Y-163583904D01*
X230354095Y-163679142D01*
X230306476Y-163726761D01*
X230211238Y-163774380D01*
X229925523Y-163774380D01*
X229830285Y-163726761D01*
X229782666Y-163679142D01*
%TO.C,R2*%
X229449333Y-166314380D02*
X229116000Y-165838190D01*
X228877904Y-166314380D02*
X228877904Y-165314380D01*
X229258857Y-165314380D01*
X229354095Y-165362000D01*
X229401714Y-165409619D01*
X229449333Y-165504857D01*
X229449333Y-165647714D01*
X229401714Y-165742952D01*
X229354095Y-165790571D01*
X229258857Y-165838190D01*
X228877904Y-165838190D01*
X229830285Y-165409619D02*
X229877904Y-165362000D01*
X229973142Y-165314380D01*
X230211238Y-165314380D01*
X230306476Y-165362000D01*
X230354095Y-165409619D01*
X230401714Y-165504857D01*
X230401714Y-165600095D01*
X230354095Y-165742952D01*
X229782666Y-166314380D01*
X230401714Y-166314380D01*
%TO.C,R1*%
X212685333Y-172664380D02*
X212352000Y-172188190D01*
X212113904Y-172664380D02*
X212113904Y-171664380D01*
X212494857Y-171664380D01*
X212590095Y-171712000D01*
X212637714Y-171759619D01*
X212685333Y-171854857D01*
X212685333Y-171997714D01*
X212637714Y-172092952D01*
X212590095Y-172140571D01*
X212494857Y-172188190D01*
X212113904Y-172188190D01*
X213637714Y-172664380D02*
X213066285Y-172664380D01*
X213352000Y-172664380D02*
X213352000Y-171664380D01*
X213256761Y-171807238D01*
X213161523Y-171902476D01*
X213066285Y-171950095D01*
%TO.C,pwr_sw1*%
X198017166Y-79033714D02*
X198017166Y-80033714D01*
X198017166Y-79081333D02*
X198112404Y-79033714D01*
X198302880Y-79033714D01*
X198398119Y-79081333D01*
X198445738Y-79128952D01*
X198493357Y-79224190D01*
X198493357Y-79509904D01*
X198445738Y-79605142D01*
X198398119Y-79652761D01*
X198302880Y-79700380D01*
X198112404Y-79700380D01*
X198017166Y-79652761D01*
X198826690Y-79033714D02*
X199017166Y-79700380D01*
X199207642Y-79224190D01*
X199398119Y-79700380D01*
X199588595Y-79033714D01*
X199969547Y-79700380D02*
X199969547Y-79033714D01*
X199969547Y-79224190D02*
X200017166Y-79128952D01*
X200064785Y-79081333D01*
X200160023Y-79033714D01*
X200255261Y-79033714D01*
X200350500Y-79795619D02*
X201112404Y-79795619D01*
X201302880Y-79652761D02*
X201398119Y-79700380D01*
X201588595Y-79700380D01*
X201683833Y-79652761D01*
X201731452Y-79557523D01*
X201731452Y-79509904D01*
X201683833Y-79414666D01*
X201588595Y-79367047D01*
X201445738Y-79367047D01*
X201350500Y-79319428D01*
X201302880Y-79224190D01*
X201302880Y-79176571D01*
X201350500Y-79081333D01*
X201445738Y-79033714D01*
X201588595Y-79033714D01*
X201683833Y-79081333D01*
X202064785Y-79033714D02*
X202255261Y-79700380D01*
X202445738Y-79224190D01*
X202636214Y-79700380D01*
X202826690Y-79033714D01*
X203731452Y-79700380D02*
X203160023Y-79700380D01*
X203445738Y-79700380D02*
X203445738Y-78700380D01*
X203350500Y-78843238D01*
X203255261Y-78938476D01*
X203160023Y-78986095D01*
%TO.C,extrapins1*%
X242395785Y-149637761D02*
X242300547Y-149685380D01*
X242110071Y-149685380D01*
X242014833Y-149637761D01*
X241967214Y-149542523D01*
X241967214Y-149161571D01*
X242014833Y-149066333D01*
X242110071Y-149018714D01*
X242300547Y-149018714D01*
X242395785Y-149066333D01*
X242443404Y-149161571D01*
X242443404Y-149256809D01*
X241967214Y-149352047D01*
X242776738Y-149685380D02*
X243300547Y-149018714D01*
X242776738Y-149018714D02*
X243300547Y-149685380D01*
X243538642Y-149018714D02*
X243919595Y-149018714D01*
X243681500Y-148685380D02*
X243681500Y-149542523D01*
X243729119Y-149637761D01*
X243824357Y-149685380D01*
X243919595Y-149685380D01*
X244252928Y-149685380D02*
X244252928Y-149018714D01*
X244252928Y-149209190D02*
X244300547Y-149113952D01*
X244348166Y-149066333D01*
X244443404Y-149018714D01*
X244538642Y-149018714D01*
X245300547Y-149685380D02*
X245300547Y-149161571D01*
X245252928Y-149066333D01*
X245157690Y-149018714D01*
X244967214Y-149018714D01*
X244871976Y-149066333D01*
X245300547Y-149637761D02*
X245205309Y-149685380D01*
X244967214Y-149685380D01*
X244871976Y-149637761D01*
X244824357Y-149542523D01*
X244824357Y-149447285D01*
X244871976Y-149352047D01*
X244967214Y-149304428D01*
X245205309Y-149304428D01*
X245300547Y-149256809D01*
X245776738Y-149018714D02*
X245776738Y-150018714D01*
X245776738Y-149066333D02*
X245871976Y-149018714D01*
X246062452Y-149018714D01*
X246157690Y-149066333D01*
X246205309Y-149113952D01*
X246252928Y-149209190D01*
X246252928Y-149494904D01*
X246205309Y-149590142D01*
X246157690Y-149637761D01*
X246062452Y-149685380D01*
X245871976Y-149685380D01*
X245776738Y-149637761D01*
X246681500Y-149685380D02*
X246681500Y-149018714D01*
X246681500Y-148685380D02*
X246633880Y-148733000D01*
X246681500Y-148780619D01*
X246729119Y-148733000D01*
X246681500Y-148685380D01*
X246681500Y-148780619D01*
X247157690Y-149018714D02*
X247157690Y-149685380D01*
X247157690Y-149113952D02*
X247205309Y-149066333D01*
X247300547Y-149018714D01*
X247443404Y-149018714D01*
X247538642Y-149066333D01*
X247586261Y-149161571D01*
X247586261Y-149685380D01*
X248014833Y-149637761D02*
X248110071Y-149685380D01*
X248300547Y-149685380D01*
X248395785Y-149637761D01*
X248443404Y-149542523D01*
X248443404Y-149494904D01*
X248395785Y-149399666D01*
X248300547Y-149352047D01*
X248157690Y-149352047D01*
X248062452Y-149304428D01*
X248014833Y-149209190D01*
X248014833Y-149161571D01*
X248062452Y-149066333D01*
X248157690Y-149018714D01*
X248300547Y-149018714D01*
X248395785Y-149066333D01*
X249395785Y-149685380D02*
X248824357Y-149685380D01*
X249110071Y-149685380D02*
X249110071Y-148685380D01*
X249014833Y-148828238D01*
X248919595Y-148923476D01*
X248824357Y-148971095D01*
%TO.C,screwhoel1*%
X181634309Y-214913261D02*
X181729547Y-214960880D01*
X181920023Y-214960880D01*
X182015261Y-214913261D01*
X182062880Y-214818023D01*
X182062880Y-214770404D01*
X182015261Y-214675166D01*
X181920023Y-214627547D01*
X181777166Y-214627547D01*
X181681928Y-214579928D01*
X181634309Y-214484690D01*
X181634309Y-214437071D01*
X181681928Y-214341833D01*
X181777166Y-214294214D01*
X181920023Y-214294214D01*
X182015261Y-214341833D01*
X182920023Y-214913261D02*
X182824785Y-214960880D01*
X182634309Y-214960880D01*
X182539071Y-214913261D01*
X182491452Y-214865642D01*
X182443833Y-214770404D01*
X182443833Y-214484690D01*
X182491452Y-214389452D01*
X182539071Y-214341833D01*
X182634309Y-214294214D01*
X182824785Y-214294214D01*
X182920023Y-214341833D01*
X183348595Y-214960880D02*
X183348595Y-214294214D01*
X183348595Y-214484690D02*
X183396214Y-214389452D01*
X183443833Y-214341833D01*
X183539071Y-214294214D01*
X183634309Y-214294214D01*
X184348595Y-214913261D02*
X184253357Y-214960880D01*
X184062880Y-214960880D01*
X183967642Y-214913261D01*
X183920023Y-214818023D01*
X183920023Y-214437071D01*
X183967642Y-214341833D01*
X184062880Y-214294214D01*
X184253357Y-214294214D01*
X184348595Y-214341833D01*
X184396214Y-214437071D01*
X184396214Y-214532309D01*
X183920023Y-214627547D01*
X184729547Y-214294214D02*
X184920023Y-214960880D01*
X185110500Y-214484690D01*
X185300976Y-214960880D01*
X185491452Y-214294214D01*
X185872404Y-214960880D02*
X185872404Y-213960880D01*
X186300976Y-214960880D02*
X186300976Y-214437071D01*
X186253357Y-214341833D01*
X186158119Y-214294214D01*
X186015261Y-214294214D01*
X185920023Y-214341833D01*
X185872404Y-214389452D01*
X186920023Y-214960880D02*
X186824785Y-214913261D01*
X186777166Y-214865642D01*
X186729547Y-214770404D01*
X186729547Y-214484690D01*
X186777166Y-214389452D01*
X186824785Y-214341833D01*
X186920023Y-214294214D01*
X187062880Y-214294214D01*
X187158119Y-214341833D01*
X187205738Y-214389452D01*
X187253357Y-214484690D01*
X187253357Y-214770404D01*
X187205738Y-214865642D01*
X187158119Y-214913261D01*
X187062880Y-214960880D01*
X186920023Y-214960880D01*
X188062880Y-214913261D02*
X187967642Y-214960880D01*
X187777166Y-214960880D01*
X187681928Y-214913261D01*
X187634309Y-214818023D01*
X187634309Y-214437071D01*
X187681928Y-214341833D01*
X187777166Y-214294214D01*
X187967642Y-214294214D01*
X188062880Y-214341833D01*
X188110500Y-214437071D01*
X188110500Y-214532309D01*
X187634309Y-214627547D01*
X188681928Y-214960880D02*
X188586690Y-214913261D01*
X188539071Y-214818023D01*
X188539071Y-213960880D01*
X189586690Y-214960880D02*
X189015261Y-214960880D01*
X189300976Y-214960880D02*
X189300976Y-213960880D01*
X189205738Y-214103738D01*
X189110500Y-214198976D01*
X189015261Y-214246595D01*
X110187214Y-173663260D02*
X110282452Y-173710879D01*
X110472928Y-173710879D01*
X110568166Y-173663260D01*
X110615785Y-173568022D01*
X110615785Y-173520403D01*
X110568166Y-173425165D01*
X110472928Y-173377546D01*
X110330071Y-173377546D01*
X110234833Y-173329927D01*
X110187214Y-173234689D01*
X110187214Y-173187070D01*
X110234833Y-173091832D01*
X110330071Y-173044213D01*
X110472928Y-173044213D01*
X110568166Y-173091832D01*
X111472928Y-173663260D02*
X111377690Y-173710879D01*
X111187214Y-173710879D01*
X111091976Y-173663260D01*
X111044357Y-173615641D01*
X110996738Y-173520403D01*
X110996738Y-173234689D01*
X111044357Y-173139451D01*
X111091976Y-173091832D01*
X111187214Y-173044213D01*
X111377690Y-173044213D01*
X111472928Y-173091832D01*
X111901500Y-173710879D02*
X111901500Y-173044213D01*
X111901500Y-173234689D02*
X111949119Y-173139451D01*
X111996738Y-173091832D01*
X112091976Y-173044213D01*
X112187214Y-173044213D01*
X112901500Y-173663260D02*
X112806262Y-173710879D01*
X112615785Y-173710879D01*
X112520547Y-173663260D01*
X112472928Y-173568022D01*
X112472928Y-173187070D01*
X112520547Y-173091832D01*
X112615785Y-173044213D01*
X112806262Y-173044213D01*
X112901500Y-173091832D01*
X112949119Y-173187070D01*
X112949119Y-173282308D01*
X112472928Y-173377546D01*
X113282452Y-173044213D02*
X113472928Y-173710879D01*
X113663405Y-173234689D01*
X113853881Y-173710879D01*
X114044357Y-173044213D01*
X114425309Y-173710879D02*
X114425309Y-172710879D01*
X114853881Y-173710879D02*
X114853881Y-173187070D01*
X114806262Y-173091832D01*
X114711024Y-173044213D01*
X114568166Y-173044213D01*
X114472928Y-173091832D01*
X114425309Y-173139451D01*
X115472928Y-173710879D02*
X115377690Y-173663260D01*
X115330071Y-173615641D01*
X115282452Y-173520403D01*
X115282452Y-173234689D01*
X115330071Y-173139451D01*
X115377690Y-173091832D01*
X115472928Y-173044213D01*
X115615785Y-173044213D01*
X115711024Y-173091832D01*
X115758643Y-173139451D01*
X115806262Y-173234689D01*
X115806262Y-173520403D01*
X115758643Y-173615641D01*
X115711024Y-173663260D01*
X115615785Y-173710879D01*
X115472928Y-173710879D01*
X116615785Y-173663260D02*
X116520547Y-173710879D01*
X116330071Y-173710879D01*
X116234833Y-173663260D01*
X116187214Y-173568022D01*
X116187214Y-173187070D01*
X116234833Y-173091832D01*
X116330071Y-173044213D01*
X116520547Y-173044213D01*
X116615785Y-173091832D01*
X116663405Y-173187070D01*
X116663405Y-173282308D01*
X116187214Y-173377546D01*
X117234833Y-173710879D02*
X117139595Y-173663260D01*
X117091976Y-173568022D01*
X117091976Y-172710879D01*
X118139595Y-173710879D02*
X117568166Y-173710879D01*
X117853881Y-173710879D02*
X117853881Y-172710879D01*
X117758643Y-172853737D01*
X117663405Y-172948975D01*
X117568166Y-172996594D01*
X181634309Y-49913261D02*
X181729547Y-49960880D01*
X181920023Y-49960880D01*
X182015261Y-49913261D01*
X182062880Y-49818023D01*
X182062880Y-49770404D01*
X182015261Y-49675166D01*
X181920023Y-49627547D01*
X181777166Y-49627547D01*
X181681928Y-49579928D01*
X181634309Y-49484690D01*
X181634309Y-49437071D01*
X181681928Y-49341833D01*
X181777166Y-49294214D01*
X181920023Y-49294214D01*
X182015261Y-49341833D01*
X182920023Y-49913261D02*
X182824785Y-49960880D01*
X182634309Y-49960880D01*
X182539071Y-49913261D01*
X182491452Y-49865642D01*
X182443833Y-49770404D01*
X182443833Y-49484690D01*
X182491452Y-49389452D01*
X182539071Y-49341833D01*
X182634309Y-49294214D01*
X182824785Y-49294214D01*
X182920023Y-49341833D01*
X183348595Y-49960880D02*
X183348595Y-49294214D01*
X183348595Y-49484690D02*
X183396214Y-49389452D01*
X183443833Y-49341833D01*
X183539071Y-49294214D01*
X183634309Y-49294214D01*
X184348595Y-49913261D02*
X184253357Y-49960880D01*
X184062880Y-49960880D01*
X183967642Y-49913261D01*
X183920023Y-49818023D01*
X183920023Y-49437071D01*
X183967642Y-49341833D01*
X184062880Y-49294214D01*
X184253357Y-49294214D01*
X184348595Y-49341833D01*
X184396214Y-49437071D01*
X184396214Y-49532309D01*
X183920023Y-49627547D01*
X184729547Y-49294214D02*
X184920023Y-49960880D01*
X185110500Y-49484690D01*
X185300976Y-49960880D01*
X185491452Y-49294214D01*
X185872404Y-49960880D02*
X185872404Y-48960880D01*
X186300976Y-49960880D02*
X186300976Y-49437071D01*
X186253357Y-49341833D01*
X186158119Y-49294214D01*
X186015261Y-49294214D01*
X185920023Y-49341833D01*
X185872404Y-49389452D01*
X186920023Y-49960880D02*
X186824785Y-49913261D01*
X186777166Y-49865642D01*
X186729547Y-49770404D01*
X186729547Y-49484690D01*
X186777166Y-49389452D01*
X186824785Y-49341833D01*
X186920023Y-49294214D01*
X187062880Y-49294214D01*
X187158119Y-49341833D01*
X187205738Y-49389452D01*
X187253357Y-49484690D01*
X187253357Y-49770404D01*
X187205738Y-49865642D01*
X187158119Y-49913261D01*
X187062880Y-49960880D01*
X186920023Y-49960880D01*
X188062880Y-49913261D02*
X187967642Y-49960880D01*
X187777166Y-49960880D01*
X187681928Y-49913261D01*
X187634309Y-49818023D01*
X187634309Y-49437071D01*
X187681928Y-49341833D01*
X187777166Y-49294214D01*
X187967642Y-49294214D01*
X188062880Y-49341833D01*
X188110500Y-49437071D01*
X188110500Y-49532309D01*
X187634309Y-49627547D01*
X188681928Y-49960880D02*
X188586690Y-49913261D01*
X188539071Y-49818023D01*
X188539071Y-48960880D01*
X189586690Y-49960880D02*
X189015261Y-49960880D01*
X189300976Y-49960880D02*
X189300976Y-48960880D01*
X189205738Y-49103738D01*
X189110500Y-49198976D01*
X189015261Y-49246595D01*
X262042356Y-99314691D02*
X262089975Y-99219453D01*
X262089975Y-99028977D01*
X262042356Y-98933739D01*
X261947118Y-98886120D01*
X261899499Y-98886120D01*
X261804261Y-98933739D01*
X261756642Y-99028977D01*
X261756642Y-99171834D01*
X261709023Y-99267072D01*
X261613785Y-99314691D01*
X261566166Y-99314691D01*
X261470928Y-99267072D01*
X261423309Y-99171834D01*
X261423309Y-99028977D01*
X261470928Y-98933739D01*
X262042356Y-98028977D02*
X262089975Y-98124215D01*
X262089975Y-98314691D01*
X262042356Y-98409929D01*
X261994737Y-98457548D01*
X261899499Y-98505167D01*
X261613785Y-98505167D01*
X261518547Y-98457548D01*
X261470928Y-98409929D01*
X261423309Y-98314691D01*
X261423309Y-98124215D01*
X261470928Y-98028977D01*
X262089975Y-97600405D02*
X261423309Y-97600405D01*
X261613785Y-97600405D02*
X261518547Y-97552786D01*
X261470928Y-97505167D01*
X261423309Y-97409929D01*
X261423309Y-97314691D01*
X262042356Y-96600405D02*
X262089975Y-96695643D01*
X262089975Y-96886120D01*
X262042356Y-96981358D01*
X261947118Y-97028977D01*
X261566166Y-97028977D01*
X261470928Y-96981358D01*
X261423309Y-96886120D01*
X261423309Y-96695643D01*
X261470928Y-96600405D01*
X261566166Y-96552786D01*
X261661404Y-96552786D01*
X261756642Y-97028977D01*
X261423309Y-96219453D02*
X262089975Y-96028977D01*
X261613785Y-95838501D01*
X262089975Y-95648024D01*
X261423309Y-95457548D01*
X262089975Y-95076596D02*
X261089975Y-95076596D01*
X262089975Y-94648024D02*
X261566166Y-94648024D01*
X261470928Y-94695643D01*
X261423309Y-94790881D01*
X261423309Y-94933739D01*
X261470928Y-95028977D01*
X261518547Y-95076596D01*
X262089975Y-94028977D02*
X262042356Y-94124215D01*
X261994737Y-94171834D01*
X261899499Y-94219453D01*
X261613785Y-94219453D01*
X261518547Y-94171834D01*
X261470928Y-94124215D01*
X261423309Y-94028977D01*
X261423309Y-93886120D01*
X261470928Y-93790881D01*
X261518547Y-93743262D01*
X261613785Y-93695643D01*
X261899499Y-93695643D01*
X261994737Y-93743262D01*
X262042356Y-93790881D01*
X262089975Y-93886120D01*
X262089975Y-94028977D01*
X262042356Y-92886120D02*
X262089975Y-92981358D01*
X262089975Y-93171834D01*
X262042356Y-93267072D01*
X261947118Y-93314691D01*
X261566166Y-93314691D01*
X261470928Y-93267072D01*
X261423309Y-93171834D01*
X261423309Y-92981358D01*
X261470928Y-92886120D01*
X261566166Y-92838501D01*
X261661404Y-92838501D01*
X261756642Y-93314691D01*
X262089975Y-92267072D02*
X262042356Y-92362310D01*
X261947118Y-92409929D01*
X261089975Y-92409929D01*
X262089975Y-91362310D02*
X262089975Y-91933739D01*
X262089975Y-91648024D02*
X261089975Y-91648024D01*
X261232833Y-91743262D01*
X261328071Y-91838501D01*
X261375690Y-91933739D01*
X253081404Y-173663260D02*
X253176642Y-173710879D01*
X253367118Y-173710879D01*
X253462356Y-173663260D01*
X253509975Y-173568022D01*
X253509975Y-173520403D01*
X253462356Y-173425165D01*
X253367118Y-173377546D01*
X253224261Y-173377546D01*
X253129023Y-173329927D01*
X253081404Y-173234689D01*
X253081404Y-173187070D01*
X253129023Y-173091832D01*
X253224261Y-173044213D01*
X253367118Y-173044213D01*
X253462356Y-173091832D01*
X254367118Y-173663260D02*
X254271880Y-173710879D01*
X254081404Y-173710879D01*
X253986166Y-173663260D01*
X253938547Y-173615641D01*
X253890928Y-173520403D01*
X253890928Y-173234689D01*
X253938547Y-173139451D01*
X253986166Y-173091832D01*
X254081404Y-173044213D01*
X254271880Y-173044213D01*
X254367118Y-173091832D01*
X254795690Y-173710879D02*
X254795690Y-173044213D01*
X254795690Y-173234689D02*
X254843309Y-173139451D01*
X254890928Y-173091832D01*
X254986166Y-173044213D01*
X255081404Y-173044213D01*
X255795690Y-173663260D02*
X255700452Y-173710879D01*
X255509975Y-173710879D01*
X255414737Y-173663260D01*
X255367118Y-173568022D01*
X255367118Y-173187070D01*
X255414737Y-173091832D01*
X255509975Y-173044213D01*
X255700452Y-173044213D01*
X255795690Y-173091832D01*
X255843309Y-173187070D01*
X255843309Y-173282308D01*
X255367118Y-173377546D01*
X256176642Y-173044213D02*
X256367118Y-173710879D01*
X256557595Y-173234689D01*
X256748071Y-173710879D01*
X256938547Y-173044213D01*
X257319499Y-173710879D02*
X257319499Y-172710879D01*
X257748071Y-173710879D02*
X257748071Y-173187070D01*
X257700452Y-173091832D01*
X257605214Y-173044213D01*
X257462356Y-173044213D01*
X257367118Y-173091832D01*
X257319499Y-173139451D01*
X258367118Y-173710879D02*
X258271880Y-173663260D01*
X258224261Y-173615641D01*
X258176642Y-173520403D01*
X258176642Y-173234689D01*
X258224261Y-173139451D01*
X258271880Y-173091832D01*
X258367118Y-173044213D01*
X258509975Y-173044213D01*
X258605214Y-173091832D01*
X258652833Y-173139451D01*
X258700452Y-173234689D01*
X258700452Y-173520403D01*
X258652833Y-173615641D01*
X258605214Y-173663260D01*
X258509975Y-173710879D01*
X258367118Y-173710879D01*
X259509975Y-173663260D02*
X259414737Y-173710879D01*
X259224261Y-173710879D01*
X259129023Y-173663260D01*
X259081404Y-173568022D01*
X259081404Y-173187070D01*
X259129023Y-173091832D01*
X259224261Y-173044213D01*
X259414737Y-173044213D01*
X259509975Y-173091832D01*
X259557595Y-173187070D01*
X259557595Y-173282308D01*
X259081404Y-173377546D01*
X260129023Y-173710879D02*
X260033785Y-173663260D01*
X259986166Y-173568022D01*
X259986166Y-172710879D01*
X261033785Y-173710879D02*
X260462356Y-173710879D01*
X260748071Y-173710879D02*
X260748071Y-172710879D01*
X260652833Y-172853737D01*
X260557595Y-172948975D01*
X260462356Y-172996594D01*
X110187214Y-91163262D02*
X110282452Y-91210881D01*
X110472928Y-91210881D01*
X110568166Y-91163262D01*
X110615785Y-91068024D01*
X110615785Y-91020405D01*
X110568166Y-90925167D01*
X110472928Y-90877548D01*
X110330071Y-90877548D01*
X110234833Y-90829929D01*
X110187214Y-90734691D01*
X110187214Y-90687072D01*
X110234833Y-90591834D01*
X110330071Y-90544215D01*
X110472928Y-90544215D01*
X110568166Y-90591834D01*
X111472928Y-91163262D02*
X111377690Y-91210881D01*
X111187214Y-91210881D01*
X111091976Y-91163262D01*
X111044357Y-91115643D01*
X110996738Y-91020405D01*
X110996738Y-90734691D01*
X111044357Y-90639453D01*
X111091976Y-90591834D01*
X111187214Y-90544215D01*
X111377690Y-90544215D01*
X111472928Y-90591834D01*
X111901500Y-91210881D02*
X111901500Y-90544215D01*
X111901500Y-90734691D02*
X111949119Y-90639453D01*
X111996738Y-90591834D01*
X112091976Y-90544215D01*
X112187214Y-90544215D01*
X112901500Y-91163262D02*
X112806262Y-91210881D01*
X112615785Y-91210881D01*
X112520547Y-91163262D01*
X112472928Y-91068024D01*
X112472928Y-90687072D01*
X112520547Y-90591834D01*
X112615785Y-90544215D01*
X112806262Y-90544215D01*
X112901500Y-90591834D01*
X112949119Y-90687072D01*
X112949119Y-90782310D01*
X112472928Y-90877548D01*
X113282452Y-90544215D02*
X113472928Y-91210881D01*
X113663405Y-90734691D01*
X113853881Y-91210881D01*
X114044357Y-90544215D01*
X114425309Y-91210881D02*
X114425309Y-90210881D01*
X114853881Y-91210881D02*
X114853881Y-90687072D01*
X114806262Y-90591834D01*
X114711024Y-90544215D01*
X114568166Y-90544215D01*
X114472928Y-90591834D01*
X114425309Y-90639453D01*
X115472928Y-91210881D02*
X115377690Y-91163262D01*
X115330071Y-91115643D01*
X115282452Y-91020405D01*
X115282452Y-90734691D01*
X115330071Y-90639453D01*
X115377690Y-90591834D01*
X115472928Y-90544215D01*
X115615785Y-90544215D01*
X115711024Y-90591834D01*
X115758643Y-90639453D01*
X115806262Y-90734691D01*
X115806262Y-91020405D01*
X115758643Y-91115643D01*
X115711024Y-91163262D01*
X115615785Y-91210881D01*
X115472928Y-91210881D01*
X116615785Y-91163262D02*
X116520547Y-91210881D01*
X116330071Y-91210881D01*
X116234833Y-91163262D01*
X116187214Y-91068024D01*
X116187214Y-90687072D01*
X116234833Y-90591834D01*
X116330071Y-90544215D01*
X116520547Y-90544215D01*
X116615785Y-90591834D01*
X116663405Y-90687072D01*
X116663405Y-90782310D01*
X116187214Y-90877548D01*
X117234833Y-91210881D02*
X117139595Y-91163262D01*
X117091976Y-91068024D01*
X117091976Y-90210881D01*
X118139595Y-91210881D02*
X117568166Y-91210881D01*
X117853881Y-91210881D02*
X117853881Y-90210881D01*
X117758643Y-90353739D01*
X117663405Y-90448977D01*
X117568166Y-90496596D01*
%TO.C,Portmultiplexer1*%
X148201809Y-91086380D02*
X148201809Y-90086380D01*
X148582761Y-90086380D01*
X148678000Y-90134000D01*
X148725619Y-90181619D01*
X148773238Y-90276857D01*
X148773238Y-90419714D01*
X148725619Y-90514952D01*
X148678000Y-90562571D01*
X148582761Y-90610190D01*
X148201809Y-90610190D01*
X149344666Y-91086380D02*
X149249428Y-91038761D01*
X149201809Y-90991142D01*
X149154190Y-90895904D01*
X149154190Y-90610190D01*
X149201809Y-90514952D01*
X149249428Y-90467333D01*
X149344666Y-90419714D01*
X149487523Y-90419714D01*
X149582761Y-90467333D01*
X149630380Y-90514952D01*
X149678000Y-90610190D01*
X149678000Y-90895904D01*
X149630380Y-90991142D01*
X149582761Y-91038761D01*
X149487523Y-91086380D01*
X149344666Y-91086380D01*
X150106571Y-91086380D02*
X150106571Y-90419714D01*
X150106571Y-90610190D02*
X150154190Y-90514952D01*
X150201809Y-90467333D01*
X150297047Y-90419714D01*
X150392285Y-90419714D01*
X150582761Y-90419714D02*
X150963714Y-90419714D01*
X150725619Y-90086380D02*
X150725619Y-90943523D01*
X150773238Y-91038761D01*
X150868476Y-91086380D01*
X150963714Y-91086380D01*
X151297047Y-91086380D02*
X151297047Y-90419714D01*
X151297047Y-90514952D02*
X151344666Y-90467333D01*
X151439904Y-90419714D01*
X151582761Y-90419714D01*
X151678000Y-90467333D01*
X151725619Y-90562571D01*
X151725619Y-91086380D01*
X151725619Y-90562571D02*
X151773238Y-90467333D01*
X151868476Y-90419714D01*
X152011333Y-90419714D01*
X152106571Y-90467333D01*
X152154190Y-90562571D01*
X152154190Y-91086380D01*
X153058952Y-90419714D02*
X153058952Y-91086380D01*
X152630380Y-90419714D02*
X152630380Y-90943523D01*
X152678000Y-91038761D01*
X152773238Y-91086380D01*
X152916095Y-91086380D01*
X153011333Y-91038761D01*
X153058952Y-90991142D01*
X153678000Y-91086380D02*
X153582761Y-91038761D01*
X153535142Y-90943523D01*
X153535142Y-90086380D01*
X153916095Y-90419714D02*
X154297047Y-90419714D01*
X154058952Y-90086380D02*
X154058952Y-90943523D01*
X154106571Y-91038761D01*
X154201809Y-91086380D01*
X154297047Y-91086380D01*
X154630380Y-91086380D02*
X154630380Y-90419714D01*
X154630380Y-90086380D02*
X154582761Y-90134000D01*
X154630380Y-90181619D01*
X154678000Y-90134000D01*
X154630380Y-90086380D01*
X154630380Y-90181619D01*
X155106571Y-90419714D02*
X155106571Y-91419714D01*
X155106571Y-90467333D02*
X155201809Y-90419714D01*
X155392285Y-90419714D01*
X155487523Y-90467333D01*
X155535142Y-90514952D01*
X155582761Y-90610190D01*
X155582761Y-90895904D01*
X155535142Y-90991142D01*
X155487523Y-91038761D01*
X155392285Y-91086380D01*
X155201809Y-91086380D01*
X155106571Y-91038761D01*
X156154190Y-91086380D02*
X156058952Y-91038761D01*
X156011333Y-90943523D01*
X156011333Y-90086380D01*
X156916095Y-91038761D02*
X156820857Y-91086380D01*
X156630380Y-91086380D01*
X156535142Y-91038761D01*
X156487523Y-90943523D01*
X156487523Y-90562571D01*
X156535142Y-90467333D01*
X156630380Y-90419714D01*
X156820857Y-90419714D01*
X156916095Y-90467333D01*
X156963714Y-90562571D01*
X156963714Y-90657809D01*
X156487523Y-90753047D01*
X157297047Y-91086380D02*
X157820857Y-90419714D01*
X157297047Y-90419714D02*
X157820857Y-91086380D01*
X158582761Y-91038761D02*
X158487523Y-91086380D01*
X158297047Y-91086380D01*
X158201809Y-91038761D01*
X158154190Y-90943523D01*
X158154190Y-90562571D01*
X158201809Y-90467333D01*
X158297047Y-90419714D01*
X158487523Y-90419714D01*
X158582761Y-90467333D01*
X158630380Y-90562571D01*
X158630380Y-90657809D01*
X158154190Y-90753047D01*
X159058952Y-91086380D02*
X159058952Y-90419714D01*
X159058952Y-90610190D02*
X159106571Y-90514952D01*
X159154190Y-90467333D01*
X159249428Y-90419714D01*
X159344666Y-90419714D01*
X160201809Y-91086380D02*
X159630380Y-91086380D01*
X159916095Y-91086380D02*
X159916095Y-90086380D01*
X159820857Y-90229238D01*
X159725619Y-90324476D01*
X159630380Y-90372095D01*
%TO.C,pcb_conn1*%
X175418714Y-114990095D02*
X176418714Y-114990095D01*
X175466333Y-114990095D02*
X175418714Y-114894857D01*
X175418714Y-114704380D01*
X175466333Y-114609142D01*
X175513952Y-114561523D01*
X175609190Y-114513904D01*
X175894904Y-114513904D01*
X175990142Y-114561523D01*
X176037761Y-114609142D01*
X176085380Y-114704380D01*
X176085380Y-114894857D01*
X176037761Y-114990095D01*
X176037761Y-113656761D02*
X176085380Y-113752000D01*
X176085380Y-113942476D01*
X176037761Y-114037714D01*
X175990142Y-114085333D01*
X175894904Y-114132952D01*
X175609190Y-114132952D01*
X175513952Y-114085333D01*
X175466333Y-114037714D01*
X175418714Y-113942476D01*
X175418714Y-113752000D01*
X175466333Y-113656761D01*
X176085380Y-113228190D02*
X175085380Y-113228190D01*
X175466333Y-113228190D02*
X175418714Y-113132952D01*
X175418714Y-112942476D01*
X175466333Y-112847238D01*
X175513952Y-112799619D01*
X175609190Y-112752000D01*
X175894904Y-112752000D01*
X175990142Y-112799619D01*
X176037761Y-112847238D01*
X176085380Y-112942476D01*
X176085380Y-113132952D01*
X176037761Y-113228190D01*
X176180619Y-112561523D02*
X176180619Y-111799619D01*
X176037761Y-111132952D02*
X176085380Y-111228190D01*
X176085380Y-111418666D01*
X176037761Y-111513904D01*
X175990142Y-111561523D01*
X175894904Y-111609142D01*
X175609190Y-111609142D01*
X175513952Y-111561523D01*
X175466333Y-111513904D01*
X175418714Y-111418666D01*
X175418714Y-111228190D01*
X175466333Y-111132952D01*
X176085380Y-110561523D02*
X176037761Y-110656761D01*
X175990142Y-110704380D01*
X175894904Y-110752000D01*
X175609190Y-110752000D01*
X175513952Y-110704380D01*
X175466333Y-110656761D01*
X175418714Y-110561523D01*
X175418714Y-110418666D01*
X175466333Y-110323428D01*
X175513952Y-110275809D01*
X175609190Y-110228190D01*
X175894904Y-110228190D01*
X175990142Y-110275809D01*
X176037761Y-110323428D01*
X176085380Y-110418666D01*
X176085380Y-110561523D01*
X175418714Y-109799619D02*
X176085380Y-109799619D01*
X175513952Y-109799619D02*
X175466333Y-109752000D01*
X175418714Y-109656761D01*
X175418714Y-109513904D01*
X175466333Y-109418666D01*
X175561571Y-109371047D01*
X176085380Y-109371047D01*
X175418714Y-108894857D02*
X176085380Y-108894857D01*
X175513952Y-108894857D02*
X175466333Y-108847238D01*
X175418714Y-108752000D01*
X175418714Y-108609142D01*
X175466333Y-108513904D01*
X175561571Y-108466285D01*
X176085380Y-108466285D01*
X176085380Y-107466285D02*
X176085380Y-108037714D01*
X176085380Y-107752000D02*
X175085380Y-107752000D01*
X175228238Y-107847238D01*
X175323476Y-107942476D01*
X175371095Y-108037714D01*
%TO.C,control_board1*%
X164488761Y-168274380D02*
X164536380Y-168369619D01*
X164536380Y-168560095D01*
X164488761Y-168655333D01*
X164441142Y-168702952D01*
X164345904Y-168750571D01*
X164060190Y-168750571D01*
X163964952Y-168702952D01*
X163917333Y-168655333D01*
X163869714Y-168560095D01*
X163869714Y-168369619D01*
X163917333Y-168274380D01*
X164536380Y-167702952D02*
X164488761Y-167798190D01*
X164441142Y-167845809D01*
X164345904Y-167893428D01*
X164060190Y-167893428D01*
X163964952Y-167845809D01*
X163917333Y-167798190D01*
X163869714Y-167702952D01*
X163869714Y-167560095D01*
X163917333Y-167464857D01*
X163964952Y-167417238D01*
X164060190Y-167369619D01*
X164345904Y-167369619D01*
X164441142Y-167417238D01*
X164488761Y-167464857D01*
X164536380Y-167560095D01*
X164536380Y-167702952D01*
X163869714Y-166941047D02*
X164536380Y-166941047D01*
X163964952Y-166941047D02*
X163917333Y-166893428D01*
X163869714Y-166798190D01*
X163869714Y-166655333D01*
X163917333Y-166560095D01*
X164012571Y-166512476D01*
X164536380Y-166512476D01*
X163869714Y-166179142D02*
X163869714Y-165798190D01*
X163536380Y-166036285D02*
X164393523Y-166036285D01*
X164488761Y-165988666D01*
X164536380Y-165893428D01*
X164536380Y-165798190D01*
X164536380Y-165464857D02*
X163869714Y-165464857D01*
X164060190Y-165464857D02*
X163964952Y-165417238D01*
X163917333Y-165369619D01*
X163869714Y-165274380D01*
X163869714Y-165179142D01*
X164536380Y-164702952D02*
X164488761Y-164798190D01*
X164441142Y-164845809D01*
X164345904Y-164893428D01*
X164060190Y-164893428D01*
X163964952Y-164845809D01*
X163917333Y-164798190D01*
X163869714Y-164702952D01*
X163869714Y-164560095D01*
X163917333Y-164464857D01*
X163964952Y-164417238D01*
X164060190Y-164369619D01*
X164345904Y-164369619D01*
X164441142Y-164417238D01*
X164488761Y-164464857D01*
X164536380Y-164560095D01*
X164536380Y-164702952D01*
X164536380Y-163798190D02*
X164488761Y-163893428D01*
X164393523Y-163941047D01*
X163536380Y-163941047D01*
X164631619Y-163655333D02*
X164631619Y-162893428D01*
X164536380Y-162655333D02*
X163536380Y-162655333D01*
X163917333Y-162655333D02*
X163869714Y-162560095D01*
X163869714Y-162369619D01*
X163917333Y-162274380D01*
X163964952Y-162226761D01*
X164060190Y-162179142D01*
X164345904Y-162179142D01*
X164441142Y-162226761D01*
X164488761Y-162274380D01*
X164536380Y-162369619D01*
X164536380Y-162560095D01*
X164488761Y-162655333D01*
X164536380Y-161607714D02*
X164488761Y-161702952D01*
X164441142Y-161750571D01*
X164345904Y-161798190D01*
X164060190Y-161798190D01*
X163964952Y-161750571D01*
X163917333Y-161702952D01*
X163869714Y-161607714D01*
X163869714Y-161464857D01*
X163917333Y-161369619D01*
X163964952Y-161322000D01*
X164060190Y-161274380D01*
X164345904Y-161274380D01*
X164441142Y-161322000D01*
X164488761Y-161369619D01*
X164536380Y-161464857D01*
X164536380Y-161607714D01*
X164536380Y-160417238D02*
X164012571Y-160417238D01*
X163917333Y-160464857D01*
X163869714Y-160560095D01*
X163869714Y-160750571D01*
X163917333Y-160845809D01*
X164488761Y-160417238D02*
X164536380Y-160512476D01*
X164536380Y-160750571D01*
X164488761Y-160845809D01*
X164393523Y-160893428D01*
X164298285Y-160893428D01*
X164203047Y-160845809D01*
X164155428Y-160750571D01*
X164155428Y-160512476D01*
X164107809Y-160417238D01*
X164536380Y-159941047D02*
X163869714Y-159941047D01*
X164060190Y-159941047D02*
X163964952Y-159893428D01*
X163917333Y-159845809D01*
X163869714Y-159750571D01*
X163869714Y-159655333D01*
X164536380Y-158893428D02*
X163536380Y-158893428D01*
X164488761Y-158893428D02*
X164536380Y-158988666D01*
X164536380Y-159179142D01*
X164488761Y-159274380D01*
X164441142Y-159322000D01*
X164345904Y-159369619D01*
X164060190Y-159369619D01*
X163964952Y-159322000D01*
X163917333Y-159274380D01*
X163869714Y-159179142D01*
X163869714Y-158988666D01*
X163917333Y-158893428D01*
X164536380Y-157893428D02*
X164536380Y-158464857D01*
X164536380Y-158179142D02*
X163536380Y-158179142D01*
X163679238Y-158274380D01*
X163774476Y-158369619D01*
X163822095Y-158464857D01*
X150887180Y-148165723D02*
X151696704Y-148165723D01*
X151791942Y-148118104D01*
X151839561Y-148070485D01*
X151887180Y-147975247D01*
X151887180Y-147784771D01*
X151839561Y-147689533D01*
X151791942Y-147641914D01*
X151696704Y-147594295D01*
X150887180Y-147594295D01*
X151839561Y-147165723D02*
X151887180Y-147022866D01*
X151887180Y-146784771D01*
X151839561Y-146689533D01*
X151791942Y-146641914D01*
X151696704Y-146594295D01*
X151601466Y-146594295D01*
X151506228Y-146641914D01*
X151458609Y-146689533D01*
X151410990Y-146784771D01*
X151363371Y-146975247D01*
X151315752Y-147070485D01*
X151268133Y-147118104D01*
X151172895Y-147165723D01*
X151077657Y-147165723D01*
X150982419Y-147118104D01*
X150934800Y-147070485D01*
X150887180Y-146975247D01*
X150887180Y-146737152D01*
X150934800Y-146594295D01*
X151363371Y-145832390D02*
X151410990Y-145689533D01*
X151458609Y-145641914D01*
X151553847Y-145594295D01*
X151696704Y-145594295D01*
X151791942Y-145641914D01*
X151839561Y-145689533D01*
X151887180Y-145784771D01*
X151887180Y-146165723D01*
X150887180Y-146165723D01*
X150887180Y-145832390D01*
X150934800Y-145737152D01*
X150982419Y-145689533D01*
X151077657Y-145641914D01*
X151172895Y-145641914D01*
X151268133Y-145689533D01*
X151315752Y-145737152D01*
X151363371Y-145832390D01*
X151363371Y-146165723D01*
X151887180Y-144403819D02*
X150887180Y-144403819D01*
X151363371Y-144403819D02*
X151363371Y-143832390D01*
X151887180Y-143832390D02*
X150887180Y-143832390D01*
X151887180Y-143213342D02*
X151839561Y-143308580D01*
X151791942Y-143356200D01*
X151696704Y-143403819D01*
X151410990Y-143403819D01*
X151315752Y-143356200D01*
X151268133Y-143308580D01*
X151220514Y-143213342D01*
X151220514Y-143070485D01*
X151268133Y-142975247D01*
X151315752Y-142927628D01*
X151410990Y-142880009D01*
X151696704Y-142880009D01*
X151791942Y-142927628D01*
X151839561Y-142975247D01*
X151887180Y-143070485D01*
X151887180Y-143213342D01*
X151839561Y-142499057D02*
X151887180Y-142403819D01*
X151887180Y-142213342D01*
X151839561Y-142118104D01*
X151744323Y-142070485D01*
X151696704Y-142070485D01*
X151601466Y-142118104D01*
X151553847Y-142213342D01*
X151553847Y-142356200D01*
X151506228Y-142451438D01*
X151410990Y-142499057D01*
X151363371Y-142499057D01*
X151268133Y-142451438D01*
X151220514Y-142356200D01*
X151220514Y-142213342D01*
X151268133Y-142118104D01*
X151220514Y-141784771D02*
X151220514Y-141403819D01*
X150887180Y-141641914D02*
X151744323Y-141641914D01*
X151839561Y-141594295D01*
X151887180Y-141499057D01*
X151887180Y-141403819D01*
X154343457Y-151185571D02*
X154676790Y-151185571D01*
X154819647Y-151709380D02*
X154343457Y-151709380D01*
X154343457Y-150709380D01*
X154819647Y-150709380D01*
X155105361Y-151042714D02*
X155486314Y-151042714D01*
X155248219Y-150709380D02*
X155248219Y-151566523D01*
X155295838Y-151661761D01*
X155391076Y-151709380D01*
X155486314Y-151709380D01*
X155819647Y-151709380D02*
X155819647Y-150709380D01*
X156248219Y-151709380D02*
X156248219Y-151185571D01*
X156200600Y-151090333D01*
X156105361Y-151042714D01*
X155962504Y-151042714D01*
X155867266Y-151090333D01*
X155819647Y-151137952D01*
X157105361Y-151661761D02*
X157010123Y-151709380D01*
X156819647Y-151709380D01*
X156724409Y-151661761D01*
X156676790Y-151566523D01*
X156676790Y-151185571D01*
X156724409Y-151090333D01*
X156819647Y-151042714D01*
X157010123Y-151042714D01*
X157105361Y-151090333D01*
X157152980Y-151185571D01*
X157152980Y-151280809D01*
X156676790Y-151376047D01*
X157581552Y-151709380D02*
X157581552Y-151042714D01*
X157581552Y-151233190D02*
X157629171Y-151137952D01*
X157676790Y-151090333D01*
X157772028Y-151042714D01*
X157867266Y-151042714D01*
X158200600Y-151042714D02*
X158200600Y-151709380D01*
X158200600Y-151137952D02*
X158248219Y-151090333D01*
X158343457Y-151042714D01*
X158486314Y-151042714D01*
X158581552Y-151090333D01*
X158629171Y-151185571D01*
X158629171Y-151709380D01*
X159486314Y-151661761D02*
X159391076Y-151709380D01*
X159200600Y-151709380D01*
X159105361Y-151661761D01*
X159057742Y-151566523D01*
X159057742Y-151185571D01*
X159105361Y-151090333D01*
X159200600Y-151042714D01*
X159391076Y-151042714D01*
X159486314Y-151090333D01*
X159533933Y-151185571D01*
X159533933Y-151280809D01*
X159057742Y-151376047D01*
X159819647Y-151042714D02*
X160200600Y-151042714D01*
X159962504Y-150709380D02*
X159962504Y-151566523D01*
X160010123Y-151661761D01*
X160105361Y-151709380D01*
X160200600Y-151709380D01*
X152662095Y-136104380D02*
X152662095Y-136913904D01*
X152709714Y-137009142D01*
X152757333Y-137056761D01*
X152852571Y-137104380D01*
X153043047Y-137104380D01*
X153138285Y-137056761D01*
X153185904Y-137009142D01*
X153233523Y-136913904D01*
X153233523Y-136104380D01*
X153662095Y-137056761D02*
X153804952Y-137104380D01*
X154043047Y-137104380D01*
X154138285Y-137056761D01*
X154185904Y-137009142D01*
X154233523Y-136913904D01*
X154233523Y-136818666D01*
X154185904Y-136723428D01*
X154138285Y-136675809D01*
X154043047Y-136628190D01*
X153852571Y-136580571D01*
X153757333Y-136532952D01*
X153709714Y-136485333D01*
X153662095Y-136390095D01*
X153662095Y-136294857D01*
X153709714Y-136199619D01*
X153757333Y-136152000D01*
X153852571Y-136104380D01*
X154090666Y-136104380D01*
X154233523Y-136152000D01*
X154995428Y-136580571D02*
X155138285Y-136628190D01*
X155185904Y-136675809D01*
X155233523Y-136771047D01*
X155233523Y-136913904D01*
X155185904Y-137009142D01*
X155138285Y-137056761D01*
X155043047Y-137104380D01*
X154662095Y-137104380D01*
X154662095Y-136104380D01*
X154995428Y-136104380D01*
X155090666Y-136152000D01*
X155138285Y-136199619D01*
X155185904Y-136294857D01*
X155185904Y-136390095D01*
X155138285Y-136485333D01*
X155090666Y-136532952D01*
X154995428Y-136580571D01*
X154662095Y-136580571D01*
X154376380Y-190571047D02*
X153376380Y-190571047D01*
X154090666Y-190237714D01*
X153376380Y-189904380D01*
X154376380Y-189904380D01*
X154376380Y-189428190D02*
X153709714Y-189428190D01*
X153376380Y-189428190D02*
X153424000Y-189475809D01*
X153471619Y-189428190D01*
X153424000Y-189380571D01*
X153376380Y-189428190D01*
X153471619Y-189428190D01*
X154328761Y-188523428D02*
X154376380Y-188618666D01*
X154376380Y-188809142D01*
X154328761Y-188904380D01*
X154281142Y-188952000D01*
X154185904Y-188999619D01*
X153900190Y-188999619D01*
X153804952Y-188952000D01*
X153757333Y-188904380D01*
X153709714Y-188809142D01*
X153709714Y-188618666D01*
X153757333Y-188523428D01*
X154376380Y-188094857D02*
X153709714Y-188094857D01*
X153900190Y-188094857D02*
X153804952Y-188047238D01*
X153757333Y-187999619D01*
X153709714Y-187904380D01*
X153709714Y-187809142D01*
X154376380Y-187332952D02*
X154328761Y-187428190D01*
X154281142Y-187475809D01*
X154185904Y-187523428D01*
X153900190Y-187523428D01*
X153804952Y-187475809D01*
X153757333Y-187428190D01*
X153709714Y-187332952D01*
X153709714Y-187190095D01*
X153757333Y-187094857D01*
X153804952Y-187047238D01*
X153900190Y-186999619D01*
X154185904Y-186999619D01*
X154281142Y-187047238D01*
X154328761Y-187094857D01*
X154376380Y-187190095D01*
X154376380Y-187332952D01*
X154328761Y-185856761D02*
X154376380Y-185713904D01*
X154376380Y-185475809D01*
X154328761Y-185380571D01*
X154281142Y-185332952D01*
X154185904Y-185285333D01*
X154090666Y-185285333D01*
X153995428Y-185332952D01*
X153947809Y-185380571D01*
X153900190Y-185475809D01*
X153852571Y-185666285D01*
X153804952Y-185761523D01*
X153757333Y-185809142D01*
X153662095Y-185856761D01*
X153566857Y-185856761D01*
X153471619Y-185809142D01*
X153424000Y-185761523D01*
X153376380Y-185666285D01*
X153376380Y-185428190D01*
X153424000Y-185285333D01*
X154376380Y-184856761D02*
X153376380Y-184856761D01*
X153376380Y-184618666D01*
X153424000Y-184475809D01*
X153519238Y-184380571D01*
X153614476Y-184332952D01*
X153804952Y-184285333D01*
X153947809Y-184285333D01*
X154138285Y-184332952D01*
X154233523Y-184380571D01*
X154328761Y-184475809D01*
X154376380Y-184618666D01*
X154376380Y-184856761D01*
X150840666Y-162368666D02*
X150840666Y-161668666D01*
X151074000Y-162168666D01*
X151307333Y-161668666D01*
X151307333Y-162368666D01*
X151640666Y-162368666D02*
X151640666Y-161668666D01*
X151974000Y-162368666D02*
X151974000Y-161668666D01*
X152207333Y-162168666D01*
X152440666Y-161668666D01*
X152440666Y-162368666D01*
X152707333Y-161668666D02*
X153174000Y-162368666D01*
X153174000Y-161668666D02*
X152707333Y-162368666D01*
X153840666Y-162368666D02*
X153607333Y-162035333D01*
X153440666Y-162368666D02*
X153440666Y-161668666D01*
X153707333Y-161668666D01*
X153774000Y-161702000D01*
X153807333Y-161735333D01*
X153840666Y-161802000D01*
X153840666Y-161902000D01*
X153807333Y-161968666D01*
X153774000Y-162002000D01*
X153707333Y-162035333D01*
X153440666Y-162035333D01*
X154040666Y-161668666D02*
X154440666Y-161668666D01*
X154240666Y-162368666D02*
X154240666Y-161668666D01*
X155040666Y-162368666D02*
X154640666Y-162368666D01*
X154840666Y-162368666D02*
X154840666Y-161668666D01*
X154774000Y-161768666D01*
X154707333Y-161835333D01*
X154640666Y-161868666D01*
X155474000Y-161668666D02*
X155540666Y-161668666D01*
X155607333Y-161702000D01*
X155640666Y-161735333D01*
X155674000Y-161802000D01*
X155707333Y-161935333D01*
X155707333Y-162102000D01*
X155674000Y-162235333D01*
X155640666Y-162302000D01*
X155607333Y-162335333D01*
X155540666Y-162368666D01*
X155474000Y-162368666D01*
X155407333Y-162335333D01*
X155374000Y-162302000D01*
X155340666Y-162235333D01*
X155307333Y-162102000D01*
X155307333Y-161935333D01*
X155340666Y-161802000D01*
X155374000Y-161735333D01*
X155407333Y-161702000D01*
X155474000Y-161668666D01*
X156307333Y-161668666D02*
X156174000Y-161668666D01*
X156107333Y-161702000D01*
X156074000Y-161735333D01*
X156007333Y-161835333D01*
X155974000Y-161968666D01*
X155974000Y-162235333D01*
X156007333Y-162302000D01*
X156040666Y-162335333D01*
X156107333Y-162368666D01*
X156240666Y-162368666D01*
X156307333Y-162335333D01*
X156340666Y-162302000D01*
X156374000Y-162235333D01*
X156374000Y-162068666D01*
X156340666Y-162002000D01*
X156307333Y-161968666D01*
X156240666Y-161935333D01*
X156107333Y-161935333D01*
X156040666Y-161968666D01*
X156007333Y-162002000D01*
X155974000Y-162068666D01*
X156640666Y-161735333D02*
X156674000Y-161702000D01*
X156740666Y-161668666D01*
X156907333Y-161668666D01*
X156974000Y-161702000D01*
X157007333Y-161735333D01*
X157040666Y-161802000D01*
X157040666Y-161868666D01*
X157007333Y-161968666D01*
X156607333Y-162368666D01*
X157040666Y-162368666D01*
X152720666Y-161098666D02*
X152720666Y-160398666D01*
X152887333Y-160398666D01*
X152987333Y-160432000D01*
X153054000Y-160498666D01*
X153087333Y-160565333D01*
X153120666Y-160698666D01*
X153120666Y-160798666D01*
X153087333Y-160932000D01*
X153054000Y-160998666D01*
X152987333Y-161065333D01*
X152887333Y-161098666D01*
X152720666Y-161098666D01*
X153320666Y-160398666D02*
X153554000Y-161098666D01*
X153787333Y-160398666D01*
X154220666Y-160398666D02*
X154220666Y-160898666D01*
X154187333Y-160998666D01*
X154120666Y-161065333D01*
X154020666Y-161098666D01*
X153954000Y-161098666D01*
X154854000Y-160398666D02*
X154720666Y-160398666D01*
X154654000Y-160432000D01*
X154620666Y-160465333D01*
X154554000Y-160565333D01*
X154520666Y-160698666D01*
X154520666Y-160965333D01*
X154554000Y-161032000D01*
X154587333Y-161065333D01*
X154654000Y-161098666D01*
X154787333Y-161098666D01*
X154854000Y-161065333D01*
X154887333Y-161032000D01*
X154920666Y-160965333D01*
X154920666Y-160798666D01*
X154887333Y-160732000D01*
X154854000Y-160698666D01*
X154787333Y-160665333D01*
X154654000Y-160665333D01*
X154587333Y-160698666D01*
X154554000Y-160732000D01*
X154520666Y-160798666D01*
X155187333Y-160898666D02*
X155520666Y-160898666D01*
X155120666Y-161098666D02*
X155354000Y-160398666D01*
X155587333Y-161098666D01*
%TO.C,ir_sensor_9*%
X181610500Y-240120880D02*
X181610500Y-239454214D01*
X181610500Y-239120880D02*
X181562880Y-239168500D01*
X181610500Y-239216119D01*
X181658119Y-239168500D01*
X181610500Y-239120880D01*
X181610500Y-239216119D01*
X182086690Y-240120880D02*
X182086690Y-239454214D01*
X182086690Y-239644690D02*
X182134309Y-239549452D01*
X182181928Y-239501833D01*
X182277166Y-239454214D01*
X182372404Y-239454214D01*
X182467642Y-240216119D02*
X183229547Y-240216119D01*
X183420023Y-240073261D02*
X183515261Y-240120880D01*
X183705738Y-240120880D01*
X183800976Y-240073261D01*
X183848595Y-239978023D01*
X183848595Y-239930404D01*
X183800976Y-239835166D01*
X183705738Y-239787547D01*
X183562880Y-239787547D01*
X183467642Y-239739928D01*
X183420023Y-239644690D01*
X183420023Y-239597071D01*
X183467642Y-239501833D01*
X183562880Y-239454214D01*
X183705738Y-239454214D01*
X183800976Y-239501833D01*
X184658119Y-240073261D02*
X184562880Y-240120880D01*
X184372404Y-240120880D01*
X184277166Y-240073261D01*
X184229547Y-239978023D01*
X184229547Y-239597071D01*
X184277166Y-239501833D01*
X184372404Y-239454214D01*
X184562880Y-239454214D01*
X184658119Y-239501833D01*
X184705738Y-239597071D01*
X184705738Y-239692309D01*
X184229547Y-239787547D01*
X185134309Y-239454214D02*
X185134309Y-240120880D01*
X185134309Y-239549452D02*
X185181928Y-239501833D01*
X185277166Y-239454214D01*
X185420023Y-239454214D01*
X185515261Y-239501833D01*
X185562880Y-239597071D01*
X185562880Y-240120880D01*
X185991452Y-240073261D02*
X186086690Y-240120880D01*
X186277166Y-240120880D01*
X186372404Y-240073261D01*
X186420023Y-239978023D01*
X186420023Y-239930404D01*
X186372404Y-239835166D01*
X186277166Y-239787547D01*
X186134309Y-239787547D01*
X186039071Y-239739928D01*
X185991452Y-239644690D01*
X185991452Y-239597071D01*
X186039071Y-239501833D01*
X186134309Y-239454214D01*
X186277166Y-239454214D01*
X186372404Y-239501833D01*
X186991452Y-240120880D02*
X186896214Y-240073261D01*
X186848595Y-240025642D01*
X186800976Y-239930404D01*
X186800976Y-239644690D01*
X186848595Y-239549452D01*
X186896214Y-239501833D01*
X186991452Y-239454214D01*
X187134309Y-239454214D01*
X187229547Y-239501833D01*
X187277166Y-239549452D01*
X187324785Y-239644690D01*
X187324785Y-239930404D01*
X187277166Y-240025642D01*
X187229547Y-240073261D01*
X187134309Y-240120880D01*
X186991452Y-240120880D01*
X187753357Y-240120880D02*
X187753357Y-239454214D01*
X187753357Y-239644690D02*
X187800976Y-239549452D01*
X187848595Y-239501833D01*
X187943833Y-239454214D01*
X188039071Y-239454214D01*
X188134309Y-240216119D02*
X188896214Y-240216119D01*
X189181928Y-240120880D02*
X189372404Y-240120880D01*
X189467642Y-240073261D01*
X189515261Y-240025642D01*
X189610500Y-239882785D01*
X189658119Y-239692309D01*
X189658119Y-239311357D01*
X189610500Y-239216119D01*
X189562880Y-239168500D01*
X189467642Y-239120880D01*
X189277166Y-239120880D01*
X189181928Y-239168500D01*
X189134309Y-239216119D01*
X189086690Y-239311357D01*
X189086690Y-239549452D01*
X189134309Y-239644690D01*
X189181928Y-239692309D01*
X189277166Y-239739928D01*
X189467642Y-239739928D01*
X189562880Y-239692309D01*
X189610500Y-239644690D01*
X189658119Y-239549452D01*
X182729214Y-234104261D02*
X182824452Y-234151880D01*
X183014928Y-234151880D01*
X183110166Y-234104261D01*
X183157785Y-234009023D01*
X183157785Y-233961404D01*
X183110166Y-233866166D01*
X183014928Y-233818547D01*
X182872071Y-233818547D01*
X182776833Y-233770928D01*
X182729214Y-233675690D01*
X182729214Y-233628071D01*
X182776833Y-233532833D01*
X182872071Y-233485214D01*
X183014928Y-233485214D01*
X183110166Y-233532833D01*
X185229547Y-233770928D02*
X185991452Y-233770928D01*
X187769547Y-233770928D02*
X188531452Y-233770928D01*
X188150500Y-234151880D02*
X188150500Y-233389976D01*
%TO.C,ir_sensor_1*%
X181610500Y-33960880D02*
X181610500Y-33294214D01*
X181610500Y-32960880D02*
X181562880Y-33008500D01*
X181610500Y-33056119D01*
X181658119Y-33008500D01*
X181610500Y-32960880D01*
X181610500Y-33056119D01*
X182086690Y-33960880D02*
X182086690Y-33294214D01*
X182086690Y-33484690D02*
X182134309Y-33389452D01*
X182181928Y-33341833D01*
X182277166Y-33294214D01*
X182372404Y-33294214D01*
X182467642Y-34056119D02*
X183229547Y-34056119D01*
X183420023Y-33913261D02*
X183515261Y-33960880D01*
X183705738Y-33960880D01*
X183800976Y-33913261D01*
X183848595Y-33818023D01*
X183848595Y-33770404D01*
X183800976Y-33675166D01*
X183705738Y-33627547D01*
X183562880Y-33627547D01*
X183467642Y-33579928D01*
X183420023Y-33484690D01*
X183420023Y-33437071D01*
X183467642Y-33341833D01*
X183562880Y-33294214D01*
X183705738Y-33294214D01*
X183800976Y-33341833D01*
X184658119Y-33913261D02*
X184562880Y-33960880D01*
X184372404Y-33960880D01*
X184277166Y-33913261D01*
X184229547Y-33818023D01*
X184229547Y-33437071D01*
X184277166Y-33341833D01*
X184372404Y-33294214D01*
X184562880Y-33294214D01*
X184658119Y-33341833D01*
X184705738Y-33437071D01*
X184705738Y-33532309D01*
X184229547Y-33627547D01*
X185134309Y-33294214D02*
X185134309Y-33960880D01*
X185134309Y-33389452D02*
X185181928Y-33341833D01*
X185277166Y-33294214D01*
X185420023Y-33294214D01*
X185515261Y-33341833D01*
X185562880Y-33437071D01*
X185562880Y-33960880D01*
X185991452Y-33913261D02*
X186086690Y-33960880D01*
X186277166Y-33960880D01*
X186372404Y-33913261D01*
X186420023Y-33818023D01*
X186420023Y-33770404D01*
X186372404Y-33675166D01*
X186277166Y-33627547D01*
X186134309Y-33627547D01*
X186039071Y-33579928D01*
X185991452Y-33484690D01*
X185991452Y-33437071D01*
X186039071Y-33341833D01*
X186134309Y-33294214D01*
X186277166Y-33294214D01*
X186372404Y-33341833D01*
X186991452Y-33960880D02*
X186896214Y-33913261D01*
X186848595Y-33865642D01*
X186800976Y-33770404D01*
X186800976Y-33484690D01*
X186848595Y-33389452D01*
X186896214Y-33341833D01*
X186991452Y-33294214D01*
X187134309Y-33294214D01*
X187229547Y-33341833D01*
X187277166Y-33389452D01*
X187324785Y-33484690D01*
X187324785Y-33770404D01*
X187277166Y-33865642D01*
X187229547Y-33913261D01*
X187134309Y-33960880D01*
X186991452Y-33960880D01*
X187753357Y-33960880D02*
X187753357Y-33294214D01*
X187753357Y-33484690D02*
X187800976Y-33389452D01*
X187848595Y-33341833D01*
X187943833Y-33294214D01*
X188039071Y-33294214D01*
X188134309Y-34056119D02*
X188896214Y-34056119D01*
X189658119Y-33960880D02*
X189086690Y-33960880D01*
X189372404Y-33960880D02*
X189372404Y-32960880D01*
X189277166Y-33103738D01*
X189181928Y-33198976D01*
X189086690Y-33246595D01*
X188063214Y-39882261D02*
X188158452Y-39929880D01*
X188348928Y-39929880D01*
X188444166Y-39882261D01*
X188491785Y-39787023D01*
X188491785Y-39739404D01*
X188444166Y-39644166D01*
X188348928Y-39596547D01*
X188206071Y-39596547D01*
X188110833Y-39548928D01*
X188063214Y-39453690D01*
X188063214Y-39406071D01*
X188110833Y-39310833D01*
X188206071Y-39263214D01*
X188348928Y-39263214D01*
X188444166Y-39310833D01*
X185229547Y-39548928D02*
X185991452Y-39548928D01*
X182689547Y-39548928D02*
X183451452Y-39548928D01*
X183070500Y-39929880D02*
X183070500Y-39167976D01*
%TO.C,ir_sensor_2*%
X142641092Y-43303677D02*
X142385970Y-42687757D01*
X142258409Y-42379797D02*
X142232637Y-42442014D01*
X142294855Y-42467786D01*
X142320626Y-42405568D01*
X142258409Y-42379797D01*
X142294855Y-42467786D01*
X143081035Y-43121447D02*
X142825912Y-42505527D01*
X142898804Y-42681504D02*
X142906353Y-42575292D01*
X142932124Y-42513075D01*
X143001889Y-42432635D01*
X143089878Y-42396189D01*
X143469435Y-43063651D02*
X144173343Y-42772083D01*
X144294651Y-42567208D02*
X144400863Y-42574756D01*
X144576840Y-42501864D01*
X144646605Y-42421424D01*
X144654153Y-42315212D01*
X144635930Y-42271218D01*
X144555490Y-42201452D01*
X144449279Y-42193904D01*
X144317296Y-42248573D01*
X144211084Y-42241025D01*
X144130644Y-42171259D01*
X144112421Y-42127265D01*
X144119969Y-42021054D01*
X144189735Y-41940613D01*
X144321717Y-41885944D01*
X144427929Y-41893492D01*
X145438502Y-42093409D02*
X145368736Y-42173849D01*
X145192759Y-42246742D01*
X145086548Y-42239193D01*
X145006107Y-42169428D01*
X144860323Y-41817474D01*
X144867872Y-41711262D01*
X144937637Y-41630822D01*
X145113614Y-41557930D01*
X145219826Y-41565478D01*
X145300266Y-41635243D01*
X145336712Y-41723232D01*
X144933215Y-41993451D01*
X145641545Y-41339254D02*
X145896668Y-41955173D01*
X145677991Y-41427242D02*
X145703763Y-41365025D01*
X145773528Y-41284584D01*
X145905511Y-41229915D01*
X146011722Y-41237464D01*
X146092163Y-41307229D01*
X146292616Y-41791166D01*
X146670341Y-41583165D02*
X146776553Y-41590713D01*
X146952530Y-41517821D01*
X147022295Y-41437380D01*
X147029844Y-41331169D01*
X147011621Y-41287175D01*
X146931180Y-41217409D01*
X146824969Y-41209861D01*
X146692986Y-41264530D01*
X146586774Y-41256982D01*
X146506334Y-41187216D01*
X146488111Y-41143222D01*
X146495659Y-41037010D01*
X146565425Y-40956570D01*
X146697408Y-40901901D01*
X146803619Y-40909449D01*
X147612444Y-41244475D02*
X147506232Y-41236927D01*
X147444015Y-41211156D01*
X147363575Y-41141390D01*
X147254237Y-40877425D01*
X147261785Y-40771213D01*
X147287556Y-40708996D01*
X147357322Y-40628556D01*
X147489304Y-40573887D01*
X147595516Y-40581435D01*
X147657733Y-40607206D01*
X147738173Y-40676972D01*
X147847512Y-40940937D01*
X147839963Y-41047149D01*
X147814192Y-41109366D01*
X147744427Y-41189806D01*
X147612444Y-41244475D01*
X148316352Y-40952907D02*
X148061230Y-40336987D01*
X148134122Y-40512964D02*
X148141670Y-40406753D01*
X148167441Y-40344536D01*
X148237207Y-40264095D01*
X148325195Y-40227649D01*
X148704752Y-40895111D02*
X149408660Y-40603543D01*
X149201954Y-39606771D02*
X149227725Y-39544554D01*
X149297491Y-39464114D01*
X149517462Y-39372999D01*
X149623674Y-39380547D01*
X149685891Y-39406318D01*
X149766331Y-39476084D01*
X149802777Y-39564072D01*
X149813452Y-39714278D01*
X149504197Y-40460886D01*
X150076123Y-40223986D01*
X150868637Y-46304972D02*
X150974849Y-46312521D01*
X151150826Y-46239628D01*
X151220591Y-46159188D01*
X151228139Y-46052977D01*
X151209916Y-46008982D01*
X151129476Y-45939217D01*
X151023264Y-45931669D01*
X150891282Y-45986338D01*
X150785070Y-45978789D01*
X150704630Y-45909024D01*
X150686407Y-45865030D01*
X150693955Y-45758818D01*
X150763721Y-45678378D01*
X150895703Y-45623709D01*
X151001915Y-45631257D01*
X148123110Y-47081410D02*
X148827018Y-46789842D01*
X145776456Y-48053426D02*
X146480364Y-47761858D01*
X146274194Y-48259596D02*
X145982626Y-47555688D01*
%TO.C,ir_sensor_8*%
X142294855Y-230709213D02*
X142549977Y-230093294D01*
X142677538Y-229785334D02*
X142615321Y-229811105D01*
X142641092Y-229873322D01*
X142703309Y-229847551D01*
X142677538Y-229785334D01*
X142641092Y-229873322D01*
X142734797Y-230891443D02*
X142989920Y-230275524D01*
X142917028Y-230451501D02*
X142997468Y-230381735D01*
X143059685Y-230355964D01*
X143165897Y-230348416D01*
X143253885Y-230384862D01*
X143050305Y-231125216D02*
X143754214Y-231416785D01*
X143984860Y-231357694D02*
X144054625Y-231438134D01*
X144230602Y-231511026D01*
X144336814Y-231503478D01*
X144417254Y-231433712D01*
X144435477Y-231389718D01*
X144427929Y-231283507D01*
X144358163Y-231203066D01*
X144226181Y-231148397D01*
X144156415Y-231067957D01*
X144148867Y-230961745D01*
X144167090Y-230917751D01*
X144247530Y-230847986D01*
X144353742Y-230840437D01*
X144485725Y-230895106D01*
X144555490Y-230975547D01*
X145128711Y-231831492D02*
X145022499Y-231839041D01*
X144846522Y-231766148D01*
X144776756Y-231685708D01*
X144769208Y-231579497D01*
X144914992Y-231227543D01*
X144995433Y-231157777D01*
X145101644Y-231150229D01*
X145277621Y-231223121D01*
X145347387Y-231303561D01*
X145354935Y-231409773D01*
X145318489Y-231497761D01*
X144842100Y-231403520D01*
X145805552Y-231441797D02*
X145550430Y-232057717D01*
X145769106Y-231529786D02*
X145831324Y-231504014D01*
X145937535Y-231496466D01*
X146069518Y-231551135D01*
X146139284Y-231631576D01*
X146146832Y-231737787D01*
X145946379Y-232221724D01*
X146360550Y-232341737D02*
X146430315Y-232422177D01*
X146606292Y-232495069D01*
X146712504Y-232487521D01*
X146792944Y-232417756D01*
X146811167Y-232373761D01*
X146803619Y-232267550D01*
X146733854Y-232187109D01*
X146601871Y-232132440D01*
X146532105Y-232052000D01*
X146524557Y-231945789D01*
X146542780Y-231901794D01*
X146623220Y-231832029D01*
X146729432Y-231824481D01*
X146861415Y-231879150D01*
X146931180Y-231959590D01*
X147266206Y-232768415D02*
X147196441Y-232687974D01*
X147170670Y-232625757D01*
X147163121Y-232519545D01*
X147272460Y-232255580D01*
X147352900Y-232185814D01*
X147415117Y-232160043D01*
X147521329Y-232152495D01*
X147653312Y-232207164D01*
X147723077Y-232287604D01*
X147748848Y-232349822D01*
X147756396Y-232456033D01*
X147647058Y-232719999D01*
X147566618Y-232789764D01*
X147504401Y-232815535D01*
X147398189Y-232823084D01*
X147266206Y-232768415D01*
X147970115Y-233059983D02*
X148225237Y-232444063D01*
X148152345Y-232620040D02*
X148232785Y-232550275D01*
X148295002Y-232524504D01*
X148401214Y-232516955D01*
X148489203Y-232553401D01*
X148285623Y-233293756D02*
X148989531Y-233585324D01*
X149596607Y-233115188D02*
X149526842Y-233034748D01*
X149501071Y-232972531D01*
X149493522Y-232866319D01*
X149511745Y-232822325D01*
X149592186Y-232752560D01*
X149654403Y-232726788D01*
X149760615Y-232719240D01*
X149936592Y-232792132D01*
X150006357Y-232872572D01*
X150032128Y-232934790D01*
X150039677Y-233041001D01*
X150021454Y-233084996D01*
X149941013Y-233154761D01*
X149878796Y-233180532D01*
X149772584Y-233188081D01*
X149596607Y-233115188D01*
X149490396Y-233122737D01*
X149428179Y-233148508D01*
X149347738Y-233218273D01*
X149274846Y-233394250D01*
X149282394Y-233500462D01*
X149308166Y-233562679D01*
X149377931Y-233643120D01*
X149553908Y-233716012D01*
X149660120Y-233708463D01*
X149722337Y-233682692D01*
X149802777Y-233612927D01*
X149875669Y-233436950D01*
X149868121Y-233330738D01*
X149842350Y-233268521D01*
X149772584Y-233188081D01*
X145630873Y-225578695D02*
X145700638Y-225659135D01*
X145876615Y-225732028D01*
X145982827Y-225724479D01*
X146063267Y-225654714D01*
X146081490Y-225610720D01*
X146073942Y-225504508D01*
X146004176Y-225424068D01*
X145872194Y-225369399D01*
X145802428Y-225288958D01*
X145794880Y-225182747D01*
X145813103Y-225138753D01*
X145893543Y-225068987D01*
X145999755Y-225061439D01*
X146131737Y-225116108D01*
X146201503Y-225196548D01*
X148068441Y-226227572D02*
X148772349Y-226519140D01*
X150415095Y-227199588D02*
X151119003Y-227491156D01*
X150621265Y-227697326D02*
X150912833Y-226993418D01*
%TO.C,ir_sensor_12*%
X279548983Y-180344087D02*
X278933063Y-180088965D01*
X278625104Y-179961404D02*
X278650875Y-180023621D01*
X278713092Y-179997850D01*
X278687321Y-179935632D01*
X278625104Y-179961404D01*
X278713092Y-179997850D01*
X279731213Y-179904144D02*
X279115294Y-179649022D01*
X279291271Y-179721914D02*
X279221505Y-179641474D01*
X279195734Y-179579257D01*
X279188186Y-179473045D01*
X279224632Y-179385056D01*
X279964986Y-179588636D02*
X280256554Y-178884728D01*
X280197464Y-178654082D02*
X280277904Y-178584316D01*
X280350796Y-178408339D01*
X280343248Y-178302128D01*
X280273482Y-178221688D01*
X280229488Y-178203464D01*
X280123276Y-178211013D01*
X280042836Y-178280778D01*
X279988167Y-178412761D01*
X279907727Y-178482527D01*
X279801515Y-178490075D01*
X279757521Y-178471852D01*
X279687755Y-178391411D01*
X279680207Y-178285200D01*
X279734876Y-178153217D01*
X279815317Y-178083452D01*
X280671262Y-177510231D02*
X280678810Y-177616443D01*
X280605918Y-177792420D01*
X280525478Y-177862185D01*
X280419266Y-177869733D01*
X280067312Y-177723949D01*
X279997547Y-177643509D01*
X279989999Y-177537297D01*
X280062891Y-177361320D01*
X280143331Y-177291555D01*
X280249543Y-177284007D01*
X280337531Y-177320453D01*
X280243289Y-177796841D01*
X280281567Y-176833389D02*
X280897487Y-177088511D01*
X280369555Y-176869835D02*
X280343784Y-176807618D01*
X280336236Y-176701406D01*
X280390905Y-176569424D01*
X280471345Y-176499658D01*
X280577557Y-176492110D01*
X281061494Y-176692563D01*
X281181507Y-176278392D02*
X281261947Y-176208626D01*
X281334839Y-176032649D01*
X281327291Y-175926438D01*
X281257525Y-175845997D01*
X281213531Y-175827774D01*
X281107320Y-175835322D01*
X281026879Y-175905088D01*
X280972210Y-176037071D01*
X280891770Y-176106836D01*
X280785558Y-176114385D01*
X280741564Y-176096161D01*
X280671799Y-176015721D01*
X280664250Y-175909510D01*
X280718919Y-175777527D01*
X280799360Y-175707761D01*
X281608184Y-175372735D02*
X281527744Y-175442501D01*
X281465527Y-175468272D01*
X281359315Y-175475820D01*
X281095350Y-175366482D01*
X281025584Y-175286042D01*
X280999813Y-175223824D01*
X280992265Y-175117613D01*
X281046934Y-174985630D01*
X281127374Y-174915865D01*
X281189591Y-174890093D01*
X281295803Y-174882545D01*
X281559768Y-174991883D01*
X281629534Y-175072324D01*
X281655305Y-175134541D01*
X281662853Y-175240752D01*
X281608184Y-175372735D01*
X281899753Y-174668827D02*
X281283833Y-174413705D01*
X281459810Y-174486597D02*
X281390045Y-174406156D01*
X281364273Y-174343939D01*
X281356725Y-174237728D01*
X281393171Y-174149739D01*
X282133525Y-174353319D02*
X282425094Y-173649411D01*
X282628674Y-172909056D02*
X282409997Y-173436988D01*
X282519335Y-173173022D02*
X281595456Y-172790339D01*
X281690993Y-172932996D01*
X281742535Y-173057431D01*
X281750083Y-173163642D01*
X281938567Y-172210865D02*
X281912795Y-172148648D01*
X281905247Y-172042436D01*
X281996362Y-171822465D01*
X282076803Y-171752699D01*
X282139020Y-171726928D01*
X282245231Y-171719380D01*
X282333220Y-171755826D01*
X282446980Y-171854489D01*
X282756235Y-172601097D01*
X282993134Y-172029171D01*
X274600695Y-176568126D02*
X274681135Y-176498361D01*
X274754028Y-176322384D01*
X274746479Y-176216172D01*
X274676714Y-176135732D01*
X274632720Y-176117509D01*
X274526508Y-176125057D01*
X274446068Y-176194823D01*
X274391399Y-176326805D01*
X274310958Y-176396571D01*
X274204747Y-176404119D01*
X274160753Y-176385896D01*
X274090987Y-176305456D01*
X274083439Y-176199244D01*
X274138108Y-176067262D01*
X274218548Y-175997496D01*
X275249572Y-174130558D02*
X275541140Y-173426650D01*
X276221588Y-171783904D02*
X276513156Y-171079996D01*
X276719326Y-171577734D02*
X276015418Y-171286166D01*
%TO.C,U2*%
X186182095Y-148804380D02*
X186182095Y-149613904D01*
X186229714Y-149709142D01*
X186277333Y-149756761D01*
X186372571Y-149804380D01*
X186563047Y-149804380D01*
X186658285Y-149756761D01*
X186705904Y-149709142D01*
X186753523Y-149613904D01*
X186753523Y-148804380D01*
X187182095Y-148899619D02*
X187229714Y-148852000D01*
X187324952Y-148804380D01*
X187563047Y-148804380D01*
X187658285Y-148852000D01*
X187705904Y-148899619D01*
X187753523Y-148994857D01*
X187753523Y-149090095D01*
X187705904Y-149232952D01*
X187134476Y-149804380D01*
X187753523Y-149804380D01*
%TO.C,xt60*%
X239844000Y-83036380D02*
X240367809Y-82369714D01*
X239844000Y-82369714D02*
X240367809Y-83036380D01*
X240605904Y-82369714D02*
X240986857Y-82369714D01*
X240748761Y-82036380D02*
X240748761Y-82893523D01*
X240796380Y-82988761D01*
X240891619Y-83036380D01*
X240986857Y-83036380D01*
X241748761Y-82036380D02*
X241558285Y-82036380D01*
X241463047Y-82084000D01*
X241415428Y-82131619D01*
X241320190Y-82274476D01*
X241272571Y-82464952D01*
X241272571Y-82845904D01*
X241320190Y-82941142D01*
X241367809Y-82988761D01*
X241463047Y-83036380D01*
X241653523Y-83036380D01*
X241748761Y-82988761D01*
X241796380Y-82941142D01*
X241844000Y-82845904D01*
X241844000Y-82607809D01*
X241796380Y-82512571D01*
X241748761Y-82464952D01*
X241653523Y-82417333D01*
X241463047Y-82417333D01*
X241367809Y-82464952D01*
X241320190Y-82512571D01*
X241272571Y-82607809D01*
X242463047Y-82036380D02*
X242558285Y-82036380D01*
X242653523Y-82084000D01*
X242701142Y-82131619D01*
X242748761Y-82226857D01*
X242796380Y-82417333D01*
X242796380Y-82655428D01*
X242748761Y-82845904D01*
X242701142Y-82941142D01*
X242653523Y-82988761D01*
X242558285Y-83036380D01*
X242463047Y-83036380D01*
X242367809Y-82988761D01*
X242320190Y-82941142D01*
X242272571Y-82845904D01*
X242224952Y-82655428D01*
X242224952Y-82417333D01*
X242272571Y-82226857D01*
X242320190Y-82131619D01*
X242367809Y-82084000D01*
X242463047Y-82036380D01*
%TO.C,xt30*%
X217535000Y-86368380D02*
X218058809Y-85701714D01*
X217535000Y-85701714D02*
X218058809Y-86368380D01*
X218296904Y-85701714D02*
X218677857Y-85701714D01*
X218439761Y-85368380D02*
X218439761Y-86225523D01*
X218487380Y-86320761D01*
X218582619Y-86368380D01*
X218677857Y-86368380D01*
X218915952Y-85368380D02*
X219535000Y-85368380D01*
X219201666Y-85749333D01*
X219344523Y-85749333D01*
X219439761Y-85796952D01*
X219487380Y-85844571D01*
X219535000Y-85939809D01*
X219535000Y-86177904D01*
X219487380Y-86273142D01*
X219439761Y-86320761D01*
X219344523Y-86368380D01*
X219058809Y-86368380D01*
X218963571Y-86320761D01*
X218915952Y-86273142D01*
X220154047Y-85368380D02*
X220249285Y-85368380D01*
X220344523Y-85416000D01*
X220392142Y-85463619D01*
X220439761Y-85558857D01*
X220487380Y-85749333D01*
X220487380Y-85987428D01*
X220439761Y-86177904D01*
X220392142Y-86273142D01*
X220344523Y-86320761D01*
X220249285Y-86368380D01*
X220154047Y-86368380D01*
X220058809Y-86320761D01*
X220011190Y-86273142D01*
X219963571Y-86177904D01*
X219915952Y-85987428D01*
X219915952Y-85749333D01*
X219963571Y-85558857D01*
X220011190Y-85463619D01*
X220058809Y-85416000D01*
X220154047Y-85368380D01*
X211963571Y-90023142D02*
X213106428Y-90023142D01*
X224963571Y-90023142D02*
X226106428Y-90023142D01*
X225535000Y-90594571D02*
X225535000Y-89451714D01*
%TO.C,5V_converter1*%
D14*
X231998761Y-110556523D02*
X231394000Y-110556523D01*
X231333523Y-111161285D01*
X231394000Y-111100809D01*
X231514952Y-111040333D01*
X231817333Y-111040333D01*
X231938285Y-111100809D01*
X231998761Y-111161285D01*
X232059238Y-111282238D01*
X232059238Y-111584619D01*
X231998761Y-111705571D01*
X231938285Y-111766047D01*
X231817333Y-111826523D01*
X231514952Y-111826523D01*
X231394000Y-111766047D01*
X231333523Y-111705571D01*
X232422095Y-110556523D02*
X232845428Y-111826523D01*
X233268761Y-110556523D01*
X233389714Y-111947476D02*
X234357333Y-111947476D01*
X235204000Y-111766047D02*
X235083047Y-111826523D01*
X234841142Y-111826523D01*
X234720190Y-111766047D01*
X234659714Y-111705571D01*
X234599238Y-111584619D01*
X234599238Y-111221761D01*
X234659714Y-111100809D01*
X234720190Y-111040333D01*
X234841142Y-110979857D01*
X235083047Y-110979857D01*
X235204000Y-111040333D01*
X235929714Y-111826523D02*
X235808761Y-111766047D01*
X235748285Y-111705571D01*
X235687809Y-111584619D01*
X235687809Y-111221761D01*
X235748285Y-111100809D01*
X235808761Y-111040333D01*
X235929714Y-110979857D01*
X236111142Y-110979857D01*
X236232095Y-111040333D01*
X236292571Y-111100809D01*
X236353047Y-111221761D01*
X236353047Y-111584619D01*
X236292571Y-111705571D01*
X236232095Y-111766047D01*
X236111142Y-111826523D01*
X235929714Y-111826523D01*
X236897333Y-110979857D02*
X236897333Y-111826523D01*
X236897333Y-111100809D02*
X236957809Y-111040333D01*
X237078761Y-110979857D01*
X237260190Y-110979857D01*
X237381142Y-111040333D01*
X237441619Y-111161285D01*
X237441619Y-111826523D01*
X237925428Y-110979857D02*
X238227809Y-111826523D01*
X238530190Y-110979857D01*
X239497809Y-111766047D02*
X239376857Y-111826523D01*
X239134952Y-111826523D01*
X239014000Y-111766047D01*
X238953523Y-111645095D01*
X238953523Y-111161285D01*
X239014000Y-111040333D01*
X239134952Y-110979857D01*
X239376857Y-110979857D01*
X239497809Y-111040333D01*
X239558285Y-111161285D01*
X239558285Y-111282238D01*
X238953523Y-111403190D01*
X240102571Y-111826523D02*
X240102571Y-110979857D01*
X240102571Y-111221761D02*
X240163047Y-111100809D01*
X240223523Y-111040333D01*
X240344476Y-110979857D01*
X240465428Y-110979857D01*
X240707333Y-110979857D02*
X241191142Y-110979857D01*
X240888761Y-110556523D02*
X240888761Y-111645095D01*
X240949238Y-111766047D01*
X241070190Y-111826523D01*
X241191142Y-111826523D01*
X242098285Y-111766047D02*
X241977333Y-111826523D01*
X241735428Y-111826523D01*
X241614476Y-111766047D01*
X241554000Y-111645095D01*
X241554000Y-111161285D01*
X241614476Y-111040333D01*
X241735428Y-110979857D01*
X241977333Y-110979857D01*
X242098285Y-111040333D01*
X242158761Y-111161285D01*
X242158761Y-111282238D01*
X241554000Y-111403190D01*
X242703047Y-111826523D02*
X242703047Y-110979857D01*
X242703047Y-111221761D02*
X242763523Y-111100809D01*
X242824000Y-111040333D01*
X242944952Y-110979857D01*
X243065904Y-110979857D01*
X244154476Y-111826523D02*
X243428761Y-111826523D01*
X243791619Y-111826523D02*
X243791619Y-110556523D01*
X243670666Y-110737952D01*
X243549714Y-110858904D01*
X243428761Y-110919380D01*
%TO.C,3V3_converter1*%
X169708285Y-88966523D02*
X170494476Y-88966523D01*
X170071142Y-89450333D01*
X170252571Y-89450333D01*
X170373523Y-89510809D01*
X170434000Y-89571285D01*
X170494476Y-89692238D01*
X170494476Y-89994619D01*
X170434000Y-90115571D01*
X170373523Y-90176047D01*
X170252571Y-90236523D01*
X169889714Y-90236523D01*
X169768761Y-90176047D01*
X169708285Y-90115571D01*
X170857333Y-88966523D02*
X171280666Y-90236523D01*
X171704000Y-88966523D01*
X172006380Y-88966523D02*
X172792571Y-88966523D01*
X172369238Y-89450333D01*
X172550666Y-89450333D01*
X172671619Y-89510809D01*
X172732095Y-89571285D01*
X172792571Y-89692238D01*
X172792571Y-89994619D01*
X172732095Y-90115571D01*
X172671619Y-90176047D01*
X172550666Y-90236523D01*
X172187809Y-90236523D01*
X172066857Y-90176047D01*
X172006380Y-90115571D01*
X173034476Y-90357476D02*
X174002095Y-90357476D01*
X174848761Y-90176047D02*
X174727809Y-90236523D01*
X174485904Y-90236523D01*
X174364952Y-90176047D01*
X174304476Y-90115571D01*
X174244000Y-89994619D01*
X174244000Y-89631761D01*
X174304476Y-89510809D01*
X174364952Y-89450333D01*
X174485904Y-89389857D01*
X174727809Y-89389857D01*
X174848761Y-89450333D01*
X175574476Y-90236523D02*
X175453523Y-90176047D01*
X175393047Y-90115571D01*
X175332571Y-89994619D01*
X175332571Y-89631761D01*
X175393047Y-89510809D01*
X175453523Y-89450333D01*
X175574476Y-89389857D01*
X175755904Y-89389857D01*
X175876857Y-89450333D01*
X175937333Y-89510809D01*
X175997809Y-89631761D01*
X175997809Y-89994619D01*
X175937333Y-90115571D01*
X175876857Y-90176047D01*
X175755904Y-90236523D01*
X175574476Y-90236523D01*
X176542095Y-89389857D02*
X176542095Y-90236523D01*
X176542095Y-89510809D02*
X176602571Y-89450333D01*
X176723523Y-89389857D01*
X176904952Y-89389857D01*
X177025904Y-89450333D01*
X177086380Y-89571285D01*
X177086380Y-90236523D01*
X177570190Y-89389857D02*
X177872571Y-90236523D01*
X178174952Y-89389857D01*
X179142571Y-90176047D02*
X179021619Y-90236523D01*
X178779714Y-90236523D01*
X178658761Y-90176047D01*
X178598285Y-90055095D01*
X178598285Y-89571285D01*
X178658761Y-89450333D01*
X178779714Y-89389857D01*
X179021619Y-89389857D01*
X179142571Y-89450333D01*
X179203047Y-89571285D01*
X179203047Y-89692238D01*
X178598285Y-89813190D01*
X179747333Y-90236523D02*
X179747333Y-89389857D01*
X179747333Y-89631761D02*
X179807809Y-89510809D01*
X179868285Y-89450333D01*
X179989238Y-89389857D01*
X180110190Y-89389857D01*
X180352095Y-89389857D02*
X180835904Y-89389857D01*
X180533523Y-88966523D02*
X180533523Y-90055095D01*
X180594000Y-90176047D01*
X180714952Y-90236523D01*
X180835904Y-90236523D01*
X181743047Y-90176047D02*
X181622095Y-90236523D01*
X181380190Y-90236523D01*
X181259238Y-90176047D01*
X181198761Y-90055095D01*
X181198761Y-89571285D01*
X181259238Y-89450333D01*
X181380190Y-89389857D01*
X181622095Y-89389857D01*
X181743047Y-89450333D01*
X181803523Y-89571285D01*
X181803523Y-89692238D01*
X181198761Y-89813190D01*
X182347809Y-90236523D02*
X182347809Y-89389857D01*
X182347809Y-89631761D02*
X182408285Y-89510809D01*
X182468761Y-89450333D01*
X182589714Y-89389857D01*
X182710666Y-89389857D01*
X183799238Y-90236523D02*
X183073523Y-90236523D01*
X183436380Y-90236523D02*
X183436380Y-88966523D01*
X183315428Y-89147952D01*
X183194476Y-89268904D01*
X183073523Y-89329380D01*
%TO.C,U1*%
D12*
X216662095Y-118324380D02*
X216662095Y-119133904D01*
X216709714Y-119229142D01*
X216757333Y-119276761D01*
X216852571Y-119324380D01*
X217043047Y-119324380D01*
X217138285Y-119276761D01*
X217185904Y-119229142D01*
X217233523Y-119133904D01*
X217233523Y-118324380D01*
X218233523Y-119324380D02*
X217662095Y-119324380D01*
X217947809Y-119324380D02*
X217947809Y-118324380D01*
X217852571Y-118467238D01*
X217757333Y-118562476D01*
X217662095Y-118610095D01*
%TO.C,ir_sensor_16*%
X220748928Y-40059979D02*
X221004050Y-39444059D01*
X221131611Y-39136100D02*
X221069394Y-39161871D01*
X221095165Y-39224088D01*
X221157383Y-39198317D01*
X221131611Y-39136100D01*
X221095165Y-39224088D01*
X221188871Y-40242209D02*
X221443993Y-39626290D01*
X221371101Y-39802267D02*
X221451541Y-39732501D01*
X221513758Y-39706730D01*
X221619970Y-39699182D01*
X221707959Y-39735628D01*
X221504379Y-40475982D02*
X222208287Y-40767550D01*
X222438933Y-40708460D02*
X222508699Y-40788900D01*
X222684676Y-40861792D01*
X222790887Y-40854244D01*
X222871327Y-40784478D01*
X222889551Y-40740484D01*
X222882002Y-40634272D01*
X222812237Y-40553832D01*
X222680254Y-40499163D01*
X222610488Y-40418723D01*
X222602940Y-40312511D01*
X222621163Y-40268517D01*
X222701604Y-40198751D01*
X222807815Y-40191203D01*
X222939798Y-40245872D01*
X223009563Y-40326313D01*
X223582784Y-41182258D02*
X223476572Y-41189806D01*
X223300595Y-41116914D01*
X223230830Y-41036474D01*
X223223282Y-40930262D01*
X223369066Y-40578308D01*
X223449506Y-40508543D01*
X223555718Y-40500995D01*
X223731695Y-40573887D01*
X223801460Y-40654327D01*
X223809008Y-40760539D01*
X223772562Y-40848527D01*
X223296174Y-40754285D01*
X224259626Y-40792563D02*
X224004504Y-41408483D01*
X224223180Y-40880551D02*
X224285397Y-40854780D01*
X224391609Y-40847232D01*
X224523591Y-40901901D01*
X224593357Y-40982341D01*
X224600905Y-41088553D01*
X224400452Y-41572490D01*
X224814623Y-41692503D02*
X224884389Y-41772943D01*
X225060366Y-41845835D01*
X225166577Y-41838287D01*
X225247018Y-41768521D01*
X225265241Y-41724527D01*
X225257693Y-41618316D01*
X225187927Y-41537875D01*
X225055944Y-41483206D01*
X224986179Y-41402766D01*
X224978630Y-41296554D01*
X224996854Y-41252560D01*
X225077294Y-41182795D01*
X225183505Y-41175246D01*
X225315488Y-41229915D01*
X225385254Y-41310356D01*
X225720280Y-42119180D02*
X225650514Y-42038740D01*
X225624743Y-41976523D01*
X225617195Y-41870311D01*
X225726533Y-41606346D01*
X225806973Y-41536580D01*
X225869191Y-41510809D01*
X225975402Y-41503261D01*
X226107385Y-41557930D01*
X226177150Y-41638370D01*
X226202922Y-41700587D01*
X226210470Y-41806799D01*
X226101132Y-42070764D01*
X226020691Y-42140530D01*
X225958474Y-42166301D01*
X225852263Y-42173849D01*
X225720280Y-42119180D01*
X226424188Y-42410749D02*
X226679310Y-41794829D01*
X226606418Y-41970806D02*
X226686859Y-41901041D01*
X226749076Y-41875269D01*
X226855287Y-41867721D01*
X226943276Y-41904167D01*
X226739696Y-42644521D02*
X227443604Y-42936090D01*
X228183959Y-43139670D02*
X227656027Y-42920993D01*
X227919993Y-43030331D02*
X228302676Y-42106452D01*
X228160019Y-42201989D01*
X228035584Y-42253531D01*
X227929373Y-42261079D01*
X229358539Y-42543804D02*
X229182562Y-42470912D01*
X229076350Y-42478461D01*
X229014133Y-42504232D01*
X228871475Y-42599769D01*
X228754589Y-42757523D01*
X228608805Y-43109477D01*
X228616353Y-43215688D01*
X228642124Y-43277905D01*
X228711890Y-43358346D01*
X228887867Y-43431238D01*
X228994078Y-43423690D01*
X229056296Y-43397918D01*
X229136736Y-43328153D01*
X229227851Y-43108182D01*
X229220303Y-43001970D01*
X229194532Y-42939753D01*
X229124766Y-42859312D01*
X228948789Y-42786420D01*
X228842577Y-42793969D01*
X228780360Y-42819740D01*
X228699920Y-42889505D01*
X224884387Y-48182199D02*
X224954152Y-48262639D01*
X225130129Y-48335532D01*
X225236341Y-48327983D01*
X225316781Y-48258218D01*
X225335004Y-48214224D01*
X225327456Y-48108012D01*
X225257690Y-48027572D01*
X225125708Y-47972903D01*
X225055942Y-47892462D01*
X225048394Y-47786251D01*
X225066617Y-47742257D01*
X225147057Y-47672491D01*
X225253269Y-47664943D01*
X225385251Y-47719612D01*
X225455017Y-47800052D01*
X222393981Y-46789842D02*
X223097889Y-47081410D01*
X220047327Y-45817826D02*
X220751235Y-46109394D01*
X220253497Y-46315564D02*
X220545065Y-45611656D01*
%TO.C,ir_sensor_15*%
X256810090Y-62650721D02*
X257281495Y-62179317D01*
X257517197Y-61943615D02*
X257449853Y-61943615D01*
X257449853Y-62010958D01*
X257517197Y-62010958D01*
X257517197Y-61943615D01*
X257449853Y-62010958D01*
X257146808Y-62987439D02*
X257618212Y-62516034D01*
X257483525Y-62650721D02*
X257584541Y-62617050D01*
X257651884Y-62617050D01*
X257752899Y-62650721D01*
X257820243Y-62718065D01*
X257348838Y-63324157D02*
X257887586Y-63862905D01*
X258123289Y-63896576D02*
X258156960Y-63997592D01*
X258291647Y-64132279D01*
X258392663Y-64165950D01*
X258493678Y-64132279D01*
X258527350Y-64098607D01*
X258561021Y-63997592D01*
X258527350Y-63896576D01*
X258426334Y-63795561D01*
X258392663Y-63694546D01*
X258426334Y-63593531D01*
X258460006Y-63559859D01*
X258561021Y-63526187D01*
X258662037Y-63559859D01*
X258763052Y-63660874D01*
X258796724Y-63761889D01*
X258998754Y-64772042D02*
X258897739Y-64738370D01*
X258763052Y-64603683D01*
X258729380Y-64502668D01*
X258763052Y-64401653D01*
X259032426Y-64132279D01*
X259133441Y-64098607D01*
X259234456Y-64132279D01*
X259369143Y-64266966D01*
X259402815Y-64367981D01*
X259369143Y-64468996D01*
X259301800Y-64536340D01*
X258897739Y-64266966D01*
X259773204Y-64671027D02*
X259301800Y-65142431D01*
X259705861Y-64738370D02*
X259773204Y-64738370D01*
X259874220Y-64772042D01*
X259975235Y-64873057D01*
X260008907Y-64974072D01*
X259975235Y-65075088D01*
X259604846Y-65445477D01*
X259941563Y-65714851D02*
X259975235Y-65815866D01*
X260109922Y-65950553D01*
X260210937Y-65984225D01*
X260311952Y-65950553D01*
X260345624Y-65916881D01*
X260379296Y-65815866D01*
X260345624Y-65714851D01*
X260244609Y-65613836D01*
X260210937Y-65512820D01*
X260244609Y-65411805D01*
X260278281Y-65378133D01*
X260379296Y-65344462D01*
X260480311Y-65378133D01*
X260581326Y-65479149D01*
X260614998Y-65580164D01*
X260614998Y-66455629D02*
X260581326Y-66354614D01*
X260581326Y-66287271D01*
X260614998Y-66186255D01*
X260817029Y-65984225D01*
X260918044Y-65950553D01*
X260985387Y-65950553D01*
X261086403Y-65984225D01*
X261187418Y-66085240D01*
X261221090Y-66186255D01*
X261221090Y-66253599D01*
X261187418Y-66354614D01*
X260985387Y-66556645D01*
X260884372Y-66590316D01*
X260817029Y-66590316D01*
X260716013Y-66556645D01*
X260614998Y-66455629D01*
X261153746Y-66994377D02*
X261625151Y-66522973D01*
X261490464Y-66657660D02*
X261591479Y-66623988D01*
X261658822Y-66623988D01*
X261759838Y-66657660D01*
X261827181Y-66725003D01*
X261355777Y-67331095D02*
X261894525Y-67869843D01*
X262500616Y-68341248D02*
X262096555Y-67937186D01*
X262298586Y-68139217D02*
X263005692Y-67432110D01*
X262837334Y-67465782D01*
X262702647Y-67465782D01*
X262601631Y-67432110D01*
X263847486Y-68273904D02*
X263510769Y-67937186D01*
X263140380Y-68240232D01*
X263207723Y-68240232D01*
X263308738Y-68273904D01*
X263477097Y-68442263D01*
X263510769Y-68543278D01*
X263510769Y-68610622D01*
X263477097Y-68711637D01*
X263308738Y-68879996D01*
X263207723Y-68913667D01*
X263140380Y-68913667D01*
X263039364Y-68879996D01*
X262871005Y-68711637D01*
X262837334Y-68610622D01*
X262837334Y-68543278D01*
X257522518Y-71737246D02*
X257556189Y-71838261D01*
X257690876Y-71972948D01*
X257791892Y-72006620D01*
X257892907Y-71972948D01*
X257926579Y-71939276D01*
X257960251Y-71838261D01*
X257926579Y-71737246D01*
X257825563Y-71636230D01*
X257791892Y-71535215D01*
X257825563Y-71434200D01*
X257859235Y-71400528D01*
X257960251Y-71366856D01*
X258061266Y-71400528D01*
X258162281Y-71501543D01*
X258195953Y-71602558D01*
X255754515Y-69497838D02*
X256293263Y-70036586D01*
X253958464Y-67701787D02*
X254497212Y-68240535D01*
X253958464Y-68240535D02*
X254497212Y-67701787D01*
%TO.C,ir_sensor_14*%
X278713092Y-93179149D02*
X279329012Y-92924027D01*
X279636972Y-92796466D02*
X279574754Y-92770695D01*
X279548983Y-92832912D01*
X279611200Y-92858683D01*
X279636972Y-92796466D01*
X279548983Y-92832912D01*
X278895322Y-93619092D02*
X279511242Y-93363970D01*
X279335265Y-93436862D02*
X279441476Y-93444410D01*
X279503694Y-93470181D01*
X279584134Y-93539947D01*
X279620580Y-93627935D01*
X278953118Y-94007492D02*
X279244686Y-94711400D01*
X279449561Y-94832708D02*
X279442013Y-94938920D01*
X279514905Y-95114897D01*
X279595345Y-95184663D01*
X279701557Y-95192211D01*
X279745551Y-95173988D01*
X279815317Y-95093547D01*
X279822865Y-94987336D01*
X279768196Y-94855353D01*
X279775744Y-94749142D01*
X279845509Y-94668701D01*
X279889504Y-94650478D01*
X279995715Y-94658026D01*
X280076156Y-94727792D01*
X280130825Y-94859775D01*
X280123276Y-94965986D01*
X279923360Y-95976559D02*
X279842919Y-95906794D01*
X279770027Y-95730817D01*
X279777575Y-95624605D01*
X279847341Y-95544165D01*
X280199295Y-95398381D01*
X280305507Y-95405929D01*
X280385947Y-95475694D01*
X280458839Y-95651671D01*
X280451291Y-95757883D01*
X280381525Y-95838323D01*
X280293537Y-95874769D01*
X280023318Y-95471273D01*
X280677515Y-96179603D02*
X280061596Y-96434725D01*
X280589527Y-96216049D02*
X280651744Y-96241820D01*
X280732184Y-96311585D01*
X280786853Y-96443568D01*
X280779305Y-96549780D01*
X280709540Y-96630220D01*
X280225603Y-96830673D01*
X280433604Y-97208399D02*
X280426056Y-97314610D01*
X280498948Y-97490587D01*
X280579388Y-97560353D01*
X280685600Y-97567901D01*
X280729594Y-97549678D01*
X280799360Y-97469238D01*
X280806908Y-97363026D01*
X280752239Y-97231043D01*
X280759787Y-97124832D01*
X280829553Y-97044391D01*
X280873547Y-97026168D01*
X280979758Y-97033717D01*
X281060199Y-97103482D01*
X281114868Y-97235465D01*
X281107320Y-97341677D01*
X280772293Y-98150501D02*
X280779842Y-98044290D01*
X280805613Y-97982072D01*
X280875378Y-97901632D01*
X281139344Y-97792294D01*
X281245555Y-97799842D01*
X281307773Y-97825613D01*
X281388213Y-97895379D01*
X281442882Y-98027362D01*
X281435334Y-98133573D01*
X281409563Y-98195791D01*
X281339797Y-98276231D01*
X281075832Y-98385569D01*
X280969620Y-98378021D01*
X280907403Y-98352249D01*
X280826962Y-98282484D01*
X280772293Y-98150501D01*
X281063862Y-98854409D02*
X281679781Y-98599287D01*
X281503804Y-98672179D02*
X281610016Y-98679727D01*
X281672233Y-98705499D01*
X281752673Y-98775264D01*
X281789120Y-98863253D01*
X281121657Y-99242810D02*
X281413226Y-99946718D01*
X281792783Y-100614180D02*
X281574106Y-100086249D01*
X281683444Y-100350214D02*
X282607324Y-99967531D01*
X282438895Y-99934211D01*
X282314461Y-99882669D01*
X282234020Y-99812903D01*
X282736717Y-101150954D02*
X282120797Y-101406077D01*
X282997556Y-100785199D02*
X282246527Y-100838573D01*
X282483426Y-101410498D01*
X275894027Y-101846637D02*
X275886478Y-101952849D01*
X275959371Y-102128826D01*
X276039811Y-102198591D01*
X276146022Y-102206139D01*
X276190017Y-102187916D01*
X276259782Y-102107476D01*
X276267330Y-102001264D01*
X276212661Y-101869282D01*
X276220210Y-101763070D01*
X276289975Y-101682630D01*
X276333969Y-101664407D01*
X276440181Y-101671955D01*
X276520621Y-101741721D01*
X276575290Y-101873703D01*
X276567742Y-101979915D01*
X275117589Y-99101110D02*
X275409157Y-99805018D01*
X274145573Y-96754456D02*
X274437141Y-97458364D01*
X273939403Y-97252194D02*
X274643311Y-96960626D01*
%TO.C,ir_sensor_13*%
X289142880Y-141064690D02*
X288476214Y-141064690D01*
X288142880Y-141064690D02*
X288190500Y-141112309D01*
X288238119Y-141064690D01*
X288190500Y-141017071D01*
X288142880Y-141064690D01*
X288238119Y-141064690D01*
X289142880Y-140588500D02*
X288476214Y-140588500D01*
X288666690Y-140588500D02*
X288571452Y-140540880D01*
X288523833Y-140493261D01*
X288476214Y-140398023D01*
X288476214Y-140302785D01*
X289238119Y-140207547D02*
X289238119Y-139445642D01*
X289095261Y-139255166D02*
X289142880Y-139159928D01*
X289142880Y-138969452D01*
X289095261Y-138874214D01*
X289000023Y-138826595D01*
X288952404Y-138826595D01*
X288857166Y-138874214D01*
X288809547Y-138969452D01*
X288809547Y-139112309D01*
X288761928Y-139207547D01*
X288666690Y-139255166D01*
X288619071Y-139255166D01*
X288523833Y-139207547D01*
X288476214Y-139112309D01*
X288476214Y-138969452D01*
X288523833Y-138874214D01*
X289095261Y-138017071D02*
X289142880Y-138112309D01*
X289142880Y-138302785D01*
X289095261Y-138398023D01*
X289000023Y-138445642D01*
X288619071Y-138445642D01*
X288523833Y-138398023D01*
X288476214Y-138302785D01*
X288476214Y-138112309D01*
X288523833Y-138017071D01*
X288619071Y-137969452D01*
X288714309Y-137969452D01*
X288809547Y-138445642D01*
X288476214Y-137540880D02*
X289142880Y-137540880D01*
X288571452Y-137540880D02*
X288523833Y-137493261D01*
X288476214Y-137398023D01*
X288476214Y-137255166D01*
X288523833Y-137159928D01*
X288619071Y-137112309D01*
X289142880Y-137112309D01*
X289095261Y-136683738D02*
X289142880Y-136588500D01*
X289142880Y-136398023D01*
X289095261Y-136302785D01*
X289000023Y-136255166D01*
X288952404Y-136255166D01*
X288857166Y-136302785D01*
X288809547Y-136398023D01*
X288809547Y-136540880D01*
X288761928Y-136636119D01*
X288666690Y-136683738D01*
X288619071Y-136683738D01*
X288523833Y-136636119D01*
X288476214Y-136540880D01*
X288476214Y-136398023D01*
X288523833Y-136302785D01*
X289142880Y-135683738D02*
X289095261Y-135778976D01*
X289047642Y-135826595D01*
X288952404Y-135874214D01*
X288666690Y-135874214D01*
X288571452Y-135826595D01*
X288523833Y-135778976D01*
X288476214Y-135683738D01*
X288476214Y-135540880D01*
X288523833Y-135445642D01*
X288571452Y-135398023D01*
X288666690Y-135350404D01*
X288952404Y-135350404D01*
X289047642Y-135398023D01*
X289095261Y-135445642D01*
X289142880Y-135540880D01*
X289142880Y-135683738D01*
X289142880Y-134921833D02*
X288476214Y-134921833D01*
X288666690Y-134921833D02*
X288571452Y-134874214D01*
X288523833Y-134826595D01*
X288476214Y-134731357D01*
X288476214Y-134636119D01*
X289238119Y-134540880D02*
X289238119Y-133778976D01*
X289142880Y-133017071D02*
X289142880Y-133588500D01*
X289142880Y-133302785D02*
X288142880Y-133302785D01*
X288285738Y-133398023D01*
X288380976Y-133493261D01*
X288428595Y-133588500D01*
X288142880Y-132683738D02*
X288142880Y-132064690D01*
X288523833Y-132398023D01*
X288523833Y-132255166D01*
X288571452Y-132159928D01*
X288619071Y-132112309D01*
X288714309Y-132064690D01*
X288952404Y-132064690D01*
X289047642Y-132112309D01*
X289095261Y-132159928D01*
X289142880Y-132255166D01*
X289142880Y-132540880D01*
X289095261Y-132636119D01*
X289047642Y-132683738D01*
X283126261Y-139469785D02*
X283173880Y-139374547D01*
X283173880Y-139184071D01*
X283126261Y-139088833D01*
X283031023Y-139041214D01*
X282983404Y-139041214D01*
X282888166Y-139088833D01*
X282840547Y-139184071D01*
X282840547Y-139326928D01*
X282792928Y-139422166D01*
X282697690Y-139469785D01*
X282650071Y-139469785D01*
X282554833Y-139422166D01*
X282507214Y-139326928D01*
X282507214Y-139184071D01*
X282554833Y-139088833D01*
X282792928Y-136969452D02*
X282792928Y-136207547D01*
X282792928Y-134429452D02*
X282792928Y-133667547D01*
X283173880Y-134048500D02*
X282411976Y-134048500D01*
%TO.C,ir_sensor_11*%
X255653802Y-212962092D02*
X255182398Y-212490687D01*
X254946696Y-212254985D02*
X254946696Y-212322329D01*
X255014039Y-212322329D01*
X255014039Y-212254985D01*
X254946696Y-212254985D01*
X255014039Y-212322329D01*
X255990520Y-212625374D02*
X255519115Y-212153970D01*
X255653802Y-212288657D02*
X255620131Y-212187641D01*
X255620131Y-212120298D01*
X255653802Y-212019283D01*
X255721146Y-211951939D01*
X256327238Y-212423344D02*
X256865986Y-211884596D01*
X256899657Y-211648893D02*
X257000673Y-211615222D01*
X257135360Y-211480535D01*
X257169031Y-211379519D01*
X257135360Y-211278504D01*
X257101688Y-211244832D01*
X257000673Y-211211161D01*
X256899657Y-211244832D01*
X256798642Y-211345848D01*
X256697627Y-211379519D01*
X256596612Y-211345848D01*
X256562940Y-211312176D01*
X256529268Y-211211161D01*
X256562940Y-211110145D01*
X256663955Y-211009130D01*
X256764970Y-210975458D01*
X257775123Y-210773428D02*
X257741451Y-210874443D01*
X257606764Y-211009130D01*
X257505749Y-211042802D01*
X257404734Y-211009130D01*
X257135360Y-210739756D01*
X257101688Y-210638741D01*
X257135360Y-210537726D01*
X257270047Y-210403039D01*
X257371062Y-210369367D01*
X257472077Y-210403039D01*
X257539421Y-210470382D01*
X257270047Y-210874443D01*
X257674108Y-209998978D02*
X258145512Y-210470382D01*
X257741451Y-210066321D02*
X257741451Y-209998978D01*
X257775123Y-209897962D01*
X257876138Y-209796947D01*
X257977153Y-209763275D01*
X258078169Y-209796947D01*
X258448558Y-210167336D01*
X258717932Y-209830619D02*
X258818947Y-209796947D01*
X258953634Y-209662260D01*
X258987306Y-209561245D01*
X258953634Y-209460230D01*
X258919962Y-209426558D01*
X258818947Y-209392886D01*
X258717932Y-209426558D01*
X258616917Y-209527573D01*
X258515901Y-209561245D01*
X258414886Y-209527573D01*
X258381214Y-209493901D01*
X258347543Y-209392886D01*
X258381214Y-209291871D01*
X258482230Y-209190856D01*
X258583245Y-209157184D01*
X259458710Y-209157184D02*
X259357695Y-209190856D01*
X259290352Y-209190856D01*
X259189336Y-209157184D01*
X258987306Y-208955153D01*
X258953634Y-208854138D01*
X258953634Y-208786795D01*
X258987306Y-208685779D01*
X259088321Y-208584764D01*
X259189336Y-208551092D01*
X259256680Y-208551092D01*
X259357695Y-208584764D01*
X259559726Y-208786795D01*
X259593397Y-208887810D01*
X259593397Y-208955153D01*
X259559726Y-209056169D01*
X259458710Y-209157184D01*
X259997458Y-208618436D02*
X259526054Y-208147031D01*
X259660741Y-208281718D02*
X259627069Y-208180703D01*
X259627069Y-208113360D01*
X259660741Y-208012344D01*
X259728084Y-207945001D01*
X260334176Y-208416405D02*
X260872924Y-207877657D01*
X261344329Y-207271566D02*
X260940267Y-207675627D01*
X261142298Y-207473596D02*
X260435191Y-206766490D01*
X260468863Y-206934848D01*
X260468863Y-207069535D01*
X260435191Y-207170551D01*
X262017764Y-206598131D02*
X261613703Y-207002192D01*
X261815733Y-206800161D02*
X261108626Y-206093054D01*
X261142298Y-206261413D01*
X261142298Y-206396100D01*
X261108626Y-206497115D01*
X252527179Y-207579932D02*
X252628194Y-207546261D01*
X252762881Y-207411574D01*
X252796553Y-207310558D01*
X252762881Y-207209543D01*
X252729209Y-207175871D01*
X252628194Y-207142200D01*
X252527179Y-207175871D01*
X252426163Y-207276887D01*
X252325148Y-207310558D01*
X252224133Y-207276887D01*
X252190461Y-207243215D01*
X252156789Y-207142200D01*
X252190461Y-207041184D01*
X252291476Y-206940169D01*
X252392492Y-206906497D01*
X254059479Y-205576227D02*
X254598227Y-205037479D01*
X255855530Y-203780176D02*
X256394278Y-203241428D01*
X256394278Y-203780176D02*
X255855530Y-203241428D01*
%TO.C,ir_sensor_10*%
X221095165Y-233952911D02*
X220840043Y-233336991D01*
X220712482Y-233029031D02*
X220686711Y-233091249D01*
X220748928Y-233117020D01*
X220774699Y-233054803D01*
X220712482Y-233029031D01*
X220748928Y-233117020D01*
X221535108Y-233770681D02*
X221279986Y-233154761D01*
X221352878Y-233330738D02*
X221360426Y-233224527D01*
X221386197Y-233162309D01*
X221455963Y-233081869D01*
X221543951Y-233045423D01*
X221923508Y-233712885D02*
X222627416Y-233421317D01*
X222748724Y-233216442D02*
X222854936Y-233223990D01*
X223030913Y-233151098D01*
X223100679Y-233070658D01*
X223108227Y-232964446D01*
X223090004Y-232920452D01*
X223009563Y-232850686D01*
X222903352Y-232843138D01*
X222771369Y-232897807D01*
X222665158Y-232890259D01*
X222584717Y-232820494D01*
X222566494Y-232776499D01*
X222574042Y-232670288D01*
X222643808Y-232589847D01*
X222775791Y-232535178D01*
X222882002Y-232542727D01*
X223892575Y-232742643D02*
X223822810Y-232823084D01*
X223646833Y-232895976D01*
X223540621Y-232888428D01*
X223460181Y-232818662D01*
X223314397Y-232466708D01*
X223321945Y-232360496D01*
X223391710Y-232280056D01*
X223567687Y-232207164D01*
X223673899Y-232214712D01*
X223754339Y-232284478D01*
X223790785Y-232372466D01*
X223387289Y-232642685D01*
X224095619Y-231988488D02*
X224350741Y-232604407D01*
X224132065Y-232076476D02*
X224157836Y-232014259D01*
X224227601Y-231933819D01*
X224359584Y-231879150D01*
X224465796Y-231886698D01*
X224546236Y-231956463D01*
X224746689Y-232440400D01*
X225124415Y-232232399D02*
X225230626Y-232239947D01*
X225406603Y-232167055D01*
X225476369Y-232086615D01*
X225483917Y-231980403D01*
X225465694Y-231936409D01*
X225385254Y-231866643D01*
X225279042Y-231859095D01*
X225147059Y-231913764D01*
X225040848Y-231906216D01*
X224960407Y-231836450D01*
X224942184Y-231792456D01*
X224949733Y-231686245D01*
X225019498Y-231605804D01*
X225151481Y-231551135D01*
X225257693Y-231558683D01*
X226066517Y-231893710D02*
X225960306Y-231886161D01*
X225898088Y-231860390D01*
X225817648Y-231790625D01*
X225708310Y-231526659D01*
X225715858Y-231420448D01*
X225741629Y-231358230D01*
X225811395Y-231277790D01*
X225943378Y-231223121D01*
X226049589Y-231230669D01*
X226111807Y-231256440D01*
X226192247Y-231326206D01*
X226301585Y-231590171D01*
X226294037Y-231696383D01*
X226268265Y-231758600D01*
X226198500Y-231839041D01*
X226066517Y-231893710D01*
X226770425Y-231602141D02*
X226515303Y-230986222D01*
X226588195Y-231162199D02*
X226595743Y-231055987D01*
X226621515Y-230993770D01*
X226691280Y-230913330D01*
X226779269Y-230876883D01*
X227158826Y-231544346D02*
X227862734Y-231252777D01*
X228530196Y-230873220D02*
X228002265Y-231091897D01*
X228266230Y-230982559D02*
X227883547Y-230058679D01*
X227850227Y-230227108D01*
X227798685Y-230351542D01*
X227728919Y-230431983D01*
X228719438Y-229712442D02*
X228807426Y-229675996D01*
X228913638Y-229683544D01*
X228975855Y-229709315D01*
X229056296Y-229779081D01*
X229173182Y-229936835D01*
X229264297Y-230156806D01*
X229293195Y-230351006D01*
X229285647Y-230457218D01*
X229259875Y-230519435D01*
X229190110Y-230599875D01*
X229102121Y-230636321D01*
X228995910Y-230628773D01*
X228933693Y-230603002D01*
X228853252Y-230533236D01*
X228736366Y-230375482D01*
X228645251Y-230155511D01*
X228616353Y-229961311D01*
X228623901Y-229855099D01*
X228649672Y-229792882D01*
X228719438Y-229712442D01*
X220266205Y-227783936D02*
X220372417Y-227791485D01*
X220548394Y-227718592D01*
X220618159Y-227638152D01*
X220625707Y-227531941D01*
X220607484Y-227487946D01*
X220527044Y-227418181D01*
X220420832Y-227410633D01*
X220288850Y-227465302D01*
X220182638Y-227457753D01*
X220102198Y-227387988D01*
X220083975Y-227343994D01*
X220091523Y-227237782D01*
X220161289Y-227157342D01*
X220293271Y-227102673D01*
X220399483Y-227110221D01*
X222448650Y-226519140D02*
X223152558Y-226227572D01*
X224795304Y-225547124D02*
X225499212Y-225255556D01*
X225293042Y-225753294D02*
X225001474Y-225049386D01*
%TO.C,ir_sensor_7*%
X109573625Y-206968520D02*
X110045029Y-206497115D01*
X110280732Y-206261413D02*
X110213388Y-206261413D01*
X110213388Y-206328757D01*
X110280732Y-206328757D01*
X110280732Y-206261413D01*
X110213388Y-206328757D01*
X109910342Y-207305238D02*
X110381747Y-206833833D01*
X110247060Y-206968520D02*
X110348075Y-206934848D01*
X110415419Y-206934848D01*
X110516434Y-206968520D01*
X110583777Y-207035864D01*
X110112373Y-207641955D02*
X110651121Y-208180703D01*
X110886823Y-208214375D02*
X110920495Y-208315390D01*
X111055182Y-208450077D01*
X111156197Y-208483749D01*
X111257212Y-208450077D01*
X111290884Y-208416405D01*
X111324556Y-208315390D01*
X111290884Y-208214375D01*
X111189869Y-208113360D01*
X111156197Y-208012344D01*
X111189869Y-207911329D01*
X111223541Y-207877657D01*
X111324556Y-207843986D01*
X111425571Y-207877657D01*
X111526586Y-207978673D01*
X111560258Y-208079688D01*
X111762289Y-209089840D02*
X111661273Y-209056169D01*
X111526586Y-208921482D01*
X111492915Y-208820466D01*
X111526586Y-208719451D01*
X111795960Y-208450077D01*
X111896976Y-208416405D01*
X111997991Y-208450077D01*
X112132678Y-208584764D01*
X112166350Y-208685779D01*
X112132678Y-208786795D01*
X112065334Y-208854138D01*
X111661273Y-208584764D01*
X112536739Y-208988825D02*
X112065334Y-209460230D01*
X112469395Y-209056169D02*
X112536739Y-209056169D01*
X112637754Y-209089840D01*
X112738769Y-209190856D01*
X112772441Y-209291871D01*
X112738769Y-209392886D01*
X112368380Y-209763275D01*
X112705098Y-210032649D02*
X112738769Y-210133665D01*
X112873456Y-210268352D01*
X112974472Y-210302023D01*
X113075487Y-210268352D01*
X113109159Y-210234680D01*
X113142830Y-210133665D01*
X113109159Y-210032649D01*
X113008143Y-209931634D01*
X112974472Y-209830619D01*
X113008143Y-209729604D01*
X113041815Y-209695932D01*
X113142830Y-209662260D01*
X113243846Y-209695932D01*
X113344861Y-209796947D01*
X113378533Y-209897962D01*
X113378533Y-210773428D02*
X113344861Y-210672413D01*
X113344861Y-210605069D01*
X113378533Y-210504054D01*
X113580563Y-210302023D01*
X113681578Y-210268352D01*
X113748922Y-210268352D01*
X113849937Y-210302023D01*
X113950952Y-210403039D01*
X113984624Y-210504054D01*
X113984624Y-210571397D01*
X113950952Y-210672413D01*
X113748922Y-210874443D01*
X113647907Y-210908115D01*
X113580563Y-210908115D01*
X113479548Y-210874443D01*
X113378533Y-210773428D01*
X113917281Y-211312176D02*
X114388685Y-210840771D01*
X114253998Y-210975458D02*
X114355013Y-210941787D01*
X114422357Y-210941787D01*
X114523372Y-210975458D01*
X114590716Y-211042802D01*
X114119311Y-211648893D02*
X114658059Y-212187641D01*
X115533525Y-211514206D02*
X116004929Y-211985611D01*
X114994777Y-212389672D01*
X114619067Y-203505179D02*
X114652738Y-203606194D01*
X114787425Y-203740881D01*
X114888441Y-203774553D01*
X114989456Y-203740881D01*
X115023128Y-203707209D01*
X115056800Y-203606194D01*
X115023128Y-203505179D01*
X114922112Y-203404163D01*
X114888441Y-203303148D01*
X114922112Y-203202133D01*
X114955784Y-203168461D01*
X115056799Y-203134789D01*
X115157815Y-203168461D01*
X115258830Y-203269476D01*
X115292502Y-203370492D01*
X116622772Y-205037479D02*
X117161520Y-205576227D01*
X118418823Y-206833530D02*
X118957571Y-207372278D01*
X118418823Y-207372278D02*
X118957571Y-206833530D01*
%TO.C,ir_sensor_6*%
X88428318Y-172513108D02*
X89044238Y-172257986D01*
X89352198Y-172130425D02*
X89289981Y-172104653D01*
X89264209Y-172166871D01*
X89326427Y-172192642D01*
X89352198Y-172130425D01*
X89264209Y-172166871D01*
X88610548Y-172953051D02*
X89226468Y-172697928D01*
X89050491Y-172770820D02*
X89156703Y-172778369D01*
X89218920Y-172804140D01*
X89299360Y-172873905D01*
X89335806Y-172961894D01*
X88668344Y-173341451D02*
X88959912Y-174045359D01*
X89164787Y-174166667D02*
X89157239Y-174272879D01*
X89230131Y-174448856D01*
X89310571Y-174518621D01*
X89416783Y-174526169D01*
X89460777Y-174507946D01*
X89530543Y-174427506D01*
X89538091Y-174321295D01*
X89483422Y-174189312D01*
X89490970Y-174083100D01*
X89560736Y-174002660D01*
X89604730Y-173984437D01*
X89710941Y-173991985D01*
X89791382Y-174061751D01*
X89846051Y-174193733D01*
X89838503Y-174299945D01*
X89638586Y-175310518D02*
X89558146Y-175240752D01*
X89485253Y-175064775D01*
X89492802Y-174958564D01*
X89562567Y-174878123D01*
X89914521Y-174732339D01*
X90020733Y-174739888D01*
X90101173Y-174809653D01*
X90174065Y-174985630D01*
X90166517Y-175091842D01*
X90096752Y-175172282D01*
X90008763Y-175208728D01*
X89738544Y-174805231D01*
X90392741Y-175513561D02*
X89776822Y-175768684D01*
X90304753Y-175550007D02*
X90366970Y-175575779D01*
X90447411Y-175645544D01*
X90502080Y-175777527D01*
X90494531Y-175883738D01*
X90424766Y-175964179D01*
X89940829Y-176164632D01*
X90148830Y-176542357D02*
X90141282Y-176648569D01*
X90214174Y-176824546D01*
X90294615Y-176894311D01*
X90400826Y-176901860D01*
X90444820Y-176883637D01*
X90514586Y-176803196D01*
X90522134Y-176696985D01*
X90467465Y-176565002D01*
X90475013Y-176458790D01*
X90544779Y-176378350D01*
X90588773Y-176360127D01*
X90694985Y-176367675D01*
X90775425Y-176437441D01*
X90830094Y-176569424D01*
X90822546Y-176675635D01*
X90487520Y-177484460D02*
X90495068Y-177378248D01*
X90520839Y-177316031D01*
X90590605Y-177235591D01*
X90854570Y-177126253D01*
X90960782Y-177133801D01*
X91022999Y-177159572D01*
X91103439Y-177229338D01*
X91158108Y-177361320D01*
X91150560Y-177467532D01*
X91124789Y-177529749D01*
X91055023Y-177610189D01*
X90791058Y-177719528D01*
X90684846Y-177711979D01*
X90622629Y-177686208D01*
X90542189Y-177616443D01*
X90487520Y-177484460D01*
X90779088Y-178188368D02*
X91395008Y-177933246D01*
X91219031Y-178006138D02*
X91325242Y-178013686D01*
X91387459Y-178039457D01*
X91467900Y-178109223D01*
X91504346Y-178197211D01*
X90836884Y-178576768D02*
X91128452Y-179280676D01*
X92395442Y-179477467D02*
X92322550Y-179301490D01*
X92242110Y-179231724D01*
X92179893Y-179205953D01*
X92011464Y-179172633D01*
X91817264Y-179201531D01*
X91465310Y-179347315D01*
X91395544Y-179427756D01*
X91369773Y-179489973D01*
X91362225Y-179596184D01*
X91435117Y-179772162D01*
X91515557Y-179841927D01*
X91577774Y-179867698D01*
X91683986Y-179875247D01*
X91903957Y-179784131D01*
X91973723Y-179703691D01*
X91999494Y-179641474D01*
X92007042Y-179535262D01*
X91934150Y-179359285D01*
X91853710Y-179289520D01*
X91791492Y-179263748D01*
X91685281Y-179256200D01*
X94415063Y-171244205D02*
X94407514Y-171350417D01*
X94480407Y-171526394D01*
X94560847Y-171596159D01*
X94667058Y-171603707D01*
X94711053Y-171585484D01*
X94780818Y-171505044D01*
X94788366Y-171398832D01*
X94733697Y-171266850D01*
X94741246Y-171160638D01*
X94811011Y-171080198D01*
X94855005Y-171061975D01*
X94961217Y-171069523D01*
X95041657Y-171139289D01*
X95096326Y-171271271D01*
X95088778Y-171377483D01*
X95679859Y-173426650D02*
X95971427Y-174130558D01*
X96651875Y-175773304D02*
X96943443Y-176477212D01*
X96445705Y-176271042D02*
X97149613Y-175979474D01*
%TO.C,ir_sensor_5*%
X82982880Y-140588500D02*
X82316214Y-140588500D01*
X81982880Y-140588500D02*
X82030500Y-140636119D01*
X82078119Y-140588500D01*
X82030500Y-140540880D01*
X81982880Y-140588500D01*
X82078119Y-140588500D01*
X82982880Y-140112309D02*
X82316214Y-140112309D01*
X82506690Y-140112309D02*
X82411452Y-140064690D01*
X82363833Y-140017071D01*
X82316214Y-139921833D01*
X82316214Y-139826595D01*
X83078119Y-139731357D02*
X83078119Y-138969452D01*
X82935261Y-138778976D02*
X82982880Y-138683738D01*
X82982880Y-138493261D01*
X82935261Y-138398023D01*
X82840023Y-138350404D01*
X82792404Y-138350404D01*
X82697166Y-138398023D01*
X82649547Y-138493261D01*
X82649547Y-138636119D01*
X82601928Y-138731357D01*
X82506690Y-138778976D01*
X82459071Y-138778976D01*
X82363833Y-138731357D01*
X82316214Y-138636119D01*
X82316214Y-138493261D01*
X82363833Y-138398023D01*
X82935261Y-137540880D02*
X82982880Y-137636119D01*
X82982880Y-137826595D01*
X82935261Y-137921833D01*
X82840023Y-137969452D01*
X82459071Y-137969452D01*
X82363833Y-137921833D01*
X82316214Y-137826595D01*
X82316214Y-137636119D01*
X82363833Y-137540880D01*
X82459071Y-137493261D01*
X82554309Y-137493261D01*
X82649547Y-137969452D01*
X82316214Y-137064690D02*
X82982880Y-137064690D01*
X82411452Y-137064690D02*
X82363833Y-137017071D01*
X82316214Y-136921833D01*
X82316214Y-136778976D01*
X82363833Y-136683738D01*
X82459071Y-136636119D01*
X82982880Y-136636119D01*
X82935261Y-136207547D02*
X82982880Y-136112309D01*
X82982880Y-135921833D01*
X82935261Y-135826595D01*
X82840023Y-135778976D01*
X82792404Y-135778976D01*
X82697166Y-135826595D01*
X82649547Y-135921833D01*
X82649547Y-136064690D01*
X82601928Y-136159928D01*
X82506690Y-136207547D01*
X82459071Y-136207547D01*
X82363833Y-136159928D01*
X82316214Y-136064690D01*
X82316214Y-135921833D01*
X82363833Y-135826595D01*
X82982880Y-135207547D02*
X82935261Y-135302785D01*
X82887642Y-135350404D01*
X82792404Y-135398023D01*
X82506690Y-135398023D01*
X82411452Y-135350404D01*
X82363833Y-135302785D01*
X82316214Y-135207547D01*
X82316214Y-135064690D01*
X82363833Y-134969452D01*
X82411452Y-134921833D01*
X82506690Y-134874214D01*
X82792404Y-134874214D01*
X82887642Y-134921833D01*
X82935261Y-134969452D01*
X82982880Y-135064690D01*
X82982880Y-135207547D01*
X82982880Y-134445642D02*
X82316214Y-134445642D01*
X82506690Y-134445642D02*
X82411452Y-134398023D01*
X82363833Y-134350404D01*
X82316214Y-134255166D01*
X82316214Y-134159928D01*
X83078119Y-134064690D02*
X83078119Y-133302785D01*
X81982880Y-132588500D02*
X81982880Y-133064690D01*
X82459071Y-133112309D01*
X82411452Y-133064690D01*
X82363833Y-132969452D01*
X82363833Y-132731357D01*
X82411452Y-132636119D01*
X82459071Y-132588500D01*
X82554309Y-132540880D01*
X82792404Y-132540880D01*
X82887642Y-132588500D01*
X82935261Y-132636119D01*
X82982880Y-132731357D01*
X82982880Y-132969452D01*
X82935261Y-133064690D01*
X82887642Y-133112309D01*
X88904261Y-134135785D02*
X88951880Y-134040547D01*
X88951880Y-133850071D01*
X88904261Y-133754833D01*
X88809023Y-133707214D01*
X88761404Y-133707214D01*
X88666166Y-133754833D01*
X88618547Y-133850071D01*
X88618547Y-133992928D01*
X88570928Y-134088166D01*
X88475690Y-134135785D01*
X88428071Y-134135785D01*
X88332833Y-134088166D01*
X88285214Y-133992928D01*
X88285214Y-133850071D01*
X88332833Y-133754833D01*
X88570928Y-136969452D02*
X88570928Y-136207547D01*
X88570928Y-139509452D02*
X88570928Y-138747547D01*
X88951880Y-139128500D02*
X88189976Y-139128500D01*
%TO.C,ir_sensor_4*%
X89264209Y-101010128D02*
X88648290Y-100755006D01*
X88340330Y-100627445D02*
X88366101Y-100689662D01*
X88428318Y-100663891D01*
X88402547Y-100601674D01*
X88340330Y-100627445D01*
X88428318Y-100663891D01*
X89446439Y-100570186D02*
X88830520Y-100315063D01*
X89006497Y-100387955D02*
X88936731Y-100307515D01*
X88910960Y-100245298D01*
X88903412Y-100139086D01*
X88939858Y-100051098D01*
X89680212Y-100254678D02*
X89971781Y-99550769D01*
X89912690Y-99320123D02*
X89993130Y-99250358D01*
X90066022Y-99074381D01*
X90058474Y-98968169D01*
X89988708Y-98887729D01*
X89944714Y-98869506D01*
X89838503Y-98877054D01*
X89758062Y-98946820D01*
X89703393Y-99078802D01*
X89622953Y-99148568D01*
X89516741Y-99156116D01*
X89472747Y-99137893D01*
X89402982Y-99057453D01*
X89395433Y-98951241D01*
X89450102Y-98819258D01*
X89530543Y-98749493D01*
X90386488Y-98176272D02*
X90394037Y-98282484D01*
X90321144Y-98458461D01*
X90240704Y-98528227D01*
X90134493Y-98535775D01*
X89782539Y-98389991D01*
X89712773Y-98309550D01*
X89705225Y-98203339D01*
X89778117Y-98027362D01*
X89858557Y-97957596D01*
X89964769Y-97950048D01*
X90052757Y-97986494D01*
X89958516Y-98462883D01*
X89996793Y-97499431D02*
X90612713Y-97754553D01*
X90084782Y-97535877D02*
X90059010Y-97473659D01*
X90051462Y-97367448D01*
X90106131Y-97235465D01*
X90186572Y-97165699D01*
X90292783Y-97158151D01*
X90776720Y-97358604D01*
X90896733Y-96944433D02*
X90977173Y-96874668D01*
X91050065Y-96698691D01*
X91042517Y-96592479D01*
X90972752Y-96512039D01*
X90928757Y-96493816D01*
X90822546Y-96501364D01*
X90742105Y-96571129D01*
X90687436Y-96703112D01*
X90606996Y-96772878D01*
X90500785Y-96780426D01*
X90456790Y-96762203D01*
X90387025Y-96681763D01*
X90379477Y-96575551D01*
X90434146Y-96443568D01*
X90514586Y-96373803D01*
X91323411Y-96038777D02*
X91242970Y-96108542D01*
X91180753Y-96134313D01*
X91074541Y-96141862D01*
X90810576Y-96032523D01*
X90740810Y-95952083D01*
X90715039Y-95889866D01*
X90707491Y-95783654D01*
X90762160Y-95651671D01*
X90842600Y-95581906D01*
X90904818Y-95556135D01*
X91011029Y-95548587D01*
X91274995Y-95657925D01*
X91344760Y-95738365D01*
X91370531Y-95800582D01*
X91378080Y-95906794D01*
X91323411Y-96038777D01*
X91614979Y-95334868D02*
X90999059Y-95079746D01*
X91175036Y-95152638D02*
X91105271Y-95072198D01*
X91079500Y-95009981D01*
X91071951Y-94903769D01*
X91108397Y-94815780D01*
X91848752Y-95019360D02*
X92140320Y-94315452D01*
X91691534Y-93407964D02*
X92307454Y-93663086D01*
X91248465Y-93482151D02*
X91817264Y-93975468D01*
X92054163Y-93403542D01*
X97204199Y-97314612D02*
X97284639Y-97244847D01*
X97357532Y-97068870D01*
X97349983Y-96962658D01*
X97280218Y-96882218D01*
X97236224Y-96863995D01*
X97130012Y-96871543D01*
X97049572Y-96941309D01*
X96994903Y-97073291D01*
X96914462Y-97143057D01*
X96808251Y-97150605D01*
X96764257Y-97132382D01*
X96694491Y-97051942D01*
X96686943Y-96945730D01*
X96741612Y-96813748D01*
X96822052Y-96743982D01*
X95811842Y-99805018D02*
X96103410Y-99101110D01*
X94839826Y-102151672D02*
X95131394Y-101447764D01*
X95337564Y-101945502D02*
X94633656Y-101653934D01*
%TO.C,ir_sensor_3*%
X110213388Y-66848242D02*
X109741983Y-66376838D01*
X109506281Y-66141135D02*
X109506281Y-66208479D01*
X109573625Y-66208479D01*
X109573625Y-66141135D01*
X109506281Y-66141135D01*
X109573625Y-66208479D01*
X110550106Y-66511525D02*
X110078701Y-66040120D01*
X110213388Y-66174807D02*
X110179716Y-66073792D01*
X110179716Y-66006448D01*
X110213388Y-65905433D01*
X110280732Y-65838090D01*
X110886823Y-66309494D02*
X111425571Y-65770746D01*
X111459243Y-65535044D02*
X111560258Y-65501372D01*
X111694945Y-65366685D01*
X111728617Y-65265670D01*
X111694945Y-65164655D01*
X111661273Y-65130983D01*
X111560258Y-65097311D01*
X111459243Y-65130983D01*
X111358228Y-65231998D01*
X111257212Y-65265670D01*
X111156197Y-65231998D01*
X111122525Y-65198326D01*
X111088854Y-65097311D01*
X111122525Y-64996296D01*
X111223541Y-64895281D01*
X111324556Y-64861609D01*
X112334708Y-64659578D02*
X112301037Y-64760594D01*
X112166350Y-64895281D01*
X112065334Y-64928952D01*
X111964319Y-64895281D01*
X111694945Y-64625907D01*
X111661273Y-64524891D01*
X111694945Y-64423876D01*
X111829632Y-64289189D01*
X111930647Y-64255517D01*
X112031663Y-64289189D01*
X112099006Y-64356533D01*
X111829632Y-64760594D01*
X112233693Y-63885128D02*
X112705098Y-64356533D01*
X112301037Y-63952472D02*
X112301037Y-63885128D01*
X112334708Y-63784113D01*
X112435724Y-63683098D01*
X112536739Y-63649426D01*
X112637754Y-63683098D01*
X113008143Y-64053487D01*
X113277517Y-63716769D02*
X113378533Y-63683098D01*
X113513220Y-63548411D01*
X113546891Y-63447395D01*
X113513220Y-63346380D01*
X113479548Y-63312708D01*
X113378533Y-63279037D01*
X113277517Y-63312708D01*
X113176502Y-63413724D01*
X113075487Y-63447395D01*
X112974472Y-63413724D01*
X112940800Y-63380052D01*
X112907128Y-63279037D01*
X112940800Y-63178021D01*
X113041815Y-63077006D01*
X113142830Y-63043334D01*
X114018296Y-63043334D02*
X113917281Y-63077006D01*
X113849937Y-63077006D01*
X113748922Y-63043334D01*
X113546891Y-62841304D01*
X113513220Y-62740289D01*
X113513220Y-62672945D01*
X113546891Y-62571930D01*
X113647907Y-62470915D01*
X113748922Y-62437243D01*
X113816265Y-62437243D01*
X113917281Y-62470915D01*
X114119311Y-62672945D01*
X114152983Y-62773960D01*
X114152983Y-62841304D01*
X114119311Y-62942319D01*
X114018296Y-63043334D01*
X114557044Y-62504586D02*
X114085639Y-62033182D01*
X114220326Y-62167869D02*
X114186655Y-62066854D01*
X114186655Y-61999510D01*
X114220326Y-61898495D01*
X114287670Y-61831151D01*
X114893761Y-62302556D02*
X115432509Y-61763808D01*
X114759074Y-60888342D02*
X115196807Y-60450609D01*
X115230479Y-60955686D01*
X115331494Y-60854670D01*
X115432509Y-60820999D01*
X115499853Y-60820999D01*
X115600868Y-60854670D01*
X115769227Y-61023029D01*
X115802899Y-61124045D01*
X115802899Y-61191388D01*
X115769227Y-61292403D01*
X115567197Y-61494434D01*
X115466181Y-61528106D01*
X115398838Y-61528106D01*
X118963195Y-66472532D02*
X119064210Y-66438861D01*
X119198897Y-66304174D01*
X119232569Y-66203158D01*
X119198897Y-66102143D01*
X119165225Y-66068471D01*
X119064210Y-66034800D01*
X118963195Y-66068471D01*
X118862179Y-66169487D01*
X118761164Y-66203158D01*
X118660149Y-66169487D01*
X118626477Y-66135815D01*
X118592805Y-66034800D01*
X118626477Y-65933784D01*
X118727492Y-65832769D01*
X118828508Y-65799097D01*
X116723787Y-68240535D02*
X117262535Y-67701787D01*
X114927736Y-70036586D02*
X115466484Y-69497838D01*
X115466484Y-70036586D02*
X114927736Y-69497838D01*
%TO.C,goal_kleur1*%
X208677333Y-171997714D02*
X208677333Y-172807238D01*
X208629714Y-172902476D01*
X208582095Y-172950095D01*
X208486857Y-172997714D01*
X208344000Y-172997714D01*
X208248761Y-172950095D01*
X208677333Y-172616761D02*
X208582095Y-172664380D01*
X208391619Y-172664380D01*
X208296380Y-172616761D01*
X208248761Y-172569142D01*
X208201142Y-172473904D01*
X208201142Y-172188190D01*
X208248761Y-172092952D01*
X208296380Y-172045333D01*
X208391619Y-171997714D01*
X208582095Y-171997714D01*
X208677333Y-172045333D01*
X209296380Y-172664380D02*
X209201142Y-172616761D01*
X209153523Y-172569142D01*
X209105904Y-172473904D01*
X209105904Y-172188190D01*
X209153523Y-172092952D01*
X209201142Y-172045333D01*
X209296380Y-171997714D01*
X209439238Y-171997714D01*
X209534476Y-172045333D01*
X209582095Y-172092952D01*
X209629714Y-172188190D01*
X209629714Y-172473904D01*
X209582095Y-172569142D01*
X209534476Y-172616761D01*
X209439238Y-172664380D01*
X209296380Y-172664380D01*
X210486857Y-172664380D02*
X210486857Y-172140571D01*
X210439238Y-172045333D01*
X210344000Y-171997714D01*
X210153523Y-171997714D01*
X210058285Y-172045333D01*
X210486857Y-172616761D02*
X210391619Y-172664380D01*
X210153523Y-172664380D01*
X210058285Y-172616761D01*
X210010666Y-172521523D01*
X210010666Y-172426285D01*
X210058285Y-172331047D01*
X210153523Y-172283428D01*
X210391619Y-172283428D01*
X210486857Y-172235809D01*
X211105904Y-172664380D02*
X211010666Y-172616761D01*
X210963047Y-172521523D01*
X210963047Y-171664380D01*
X211248761Y-172759619D02*
X212010666Y-172759619D01*
X212248761Y-172664380D02*
X212248761Y-171664380D01*
X212344000Y-172283428D02*
X212629714Y-172664380D01*
X212629714Y-171997714D02*
X212248761Y-172378666D01*
X213201142Y-172664380D02*
X213105904Y-172616761D01*
X213058285Y-172521523D01*
X213058285Y-171664380D01*
X213963047Y-172616761D02*
X213867809Y-172664380D01*
X213677333Y-172664380D01*
X213582095Y-172616761D01*
X213534476Y-172521523D01*
X213534476Y-172140571D01*
X213582095Y-172045333D01*
X213677333Y-171997714D01*
X213867809Y-171997714D01*
X213963047Y-172045333D01*
X214010666Y-172140571D01*
X214010666Y-172235809D01*
X213534476Y-172331047D01*
X214867809Y-171997714D02*
X214867809Y-172664380D01*
X214439238Y-171997714D02*
X214439238Y-172521523D01*
X214486857Y-172616761D01*
X214582095Y-172664380D01*
X214724952Y-172664380D01*
X214820190Y-172616761D01*
X214867809Y-172569142D01*
X215344000Y-172664380D02*
X215344000Y-171997714D01*
X215344000Y-172188190D02*
X215391619Y-172092952D01*
X215439238Y-172045333D01*
X215534476Y-171997714D01*
X215629714Y-171997714D01*
X216486857Y-172664380D02*
X215915428Y-172664380D01*
X216201142Y-172664380D02*
X216201142Y-171664380D01*
X216105904Y-171807238D01*
X216010666Y-171902476D01*
X215915428Y-171950095D01*
%TO.C,BZ1*%
X179713047Y-174680571D02*
X179855904Y-174728190D01*
X179903523Y-174775809D01*
X179951142Y-174871047D01*
X179951142Y-175013904D01*
X179903523Y-175109142D01*
X179855904Y-175156761D01*
X179760666Y-175204380D01*
X179379714Y-175204380D01*
X179379714Y-174204380D01*
X179713047Y-174204380D01*
X179808285Y-174252000D01*
X179855904Y-174299619D01*
X179903523Y-174394857D01*
X179903523Y-174490095D01*
X179855904Y-174585333D01*
X179808285Y-174632952D01*
X179713047Y-174680571D01*
X179379714Y-174680571D01*
X180284476Y-174204380D02*
X180951142Y-174204380D01*
X180284476Y-175204380D01*
X180951142Y-175204380D01*
X181855904Y-175204380D02*
X181284476Y-175204380D01*
X181570190Y-175204380D02*
X181570190Y-174204380D01*
X181474952Y-174347238D01*
X181379714Y-174442476D01*
X181284476Y-174490095D01*
%TD*%
M02*
