%TF.GenerationSoftware,KiCad,Pcbnew,5.1.9+dfsg1-1+deb11u1*%
%TF.CreationDate,2024-06-09T12:20:22+02:00*%
%TF.ProjectId,pcb_boven,7063625f-626f-4766-956e-2e6b69636164,rev?*%
%TF.SameCoordinates,Original*%
%TF.FileFunction,Soldermask,Bot*%
%TF.FilePolarity,Negative*%
%FSLAX46Y46*%
G04 Gerber Fmt 4.6, Leading zero omitted, Abs format (unit mm)*
G04 Created by KiCad (PCBNEW 5.1.9+dfsg1-1+deb11u1) date 2024-06-09 12:20:22*
%MOMM*%
%LPD*%
G01*
G04 APERTURE LIST*
%ADD10C,1.524000*%
%ADD11C,2.794000*%
%ADD12C,6.000000*%
%ADD13C,4.000000*%
%ADD14R,3.800000X3.800000*%
%ADD15O,1.600000X1.600000*%
%ADD16R,1.600000X1.600000*%
G04 APERTURE END LIST*
D10*
%TO.C,ir_sensor_9*%
X97790000Y-182880000D03*
X100330000Y-182880000D03*
X102870000Y-182880000D03*
%TD*%
%TO.C,ir_sensor_1*%
X102870000Y-17780000D03*
X100330000Y-17780000D03*
X97790000Y-17780000D03*
%TD*%
%TO.C,ir_sensor_2*%
X70926654Y-23157984D03*
X68580000Y-24130000D03*
X66233346Y-25102016D03*
%TD*%
%TO.C,ir_sensor_8*%
X66233346Y-175557984D03*
X68580000Y-176530000D03*
X70926654Y-177502016D03*
%TD*%
%TO.C,ir_sensor_12*%
X175557984Y-134426654D03*
X176530000Y-132080000D03*
X177502016Y-129733346D03*
%TD*%
%TO.C,control_board1*%
X73660000Y-99060000D03*
X73660000Y-101600000D03*
X73660000Y-104140000D03*
X73660000Y-106680000D03*
X73660000Y-109220000D03*
X73660000Y-111760000D03*
X73660000Y-114300000D03*
X73660000Y-116840000D03*
X73660000Y-119380000D03*
X73660000Y-121920000D03*
X73660000Y-124460000D03*
X73660000Y-127000000D03*
X73660000Y-129540000D03*
X73660000Y-132080000D03*
X73660000Y-134620000D03*
X73660000Y-137160000D03*
X73660000Y-139700000D03*
X73660000Y-142240000D03*
X73660000Y-144780000D03*
X73660000Y-147320000D03*
X73660000Y-149860000D03*
X73660000Y-152400000D03*
X73660000Y-154940000D03*
X73660000Y-157480000D03*
X58420000Y-157480000D03*
X58420000Y-154940000D03*
X58420000Y-152400000D03*
X58420000Y-149860000D03*
X58420000Y-147320000D03*
X58420000Y-144780000D03*
X58420000Y-142240000D03*
X58420000Y-139700000D03*
X58420000Y-137160000D03*
X58420000Y-134620000D03*
X58420000Y-132080000D03*
X58420000Y-129540000D03*
X58420000Y-127000000D03*
X58420000Y-124460000D03*
X58420000Y-121920000D03*
X58420000Y-119380000D03*
X58420000Y-116840000D03*
X58420000Y-114300000D03*
X58420000Y-111760000D03*
X58420000Y-109220000D03*
X58420000Y-106680000D03*
X58420000Y-104140000D03*
X58420000Y-101600000D03*
X71120000Y-144780000D03*
X68580000Y-144780000D03*
X66040000Y-144780000D03*
X63500000Y-144780000D03*
X60960000Y-144780000D03*
X58420000Y-99060000D03*
%TD*%
%TO.C,U2*%
X116459000Y-132461000D03*
X116459000Y-135001000D03*
D11*
X115062000Y-95123000D03*
X85598000Y-95123000D03*
D10*
X84201000Y-135001000D03*
X84201000Y-132461000D03*
X84201000Y-129921000D03*
X84201000Y-127381000D03*
X84201000Y-124841000D03*
X84201000Y-122301000D03*
X84201000Y-119761000D03*
X116459000Y-117221000D03*
X116459000Y-119761000D03*
X116459000Y-122301000D03*
X116459000Y-124841000D03*
X116459000Y-127381000D03*
X116459000Y-129921000D03*
X84201000Y-117221000D03*
%TD*%
%TO.C,xt60*%
G36*
G01*
X140510000Y-59920000D02*
X140510000Y-56920000D01*
G75*
G02*
X142010000Y-55420000I1500000J0D01*
G01*
X145010000Y-55420000D01*
G75*
G02*
X146510000Y-56920000I0J-1500000D01*
G01*
X146510000Y-59920000D01*
G75*
G02*
X145010000Y-61420000I-1500000J0D01*
G01*
X142010000Y-61420000D01*
G75*
G02*
X140510000Y-59920000I0J1500000D01*
G01*
G37*
D12*
X150710000Y-58420000D03*
%TD*%
D13*
%TO.C,xt30*%
X152320000Y-49530000D03*
D14*
X147320000Y-49530000D03*
%TD*%
D10*
%TO.C,U1*%
X137160000Y-99060000D03*
X134620000Y-99060000D03*
X132080000Y-99060000D03*
X129540000Y-99060000D03*
X127000000Y-99060000D03*
%TD*%
%TO.C,R7*%
X146050000Y-121920000D03*
X140970000Y-121920000D03*
%TD*%
%TO.C,R6*%
X146050000Y-124460000D03*
X140970000Y-124460000D03*
%TD*%
%TO.C,R5*%
X146050000Y-127000000D03*
X140970000Y-127000000D03*
%TD*%
%TO.C,R4*%
X146050000Y-129540000D03*
X140970000Y-129540000D03*
%TD*%
%TO.C,R3*%
X146050000Y-132080000D03*
X140970000Y-132080000D03*
%TD*%
%TO.C,R2*%
X146050000Y-134620000D03*
X140970000Y-134620000D03*
%TD*%
%TO.C,R1*%
X129540000Y-140970000D03*
X124460000Y-140970000D03*
%TD*%
D15*
%TO.C,Portmultiplexer1*%
X58420000Y-53340000D03*
X50800000Y-86360000D03*
X58420000Y-55880000D03*
X50800000Y-83820000D03*
X58420000Y-58420000D03*
X50800000Y-81280000D03*
X58420000Y-60960000D03*
X50800000Y-78740000D03*
X58420000Y-63500000D03*
X50800000Y-76200000D03*
X58420000Y-66040000D03*
X50800000Y-73660000D03*
X58420000Y-68580000D03*
X50800000Y-71120000D03*
X58420000Y-71120000D03*
X50800000Y-68580000D03*
X58420000Y-73660000D03*
X50800000Y-66040000D03*
X58420000Y-76200000D03*
X50800000Y-63500000D03*
X58420000Y-78740000D03*
X50800000Y-60960000D03*
X58420000Y-81280000D03*
X50800000Y-58420000D03*
X58420000Y-83820000D03*
X50800000Y-55880000D03*
X58420000Y-86360000D03*
D16*
X50800000Y-53340000D03*
%TD*%
D10*
%TO.C,ir_sensor_16*%
X134426654Y-25102016D03*
X132080000Y-24130000D03*
X129733346Y-23157984D03*
%TD*%
%TO.C,ir_sensor_15*%
X160546051Y-43706051D03*
X158750000Y-41910000D03*
X156953949Y-40113949D03*
%TD*%
%TO.C,ir_sensor_14*%
X177502016Y-70926654D03*
X176530000Y-68580000D03*
X175557984Y-66233346D03*
%TD*%
%TO.C,ir_sensor_13*%
X182880000Y-102870000D03*
X182880000Y-100330000D03*
X182880000Y-97790000D03*
%TD*%
%TO.C,ir_sensor_11*%
X156953949Y-160546051D03*
X158750000Y-158750000D03*
X160546051Y-156953949D03*
%TD*%
%TO.C,ir_sensor_10*%
X129733346Y-178772016D03*
X132080000Y-177800000D03*
X134426654Y-176827984D03*
%TD*%
%TO.C,ir_sensor_7*%
X40113949Y-156953949D03*
X41910000Y-158750000D03*
X43706051Y-160546051D03*
%TD*%
%TO.C,ir_sensor_6*%
X23157984Y-129733346D03*
X24130000Y-132080000D03*
X25102016Y-134426654D03*
%TD*%
%TO.C,ir_sensor_5*%
X17780000Y-97790000D03*
X17780000Y-100330000D03*
X17780000Y-102870000D03*
%TD*%
%TO.C,ir_sensor_4*%
X23832016Y-66233346D03*
X22860000Y-68580000D03*
X21887984Y-70926654D03*
%TD*%
%TO.C,ir_sensor_3*%
X43706051Y-40113949D03*
X41910000Y-41910000D03*
X40113949Y-43706051D03*
%TD*%
%TO.C,goal_kleur1*%
X129540000Y-146050000D03*
X124460000Y-146050000D03*
%TD*%
%TO.C,dip_swith_instellinen1*%
X153670000Y-134620000D03*
X153670000Y-132080000D03*
X153670000Y-129540000D03*
X153670000Y-127000000D03*
X153670000Y-124460000D03*
X153670000Y-121920000D03*
X161290000Y-121920000D03*
X161290000Y-124460000D03*
X161290000Y-127000000D03*
X161290000Y-129540000D03*
X161290000Y-132080000D03*
X161290000Y-134620000D03*
%TD*%
%TO.C,BZ1*%
X97790000Y-143510000D03*
X92710000Y-143510000D03*
%TD*%
M02*
