%TF.GenerationSoftware,KiCad,Pcbnew,5.1.9+dfsg1-1+deb11u1*%
%TF.CreationDate,2024-06-09T17:33:59+02:00*%
%TF.ProjectId,pcb_boven,7063625f-626f-4766-956e-2e6b69636164,rev?*%
%TF.SameCoordinates,Original*%
%TF.FileFunction,Copper,L1,Top*%
%TF.FilePolarity,Positive*%
%FSLAX46Y46*%
G04 Gerber Fmt 4.6, Leading zero omitted, Abs format (unit mm)*
G04 Created by KiCad (PCBNEW 5.1.9+dfsg1-1+deb11u1) date 2024-06-09 17:33:59*
%MOMM*%
%LPD*%
G01*
G04 APERTURE LIST*
%TA.AperFunction,ComponentPad*%
%ADD10C,0.762000*%
%TD*%
%TA.AperFunction,ComponentPad*%
%ADD11O,1.600000X1.600000*%
%TD*%
%TA.AperFunction,ComponentPad*%
%ADD12R,1.600000X1.600000*%
%TD*%
%TA.AperFunction,ComponentPad*%
%ADD13C,1.524000*%
%TD*%
%TA.AperFunction,ComponentPad*%
%ADD14C,1.300000*%
%TD*%
%TA.AperFunction,ComponentPad*%
%ADD15C,1.600000*%
%TD*%
%TA.AperFunction,ComponentPad*%
%ADD16R,1.300000X1.300000*%
%TD*%
%TA.AperFunction,ComponentPad*%
%ADD17C,2.794000*%
%TD*%
%TA.AperFunction,ComponentPad*%
%ADD18C,6.000000*%
%TD*%
%TA.AperFunction,ComponentPad*%
%ADD19C,4.000000*%
%TD*%
%TA.AperFunction,ComponentPad*%
%ADD20R,3.800000X3.800000*%
%TD*%
%TA.AperFunction,SMDPad,CuDef*%
%ADD21R,1.200000X1.800000*%
%TD*%
%TA.AperFunction,SMDPad,CuDef*%
%ADD22R,3.200000X1.200000*%
%TD*%
%TA.AperFunction,ViaPad*%
%ADD23C,0.800000*%
%TD*%
%TA.AperFunction,Conductor*%
%ADD24C,0.250000*%
%TD*%
G04 APERTURE END LIST*
D10*
%TO.P,screwhoel1,1*%
%TO.N,N/C*%
X185610500Y-220468500D03*
%TD*%
%TO.P,screwhoel1,1*%
%TO.N,N/C*%
X112968290Y-178528499D03*
%TD*%
%TO.P,screwhoel1,1*%
%TO.N,N/C*%
X185674000Y-52768500D03*
%TD*%
%TO.P,screwhoel1,1*%
%TO.N,N/C*%
X258252710Y-178528499D03*
%TD*%
%TO.P,screwhoel1,1*%
%TO.N,N/C*%
X258252710Y-94648501D03*
%TD*%
%TO.P,screwhoel1,1*%
%TO.N,N/C*%
X112968290Y-94648501D03*
%TD*%
%TO.P,screwhoel1,1*%
%TO.N,gnd*%
X185674000Y-52768500D03*
%TD*%
D11*
%TO.P,Portmultiplexer1,28*%
%TO.N,Net-(Portmultiplexer1-Pad28)*%
X157988000Y-92964000D03*
%TO.P,Portmultiplexer1,14*%
%TO.N,Net-(Portmultiplexer1-Pad14)*%
X150368000Y-125984000D03*
%TO.P,Portmultiplexer1,27*%
%TO.N,Net-(Portmultiplexer1-Pad27)*%
X157988000Y-95504000D03*
%TO.P,Portmultiplexer1,13*%
%TO.N,sd6*%
X150368000Y-123444000D03*
%TO.P,Portmultiplexer1,26*%
%TO.N,Net-(Portmultiplexer1-Pad26)*%
X157988000Y-98044000D03*
%TO.P,Portmultiplexer1,12*%
%TO.N,sc6*%
X150368000Y-120904000D03*
%TO.P,Portmultiplexer1,25*%
%TO.N,Net-(Portmultiplexer1-Pad25)*%
X157988000Y-100584000D03*
%TO.P,Portmultiplexer1,11*%
%TO.N,Net-(Portmultiplexer1-Pad11)*%
X150368000Y-118364000D03*
%TO.P,Portmultiplexer1,24*%
%TO.N,Net-(Portmultiplexer1-Pad24)*%
X157988000Y-103124000D03*
%TO.P,Portmultiplexer1,10*%
%TO.N,gnd*%
X150368000Y-115824000D03*
%TO.P,Portmultiplexer1,23*%
%TO.N,Net-(Portmultiplexer1-Pad23)*%
X157988000Y-105664000D03*
%TO.P,Portmultiplexer1,9*%
%TO.N,3.3v*%
X150368000Y-113284000D03*
%TO.P,Portmultiplexer1,22*%
%TO.N,Net-(Portmultiplexer1-Pad22)*%
X157988000Y-108204000D03*
%TO.P,Portmultiplexer1,8*%
%TO.N,Net-(Portmultiplexer1-Pad8)*%
X150368000Y-110744000D03*
%TO.P,Portmultiplexer1,21*%
%TO.N,Net-(Portmultiplexer1-Pad21)*%
X157988000Y-110744000D03*
%TO.P,Portmultiplexer1,7*%
%TO.N,Net-(Portmultiplexer1-Pad7)*%
X150368000Y-108204000D03*
%TO.P,Portmultiplexer1,20*%
%TO.N,Net-(Portmultiplexer1-Pad20)*%
X157988000Y-113284000D03*
%TO.P,Portmultiplexer1,6*%
%TO.N,Net-(Portmultiplexer1-Pad6)*%
X150368000Y-105664000D03*
%TO.P,Portmultiplexer1,19*%
%TO.N,Net-(Portmultiplexer1-Pad19)*%
X157988000Y-115824000D03*
%TO.P,Portmultiplexer1,5*%
%TO.N,Net-(Portmultiplexer1-Pad5)*%
X150368000Y-103124000D03*
%TO.P,Portmultiplexer1,18*%
%TO.N,Net-(Portmultiplexer1-Pad18)*%
X157988000Y-118364000D03*
%TO.P,Portmultiplexer1,4*%
%TO.N,Net-(Portmultiplexer1-Pad4)*%
X150368000Y-100584000D03*
%TO.P,Portmultiplexer1,17*%
%TO.N,gnd*%
X157988000Y-120904000D03*
%TO.P,Portmultiplexer1,3*%
%TO.N,Net-(Portmultiplexer1-Pad3)*%
X150368000Y-98044000D03*
%TO.P,Portmultiplexer1,16*%
%TO.N,gnd*%
X157988000Y-123444000D03*
%TO.P,Portmultiplexer1,2*%
%TO.N,Net-(Portmultiplexer1-Pad2)*%
X150368000Y-95504000D03*
%TO.P,Portmultiplexer1,15*%
%TO.N,gnd*%
X157988000Y-125984000D03*
D12*
%TO.P,Portmultiplexer1,1*%
%TO.N,Net-(Portmultiplexer1-Pad1)*%
X150368000Y-92964000D03*
%TD*%
D13*
%TO.P,pcb_conn1,10*%
%TO.N,B*%
X199644000Y-111252000D03*
%TO.P,pcb_conn1,9*%
%TO.N,A*%
X197104000Y-111252000D03*
%TO.P,pcb_conn1,8*%
%TO.N,3.3v*%
X194564000Y-111252000D03*
%TO.P,pcb_conn1,7*%
%TO.N,Net-(pcb_conn1-Pad7)*%
X192024000Y-111252000D03*
%TO.P,pcb_conn1,6*%
%TO.N,sd6*%
X189484000Y-111252000D03*
%TO.P,pcb_conn1,5*%
%TO.N,sc6*%
X186944000Y-111252000D03*
%TO.P,pcb_conn1,4*%
%TO.N,sda*%
X184404000Y-111252000D03*
%TO.P,pcb_conn1,3*%
%TO.N,scl*%
X181864000Y-111252000D03*
%TO.P,pcb_conn1,2*%
%TO.N,gnd*%
X179324000Y-111252000D03*
%TO.P,pcb_conn1,1*%
%TO.N,5v*%
X176784000Y-111252000D03*
%TD*%
D14*
%TO.P,control_board1,66*%
%TO.N,Net-(control_board1-Pad66)*%
X155194000Y-134842000D03*
%TO.P,control_board1,67*%
%TO.N,Net-(control_board1-Pad67)*%
X152654000Y-134842000D03*
D15*
%TO.P,control_board1,54*%
%TO.N,Net-(control_board1-Pad54)*%
X159004000Y-179832000D03*
%TO.P,control_board1,53*%
%TO.N,Net-(control_board1-Pad53)*%
X156464000Y-179832000D03*
%TO.P,control_board1,52*%
%TO.N,Net-(control_board1-Pad52)*%
X153924000Y-179832000D03*
%TO.P,control_board1,51*%
%TO.N,Net-(control_board1-Pad51)*%
X151384000Y-179832000D03*
%TO.P,control_board1,50*%
%TO.N,Net-(control_board1-Pad50)*%
X148844000Y-179832000D03*
D14*
%TO.P,control_board1,62*%
%TO.N,Net-(control_board1-Pad62)*%
X155105600Y-147082000D03*
%TO.P,control_board1,63*%
%TO.N,Net-(control_board1-Pad63)*%
X155105600Y-149082000D03*
%TO.P,control_board1,64*%
%TO.N,Net-(control_board1-Pad64)*%
X157105600Y-149082000D03*
%TO.P,control_board1,61*%
%TO.N,Net-(control_board1-Pad61)*%
X157105600Y-147082000D03*
%TO.P,control_board1,65*%
%TO.N,Net-(control_board1-Pad65)*%
X159105600Y-149082000D03*
D16*
%TO.P,control_board1,60*%
%TO.N,Net-(control_board1-Pad60)*%
X159105600Y-147082000D03*
D15*
%TO.P,control_board1,17*%
%TO.N,Net-(control_board1-Pad17)*%
X146304000Y-174752000D03*
%TO.P,control_board1,18*%
%TO.N,Net-(control_board1-Pad18)*%
X146304000Y-177292000D03*
%TO.P,control_board1,19*%
%TO.N,Net-(control_board1-Pad19)*%
X146304000Y-179832000D03*
%TO.P,control_board1,20*%
%TO.N,Net-(control_board1-Pad20)*%
X146304000Y-182372000D03*
%TO.P,control_board1,16*%
%TO.N,A*%
X146304000Y-172212000D03*
%TO.P,control_board1,15*%
%TO.N,Net-(control_board1-Pad15)*%
X146304000Y-169672000D03*
%TO.P,control_board1,14*%
%TO.N,Net-(U2-Pad3)*%
X146304000Y-167132000D03*
%TO.P,control_board1,21*%
%TO.N,Net-(control_board1-Pad21)*%
X146304000Y-184912000D03*
%TO.P,control_board1,22*%
%TO.N,Net-(control_board1-Pad22)*%
X146304000Y-187452000D03*
%TO.P,control_board1,23*%
%TO.N,Net-(control_board1-Pad23)*%
X146304000Y-189992000D03*
%TO.P,control_board1,24*%
%TO.N,Net-(control_board1-Pad24)*%
X146304000Y-192532000D03*
%TO.P,control_board1,25*%
%TO.N,Net-(control_board1-Pad25)*%
X161544000Y-192532000D03*
%TO.P,control_board1,26*%
%TO.N,Net-(control_board1-Pad26)*%
X161544000Y-189992000D03*
%TO.P,control_board1,27*%
%TO.N,Net-(control_board1-Pad27)*%
X161544000Y-187452000D03*
%TO.P,control_board1,28*%
%TO.N,Net-(U2-Pad4)*%
X161544000Y-184912000D03*
%TO.P,control_board1,29*%
%TO.N,Net-(control_board1-Pad29)*%
X161544000Y-182372000D03*
%TO.P,control_board1,30*%
%TO.N,Net-(control_board1-Pad30)*%
X161544000Y-179832000D03*
%TO.P,control_board1,31*%
%TO.N,Net-(control_board1-Pad31)*%
X161544000Y-177292000D03*
%TO.P,control_board1,32*%
%TO.N,Net-(control_board1-Pad32)*%
X161544000Y-174752000D03*
%TO.P,control_board1,33*%
%TO.N,Net-(control_board1-Pad33)*%
X161544000Y-172212000D03*
%TO.P,control_board1,34*%
%TO.N,Net-(control_board1-Pad34)*%
X161544000Y-169672000D03*
%TO.P,control_board1,13*%
%TO.N,Net-(U2-Pad2)*%
X146304000Y-164592000D03*
%TO.P,control_board1,12*%
%TO.N,Net-(U2-Pad5)*%
X146304000Y-162052000D03*
%TO.P,control_board1,11*%
%TO.N,B*%
X146304000Y-159512000D03*
%TO.P,control_board1,10*%
%TO.N,Net-(BZ1-Pad1)*%
X146304000Y-156972000D03*
%TO.P,control_board1,9*%
%TO.N,Net-(R7-Pad2)*%
X146304000Y-154432000D03*
%TO.P,control_board1,8*%
%TO.N,Net-(R6-Pad2)*%
X146304000Y-151892000D03*
%TO.P,control_board1,7*%
%TO.N,Net-(R5-Pad2)*%
X146304000Y-149352000D03*
%TO.P,control_board1,6*%
%TO.N,Net-(R4-Pad2)*%
X146304000Y-146812000D03*
%TO.P,control_board1,5*%
%TO.N,Net-(R3-Pad2)*%
X146304000Y-144272000D03*
%TO.P,control_board1,4*%
%TO.N,Net-(R2-Pad2)*%
X146304000Y-141732000D03*
%TO.P,control_board1,3*%
%TO.N,Net-(control_board1-Pad3)*%
X146304000Y-139192000D03*
%TO.P,control_board1,2*%
%TO.N,Net-(control_board1-Pad2)*%
X146304000Y-136652000D03*
D12*
%TO.P,control_board1,1*%
%TO.N,Net-(control_board1-Pad1)*%
X146304000Y-134112000D03*
D15*
%TO.P,control_board1,35*%
%TO.N,Net-(control_board1-Pad35)*%
X161544000Y-167132000D03*
%TO.P,control_board1,36*%
%TO.N,Net-(control_board1-Pad36)*%
X161544000Y-164592000D03*
%TO.P,control_board1,37*%
%TO.N,Net-(control_board1-Pad37)*%
X161544000Y-162052000D03*
%TO.P,control_board1,38*%
%TO.N,Net-(control_board1-Pad38)*%
X161544000Y-159512000D03*
%TO.P,control_board1,39*%
%TO.N,Net-(control_board1-Pad39)*%
X161544000Y-156972000D03*
%TO.P,control_board1,40*%
%TO.N,sda*%
X161544000Y-154432000D03*
%TO.P,control_board1,41*%
%TO.N,scl*%
X161544000Y-151892000D03*
%TO.P,control_board1,42*%
%TO.N,Net-(control_board1-Pad42)*%
X161544000Y-149352000D03*
%TO.P,control_board1,43*%
%TO.N,Net-(control_board1-Pad43)*%
X161544000Y-146812000D03*
%TO.P,control_board1,44*%
%TO.N,Net-(control_board1-Pad44)*%
X161544000Y-144272000D03*
%TO.P,control_board1,45*%
%TO.N,Net-(control_board1-Pad45)*%
X161544000Y-141732000D03*
%TO.P,control_board1,46*%
%TO.N,Net-(control_board1-Pad46)*%
X161544000Y-139192000D03*
%TO.P,control_board1,47*%
%TO.N,gnd*%
X161544000Y-136652000D03*
%TO.P,control_board1,48*%
%TO.N,5v*%
X161544000Y-134112000D03*
D12*
%TO.P,control_board1,55*%
%TO.N,Net-(control_board1-Pad55)*%
X149354800Y-140411200D03*
D15*
%TO.P,control_board1,56*%
%TO.N,Net-(control_board1-Pad56)*%
X149354800Y-142951200D03*
%TO.P,control_board1,57*%
%TO.N,Net-(control_board1-Pad57)*%
X149354800Y-145491200D03*
%TO.P,control_board1,58*%
%TO.N,Net-(control_board1-Pad58)*%
X149354800Y-148031200D03*
%TO.P,control_board1,59*%
%TO.N,Net-(control_board1-Pad59)*%
X149354800Y-150571200D03*
%TO.P,control_board1,49*%
%TO.N,Net-(control_board1-Pad49)*%
X159004000Y-136652000D03*
%TD*%
D13*
%TO.P,ir_sensor_9,3*%
%TO.N,Net-(Portmultiplexer1-Pad1)*%
X183134000Y-234950000D03*
%TO.P,ir_sensor_9,2*%
%TO.N,gnd*%
X185674000Y-234950000D03*
%TO.P,ir_sensor_9,1*%
%TO.N,3.3v*%
X188214000Y-234950000D03*
%TD*%
%TO.P,ir_sensor_1,3*%
%TO.N,Net-(Portmultiplexer1-Pad21)*%
X188214000Y-38227000D03*
%TO.P,ir_sensor_1,2*%
%TO.N,gnd*%
X185674000Y-38227000D03*
%TO.P,ir_sensor_1,1*%
%TO.N,3.3v*%
X183134000Y-38227000D03*
%TD*%
%TO.P,ir_sensor_2,3*%
%TO.N,Net-(Portmultiplexer1-Pad22)*%
X150174654Y-44747984D03*
%TO.P,ir_sensor_2,2*%
%TO.N,gnd*%
X147828000Y-45720000D03*
%TO.P,ir_sensor_2,1*%
%TO.N,3.3v*%
X145481346Y-46692016D03*
%TD*%
%TO.P,ir_sensor_8,3*%
%TO.N,Net-(Portmultiplexer1-Pad28)*%
X145481346Y-226611984D03*
%TO.P,ir_sensor_8,2*%
%TO.N,gnd*%
X147828000Y-227584000D03*
%TO.P,ir_sensor_8,1*%
%TO.N,3.3v*%
X150174654Y-228556016D03*
%TD*%
%TO.P,ir_sensor_12,3*%
%TO.N,Net-(Portmultiplexer1-Pad4)*%
X275760984Y-176463654D03*
%TO.P,ir_sensor_12,2*%
%TO.N,gnd*%
X276733000Y-174117000D03*
%TO.P,ir_sensor_12,1*%
%TO.N,3.3v*%
X277705016Y-171770346D03*
%TD*%
%TO.P,U2,16*%
%TO.N,Net-(U2-Pad16)*%
X201803000Y-168783000D03*
%TO.P,U2,17*%
%TO.N,gnd*%
X201803000Y-171323000D03*
D17*
%TO.P,U2,screw*%
X200406000Y-131445000D03*
X170942000Y-131445000D03*
D13*
%TO.P,U2,9*%
%TO.N,3.3v*%
X169545000Y-171323000D03*
%TO.P,U2,8*%
%TO.N,Net-(U2-Pad8)*%
X169545000Y-168783000D03*
%TO.P,U2,7*%
%TO.N,Net-(U2-Pad7)*%
X169545000Y-166243000D03*
%TO.P,U2,6*%
%TO.N,Net-(U2-Pad6)*%
X169545000Y-163703000D03*
%TO.P,U2,5*%
%TO.N,Net-(U2-Pad5)*%
X169545000Y-161163000D03*
%TO.P,U2,4*%
%TO.N,Net-(U2-Pad4)*%
X169545000Y-158623000D03*
%TO.P,U2,3*%
%TO.N,Net-(U2-Pad3)*%
X169545000Y-156083000D03*
%TO.P,U2,10*%
%TO.N,Net-(U2-Pad10)*%
X201803000Y-153543000D03*
%TO.P,U2,11*%
%TO.N,Net-(U2-Pad11)*%
X201803000Y-156083000D03*
%TO.P,U2,12*%
%TO.N,Net-(U2-Pad12)*%
X201803000Y-158623000D03*
%TO.P,U2,13*%
%TO.N,Net-(U2-Pad13)*%
X201803000Y-161163000D03*
%TO.P,U2,14*%
%TO.N,Net-(U2-Pad14)*%
X201803000Y-163703000D03*
%TO.P,U2,15*%
%TO.N,Net-(R1-Pad2)*%
X201803000Y-166243000D03*
%TO.P,U2,2*%
%TO.N,Net-(U2-Pad2)*%
X169545000Y-153543000D03*
%TD*%
%TO.P,xt60,1*%
%TO.N,Net-(3V3_converter1-Pad1)*%
%TA.AperFunction,ComponentPad*%
G36*
G01*
X225854000Y-96242000D02*
X225854000Y-93242000D01*
G75*
G02*
X227354000Y-91742000I1500000J0D01*
G01*
X230354000Y-91742000D01*
G75*
G02*
X231854000Y-93242000I0J-1500000D01*
G01*
X231854000Y-96242000D01*
G75*
G02*
X230354000Y-97742000I-1500000J0D01*
G01*
X227354000Y-97742000D01*
G75*
G02*
X225854000Y-96242000I0J1500000D01*
G01*
G37*
%TD.AperFunction*%
D18*
%TO.P,xt60,2*%
%TO.N,Net-(3V3_converter1-Pad3)*%
X236054000Y-94742000D03*
%TD*%
D19*
%TO.P,xt30,2*%
%TO.N,Net-(3V3_converter1-Pad3)*%
X221535000Y-89916000D03*
D20*
%TO.P,xt30,1*%
%TO.N,Net-(3V3_converter1-Pad1)*%
X216535000Y-89916000D03*
%TD*%
D21*
%TO.P,5V_converter1,1*%
%TO.N,Net-(3V3_converter1-Pad3)*%
X231394000Y-118892000D03*
%TO.P,5V_converter1,2*%
%TO.N,Net-(3V3_converter1-Pad1)*%
X233934000Y-118892000D03*
%TO.P,5V_converter1,3*%
%TO.N,Net-(5V_converter1-Pad3)*%
X236474000Y-118892000D03*
%TO.P,5V_converter1,5*%
%TO.N,gnd*%
X241554000Y-118892000D03*
%TO.P,5V_converter1,6*%
%TO.N,Net-(5V_converter1-Pad6)*%
X244094000Y-118892000D03*
%TO.P,5V_converter1,7*%
%TO.N,Net-(5V_converter1-Pad7)*%
X244094000Y-108692000D03*
%TO.P,5V_converter1,8*%
%TO.N,5v*%
X241554000Y-108692000D03*
%TO.P,5V_converter1,10*%
%TO.N,Net-(5V_converter1-Pad10)*%
X236474000Y-108692000D03*
%TO.P,5V_converter1,11*%
%TO.N,Net-(5V_converter1-Pad11)*%
X233934000Y-108692000D03*
%TO.P,5V_converter1,12*%
%TO.N,Net-(5V_converter1-Pad12)*%
X231394000Y-108692000D03*
%TD*%
D22*
%TO.P,3V3_converter1,1*%
%TO.N,Net-(3V3_converter1-Pad1)*%
X164184000Y-82042000D03*
%TO.P,3V3_converter1,2*%
%TO.N,Net-(3V3_converter1-Pad2)*%
X164184000Y-92202000D03*
%TO.P,3V3_converter1,3*%
%TO.N,Net-(3V3_converter1-Pad3)*%
X164184000Y-97282000D03*
%TO.P,3V3_converter1,4*%
%TO.N,Net-(3V3_converter1-Pad4)*%
X189384000Y-97282000D03*
%TO.P,3V3_converter1,5*%
%TO.N,gnd*%
X189384000Y-92202000D03*
%TO.P,3V3_converter1,6*%
%TO.N,Net-(3V3_converter1-Pad6)*%
X189384000Y-87122000D03*
%TO.P,3V3_converter1,7*%
%TO.N,3.3v*%
X189384000Y-82042000D03*
%TD*%
D13*
%TO.P,U1,4*%
%TO.N,Net-(U1-Pad4)*%
X222504000Y-135382000D03*
%TO.P,U1,3*%
%TO.N,5v*%
X219964000Y-135382000D03*
%TO.P,U1,2*%
%TO.N,gnd*%
X217424000Y-135382000D03*
%TO.P,U1,1*%
%TO.N,sda*%
X214884000Y-135382000D03*
%TO.P,U1,0*%
%TO.N,scl*%
X212344000Y-135382000D03*
%TD*%
%TO.P,R7,2*%
%TO.N,Net-(R7-Pad2)*%
X231394000Y-158242000D03*
%TO.P,R7,1*%
%TO.N,gnd*%
X226314000Y-158242000D03*
%TD*%
%TO.P,R6,2*%
%TO.N,Net-(R6-Pad2)*%
X231394000Y-160782000D03*
%TO.P,R6,1*%
%TO.N,gnd*%
X226314000Y-160782000D03*
%TD*%
%TO.P,R5,2*%
%TO.N,Net-(R5-Pad2)*%
X231394000Y-163322000D03*
%TO.P,R5,1*%
%TO.N,gnd*%
X226314000Y-163322000D03*
%TD*%
%TO.P,R4,2*%
%TO.N,Net-(R4-Pad2)*%
X231394000Y-165862000D03*
%TO.P,R4,1*%
%TO.N,gnd*%
X226314000Y-165862000D03*
%TD*%
%TO.P,R3,2*%
%TO.N,Net-(R3-Pad2)*%
X231394000Y-168402000D03*
%TO.P,R3,1*%
%TO.N,gnd*%
X226314000Y-168402000D03*
%TD*%
%TO.P,R2,2*%
%TO.N,Net-(R2-Pad2)*%
X231394000Y-170942000D03*
%TO.P,R2,1*%
%TO.N,gnd*%
X226314000Y-170942000D03*
%TD*%
%TO.P,R1,2*%
%TO.N,Net-(R1-Pad2)*%
X214884000Y-177292000D03*
%TO.P,R1,1*%
%TO.N,gnd*%
X209804000Y-177292000D03*
%TD*%
%TO.P,ir_sensor_16,3*%
%TO.N,Net-(Portmultiplexer1-Pad8)*%
X225866654Y-46692016D03*
%TO.P,ir_sensor_16,2*%
%TO.N,gnd*%
X223520000Y-45720000D03*
%TO.P,ir_sensor_16,1*%
%TO.N,3.3v*%
X221173346Y-44747984D03*
%TD*%
%TO.P,ir_sensor_15,3*%
%TO.N,Net-(Portmultiplexer1-Pad7)*%
X257066051Y-68852051D03*
%TO.P,ir_sensor_15,2*%
%TO.N,gnd*%
X255270000Y-67056000D03*
%TO.P,ir_sensor_15,1*%
%TO.N,3.3v*%
X253473949Y-65259949D03*
%TD*%
%TO.P,ir_sensor_14,3*%
%TO.N,Net-(Portmultiplexer1-Pad6)*%
X277534032Y-101467308D03*
%TO.P,ir_sensor_14,2*%
%TO.N,gnd*%
X276562016Y-99120654D03*
%TO.P,ir_sensor_14,1*%
%TO.N,3.3v*%
X275590000Y-96774000D03*
%TD*%
%TO.P,ir_sensor_13,3*%
%TO.N,Net-(Portmultiplexer1-Pad5)*%
X284099000Y-139192000D03*
%TO.P,ir_sensor_13,2*%
%TO.N,gnd*%
X284099000Y-136652000D03*
%TO.P,ir_sensor_13,1*%
%TO.N,3.3v*%
X284099000Y-134112000D03*
%TD*%
%TO.P,ir_sensor_11,3*%
%TO.N,Net-(Portmultiplexer1-Pad3)*%
X253473949Y-208044051D03*
%TO.P,ir_sensor_11,2*%
%TO.N,gnd*%
X255270000Y-206248000D03*
%TO.P,ir_sensor_11,1*%
%TO.N,3.3v*%
X257066051Y-204451949D03*
%TD*%
%TO.P,ir_sensor_10,3*%
%TO.N,Net-(Portmultiplexer1-Pad2)*%
X221046346Y-228556016D03*
%TO.P,ir_sensor_10,2*%
%TO.N,gnd*%
X223393000Y-227584000D03*
%TO.P,ir_sensor_10,1*%
%TO.N,3.3v*%
X225739654Y-226611984D03*
%TD*%
%TO.P,ir_sensor_7,3*%
%TO.N,Net-(Portmultiplexer1-Pad27)*%
X114263898Y-204306898D03*
%TO.P,ir_sensor_7,2*%
%TO.N,gnd*%
X116059949Y-206102949D03*
%TO.P,ir_sensor_7,1*%
%TO.N,3.3v*%
X117856000Y-207899000D03*
%TD*%
%TO.P,ir_sensor_6,3*%
%TO.N,Net-(Portmultiplexer1-Pad26)*%
X94023984Y-171897346D03*
%TO.P,ir_sensor_6,2*%
%TO.N,gnd*%
X94996000Y-174244000D03*
%TO.P,ir_sensor_6,1*%
%TO.N,3.3v*%
X95968016Y-176590654D03*
%TD*%
%TO.P,ir_sensor_5,3*%
%TO.N,Net-(Portmultiplexer1-Pad25)*%
X87249000Y-134112000D03*
%TO.P,ir_sensor_5,2*%
%TO.N,gnd*%
X87249000Y-136652000D03*
%TO.P,ir_sensor_5,1*%
%TO.N,3.3v*%
X87249000Y-139192000D03*
%TD*%
%TO.P,ir_sensor_4,3*%
%TO.N,Net-(Portmultiplexer1-Pad24)*%
X96095016Y-96713346D03*
%TO.P,ir_sensor_4,2*%
%TO.N,gnd*%
X95123000Y-99060000D03*
%TO.P,ir_sensor_4,1*%
%TO.N,3.3v*%
X94150984Y-101406654D03*
%TD*%
%TO.P,ir_sensor_3,3*%
%TO.N,Net-(Portmultiplexer1-Pad23)*%
X117796051Y-65203949D03*
%TO.P,ir_sensor_3,2*%
%TO.N,gnd*%
X116000000Y-67000000D03*
%TO.P,ir_sensor_3,1*%
%TO.N,3.3v*%
X114203949Y-68796051D03*
%TD*%
%TO.P,goal_kleur1,2*%
%TO.N,Net-(R1-Pad2)*%
X214884000Y-182372000D03*
%TO.P,goal_kleur1,1*%
%TO.N,3.3v*%
X209804000Y-182372000D03*
%TD*%
%TO.P,dip_swith_instellinen1,12*%
%TO.N,Net-(R2-Pad2)*%
X239014000Y-170942000D03*
%TO.P,dip_swith_instellinen1,11*%
%TO.N,Net-(R3-Pad2)*%
X239014000Y-168402000D03*
%TO.P,dip_swith_instellinen1,10*%
%TO.N,Net-(R4-Pad2)*%
X239014000Y-165862000D03*
%TO.P,dip_swith_instellinen1,9*%
%TO.N,Net-(R5-Pad2)*%
X239014000Y-163322000D03*
%TO.P,dip_swith_instellinen1,8*%
%TO.N,Net-(R6-Pad2)*%
X239014000Y-160782000D03*
%TO.P,dip_swith_instellinen1,7*%
%TO.N,Net-(R7-Pad2)*%
X239014000Y-158242000D03*
%TO.P,dip_swith_instellinen1,6*%
%TO.N,Net-(control_board1-Pad46)*%
X246634000Y-158242000D03*
%TO.P,dip_swith_instellinen1,5*%
X246634000Y-160782000D03*
%TO.P,dip_swith_instellinen1,4*%
X246634000Y-163322000D03*
%TO.P,dip_swith_instellinen1,3*%
X246634000Y-165862000D03*
%TO.P,dip_swith_instellinen1,2*%
X246634000Y-168402000D03*
%TO.P,dip_swith_instellinen1,1*%
X246634000Y-170942000D03*
%TD*%
%TO.P,BZ1,2*%
%TO.N,gnd*%
X183134000Y-179832000D03*
%TO.P,BZ1,1*%
%TO.N,Net-(BZ1-Pad1)*%
X178054000Y-179832000D03*
%TD*%
D23*
%TO.N,gnd*%
X125857000Y-59817000D03*
X241808000Y-123698000D03*
X214693500Y-96964500D03*
X218440000Y-104140000D03*
X231648000Y-115506500D03*
%TO.N,scl*%
X212344000Y-128997999D03*
%TO.N,sda*%
X205994000Y-123952000D03*
%TO.N,A*%
X198374000Y-115062000D03*
%TO.N,B*%
X199644000Y-116332000D03*
X179324000Y-136652000D03*
%TO.N,3.3v*%
X194183000Y-98932001D03*
X193167000Y-82677000D03*
X175768000Y-109283500D03*
%TO.N,Net-(Portmultiplexer1-Pad1)*%
X164592000Y-190627000D03*
%TO.N,Net-(Portmultiplexer1-Pad2)*%
X164846000Y-189484000D03*
%TO.N,Net-(Portmultiplexer1-Pad3)*%
X168275000Y-107035019D03*
%TO.N,Net-(Portmultiplexer1-Pad4)*%
X163957000Y-104584500D03*
X197167500Y-104177000D03*
X228663500Y-107035019D03*
%TO.N,Net-(Portmultiplexer1-Pad5)*%
X162941000Y-104775000D03*
%TO.N,Net-(Portmultiplexer1-Pad6)*%
X154337961Y-111442500D03*
X166576988Y-106305385D03*
%TO.N,Net-(Portmultiplexer1-Pad7)*%
X165680108Y-105863108D03*
%TO.N,Net-(Portmultiplexer1-Pad8)*%
X164973000Y-105156000D03*
%TO.N,sd6*%
X175895000Y-118237000D03*
%TO.N,sc6*%
X170243500Y-117512000D03*
%TO.N,Net-(3V3_converter1-Pad1)*%
X237109000Y-103695500D03*
%TD*%
D24*
%TO.N,gnd*%
X226314000Y-158242000D02*
X226314000Y-160782000D01*
X226314000Y-163322000D02*
X226314000Y-160782000D01*
X226314000Y-163322000D02*
X226314000Y-165862000D01*
X226314000Y-165862000D02*
X226314000Y-168402000D01*
X226314000Y-168402000D02*
X226314000Y-170942000D01*
X186761001Y-183459001D02*
X183134000Y-179832000D01*
X210325761Y-183459001D02*
X186761001Y-183459001D01*
X210891001Y-182893761D02*
X210325761Y-183459001D01*
X210891001Y-179987763D02*
X210891001Y-182893761D01*
X209804000Y-178900762D02*
X210891001Y-179987763D01*
X207772000Y-177292000D02*
X201803000Y-171323000D01*
X209804000Y-177292000D02*
X207772000Y-177292000D01*
X226314000Y-172550762D02*
X226314000Y-170942000D01*
X215405761Y-183459001D02*
X226314000Y-172550762D01*
X214362239Y-183459001D02*
X215405761Y-183459001D01*
X209804000Y-178900762D02*
X214362239Y-183459001D01*
X209804000Y-177292000D02*
X209804000Y-178900762D01*
X213487000Y-131445000D02*
X200406000Y-131445000D01*
X217424000Y-135382000D02*
X213487000Y-131445000D01*
X200406000Y-131445000D02*
X170942000Y-131445000D01*
X166751000Y-131445000D02*
X161544000Y-136652000D01*
X170942000Y-131445000D02*
X166751000Y-131445000D01*
X217424000Y-149352000D02*
X226314000Y-158242000D01*
X217424000Y-135382000D02*
X217424000Y-149352000D01*
X241554000Y-118892000D02*
X241554000Y-117742000D01*
X188458999Y-93127001D02*
X189384000Y-92202000D01*
X165553997Y-93127001D02*
X188458999Y-93127001D01*
X162258999Y-96421999D02*
X165553997Y-93127001D01*
X162258999Y-98142001D02*
X162258999Y-96421999D01*
X165208998Y-101092000D02*
X162258999Y-98142001D01*
X169164000Y-101092000D02*
X165208998Y-101092000D01*
X116000000Y-67000000D02*
X114415895Y-67000000D01*
X114415895Y-67032931D02*
X112900003Y-68548823D01*
X114415895Y-67000000D02*
X114415895Y-67032931D01*
X112900003Y-68548823D02*
X112900003Y-69450003D01*
X102800000Y-81300000D02*
X107700000Y-76400000D01*
X112899997Y-69450003D02*
X112900003Y-69450003D01*
X95950536Y-93250000D02*
X96000000Y-93250000D01*
X95950536Y-95112787D02*
X95950536Y-93250000D01*
X94361001Y-96702322D02*
X95950536Y-95112787D01*
X102800000Y-86450000D02*
X102800000Y-81300000D01*
X96000000Y-93250000D02*
X102800000Y-86450000D01*
X94361001Y-98298001D02*
X94361001Y-96702322D01*
X107700000Y-74650000D02*
X112899997Y-69450003D01*
X107700000Y-76400000D02*
X107700000Y-74650000D01*
X95123000Y-99060000D02*
X94361001Y-98298001D01*
X147574000Y-45466000D02*
X147828000Y-45720000D01*
X145018692Y-45650610D02*
X145435448Y-45466000D01*
X144126648Y-46437952D02*
X144828133Y-45736467D01*
X143143337Y-46512272D02*
X143300274Y-46437952D01*
X143300274Y-46437952D02*
X144126648Y-46437952D01*
X139501677Y-50153932D02*
X143143337Y-46512272D01*
X116000000Y-67000000D02*
X116000000Y-65922370D01*
X132668310Y-53640690D02*
X136155068Y-50153932D01*
X116000000Y-65922370D02*
X116709050Y-65213320D01*
X116709050Y-65213320D02*
X116709050Y-64724456D01*
X127735227Y-56414773D02*
X130509310Y-53640690D01*
X116709050Y-64724456D02*
X117316575Y-64116931D01*
X117316575Y-64116931D02*
X118636069Y-64116931D01*
X145435448Y-45466000D02*
X147574000Y-45466000D01*
X126546219Y-56414773D02*
X127735227Y-56414773D01*
X118636069Y-64116931D02*
X125728799Y-57024201D01*
X125728799Y-57024201D02*
X126040272Y-56790084D01*
X144828133Y-45736467D02*
X145018692Y-45650610D01*
X136155068Y-50153932D02*
X139501677Y-50153932D01*
X126040272Y-56790084D02*
X126546219Y-56414773D01*
X130509310Y-53640690D02*
X132668310Y-53640690D01*
X184468761Y-37021761D02*
X185674000Y-38227000D01*
X182859348Y-37021761D02*
X184468761Y-37021761D01*
X150848181Y-43264263D02*
X152442737Y-43264263D01*
X159909082Y-40369918D02*
X161687082Y-40369918D01*
X156379107Y-42375893D02*
X157793643Y-40961357D01*
X150553955Y-43375045D02*
X150848181Y-43264263D01*
X149996862Y-43586696D02*
X150342304Y-43586696D01*
X168730165Y-38660835D02*
X169005029Y-38385971D01*
X153331107Y-42375893D02*
X156379107Y-42375893D01*
X167460165Y-38660835D02*
X168730165Y-38660835D01*
X178927131Y-37211000D02*
X182414238Y-37211000D01*
X152442737Y-43264263D02*
X153331107Y-42375893D01*
X149225000Y-43886140D02*
X149670426Y-43711967D01*
X150342304Y-43586696D02*
X150553955Y-43375045D01*
X157793643Y-40961357D02*
X159317643Y-40961357D01*
X149225000Y-43942000D02*
X149225000Y-43886140D01*
X147828000Y-45339000D02*
X149225000Y-43942000D01*
X147828000Y-45720000D02*
X147828000Y-45339000D01*
X159317643Y-40961357D02*
X159909082Y-40369918D01*
X166920300Y-39200700D02*
X167460165Y-38660835D01*
X161687082Y-40369918D02*
X162294004Y-39762996D01*
X178042657Y-38095474D02*
X178927131Y-37211000D01*
X182414238Y-37211000D02*
X182595179Y-37030059D01*
X164199004Y-39762996D02*
X164761300Y-39200700D01*
X162294004Y-39762996D02*
X164199004Y-39762996D01*
X164761300Y-39200700D02*
X166920300Y-39200700D01*
X169005029Y-38385971D02*
X170529029Y-38385971D01*
X170819526Y-38095474D02*
X178042657Y-38095474D01*
X170529029Y-38385971D02*
X170819526Y-38095474D01*
X149670426Y-43711967D02*
X149996862Y-43586696D01*
X182595179Y-37030059D02*
X182859348Y-37021761D01*
X185674000Y-38227000D02*
X186858071Y-37042929D01*
X189144071Y-37042929D02*
X189144509Y-37042492D01*
X186858071Y-37042929D02*
X189144071Y-37042929D01*
X189144509Y-37042492D02*
X189994417Y-37892400D01*
X199197519Y-37903728D02*
X199340814Y-37923814D01*
X199112816Y-37892400D02*
X199197519Y-37903728D01*
X189994417Y-37892400D02*
X199112816Y-37892400D01*
X199340814Y-37923814D02*
X200787000Y-39370000D01*
X207871947Y-39485349D02*
X208222632Y-39566631D01*
X207359580Y-39370000D02*
X207871947Y-39485349D01*
X200787000Y-39370000D02*
X207359580Y-39370000D01*
X208222632Y-39566631D02*
X210312001Y-41656000D01*
X215837367Y-41656000D02*
X216303179Y-41805179D01*
X210312001Y-41656000D02*
X215837367Y-41656000D01*
X217932000Y-43434000D02*
X220950454Y-43434000D01*
X216303179Y-41805179D02*
X217932000Y-43434000D01*
X221714733Y-43726371D02*
X221822600Y-43768600D01*
X221126696Y-43500440D02*
X221714733Y-43726371D01*
X220950454Y-43434000D02*
X221126696Y-43500440D01*
X223520000Y-45466000D02*
X223520000Y-45720000D01*
X221822600Y-43768600D02*
X223520000Y-45466000D01*
X255270000Y-65447238D02*
X255270000Y-67056000D01*
X253656948Y-64172948D02*
X253995710Y-64172948D01*
X250475092Y-62357000D02*
X252095000Y-62357000D01*
X243814908Y-55696816D02*
X250475092Y-62357000D01*
X243302226Y-55331064D02*
X243814908Y-55696816D01*
X253995710Y-64172948D02*
X255270000Y-65447238D01*
X242950474Y-55083461D02*
X243302226Y-55331064D01*
X236945783Y-51181000D02*
X240848244Y-55083461D01*
X252095000Y-62357000D02*
X252095000Y-62611000D01*
X235937744Y-51181000D02*
X236945783Y-51181000D01*
X234540744Y-49784000D02*
X235937744Y-51181000D01*
X224597630Y-45720000D02*
X224851630Y-45466000D01*
X224851630Y-45466000D02*
X225912710Y-45466000D01*
X232031981Y-48419101D02*
X233396880Y-49784000D01*
X226295119Y-45635579D02*
X226379540Y-45720000D01*
X226379540Y-45720000D02*
X226483482Y-45720000D01*
X252095000Y-62611000D02*
X253656948Y-64172948D01*
X226483482Y-45720000D02*
X226737482Y-45974000D01*
X240848244Y-55083461D02*
X242950474Y-55083461D01*
X229219391Y-48148530D02*
X231513028Y-48148530D01*
X226737482Y-45974000D02*
X227044861Y-45974000D01*
X231513028Y-48148530D02*
X232031981Y-48419101D01*
X223520000Y-45720000D02*
X224597630Y-45720000D01*
X227044861Y-45974000D02*
X229219391Y-48148530D01*
X225912710Y-45466000D02*
X226295119Y-45635579D01*
X233396880Y-49784000D02*
X234540744Y-49784000D01*
X276677001Y-99005669D02*
X276562016Y-99120654D01*
X276677001Y-96252239D02*
X276677001Y-99005669D01*
X276098000Y-95673238D02*
X276677001Y-96252239D01*
X274683303Y-91803303D02*
X274683303Y-93822976D01*
X272796000Y-89916000D02*
X274683303Y-91803303D01*
X255270000Y-67056000D02*
X256941922Y-67056000D01*
X258153052Y-68282383D02*
X258153052Y-70447052D01*
X267918082Y-80349090D02*
X267970000Y-80425446D01*
X267970000Y-80425446D02*
X267970000Y-83185000D01*
X272572289Y-87838127D02*
X272796000Y-88239340D01*
X256941922Y-67056000D02*
X258625053Y-68739131D01*
X258625053Y-68739131D02*
X258826000Y-68955331D01*
X258826000Y-68955331D02*
X258153052Y-68282383D01*
X258153052Y-70447052D02*
X267614218Y-79908218D01*
X267614218Y-79908218D02*
X267918082Y-80349090D01*
X267970000Y-83185000D02*
X272506015Y-87721015D01*
X276098000Y-95237673D02*
X276098000Y-95673238D01*
X274683303Y-93822976D02*
X276098000Y-95237673D01*
X272506015Y-87721015D02*
X272572289Y-87838127D01*
X272796000Y-88239340D02*
X272796000Y-89916000D01*
X278794524Y-102137524D02*
X279397544Y-102740544D01*
X277558139Y-99882653D02*
X278794524Y-101119038D01*
X277324015Y-99882653D02*
X277558139Y-99882653D01*
X278794524Y-101119038D02*
X278794524Y-102137524D01*
X276562016Y-99120654D02*
X277324015Y-99882653D01*
X279397544Y-104899544D02*
X280520374Y-106022374D01*
X279397544Y-102740544D02*
X279397544Y-104899544D01*
X280520374Y-106022374D02*
X280520374Y-107927374D01*
X281519220Y-109306057D02*
X281686000Y-109897688D01*
X281365028Y-108772028D02*
X281519220Y-109306057D01*
X280520374Y-107927374D02*
X281365028Y-108772028D01*
X281686000Y-112014000D02*
X282439430Y-112767430D01*
X281686000Y-109897688D02*
X281686000Y-112014000D01*
X282439430Y-112767430D02*
X282439430Y-127372430D01*
X282439430Y-127372430D02*
X285115000Y-130048000D01*
X285115000Y-132334000D02*
X285255980Y-132474980D01*
X285115000Y-130048000D02*
X285115000Y-132334000D01*
X285186001Y-132544959D02*
X285255980Y-132474980D01*
X285186001Y-135564999D02*
X285186001Y-132544959D01*
X284099000Y-136652000D02*
X285186001Y-135564999D01*
X284099000Y-136652000D02*
X285242000Y-137795000D01*
X285242000Y-137795000D02*
X285242000Y-140843000D01*
X284353000Y-141732000D02*
X284353000Y-150669122D01*
X285242000Y-140843000D02*
X284353000Y-141732000D01*
X284353000Y-150669122D02*
X281940000Y-153082122D01*
X281940000Y-157572534D02*
X282702000Y-158334534D01*
X281940000Y-153082122D02*
X281940000Y-157572534D01*
X282702000Y-158334534D02*
X279654000Y-161382534D01*
X279654000Y-161382534D02*
X279654000Y-169164000D01*
X279654000Y-169164000D02*
X279019000Y-169799000D01*
X279019000Y-169891122D02*
X278792017Y-170118105D01*
X279019000Y-169799000D02*
X279019000Y-169891122D01*
X278792017Y-172191431D02*
X278713056Y-172398900D01*
X278792017Y-170118105D02*
X278792017Y-172191431D01*
X276994956Y-174117000D02*
X276733000Y-174117000D01*
X278713056Y-172398900D02*
X276994956Y-174117000D01*
X258950649Y-204213650D02*
X256916299Y-206248000D01*
X258826000Y-201976483D02*
X258826000Y-204089000D01*
X276733000Y-174117000D02*
X276733000Y-175826908D01*
X268351000Y-188849000D02*
X268351000Y-192278000D01*
X276733000Y-175826908D02*
X276860000Y-175953908D01*
X256916299Y-206248000D02*
X255270000Y-206248000D01*
X276787250Y-177055990D02*
X276529984Y-177631225D01*
X273050000Y-184150000D02*
X268351000Y-188849000D01*
X258826000Y-204089000D02*
X258950649Y-204213650D01*
X276860000Y-176890525D02*
X276787250Y-177055990D01*
X276860000Y-175953908D02*
X276860000Y-176890525D01*
X276269150Y-178204682D02*
X273050000Y-181423832D01*
X260350000Y-200279000D02*
X260350000Y-200452483D01*
X273050000Y-181423832D02*
X273050000Y-184150000D01*
X276529984Y-177631225D02*
X276269150Y-178204682D01*
X260350000Y-200452483D02*
X258826000Y-201976483D01*
X268351000Y-192278000D02*
X260350000Y-200279000D01*
X255270000Y-206248000D02*
X255270000Y-207931845D01*
X252817220Y-210312002D02*
X251967998Y-210312002D01*
X255197377Y-207931845D02*
X252817220Y-210312002D01*
X255270000Y-207931845D02*
X255197377Y-207931845D01*
X247268961Y-215011039D02*
X246811252Y-215368855D01*
X246811252Y-215368855D02*
X246616667Y-215519000D01*
X251967998Y-210312002D02*
X247268961Y-215011039D01*
X246616667Y-215519000D02*
X242443000Y-215519000D01*
X242443000Y-215519000D02*
X234442000Y-223520000D01*
X234442000Y-223520000D02*
X231394000Y-223520000D01*
X223393000Y-227584000D02*
X225171000Y-227584000D01*
X225171000Y-227584000D02*
X225425000Y-227838000D01*
X225912549Y-227838000D02*
X226295177Y-227668508D01*
X226633685Y-227330000D02*
X227044683Y-227330000D01*
X226295177Y-227668508D02*
X226633685Y-227330000D01*
X227044683Y-227330000D02*
X227933683Y-226441000D01*
X228473000Y-226441000D02*
X231394000Y-223520000D01*
X227933683Y-226441000D02*
X228473000Y-226441000D01*
X223520000Y-227838000D02*
X221822728Y-229535272D01*
X225552000Y-227838000D02*
X223520000Y-227838000D01*
X225425000Y-227838000D02*
X225552000Y-227838000D01*
X225552000Y-227838000D02*
X225912549Y-227838000D01*
X221568728Y-229535272D02*
X221408841Y-229695159D01*
X221822728Y-229535272D02*
X221568728Y-229535272D01*
X221408841Y-229695159D02*
X220392841Y-229695159D01*
X219316407Y-230472548D02*
X219224996Y-230505000D01*
X219785242Y-230302758D02*
X219316407Y-230472548D01*
X220392841Y-229695159D02*
X219785242Y-230302758D01*
X216334732Y-231488841D02*
X216234174Y-231521000D01*
X217318573Y-230505000D02*
X216334732Y-231488841D01*
X219224996Y-230505000D02*
X217318573Y-230505000D01*
X216234174Y-231521000D02*
X208534000Y-231521000D01*
X208534000Y-231521000D02*
X206121000Y-233934000D01*
X196215000Y-233934000D02*
X194191767Y-235957233D01*
X206121000Y-233934000D02*
X196215000Y-233934000D01*
X189492767Y-235957233D02*
X189190255Y-236259745D01*
X194191767Y-235957233D02*
X189492767Y-235957233D01*
X185848510Y-234950000D02*
X185674000Y-234950000D01*
X187158255Y-236259745D02*
X185848510Y-234950000D01*
X189190255Y-236259745D02*
X187158255Y-236259745D01*
X185674000Y-234950000D02*
X184404000Y-236220000D01*
X151665625Y-230339988D02*
X151401854Y-230244343D01*
X184268730Y-236084730D02*
X178807716Y-236084730D01*
X184404000Y-236220000D02*
X184268730Y-236084730D01*
X150221281Y-229803551D02*
X149633308Y-229577644D01*
X150810879Y-230025816D02*
X150221281Y-229803551D01*
X151401854Y-230244343D02*
X150810879Y-230025816D01*
X149046511Y-229347921D02*
X148686250Y-229204251D01*
X149633308Y-229577644D02*
X149046511Y-229347921D01*
X147828000Y-228346001D02*
X147828000Y-227584000D01*
X148686250Y-229204251D02*
X147828000Y-228346001D01*
X178807716Y-236084730D02*
X177604836Y-234881850D01*
X168794753Y-234881850D02*
X168415958Y-234816488D01*
X168415958Y-234816488D02*
X168081618Y-234756619D01*
X177604836Y-234881850D02*
X168794753Y-234881850D01*
X168081618Y-234756619D02*
X166302134Y-232977135D01*
X164979010Y-233068673D02*
X160416684Y-233068673D01*
X165070548Y-232977135D02*
X164979010Y-233068673D01*
X166302134Y-232977135D02*
X165070548Y-232977135D01*
X160416684Y-233068673D02*
X158904039Y-231556028D01*
X155285972Y-231556028D02*
X155270806Y-231571193D01*
X158904039Y-231556028D02*
X155285972Y-231556028D01*
X154039601Y-230339988D02*
X151665624Y-230339988D01*
X155270806Y-231571193D02*
X154039601Y-230339988D01*
X116059949Y-207934661D02*
X116059949Y-206102949D01*
X118250761Y-209113001D02*
X117238289Y-209113001D01*
X117238289Y-209113001D02*
X116059949Y-207934661D01*
X146118092Y-227584000D02*
X146568347Y-227133745D01*
X118364000Y-209226240D02*
X118250761Y-209113001D01*
X146568347Y-226090223D02*
X145141124Y-224663000D01*
X128016000Y-217678000D02*
X120777000Y-210439000D01*
X146568347Y-227133745D02*
X146568347Y-226090223D01*
X132207000Y-217678000D02*
X128016000Y-217678000D01*
X147828000Y-227584000D02*
X146118092Y-227584000D01*
X118669903Y-210439000D02*
X118252347Y-210057909D01*
X120777000Y-210439000D02*
X118669903Y-210439000D01*
X145141124Y-224663000D02*
X139192000Y-224663000D01*
X118048349Y-209869350D02*
X118364000Y-209553699D01*
X118252347Y-210057909D02*
X118048349Y-209869350D01*
X139192000Y-224663000D02*
X132207000Y-217678000D01*
X118364000Y-209553699D02*
X118364000Y-209226240D01*
X114451187Y-206102949D02*
X112903000Y-204554762D01*
X116059949Y-206102949D02*
X114451187Y-206102949D01*
X112903000Y-204554762D02*
X112903000Y-202946000D01*
X112903000Y-202946000D02*
X105791000Y-195834000D01*
X105791000Y-195834000D02*
X105791000Y-193421000D01*
X105791000Y-193421000D02*
X100076000Y-187706000D01*
X100076000Y-187706000D02*
X100076000Y-183388000D01*
X100076000Y-183388000D02*
X95238962Y-178550962D01*
X94881015Y-177283696D02*
X94881015Y-174358985D01*
X95238962Y-177641643D02*
X94881015Y-177283696D01*
X94881015Y-174358985D02*
X94996000Y-174244000D01*
X95238962Y-178550962D02*
X95238962Y-177641643D01*
X92936983Y-172419107D02*
X92936983Y-170406983D01*
X93999877Y-173482001D02*
X92936983Y-172419107D01*
X94234001Y-173482001D02*
X93999877Y-173482001D01*
X94996000Y-174244000D02*
X94234001Y-173482001D01*
X92936983Y-170406983D02*
X92936983Y-167321865D01*
X92936983Y-167321865D02*
X90969118Y-165354000D01*
X90969118Y-164121118D02*
X89438900Y-162590900D01*
X90969118Y-165354000D02*
X90969118Y-164121118D01*
X89438900Y-158399900D02*
X88120680Y-157081680D01*
X89438900Y-162590900D02*
X89438900Y-158399900D01*
X88120680Y-150985680D02*
X86866141Y-149731141D01*
X88120680Y-157081680D02*
X88120680Y-150985680D01*
X86866141Y-149731141D02*
X86866141Y-141730141D01*
X86614000Y-141478000D02*
X86121338Y-141478000D01*
X86866141Y-141730141D02*
X86614000Y-141478000D01*
X86121338Y-139842338D02*
X86052939Y-139773939D01*
X86121338Y-141478000D02*
X86121338Y-139842338D01*
X86121338Y-137779662D02*
X87249000Y-136652000D01*
X86121338Y-139842338D02*
X86121338Y-137779662D01*
X94888876Y-99060000D02*
X95123000Y-99060000D01*
X92710366Y-101238510D02*
X94888876Y-99060000D01*
X90562678Y-113145322D02*
X90562678Y-106853618D01*
X92710366Y-104705930D02*
X92710366Y-101238510D01*
X90562678Y-106853618D02*
X92710366Y-104705930D01*
X88646000Y-115062000D02*
X90562678Y-113145322D01*
X86741000Y-124714000D02*
X88646000Y-122809000D01*
X86741000Y-131826000D02*
X86741000Y-124714000D01*
X86161999Y-135564999D02*
X86161999Y-132405001D01*
X88646000Y-122809000D02*
X88646000Y-115062000D01*
X86161999Y-132405001D02*
X86741000Y-131826000D01*
X87249000Y-136652000D02*
X86161999Y-135564999D01*
X189384000Y-92202000D02*
X169164000Y-92202000D01*
X161476400Y-91636010D02*
X160851010Y-91636010D01*
X162688410Y-90424000D02*
X161476400Y-91636010D01*
X167386000Y-90424000D02*
X162688410Y-90424000D01*
X169164000Y-92202000D02*
X167386000Y-90424000D01*
X129032000Y-59817000D02*
X125857000Y-59817000D01*
X160851010Y-91636010D02*
X129032000Y-59817000D01*
X162005089Y-116949001D02*
X162368090Y-116586000D01*
X151493001Y-116949001D02*
X162005089Y-116949001D01*
X150368000Y-115824000D02*
X151493001Y-116949001D01*
X175696999Y-110688001D02*
X177228500Y-109156500D01*
X175696999Y-111773761D02*
X175696999Y-110688001D01*
X170884760Y-116586000D02*
X175696999Y-111773761D01*
X162368090Y-116586000D02*
X170884760Y-116586000D01*
X177228500Y-109156500D02*
X169164000Y-101092000D01*
X179324000Y-111252000D02*
X177228500Y-109156500D01*
X241808000Y-119146000D02*
X241554000Y-118892000D01*
X241808000Y-123698000D02*
X241808000Y-119146000D01*
X209931000Y-92202000D02*
X214693500Y-96964500D01*
X189384000Y-92202000D02*
X209931000Y-92202000D01*
X227012500Y-104140000D02*
X229616000Y-106743500D01*
X218440000Y-104140000D02*
X227012500Y-104140000D01*
X229616000Y-113474500D02*
X231648000Y-115506500D01*
X229616000Y-106743500D02*
X229616000Y-113474500D01*
%TO.N,Net-(BZ1-Pad1)*%
X171848999Y-186037001D02*
X178054000Y-179832000D01*
X161003999Y-186037001D02*
X171848999Y-186037001D01*
X157878999Y-182912001D02*
X161003999Y-186037001D01*
X157878999Y-168546999D02*
X157878999Y-182912001D01*
X146304000Y-156972000D02*
X157878999Y-168546999D01*
%TO.N,5v*%
X221051001Y-134294999D02*
X219964000Y-135382000D01*
X223156003Y-134294999D02*
X221051001Y-134294999D01*
X241554000Y-115897002D02*
X223156003Y-134294999D01*
X241554000Y-108692000D02*
X241554000Y-115897002D01*
X165933001Y-129722999D02*
X161544000Y-134112000D01*
X214304999Y-129722999D02*
X165933001Y-129722999D01*
X219964000Y-135382000D02*
X214304999Y-129722999D01*
X176784000Y-118872000D02*
X161544000Y-134112000D01*
X176784000Y-111252000D02*
X176784000Y-118872000D01*
%TO.N,scl*%
X178054000Y-135382000D02*
X161544000Y-151892000D01*
X212344000Y-135382000D02*
X178054000Y-135382000D01*
X180242684Y-122391725D02*
X185595959Y-127745000D01*
X180242684Y-112873316D02*
X180242684Y-122391725D01*
X185595959Y-127745000D02*
X211091000Y-127745000D01*
X181864000Y-111252000D02*
X180242684Y-112873316D01*
X211091000Y-127745000D02*
X212344000Y-128997999D01*
%TO.N,sda*%
X161544000Y-154432000D02*
X178054000Y-137922000D01*
X212344000Y-137922000D02*
X214884000Y-135382000D01*
X178054000Y-137922000D02*
X212344000Y-137922000D01*
X194381001Y-112339001D02*
X205994000Y-123952000D01*
X185491001Y-112339001D02*
X194381001Y-112339001D01*
X184404000Y-111252000D02*
X185491001Y-112339001D01*
%TO.N,A*%
X197104000Y-113792000D02*
X198374000Y-115062000D01*
X197104000Y-111252000D02*
X197104000Y-113792000D01*
%TO.N,B*%
X199644000Y-111252000D02*
X199644000Y-116332000D01*
X145178999Y-158386999D02*
X146304000Y-159512000D01*
X145178999Y-156431999D02*
X145178999Y-158386999D01*
X145763999Y-155846999D02*
X145178999Y-156431999D01*
X149384001Y-153306999D02*
X146844001Y-155846999D01*
X161794003Y-153306999D02*
X149384001Y-153306999D01*
X146844001Y-155846999D02*
X145763999Y-155846999D01*
X178449002Y-136652000D02*
X161794003Y-153306999D01*
X179324000Y-136652000D02*
X178449002Y-136652000D01*
%TO.N,Net-(R7-Pad2)*%
X239014000Y-158242000D02*
X231394000Y-158242000D01*
%TO.N,Net-(R6-Pad2)*%
X231394000Y-160782000D02*
X239014000Y-160782000D01*
%TO.N,Net-(R5-Pad2)*%
X239014000Y-163322000D02*
X231394000Y-163322000D01*
%TO.N,Net-(R4-Pad2)*%
X231394000Y-165862000D02*
X239014000Y-165862000D01*
%TO.N,Net-(R3-Pad2)*%
X239014000Y-168402000D02*
X231394000Y-168402000D01*
%TO.N,Net-(R2-Pad2)*%
X231394000Y-170942000D02*
X239014000Y-170942000D01*
%TO.N,Net-(R1-Pad2)*%
X212852000Y-177292000D02*
X201803000Y-166243000D01*
X214884000Y-177292000D02*
X212852000Y-177292000D01*
X214884000Y-177292000D02*
X214884000Y-182372000D01*
%TO.N,3.3v*%
X209804000Y-182372000D02*
X207264000Y-182372000D01*
X196215000Y-171323000D02*
X169545000Y-171323000D01*
X207264000Y-182372000D02*
X196215000Y-171323000D01*
X110109000Y-72877410D02*
X114190359Y-68796051D01*
X110109000Y-73025000D02*
X110109000Y-72877410D01*
X108204000Y-74930000D02*
X110109000Y-73025000D01*
X108204000Y-76532410D02*
X108204000Y-74930000D01*
X103250010Y-81486400D02*
X108204000Y-76532410D01*
X103250010Y-86636400D02*
X103250010Y-81486400D01*
X114190359Y-68796051D02*
X114203949Y-68796051D01*
X97663000Y-92223410D02*
X103250010Y-86636400D01*
X97663000Y-93345000D02*
X97663000Y-92223410D01*
X97536000Y-93472000D02*
X97663000Y-93345000D01*
X97536000Y-99099268D02*
X97536000Y-93472000D01*
X95228614Y-101406654D02*
X97536000Y-99099268D01*
X94150984Y-101406654D02*
X95228614Y-101406654D01*
X115812711Y-68796051D02*
X126873000Y-57735762D01*
X114203949Y-68796051D02*
X115812711Y-68796051D01*
X126873000Y-57735762D02*
X126873000Y-57150000D01*
X131583300Y-54090700D02*
X132980300Y-54090700D01*
X128524000Y-57150000D02*
X131583300Y-54090700D01*
X141569420Y-50603942D02*
X145481346Y-46692016D01*
X136467058Y-50603942D02*
X141569420Y-50603942D01*
X132980300Y-54090700D02*
X136467058Y-50603942D01*
X181102000Y-40259000D02*
X183134000Y-38227000D01*
X174879000Y-40259000D02*
X181102000Y-40259000D01*
X173355000Y-41783000D02*
X174879000Y-40259000D01*
X157734000Y-41783000D02*
X173355000Y-41783000D01*
X156691097Y-42825903D02*
X157734000Y-41783000D01*
X154532097Y-42825903D02*
X156691097Y-42825903D01*
X149903985Y-47454015D02*
X154532097Y-42825903D01*
X146243345Y-47454015D02*
X149903985Y-47454015D01*
X145481346Y-46692016D02*
X146243345Y-47454015D01*
X183134000Y-38227000D02*
X184912000Y-40005000D01*
X201041000Y-40005000D02*
X201225990Y-39820010D01*
X184912000Y-40005000D02*
X201041000Y-40005000D01*
X201225990Y-39820010D02*
X203511990Y-42106010D01*
X203511990Y-42106010D02*
X214445010Y-42106010D01*
X218609574Y-44747984D02*
X221173346Y-44747984D01*
X217041590Y-43180000D02*
X218609574Y-44747984D01*
X215519000Y-43180000D02*
X217041590Y-43180000D01*
X214445010Y-42106010D02*
X215519000Y-43180000D01*
X253092949Y-65259949D02*
X253473949Y-65259949D01*
X250952000Y-63119000D02*
X253092949Y-65259949D01*
X221173346Y-44747984D02*
X221173346Y-45825614D01*
X224115732Y-48768000D02*
X230759000Y-48768000D01*
X250600682Y-63119000D02*
X250952000Y-63119000D01*
X233680000Y-51689000D02*
X235839000Y-51689000D01*
X221173346Y-45825614D02*
X224115732Y-48768000D01*
X237198373Y-52070000D02*
X241516373Y-56388000D01*
X235839000Y-51689000D02*
X236220000Y-52070000D01*
X242951000Y-56388000D02*
X248285000Y-61722000D01*
X241516373Y-56388000D02*
X242951000Y-56388000D01*
X230759000Y-48768000D02*
X233680000Y-51689000D01*
X248285000Y-61722000D02*
X249203682Y-61722000D01*
X236220000Y-52070000D02*
X237198373Y-52070000D01*
X249203682Y-61722000D02*
X250600682Y-63119000D01*
X253473949Y-66868711D02*
X267377238Y-80772000D01*
X253473949Y-65259949D02*
X253473949Y-66868711D01*
X267377238Y-80772000D02*
X267377238Y-82084238D01*
X267519990Y-82226990D02*
X267519990Y-83877990D01*
X267377238Y-82084238D02*
X267519990Y-82226990D01*
X267519990Y-83877990D02*
X271907000Y-88265000D01*
X271907000Y-89916000D02*
X273685000Y-91694000D01*
X271907000Y-88265000D02*
X271907000Y-89916000D01*
X275590000Y-96139000D02*
X275590000Y-96774000D01*
X273685000Y-94234000D02*
X275590000Y-96139000D01*
X273685000Y-91694000D02*
X273685000Y-94234000D01*
X281989420Y-132002420D02*
X284099000Y-134112000D01*
X281989420Y-113079420D02*
X281989420Y-132002420D01*
X281861715Y-112951715D02*
X281989420Y-113079420D01*
X281861715Y-112903000D02*
X281861715Y-112951715D01*
X279908000Y-110949285D02*
X281861715Y-112903000D01*
X279908000Y-106299000D02*
X279908000Y-110949285D01*
X274828001Y-101219001D02*
X279908000Y-106299000D01*
X274828001Y-97535999D02*
X274828001Y-101219001D01*
X275590000Y-96774000D02*
X274828001Y-97535999D01*
X277705016Y-162695108D02*
X277705016Y-171770346D01*
X281051000Y-159349124D02*
X277705016Y-162695108D01*
X282829000Y-149987000D02*
X281051000Y-151765000D01*
X282829000Y-135382000D02*
X282829000Y-149987000D01*
X281051000Y-151765000D02*
X281051000Y-159349124D01*
X284099000Y-134112000D02*
X282829000Y-135382000D01*
X276627386Y-171770346D02*
X273431000Y-174966732D01*
X277705016Y-171770346D02*
X276627386Y-171770346D01*
X273431000Y-174966732D02*
X273431000Y-179959000D01*
X273431000Y-179959000D02*
X267589000Y-185801000D01*
X267589000Y-185801000D02*
X267589000Y-191897000D01*
X257066051Y-202419949D02*
X257066051Y-204451949D01*
X267589000Y-191897000D02*
X257066051Y-202419949D01*
X255457289Y-204451949D02*
X245152238Y-214757000D01*
X257066051Y-204451949D02*
X255457289Y-204451949D01*
X241681000Y-214757000D02*
X234188000Y-222250000D01*
X245152238Y-214757000D02*
X241681000Y-214757000D01*
X229281648Y-223069990D02*
X225739654Y-226611984D01*
X234130010Y-223069990D02*
X229281648Y-223069990D01*
X234188000Y-223012000D02*
X234130010Y-223069990D01*
X234188000Y-222250000D02*
X234188000Y-223012000D01*
X224977655Y-225849985D02*
X221317015Y-225849985D01*
X225739654Y-226611984D02*
X224977655Y-225849985D01*
X221317015Y-225849985D02*
X216916000Y-230251000D01*
X208915000Y-230251000D02*
X205682010Y-233483990D01*
X216916000Y-230251000D02*
X208915000Y-230251000D01*
X191008000Y-234950000D02*
X188214000Y-234950000D01*
X192474010Y-233483990D02*
X191008000Y-234950000D01*
X205682010Y-233483990D02*
X192474010Y-233483990D01*
X156540437Y-228556016D02*
X150174654Y-228556016D01*
X160013421Y-232029000D02*
X156540437Y-228556016D01*
X167782002Y-232029000D02*
X160013421Y-232029000D01*
X169616001Y-233862999D02*
X167782002Y-232029000D01*
X187126999Y-233862999D02*
X169616001Y-233862999D01*
X188214000Y-234950000D02*
X187126999Y-233862999D01*
X117983000Y-208026000D02*
X117856000Y-207899000D01*
X119380000Y-208026000D02*
X117983000Y-208026000D01*
X128581990Y-217227990D02*
X119380000Y-208026000D01*
X132393400Y-217227990D02*
X128581990Y-217227990D01*
X138939410Y-223774000D02*
X132393400Y-217227990D01*
X146470268Y-223774000D02*
X138939410Y-223774000D01*
X150174654Y-227478386D02*
X146470268Y-223774000D01*
X150174654Y-228556016D02*
X150174654Y-227478386D01*
X117856000Y-206290238D02*
X107272762Y-195707000D01*
X117856000Y-207899000D02*
X117856000Y-206290238D01*
X107272762Y-195707000D02*
X107272762Y-194013762D01*
X100526010Y-181148648D02*
X95968016Y-176590654D01*
X100526010Y-187267010D02*
X100526010Y-181148648D01*
X107272762Y-194013762D02*
X100526010Y-187267010D01*
X96730015Y-175828655D02*
X96730015Y-170390015D01*
X95968016Y-176590654D02*
X96730015Y-175828655D01*
X91419128Y-165079128D02*
X91419128Y-159237128D01*
X96730015Y-170390015D02*
X91419128Y-165079128D01*
X88570690Y-140513690D02*
X87249000Y-139192000D01*
X88570690Y-156388690D02*
X88570690Y-140513690D01*
X91419128Y-159237128D02*
X88570690Y-156388690D01*
X87249000Y-139192000D02*
X89096010Y-137344990D01*
X91059000Y-113285410D02*
X91059000Y-106993706D01*
X89096010Y-115248400D02*
X91059000Y-113285410D01*
X89096010Y-137344990D02*
X89096010Y-115248400D01*
X93599000Y-101958638D02*
X94150984Y-101406654D01*
X93599000Y-104453706D02*
X93599000Y-101958638D01*
X91059000Y-106993706D02*
X93599000Y-104453706D01*
X127889000Y-57150000D02*
X127889000Y-57785000D01*
X126873000Y-57150000D02*
X127889000Y-57150000D01*
X127889000Y-57150000D02*
X128524000Y-57150000D01*
X127889000Y-57785000D02*
X161290000Y-91186000D01*
X161290000Y-82150998D02*
X163830000Y-79610998D01*
X161290000Y-91186000D02*
X161290000Y-82150998D01*
X163830000Y-79610998D02*
X186544998Y-79610998D01*
X188976000Y-82042000D02*
X189384000Y-82042000D01*
X186544998Y-79610998D02*
X188976000Y-82042000D01*
X194564000Y-99313001D02*
X194183000Y-98932001D01*
X194564000Y-111252000D02*
X194564000Y-99313001D01*
X190019000Y-82677000D02*
X189384000Y-82042000D01*
X193167000Y-82677000D02*
X190019000Y-82677000D01*
X150368000Y-113284000D02*
X151574500Y-114490500D01*
X151574500Y-114490500D02*
X167068500Y-114490500D01*
X172275500Y-109283500D02*
X175768000Y-109283500D01*
X167068500Y-114490500D02*
X172275500Y-109283500D01*
%TO.N,Net-(Portmultiplexer1-Pad1)*%
X142494000Y-100838000D02*
X150368000Y-92964000D01*
X142494000Y-190387002D02*
X142494000Y-100838000D01*
X146416998Y-194310000D02*
X142494000Y-190387002D01*
X164592000Y-192405000D02*
X162687000Y-194310000D01*
X162687000Y-194310000D02*
X146416998Y-194310000D01*
X164592000Y-190627000D02*
X164592000Y-192405000D01*
%TO.N,Net-(Portmultiplexer1-Pad2)*%
X150368000Y-95504000D02*
X148464410Y-95504000D01*
X148464410Y-95504000D02*
X143764000Y-100204410D01*
X163028997Y-191117001D02*
X164661998Y-189484000D01*
X145763999Y-191117001D02*
X163028997Y-191117001D01*
X143764000Y-189117002D02*
X145763999Y-191117001D01*
X143764000Y-100204410D02*
X143764000Y-189117002D01*
X164661998Y-189484000D02*
X164846000Y-189484000D01*
%TO.N,Net-(Portmultiplexer1-Pad3)*%
X151493001Y-99169001D02*
X150368000Y-98044000D01*
X160974667Y-99169001D02*
X151493001Y-99169001D01*
X168275000Y-106469334D02*
X160974667Y-99169001D01*
X168275000Y-107035019D02*
X168275000Y-106469334D01*
%TO.N,Net-(Portmultiplexer1-Pad4)*%
X151493001Y-101709001D02*
X160764001Y-101709001D01*
X150368000Y-100584000D02*
X151493001Y-101709001D01*
X161081501Y-101709001D02*
X163957000Y-104584500D01*
X160764001Y-101709001D02*
X161081501Y-101709001D01*
X197167500Y-104177000D02*
X203999000Y-104177000D01*
X206857019Y-107035019D02*
X228663500Y-107035019D01*
X203999000Y-104177000D02*
X206857019Y-107035019D01*
%TO.N,Net-(Portmultiplexer1-Pad5)*%
X151619001Y-104375001D02*
X150368000Y-103124000D01*
X162541001Y-104375001D02*
X151619001Y-104375001D01*
X162941000Y-104775000D02*
X162541001Y-104375001D01*
%TO.N,Net-(Portmultiplexer1-Pad6)*%
X161013372Y-111869001D02*
X166576988Y-106305385D01*
X154764462Y-111869001D02*
X161013372Y-111869001D01*
X154337961Y-111442500D02*
X154764462Y-111869001D01*
%TO.N,Net-(Portmultiplexer1-Pad7)*%
X149242999Y-109329001D02*
X150368000Y-108204000D01*
X149827999Y-111869001D02*
X149242999Y-111284001D01*
X149242999Y-111284001D02*
X149242999Y-109329001D01*
X152199997Y-111869001D02*
X149827999Y-111869001D01*
X154449999Y-109618999D02*
X152199997Y-111869001D01*
X161924217Y-109618999D02*
X154449999Y-109618999D01*
X165680108Y-105863108D02*
X161924217Y-109618999D01*
%TO.N,Net-(Portmultiplexer1-Pad8)*%
X154322999Y-106789001D02*
X150368000Y-110744000D01*
X163339999Y-106789001D02*
X154322999Y-106789001D01*
X164973000Y-105156000D02*
X163339999Y-106789001D01*
%TO.N,sd6*%
X151493001Y-122318999D02*
X159748001Y-122318999D01*
X150368000Y-123444000D02*
X151493001Y-122318999D01*
X163830000Y-118237000D02*
X175895000Y-118237000D01*
X159748001Y-122318999D02*
X163830000Y-118237000D01*
%TO.N,sc6*%
X169843501Y-117112001D02*
X162478499Y-117112001D01*
X170243500Y-117512000D02*
X169843501Y-117112001D01*
X151493001Y-119778999D02*
X150368000Y-120904000D01*
X159811501Y-119778999D02*
X151493001Y-119778999D01*
X162478499Y-117112001D02*
X159811501Y-119778999D01*
%TO.N,Net-(3V3_converter1-Pad1)*%
X228854000Y-89662000D02*
X232664000Y-85852000D01*
X228854000Y-94742000D02*
X228854000Y-89662000D01*
X167994000Y-85852000D02*
X164184000Y-82042000D01*
X232664000Y-85852000D02*
X167994000Y-85852000D01*
X239989001Y-112836999D02*
X233934000Y-118892000D01*
X221361000Y-94742000D02*
X216535000Y-89916000D01*
X228854000Y-94742000D02*
X221361000Y-94742000D01*
X239989001Y-106575501D02*
X239989001Y-112836999D01*
X237109000Y-103695500D02*
X239989001Y-106575501D01*
%TO.N,Net-(3V3_converter1-Pad3)*%
X232588999Y-98207001D02*
X236054000Y-94742000D01*
X165109001Y-98207001D02*
X232588999Y-98207001D01*
X164184000Y-97282000D02*
X165109001Y-98207001D01*
X237664000Y-93132000D02*
X236054000Y-94742000D01*
X233008999Y-117277001D02*
X231394000Y-118892000D01*
X233008999Y-97787001D02*
X233008999Y-117277001D01*
X236054000Y-94742000D02*
X233008999Y-97787001D01*
%TO.N,Net-(U2-Pad4)*%
X168457999Y-159710001D02*
X169545000Y-158623000D01*
X168457999Y-177998001D02*
X168457999Y-159710001D01*
X161544000Y-184912000D02*
X168457999Y-177998001D01*
%TD*%
M02*
