%TF.GenerationSoftware,KiCad,Pcbnew,5.1.9+dfsg1-1+deb11u1*%
%TF.CreationDate,2024-06-09T17:33:59+02:00*%
%TF.ProjectId,pcb_boven,7063625f-626f-4766-956e-2e6b69636164,rev?*%
%TF.SameCoordinates,Original*%
%TF.FileFunction,Soldermask,Top*%
%TF.FilePolarity,Negative*%
%FSLAX46Y46*%
G04 Gerber Fmt 4.6, Leading zero omitted, Abs format (unit mm)*
G04 Created by KiCad (PCBNEW 5.1.9+dfsg1-1+deb11u1) date 2024-06-09 17:33:59*
%MOMM*%
%LPD*%
G01*
G04 APERTURE LIST*
%ADD10C,0.762000*%
%ADD11O,1.600000X1.600000*%
%ADD12R,1.600000X1.600000*%
%ADD13C,1.524000*%
%ADD14C,1.300000*%
%ADD15C,1.600000*%
%ADD16R,1.300000X1.300000*%
%ADD17C,2.794000*%
%ADD18C,6.000000*%
%ADD19C,4.000000*%
%ADD20R,3.800000X3.800000*%
%ADD21R,1.200000X1.800000*%
%ADD22R,3.200000X1.200000*%
G04 APERTURE END LIST*
D10*
%TO.C,screwhoel1*%
X185610500Y-220468500D03*
%TD*%
%TO.C,screwhoel1*%
X112968290Y-178528499D03*
%TD*%
%TO.C,screwhoel1*%
X185674000Y-52768500D03*
%TD*%
%TO.C,screwhoel1*%
X258252710Y-178528499D03*
%TD*%
%TO.C,screwhoel1*%
X258252710Y-94648501D03*
%TD*%
%TO.C,screwhoel1*%
X112968290Y-94648501D03*
%TD*%
%TO.C,screwhoel1*%
X185674000Y-52768500D03*
%TD*%
D11*
%TO.C,Portmultiplexer1*%
X157988000Y-92964000D03*
X150368000Y-125984000D03*
X157988000Y-95504000D03*
X150368000Y-123444000D03*
X157988000Y-98044000D03*
X150368000Y-120904000D03*
X157988000Y-100584000D03*
X150368000Y-118364000D03*
X157988000Y-103124000D03*
X150368000Y-115824000D03*
X157988000Y-105664000D03*
X150368000Y-113284000D03*
X157988000Y-108204000D03*
X150368000Y-110744000D03*
X157988000Y-110744000D03*
X150368000Y-108204000D03*
X157988000Y-113284000D03*
X150368000Y-105664000D03*
X157988000Y-115824000D03*
X150368000Y-103124000D03*
X157988000Y-118364000D03*
X150368000Y-100584000D03*
X157988000Y-120904000D03*
X150368000Y-98044000D03*
X157988000Y-123444000D03*
X150368000Y-95504000D03*
X157988000Y-125984000D03*
D12*
X150368000Y-92964000D03*
%TD*%
D13*
%TO.C,pcb_conn1*%
X199644000Y-111252000D03*
X197104000Y-111252000D03*
X194564000Y-111252000D03*
X192024000Y-111252000D03*
X189484000Y-111252000D03*
X186944000Y-111252000D03*
X184404000Y-111252000D03*
X181864000Y-111252000D03*
X179324000Y-111252000D03*
X176784000Y-111252000D03*
%TD*%
D14*
%TO.C,control_board1*%
X155194000Y-134842000D03*
X152654000Y-134842000D03*
D15*
X159004000Y-179832000D03*
X156464000Y-179832000D03*
X153924000Y-179832000D03*
X151384000Y-179832000D03*
X148844000Y-179832000D03*
D14*
X155105600Y-147082000D03*
X155105600Y-149082000D03*
X157105600Y-149082000D03*
X157105600Y-147082000D03*
X159105600Y-149082000D03*
D16*
X159105600Y-147082000D03*
D15*
X146304000Y-174752000D03*
X146304000Y-177292000D03*
X146304000Y-179832000D03*
X146304000Y-182372000D03*
X146304000Y-172212000D03*
X146304000Y-169672000D03*
X146304000Y-167132000D03*
X146304000Y-184912000D03*
X146304000Y-187452000D03*
X146304000Y-189992000D03*
X146304000Y-192532000D03*
X161544000Y-192532000D03*
X161544000Y-189992000D03*
X161544000Y-187452000D03*
X161544000Y-184912000D03*
X161544000Y-182372000D03*
X161544000Y-179832000D03*
X161544000Y-177292000D03*
X161544000Y-174752000D03*
X161544000Y-172212000D03*
X161544000Y-169672000D03*
X146304000Y-164592000D03*
X146304000Y-162052000D03*
X146304000Y-159512000D03*
X146304000Y-156972000D03*
X146304000Y-154432000D03*
X146304000Y-151892000D03*
X146304000Y-149352000D03*
X146304000Y-146812000D03*
X146304000Y-144272000D03*
X146304000Y-141732000D03*
X146304000Y-139192000D03*
X146304000Y-136652000D03*
D12*
X146304000Y-134112000D03*
D15*
X161544000Y-167132000D03*
X161544000Y-164592000D03*
X161544000Y-162052000D03*
X161544000Y-159512000D03*
X161544000Y-156972000D03*
X161544000Y-154432000D03*
X161544000Y-151892000D03*
X161544000Y-149352000D03*
X161544000Y-146812000D03*
X161544000Y-144272000D03*
X161544000Y-141732000D03*
X161544000Y-139192000D03*
X161544000Y-136652000D03*
X161544000Y-134112000D03*
D12*
X149354800Y-140411200D03*
D15*
X149354800Y-142951200D03*
X149354800Y-145491200D03*
X149354800Y-148031200D03*
X149354800Y-150571200D03*
X159004000Y-136652000D03*
%TD*%
D13*
%TO.C,ir_sensor_9*%
X183134000Y-234950000D03*
X185674000Y-234950000D03*
X188214000Y-234950000D03*
%TD*%
%TO.C,ir_sensor_1*%
X188214000Y-38227000D03*
X185674000Y-38227000D03*
X183134000Y-38227000D03*
%TD*%
%TO.C,ir_sensor_2*%
X150174654Y-44747984D03*
X147828000Y-45720000D03*
X145481346Y-46692016D03*
%TD*%
%TO.C,ir_sensor_8*%
X145481346Y-226611984D03*
X147828000Y-227584000D03*
X150174654Y-228556016D03*
%TD*%
%TO.C,ir_sensor_12*%
X275760984Y-176463654D03*
X276733000Y-174117000D03*
X277705016Y-171770346D03*
%TD*%
%TO.C,U2*%
X201803000Y-168783000D03*
X201803000Y-171323000D03*
D17*
X200406000Y-131445000D03*
X170942000Y-131445000D03*
D13*
X169545000Y-171323000D03*
X169545000Y-168783000D03*
X169545000Y-166243000D03*
X169545000Y-163703000D03*
X169545000Y-161163000D03*
X169545000Y-158623000D03*
X169545000Y-156083000D03*
X201803000Y-153543000D03*
X201803000Y-156083000D03*
X201803000Y-158623000D03*
X201803000Y-161163000D03*
X201803000Y-163703000D03*
X201803000Y-166243000D03*
X169545000Y-153543000D03*
%TD*%
%TO.C,xt60*%
G36*
G01*
X225854000Y-96242000D02*
X225854000Y-93242000D01*
G75*
G02*
X227354000Y-91742000I1500000J0D01*
G01*
X230354000Y-91742000D01*
G75*
G02*
X231854000Y-93242000I0J-1500000D01*
G01*
X231854000Y-96242000D01*
G75*
G02*
X230354000Y-97742000I-1500000J0D01*
G01*
X227354000Y-97742000D01*
G75*
G02*
X225854000Y-96242000I0J1500000D01*
G01*
G37*
D18*
X236054000Y-94742000D03*
%TD*%
D19*
%TO.C,xt30*%
X221535000Y-89916000D03*
D20*
X216535000Y-89916000D03*
%TD*%
D21*
%TO.C,5V_converter1*%
X231394000Y-118892000D03*
X233934000Y-118892000D03*
X236474000Y-118892000D03*
X241554000Y-118892000D03*
X244094000Y-118892000D03*
X244094000Y-108692000D03*
X241554000Y-108692000D03*
X236474000Y-108692000D03*
X233934000Y-108692000D03*
X231394000Y-108692000D03*
%TD*%
D22*
%TO.C,3V3_converter1*%
X164184000Y-82042000D03*
X164184000Y-92202000D03*
X164184000Y-97282000D03*
X189384000Y-97282000D03*
X189384000Y-92202000D03*
X189384000Y-87122000D03*
X189384000Y-82042000D03*
%TD*%
D13*
%TO.C,U1*%
X222504000Y-135382000D03*
X219964000Y-135382000D03*
X217424000Y-135382000D03*
X214884000Y-135382000D03*
X212344000Y-135382000D03*
%TD*%
%TO.C,R7*%
X231394000Y-158242000D03*
X226314000Y-158242000D03*
%TD*%
%TO.C,R6*%
X231394000Y-160782000D03*
X226314000Y-160782000D03*
%TD*%
%TO.C,R5*%
X231394000Y-163322000D03*
X226314000Y-163322000D03*
%TD*%
%TO.C,R4*%
X231394000Y-165862000D03*
X226314000Y-165862000D03*
%TD*%
%TO.C,R3*%
X231394000Y-168402000D03*
X226314000Y-168402000D03*
%TD*%
%TO.C,R2*%
X231394000Y-170942000D03*
X226314000Y-170942000D03*
%TD*%
%TO.C,R1*%
X214884000Y-177292000D03*
X209804000Y-177292000D03*
%TD*%
%TO.C,ir_sensor_16*%
X225866654Y-46692016D03*
X223520000Y-45720000D03*
X221173346Y-44747984D03*
%TD*%
%TO.C,ir_sensor_15*%
X257066051Y-68852051D03*
X255270000Y-67056000D03*
X253473949Y-65259949D03*
%TD*%
%TO.C,ir_sensor_14*%
X277534032Y-101467308D03*
X276562016Y-99120654D03*
X275590000Y-96774000D03*
%TD*%
%TO.C,ir_sensor_13*%
X284099000Y-139192000D03*
X284099000Y-136652000D03*
X284099000Y-134112000D03*
%TD*%
%TO.C,ir_sensor_11*%
X253473949Y-208044051D03*
X255270000Y-206248000D03*
X257066051Y-204451949D03*
%TD*%
%TO.C,ir_sensor_10*%
X221046346Y-228556016D03*
X223393000Y-227584000D03*
X225739654Y-226611984D03*
%TD*%
%TO.C,ir_sensor_7*%
X114263898Y-204306898D03*
X116059949Y-206102949D03*
X117856000Y-207899000D03*
%TD*%
%TO.C,ir_sensor_6*%
X94023984Y-171897346D03*
X94996000Y-174244000D03*
X95968016Y-176590654D03*
%TD*%
%TO.C,ir_sensor_5*%
X87249000Y-134112000D03*
X87249000Y-136652000D03*
X87249000Y-139192000D03*
%TD*%
%TO.C,ir_sensor_4*%
X96095016Y-96713346D03*
X95123000Y-99060000D03*
X94150984Y-101406654D03*
%TD*%
%TO.C,ir_sensor_3*%
X117796051Y-65203949D03*
X116000000Y-67000000D03*
X114203949Y-68796051D03*
%TD*%
%TO.C,goal_kleur1*%
X214884000Y-182372000D03*
X209804000Y-182372000D03*
%TD*%
%TO.C,dip_swith_instellinen1*%
X239014000Y-170942000D03*
X239014000Y-168402000D03*
X239014000Y-165862000D03*
X239014000Y-163322000D03*
X239014000Y-160782000D03*
X239014000Y-158242000D03*
X246634000Y-158242000D03*
X246634000Y-160782000D03*
X246634000Y-163322000D03*
X246634000Y-165862000D03*
X246634000Y-168402000D03*
X246634000Y-170942000D03*
%TD*%
%TO.C,BZ1*%
X183134000Y-179832000D03*
X178054000Y-179832000D03*
%TD*%
M02*
