M48
; DRILL file {KiCad 5.1.9+dfsg1-1+deb11u1} date Mon Jun 24 23:42:03 2024
; FORMAT={-:-/ absolute / inch / decimal}
; #@! TF.CreationDate,2024-06-24T23:42:03+02:00
; #@! TF.GenerationSoftware,Kicad,Pcbnew,5.1.9+dfsg1-1+deb11u1
; #@! TF.FileFunction,Plated,1,2,PTH
FMAT,2
INCH
T1C0.0157
T2C0.0300
T3C0.0315
T4C0.0433
T5C0.0600
T6C0.1063
T7C0.1378
T8C0.1772
%
G90
G05
T1
X4.8575Y-2.5125
X5.58Y-4.88
X5.9575Y-5.6325
X6.005Y-5.6625
X6.0763Y-4.3875
X6.415Y-4.125
X6.455Y-4.1175
X6.48Y-7.505
X6.49Y-7.46
X6.4925Y-5.65
X6.495Y-4.14
X6.5228Y-4.1678
X6.5581Y-4.1853
X6.6025Y-3.625
X6.625Y-4.214
X6.7437Y-5.5962
X6.8789Y-4.5489
X6.88Y-4.5075
X6.92Y-4.3025
X7.06Y-5.38
X7.215Y-7.245
X7.605Y-3.255
X7.6315Y-3.96
X7.645Y-3.895
X7.7625Y-4.1015
X7.81Y-4.53
X7.86Y-4.58
X8.11Y-4.88
X8.36Y-5.0787
X8.4525Y-3.8175
X8.5889Y-5.6265
X8.6Y-4.1
X8.6125Y-5.595
X8.665Y-5.91
X9.0025Y-4.214
X9.11Y-6.73
X9.12Y-4.5475
X9.335Y-4.0825
X9.52Y-4.87
X9.76Y-4.855
T2
X3.4492Y-5.2775
X3.4492Y-5.3775
X3.4492Y-5.4775
X3.7047Y-3.9934
X3.7047Y-6.7616
X3.7429Y-3.901
X3.7429Y-6.854
X3.7812Y-3.8086
X3.7812Y-6.9464
X4.5086Y-2.72
X4.5086Y-8.035
X4.5793Y-2.6493
X4.5793Y-8.1057
X4.65Y-2.5786
X4.65Y-8.1764
X5.7386Y-1.8512
X5.7386Y-8.9038
X5.831Y-1.8129
X5.831Y-8.9421
X5.9234Y-1.7747
X5.9234Y-8.9803
X6.675Y-6.045
X6.675Y-6.145
X6.675Y-6.245
X6.675Y-6.345
X6.675Y-6.445
X6.675Y-6.545
X6.675Y-6.645
X6.675Y-6.745
X6.96Y-4.38
X7.01Y-7.08
X7.06Y-4.38
X7.16Y-4.38
X7.2075Y-1.5192
X7.2075Y-9.2358
X7.21Y-7.08
X7.26Y-4.38
X7.3075Y-1.5192
X7.3075Y-9.2358
X7.36Y-4.38
X7.4075Y-1.5192
X7.4075Y-9.2358
X7.46Y-4.38
X7.56Y-4.38
X7.66Y-4.38
X7.76Y-4.38
X7.8075Y-3.52
X7.86Y-4.38
X7.945Y-6.045
X7.945Y-6.145
X7.945Y-6.245
X7.945Y-6.345
X7.945Y-6.445
X7.945Y-6.545
X7.945Y-6.645
X7.945Y-6.745
X8.0075Y-3.52
X8.18Y-6.98
X8.26Y-7.18
X8.36Y-5.33
X8.46Y-5.33
X8.46Y-7.18
X8.53Y-6.98
X8.56Y-5.33
X8.66Y-5.33
X8.6916Y-1.7747
X8.6916Y-8.9803
X8.76Y-5.33
X8.784Y-1.8129
X8.784Y-8.9421
X8.84Y-6.43
X8.84Y-6.53
X8.84Y-6.63
X8.84Y-6.73
X8.8764Y-1.8512
X8.8764Y-8.9038
X9.19Y-6.43
X9.19Y-6.53
X9.19Y-6.63
X9.19Y-6.73
X9.41Y-6.435
X9.41Y-6.535
X9.41Y-6.635
X9.41Y-6.735
X9.6725Y-4.93
X9.6725Y-5.03
X9.6725Y-5.13
X9.6725Y-5.23
X9.6725Y-5.33
X9.6725Y-5.43
X9.6725Y-5.53
X9.6725Y-5.63
X9.6725Y-5.73
X9.6725Y-5.83
X9.71Y-6.435
X9.71Y-6.535
X9.71Y-6.635
X9.71Y-6.735
X9.965Y-8.1764
X10.0357Y-2.6493
X10.0357Y-8.1057
X10.1064Y-2.72
X10.1064Y-8.035
X10.1771Y-2.7907
X10.8338Y-3.8086
X10.8338Y-6.9464
X10.8721Y-3.901
X10.8721Y-6.854
X10.9103Y-3.9934
X10.9103Y-6.7616
X11.1658Y-5.2775
X11.1658Y-5.3775
X11.1658Y-5.4775
T3
X5.92Y-3.66
X5.92Y-3.76
X5.92Y-3.86
X5.92Y-3.96
X5.92Y-4.06
X5.92Y-4.16
X5.92Y-4.26
X5.92Y-4.36
X5.92Y-4.46
X5.92Y-4.56
X5.92Y-4.66
X5.92Y-4.76
X5.92Y-4.86
X5.92Y-4.96
X6.01Y-5.3087
X6.1065Y-5.7906
X6.1065Y-5.8694
X6.11Y-5.3087
X6.1853Y-5.7906
X6.1853Y-5.8694
X6.22Y-3.66
X6.22Y-3.76
X6.22Y-3.86
X6.22Y-3.96
X6.22Y-4.06
X6.22Y-4.16
X6.22Y-4.26
X6.22Y-4.36
X6.22Y-4.46
X6.22Y-4.56
X6.22Y-4.66
X6.22Y-4.76
X6.22Y-4.86
X6.22Y-4.96
X6.264Y-5.7906
X6.264Y-5.8694
T4
X5.76Y-5.28
X5.76Y-5.38
X5.76Y-5.48
X5.76Y-5.58
X5.76Y-5.68
X5.76Y-5.78
X5.76Y-5.88
X5.76Y-5.98
X5.76Y-6.08
X5.76Y-6.18
X5.76Y-6.28
X5.76Y-6.38
X5.76Y-6.48
X5.76Y-6.58
X5.76Y-6.68
X5.76Y-6.78
X5.76Y-6.88
X5.76Y-6.98
X5.76Y-7.08
X5.76Y-7.18
X5.76Y-7.28
X5.76Y-7.38
X5.76Y-7.48
X5.76Y-7.58
X5.86Y-7.08
X5.8801Y-5.528
X5.8801Y-5.628
X5.8801Y-5.728
X5.8801Y-5.828
X5.8801Y-5.928
X5.96Y-7.08
X6.06Y-7.08
X6.16Y-7.08
X6.26Y-5.38
X6.26Y-7.08
X6.36Y-5.28
X6.36Y-5.38
X6.36Y-5.48
X6.36Y-5.58
X6.36Y-5.68
X6.36Y-5.78
X6.36Y-5.88
X6.36Y-5.98
X6.36Y-6.08
X6.36Y-6.18
X6.36Y-6.28
X6.36Y-6.38
X6.36Y-6.48
X6.36Y-6.58
X6.36Y-6.68
X6.36Y-6.78
X6.36Y-6.88
X6.36Y-6.98
X6.36Y-7.08
X6.36Y-7.18
X6.36Y-7.28
X6.36Y-7.38
X6.36Y-7.48
X6.36Y-7.58
T5
X6.73Y-5.175
X7.89Y-5.175
T6
X8.525Y-3.54
X8.7219Y-3.54
T7
X4.4946Y-3.7535
X4.4946Y-7.0015
X7.3075Y-2.1295
X7.3075Y-8.6255
X10.1204Y-3.7535
X10.1204Y-7.0015
T8
X9.36Y-3.46
X9.6435Y-3.46
T0
M30
