M48
; DRILL file {KiCad 5.1.9+dfsg1-1+deb11u1} date Sun Jun  9 13:45:25 2024
; FORMAT={-:-/ absolute / inch / decimal}
; #@! TF.CreationDate,2024-06-09T13:45:25+02:00
; #@! TF.GenerationSoftware,Kicad,Pcbnew,5.1.9+dfsg1-1+deb11u1
; #@! TF.FileFunction,Plated,1,2,PTH
FMAT,2
INCH
T1C0.0157
T2C0.0300
T3C0.0315
T4C0.0433
T5C0.0600
T6C0.1063
T7C0.1772
%
G90
G05
T1
X1.3Y-2.15
X1.3Y-2.25
X2.5Y-3.0
X2.5Y-3.15
X2.8558Y-6.8442
X3.05Y-6.9
X3.7Y-3.95
X4.1Y-3.0728
X4.45Y-3.1
X4.5Y-3.15
X4.75Y-3.45
X5.0Y-3.6487
X5.0Y-7.0
X5.25Y-6.85
X6.4Y-1.8
X6.9Y-2.9
T2
X0.7Y-3.85
X0.7Y-3.95
X0.7Y-4.05
X0.8617Y-2.7924
X0.9Y-2.7
X0.9117Y-5.1076
X0.9383Y-2.6076
X0.95Y-5.2
X0.9883Y-5.2924
X1.5793Y-1.7207
X1.5793Y-6.1793
X1.65Y-1.65
X1.65Y-6.25
X1.7207Y-1.5793
X1.7207Y-6.3207
X2.6076Y-0.9883
X2.6076Y-6.9117
X2.7Y-0.95
X2.7Y-6.95
X2.7924Y-0.9117
X2.7924Y-6.9883
X3.315Y-4.615
X3.315Y-4.715
X3.315Y-4.815
X3.315Y-4.915
X3.315Y-5.015
X3.315Y-5.115
X3.315Y-5.215
X3.315Y-5.315
X3.6Y-2.95
X3.65Y-5.65
X3.7Y-2.95
X3.8Y-2.95
X3.85Y-0.7
X3.85Y-5.65
X3.85Y-7.2
X3.9Y-2.95
X3.95Y-0.7
X3.95Y-7.2
X4.0Y-2.95
X4.05Y-0.7
X4.05Y-7.2
X4.1Y-2.95
X4.2Y-2.95
X4.3Y-2.95
X4.4Y-2.95
X4.5Y-2.95
X4.585Y-4.615
X4.585Y-4.715
X4.585Y-4.815
X4.585Y-4.915
X4.585Y-5.015
X4.585Y-5.115
X4.585Y-5.215
X4.585Y-5.315
X4.9Y-5.55
X4.9Y-5.75
X5.0Y-3.9
X5.1Y-3.9
X5.1Y-5.55
X5.1Y-5.75
X5.1076Y-0.9117
X5.1076Y-7.0383
X5.2Y-0.95
X5.2Y-3.9
X5.2Y-7.0
X5.2924Y-0.9883
X5.2924Y-6.9617
X5.3Y-3.9
X5.4Y-3.9
X5.55Y-4.8
X5.55Y-4.9
X5.55Y-5.0
X5.55Y-5.1
X5.55Y-5.2
X5.55Y-5.3
X5.75Y-4.8
X5.75Y-4.9
X5.75Y-5.0
X5.75Y-5.1
X5.75Y-5.2
X5.75Y-5.3
X6.05Y-4.8
X6.05Y-4.9
X6.05Y-5.0
X6.05Y-5.1
X6.05Y-5.2
X6.05Y-5.3
X6.1793Y-1.5793
X6.1793Y-6.3207
X6.25Y-1.65
X6.25Y-6.25
X6.3207Y-1.7207
X6.3207Y-6.1793
X6.35Y-4.8
X6.35Y-4.9
X6.35Y-5.0
X6.35Y-5.1
X6.35Y-5.2
X6.35Y-5.3
X6.9117Y-2.6076
X6.9117Y-5.2924
X6.95Y-2.7
X6.95Y-5.2
X6.9883Y-2.7924
X6.9883Y-5.1076
X7.2Y-3.85
X7.2Y-3.95
X7.2Y-4.05
T3
X2.0Y-2.1
X2.0Y-2.2
X2.0Y-2.3
X2.0Y-2.4
X2.0Y-2.5
X2.0Y-2.6
X2.0Y-2.7
X2.0Y-2.8
X2.0Y-2.9
X2.0Y-3.0
X2.0Y-3.1
X2.0Y-3.2
X2.0Y-3.3
X2.0Y-3.4
X2.3Y-2.1
X2.3Y-2.2
X2.3Y-2.3
X2.3Y-2.4
X2.3Y-2.5
X2.3Y-2.6
X2.3Y-2.7
X2.3Y-2.8
X2.3Y-2.9
X2.3Y-3.0
X2.3Y-3.1
X2.3Y-3.2
X2.3Y-3.3
X2.3Y-3.4
X2.65Y-3.8787
X2.7465Y-4.3606
X2.7465Y-4.4394
X2.75Y-3.8787
X2.8253Y-4.3606
X2.8253Y-4.4394
X2.904Y-4.3606
X2.904Y-4.4394
T4
X2.4Y-3.85
X2.4Y-3.95
X2.4Y-4.05
X2.4Y-4.15
X2.4Y-4.25
X2.4Y-4.35
X2.4Y-4.45
X2.4Y-4.55
X2.4Y-4.65
X2.4Y-4.75
X2.4Y-4.85
X2.4Y-4.95
X2.4Y-5.05
X2.4Y-5.15
X2.4Y-5.25
X2.4Y-5.35
X2.4Y-5.45
X2.4Y-5.55
X2.4Y-5.65
X2.4Y-5.75
X2.4Y-5.85
X2.4Y-5.95
X2.4Y-6.05
X2.4Y-6.15
X2.5Y-5.65
X2.5201Y-4.098
X2.5201Y-4.198
X2.5201Y-4.298
X2.5201Y-4.398
X2.5201Y-4.498
X2.6Y-5.65
X2.7Y-5.65
X2.8Y-5.65
X2.9Y-3.95
X2.9Y-5.65
X3.0Y-3.85
X3.0Y-3.95
X3.0Y-4.05
X3.0Y-4.15
X3.0Y-4.25
X3.0Y-4.35
X3.0Y-4.45
X3.0Y-4.55
X3.0Y-4.65
X3.0Y-4.75
X3.0Y-4.85
X3.0Y-4.95
X3.0Y-5.05
X3.0Y-5.15
X3.0Y-5.25
X3.0Y-5.35
X3.0Y-5.45
X3.0Y-5.55
X3.0Y-5.65
X3.0Y-5.75
X3.0Y-5.85
X3.0Y-5.95
X3.0Y-6.05
X3.0Y-6.15
T5
X3.37Y-3.745
X4.53Y-3.745
T6
X5.8Y-1.95
X5.9969Y-1.95
T7
X5.65Y-2.3
X5.9335Y-2.3
T0
M30
