999
FreeCAD v0.19 
  0
SECTION
  2
HEADER
  9
$ACADVER
  1
AC1014
  9
$ACADMAINTVER
 70
     9
  9
$DWGCODEPAGE
  3
ANSI_1252
  9
$TEXTSTYLE
  7
STANDARD
  9
$DIMSTYLE
  2
STANDARD
  9
$DIMTXSTY
  7
STANDARD
  9
$CMLSTYLE
  2
STANDARD
  9
$PEXTMAX
 10
50
 20
50
 30
50
  9
$PEXTMIN
 10
0
 20
0
 30
0
  9
$HANDSEED
  5
FFFF
  0
ENDSEC
  0
SECTION
  2
CLASSES
  0
CLASS
  1
ACDBDICTIONARYWDFLT
  2
AcDbDictionaryWithDefault
  3
ObjectDBX Classes
 90
        0
280
     0
281
     0
  0
CLASS
  1
XRECORD
  2
AcDbXrecord
  3
ObjectDBX Classes
 90
        0
280
     0
281
     0
  0
CLASS
  1
LWPOLYLINE
  2
AcDbPolyline
  3
ObjectDBX Classes
 90
        0
280
     0
281
     1
  0
ENDSEC
  0
SECTION
  2
TABLES
  0
TABLE
  2
VPORT
  5
20
330
0
100
AcDbSymbolTable
 70
     1
  0
VPORT
  5
21
330
20
100
AcDbSymbolTableRecord
100
AcDbViewportTableRecord
  2
*ACTIVE
 70
     0
  0
ENDTAB
  0
TABLE
  2
LTYPE
  5
22
330
0
100
AcDbSymbolTable
 70
     1
  0
LTYPE
  5
23
330
21
100
AcDbSymbolTableRecord
100
AcDbLinetypeTableRecord
  2
BYBLOCK
 70
     0
  3

 72
    65
 73
     0
 40
0.0
  0
LTYPE
  5
24
330
21
100
AcDbSymbolTableRecord
100
AcDbLinetypeTableRecord
  2
BYLAYER
 70
     0
  3

 72
    65
 73
     0
 40
0.0
  0
LTYPE
  5
25
330
21
100
AcDbSymbolTableRecord
100
AcDbLinetypeTableRecord
  2
CONTINUOUS
 70
     0
  3
Solid line
 72
    65
 73
     0
 40
0.0
  0
ENDTAB
  0
TABLE
  2
LAYER
  5
A09
330
0
100
AcDbSymbolTable
 70
3
  0
LAYER
  5
A0A
330
A09
100
AcDbSymbolTableRecord
100
AcDbLayerTableRecord
  2
0
 70
   0
 62
   7
  6
CONTINUOUS
  0
LAYER
  5
A0B
330
A09
100
AcDbSymbolTableRecord
100
AcDbLayerTableRecord
  2
none
 70
    0
 62
    7
  6
CONTINUOUS
  0
LAYER
  5
A0C
330
A09
100
AcDbSymbolTableRecord
100
AcDbLayerTableRecord
  2
Clone
 70
    0
 62
    7
  6
CONTINUOUS
  0
ENDTAB
  0
TABLE
  2
STYLE
  5
70
330
0
100
AcDbSymbolTable
 70
     2
  0
STYLE
  5
71
330
70
100
AcDbSymbolTableRecord
100
AcDbTextStyleTableRecord
  2
STANDARD
 70
     0
 40
0.0
 41
1.0
 50
0.0
 71
     0
 42
2.5
  3
arial.ttf
  4

  0
STYLE
  5
72
330
70
100
AcDbSymbolTableRecord
100
AcDbTextStyleTableRecord
  2
ANNOTATIVE
 70
     0
 40
0.0
 41
1.0
 50
0.0
 71
     0
 42
2.5
  3
arial.ttf
  4

  0
ENDTAB
  0
TABLE
  2
VIEW
  5
73
330
0
100
AcDbSymbolTable
 70
     0
  0
ENDTAB
  0
TABLE
  2
UCS
  5
74
330
0
100
AcDbSymbolTable
 70
     0
  0
ENDTAB
  0
TABLE
  2
APPID
  5
75
330
0
100
AcDbSymbolTable
 70
     2
  0
APPID
  5
76
330
75
100
AcDbSymbolTableRecord
100
AcDbRegAppTableRecord
  2
ACAD
 70
     0
  0
APPID
  5
77
330
75
100
AcDbSymbolTableRecord
100
AcDbRegAppTableRecord
  2
ACADANNOTATIVE
 70
     0
  0
ENDTAB
  0
TABLE
  2
DIMSTYLE
  5
78
330
0
100
AcDbSymbolTable
 70
     2
  0
DIMSTYLE
105
79
330
78
100
AcDbSymbolTableRecord
100
AcDbDimStyleTableRecord
  2
STANDARD
 70
     0
  3

  4

  5

  6

  7

 40
0.0
 41
2.5
 42
0.625
 43
3.75
 44
1.25
 45
0.0
 46
0.0
 47
0.0
 48
0.0
140
2.5
141
2.5
142
0.0
143
0.03937007874016
144
1.0
145
0.0
146
1.0
147
0.625
 71
     0
 72
     0
 73
     0
 74
     0
 75
     0
 76
     0
 77
     1
 78
     8
170
     0
171
     3
172
     1
173
     0
174
     0
175
     0
176
     0
177
     0
178
     0
270
     2
271
     2
272
     2
273
     2
274
     3
340
71
275
     0
280
     0
281
     0
282
     0
283
     0
284
     8
285
     0
286
     0
287
     3
288
     0
  0
ENDTAB
  0
TABLE
  2
BLOCK_RECORD
  5
A01
330
0
100
AcDbSymbolTable
  70
5
  0
BLOCK_RECORD
  5
A02
330
A01
100
AcDbSymbolTableRecord
100
AcDbBlockTableRecord
  2
*MODEL_SPACE
  0
BLOCK_RECORD
  5
A03
330
A01
100
AcDbSymbolTableRecord
100
AcDbBlockTableRecord
  2
*PAPER_SPACE
  0
ENDTAB
  0
ENDSEC
  0
SECTION
  2
BLOCKS
  0
BLOCK
  5
A04
330
A02
100
AcDbEntity
  8
0
100
AcDbBlockBegin
  2
*MODEL_SPACE
 70
   0
 10
0
 20
0
 30
0
  3
*MODEL_SPACE
  1
 
  0
ENDBLK
  5
A05
330
A02
100
AcDbEntity
  8
0
100
AcDbBlockEnd
  0
BLOCK
  5
A06
330
A03
100
AcDbEntity
 67
1
  8
0
100
AcDbBlockBegin
  2
*PAPER_SPACE
 70
   0
 10
0
 20
0
 30
0
  3
*PAPER_SPACE
  1
 
  0
ENDBLK
  5
A07
330
A03
100
AcDbEntity
 67
    1
  8
0
100
AcDbBlockEnd
  0
ENDSEC
  0
SECTION
  2
ENTITIES
  0
SPLINE
  5
A08
330
A02
100
AcDbEntity
  8
Clone
100
AcDbSpline
210
0
220
0
230
1
 70
9
 71
3
 72
197
 73
193
 74
0
 40
0
 40
0
 40
0
 40
0
 40
0.396875
 40
0.396875
 40
0.396875
 40
0.79375
 40
0.79375
 40
0.79375
 40
1.19062
 40
1.19062
 40
1.19062
 40
1.5875
 40
1.5875
 40
1.5875
 40
1.98437
 40
1.98437
 40
1.98437
 40
2.38125
 40
2.38125
 40
2.38125
 40
2.77812
 40
2.77812
 40
2.77812
 40
3.175
 40
3.175
 40
3.175
 40
3.57187
 40
3.57187
 40
3.57187
 40
3.96875
 40
3.96875
 40
3.96875
 40
4.36562
 40
4.36562
 40
4.36562
 40
4.7625
 40
4.7625
 40
4.7625
 40
5.15937
 40
5.15937
 40
5.15937
 40
5.55625
 40
5.55625
 40
5.55625
 40
5.95312
 40
5.95312
 40
5.95312
 40
6.35
 40
6.35
 40
6.35
 40
6.74687
 40
6.74687
 40
6.74687
 40
7.14375
 40
7.14375
 40
7.14375
 40
7.54062
 40
7.54062
 40
7.54062
 40
7.9375
 40
7.9375
 40
7.9375
 40
8.33437
 40
8.33437
 40
8.33437
 40
8.73125
 40
8.73125
 40
8.73125
 40
9.12812
 40
9.12812
 40
9.12812
 40
9.525
 40
9.525
 40
9.525
 40
9.92187
 40
9.92187
 40
9.92187
 40
10.3187
 40
10.3187
 40
10.3187
 40
10.7156
 40
10.7156
 40
10.7156
 40
11.1125
 40
11.1125
 40
11.1125
 40
11.5094
 40
11.5094
 40
11.5094
 40
11.9062
 40
11.9062
 40
11.9062
 40
12.3031
 40
12.3031
 40
12.3031
 40
12.7
 40
12.7
 40
12.7
 40
13.0969
 40
13.0969
 40
13.0969
 40
13.4937
 40
13.4937
 40
13.4937
 40
13.8906
 40
13.8906
 40
13.8906
 40
14.2875
 40
14.2875
 40
14.2875
 40
14.6844
 40
14.6844
 40
14.6844
 40
15.0812
 40
15.0812
 40
15.0812
 40
15.4781
 40
15.4781
 40
15.4781
 40
15.875
 40
15.875
 40
15.875
 40
16.2719
 40
16.2719
 40
16.2719
 40
16.6687
 40
16.6687
 40
16.6687
 40
17.0656
 40
17.0656
 40
17.0656
 40
17.4625
 40
17.4625
 40
17.4625
 40
17.8594
 40
17.8594
 40
17.8594
 40
18.2562
 40
18.2562
 40
18.2562
 40
18.6531
 40
18.6531
 40
18.6531
 40
19.05
 40
19.05
 40
19.05
 40
19.4469
 40
19.4469
 40
19.4469
 40
19.8437
 40
19.8437
 40
19.8437
 40
20.2406
 40
20.2406
 40
20.2406
 40
20.6375
 40
20.6375
 40
20.6375
 40
21.0344
 40
21.0344
 40
21.0344
 40
21.4312
 40
21.4312
 40
21.4312
 40
21.8281
 40
21.8281
 40
21.8281
 40
22.225
 40
22.225
 40
22.225
 40
22.6219
 40
22.6219
 40
22.6219
 40
23.0187
 40
23.0187
 40
23.0187
 40
23.4156
 40
23.4156
 40
23.4156
 40
23.8125
 40
23.8125
 40
23.8125
 40
24.2094
 40
24.2094
 40
24.2094
 40
24.6062
 40
24.6062
 40
24.6062
 40
25.0031
 40
25.0031
 40
25.0031
 40
25.4
 40
25.4
 40
25.4
 40
25.4
 10
-41.5881
 20
24.0109
 30
0
 10
-40.2783
 20
26.2643
 30
0
 10
-39.5764
 20
28.8702
 30
0
 10
-39.3484
 20
31.745
 30
0
 10
-39.1143
 20
34.6156
 30
0
 10
-39.3435
 20
37.7505
 30
0
 10
-39.7302
 20
40.9479
 30
0
 10
-40.1158
 20
44.1432
 30
0
 10
-40.6483
 20
47.3963
 30
0
 10
-40.9895
 20
50.4484
 30
0
 10
-41.3345
 20
53.5006
 30
0
 10
-41.4772
 20
56.347
 30
0
 10
-41.1859
 20
58.7331
 30
0
 10
-40.9021
 20
61.1215
 30
0
 10
-40.1797
 20
63.0444
 30
0
 10
-39.011
 20
64.3139
 30
0
 10
-37.8476
 20
65.5886
 30
0
 10
-36.2492
 20
66.2037
 30
0
 10
-34.3558
 20
66.1165
 30
0
 10
-32.4626
 20
66.0372
 30
0
 10
-30.2853
 20
65.2496
 30
0
 10
-27.9683
 20
63.9378
 30
0
 10
-25.6492
 20
62.6328
 30
0
 10
-23.1901
 20
60.814
 30
0
 10
-20.6763
 20
58.8581
 30
0
 10
-18.161
 20
56.9038
 30
0
 10
-15.5897
 20
54.8239
 30
0
 10
-13.004
 20
53.0391
 30
0
 10
-10.4174
 20
51.2504
 30
0
 10
-7.8151
 20
49.7682
 30
0
 10
-5.21125
 20
48.9061
 30
0
 10
-2.60702
 20
48.0348
 30
0
 10
3.47131e-05
 20
47.795
 30
0
 10
2.60662
 20
48.2424
 30
0
 10
5.213
 20
48.6796
 30
0
 10
7.82017
 20
49.7954
 30
0
 10
10.4191
 20
51.346
 30
0
 10
13.0172
 20
52.8909
 30
0
 10
15.6084
 20
54.8592
 30
0
 10
18.1614
 20
56.8493
 30
0
 10
20.7131
 20
58.8392
 30
0
 10
23.2278
 20
60.8395
 30
0
 10
25.636
 20
62.4423
 30
0
 10
28.0424
 20
64.0501
 30
0
 10
30.3435
 20
65.2488
 30
0
 10
32.4145
 20
65.7752
 30
0
 10
34.4848
 20
66.3096
 30
0
 10
36.3178
 20
66.1723
 30
0
 10
37.7558
 20
65.3396
 30
0
 10
39.1973
 20
64.513
 30
0
 10
40.2331
 20
62.997
 30
0
 10
40.8048
 20
60.9401
 30
0
 10
41.3838
 20
58.8864
 30
0
 10
41.4946
 20
56.2976
 30
0
 10
41.3026
 20
53.413
 30
0
 10
41.116
 20
50.5292
 30
0
 10
40.6373
 20
47.3542
 30
0
 10
40.1855
 20
44.1518
 30
0
 10
39.7341
 20
40.9481
 30
0
 10
39.3202
 20
37.7216
 30
0
 10
39.2763
 20
34.6997
 30
0
 10
39.2279
 20
31.6743
 30
0
 10
39.5601
 20
28.858
 30
0
 10
40.4802
 20
26.3806
 30
0
 10
41.3915
 20
23.8979
 30
0
 10
42.8987
 20
21.7572
 30
0
 10
44.9522
 20
19.9338
 30
0
 10
46.9976
 20
18.1061
 30
0
 10
49.58
 20
16.589
 30
0
 10
52.421
 20
15.2383
 30
0
 10
55.2582
 20
13.8867
 30
0
 10
58.3447
 20
12.6946
 30
0
 10
61.2952
 20
11.4887
 30
0
 10
64.2464
 20
10.2848
 30
0
 10
67.0524
 20
9.06029
 30
0
 10
69.3439
 20
7.70103
 30
0
 10
71.6402
 20
6.34691
 30
0
 10
73.4133
 20
4.85263
 30
0
 10
74.4311
 20
3.25132
 30
0
 10
75.456
 20
1.65378
 30
0
 10
75.7252
 20
-0.0383833
 30
0
 10
75.2057
 20
-1.68252
 30
0
 10
74.6932
 20
-3.32873
 30
0
 10
73.3918
 20
-4.91402
 30
0
 10
71.4673
 20
-6.35122
 30
0
 10
69.5488
 20
-7.79377
 30
0
 10
67.014
 20
-9.08962
 30
0
 10
64.1992
 20
-10.3125
 30
0
 10
61.3864
 20
-11.5386
 30
0
 10
58.303
 20
-12.699
 30
0
 10
55.3422
 20
-13.9578
 30
0
 10
52.3791
 20
-15.2166
 30
0
 10
49.5479
 20
-16.5806
 30
0
 10
47.1764
 20
-18.2144
 30
0
 10
44.7981
 20
-19.845
 30
0
 10
42.8888
 20
-21.7523
 30
0
 10
41.5881
 20
-24.0109
 30
0
 10
40.2783
 20
-26.2643
 30
0
 10
39.5764
 20
-28.8702
 30
0
 10
39.3484
 20
-31.745
 30
0
 10
39.1143
 20
-34.6156
 30
0
 10
39.3435
 20
-37.7505
 30
0
 10
39.7302
 20
-40.9479
 30
0
 10
40.1158
 20
-44.1432
 30
0
 10
40.6483
 20
-47.3963
 30
0
 10
40.9895
 20
-50.4484
 30
0
 10
41.3345
 20
-53.5006
 30
0
 10
41.4772
 20
-56.347
 30
0
 10
41.1859
 20
-58.7331
 30
0
 10
40.9021
 20
-61.1215
 30
0
 10
40.1797
 20
-63.0444
 30
0
 10
39.011
 20
-64.3139
 30
0
 10
37.8476
 20
-65.5886
 30
0
 10
36.2492
 20
-66.2037
 30
0
 10
34.3558
 20
-66.1165
 30
0
 10
32.4626
 20
-66.0372
 30
0
 10
30.2853
 20
-65.2496
 30
0
 10
27.9683
 20
-63.9378
 30
0
 10
25.6492
 20
-62.6328
 30
0
 10
23.1901
 20
-60.814
 30
0
 10
20.6763
 20
-58.8581
 30
0
 10
18.161
 20
-56.9038
 30
0
 10
15.5897
 20
-54.8239
 30
0
 10
13.004
 20
-53.0391
 30
0
 10
10.4174
 20
-51.2504
 30
0
 10
7.8151
 20
-49.7682
 30
0
 10
5.21125
 20
-48.9061
 30
0
 10
2.60702
 20
-48.0348
 30
0
 10
-3.47131e-05
 20
-47.795
 30
0
 10
-2.60662
 20
-48.2424
 30
0
 10
-5.213
 20
-48.6796
 30
0
 10
-7.82017
 20
-49.7954
 30
0
 10
-10.4191
 20
-51.346
 30
0
 10
-13.0172
 20
-52.8909
 30
0
 10
-15.6084
 20
-54.8592
 30
0
 10
-18.1614
 20
-56.8493
 30
0
 10
-20.7131
 20
-58.8392
 30
0
 10
-23.2278
 20
-60.8395
 30
0
 10
-25.636
 20
-62.4423
 30
0
 10
-28.0424
 20
-64.0501
 30
0
 10
-30.3435
 20
-65.2488
 30
0
 10
-32.4145
 20
-65.7752
 30
0
 10
-34.4848
 20
-66.3096
 30
0
 10
-36.3178
 20
-66.1723
 30
0
 10
-37.7558
 20
-65.3396
 30
0
 10
-39.1973
 20
-64.513
 30
0
 10
-40.2331
 20
-62.997
 30
0
 10
-40.8048
 20
-60.9401
 30
0
 10
-41.3838
 20
-58.8864
 30
0
 10
-41.4946
 20
-56.2976
 30
0
 10
-41.3026
 20
-53.413
 30
0
 10
-41.116
 20
-50.5292
 30
0
 10
-40.6373
 20
-47.3542
 30
0
 10
-40.1855
 20
-44.1518
 30
0
 10
-39.7341
 20
-40.9481
 30
0
 10
-39.3202
 20
-37.7216
 30
0
 10
-39.2763
 20
-34.6997
 30
0
 10
-39.2279
 20
-31.6743
 30
0
 10
-39.5601
 20
-28.858
 30
0
 10
-40.4802
 20
-26.3806
 30
0
 10
-41.3915
 20
-23.8979
 30
0
 10
-42.8987
 20
-21.7572
 30
0
 10
-44.9522
 20
-19.9338
 30
0
 10
-46.9976
 20
-18.1061
 30
0
 10
-49.58
 20
-16.589
 30
0
 10
-52.421
 20
-15.2383
 30
0
 10
-55.2582
 20
-13.8867
 30
0
 10
-58.3447
 20
-12.6946
 30
0
 10
-61.2952
 20
-11.4887
 30
0
 10
-64.2464
 20
-10.2848
 30
0
 10
-67.0524
 20
-9.06029
 30
0
 10
-69.3439
 20
-7.70103
 30
0
 10
-71.6402
 20
-6.34691
 30
0
 10
-73.4133
 20
-4.85263
 30
0
 10
-74.4311
 20
-3.25132
 30
0
 10
-75.456
 20
-1.65378
 30
0
 10
-75.7252
 20
0.0383833
 30
0
 10
-75.2057
 20
1.68252
 30
0
 10
-74.6932
 20
3.32873
 30
0
 10
-73.3918
 20
4.91402
 30
0
 10
-71.4673
 20
6.35122
 30
0
 10
-69.5488
 20
7.79377
 30
0
 10
-67.014
 20
9.08962
 30
0
 10
-64.1992
 20
10.3125
 30
0
 10
-61.3864
 20
11.5386
 30
0
 10
-58.303
 20
12.699
 30
0
 10
-55.3422
 20
13.9578
 30
0
 10
-52.3791
 20
15.2166
 30
0
 10
-49.5479
 20
16.5806
 30
0
 10
-47.1764
 20
18.2144
 30
0
 10
-44.7981
 20
19.845
 30
0
 10
-42.8888
 20
21.7523
 30
0
 10
-41.5881
 20
24.0109
 30
0
  0
ENDSEC
  0
SECTION
  2
OBJECTS
  0
DICTIONARY
  5
F000
330
0
100
AcDbDictionary
  3
ACAD_GROUP
350
F001
  0
DICTIONARY
  5
F001
330
F000
100
AcDbDictionary
  0
ENDSEC
  0
EOF