M48
; DRILL file {KiCad 5.1.9+dfsg1-1+deb11u1} date Tue Jun 25 08:23:59 2024
; FORMAT={-:-/ absolute / inch / decimal}
; #@! TF.CreationDate,2024-06-25T08:23:59+02:00
; #@! TF.GenerationSoftware,Kicad,Pcbnew,5.1.9+dfsg1-1+deb11u1
; #@! TF.FileFunction,Plated,1,2,PTH
FMAT,2
INCH
T1C0.0157
T2C0.0300
T3C0.0315
T4C0.0709
T5C0.0860
T6C0.1378
%
G90
G05
T1
X3.075Y-3.275
X3.4Y-4.85
X3.5715Y-4.825
X4.075Y-5.0037
X4.1465Y-4.875
X4.225Y-4.75
X4.25Y-3.9
X4.45Y-4.0
X4.5285Y-1.925
X4.55Y-4.075
X4.575Y-2.45
X4.725Y-3.85
X4.75Y-4.025
X4.75Y-4.3785
X4.7785Y-4.175
X4.85Y-3.6965
X5.025Y-3.8
X5.1465Y-4.1035
X5.1489Y-4.1463
X5.2965Y-3.45
X5.3382Y-3.7
X5.375Y-3.475
X5.4231Y-4.1116
X5.425Y-4.1715
X5.45Y-3.875
X5.4549Y-4.1458
X5.4564Y-4.0831
X5.5465Y-4.3
X5.5535Y-4.45
X5.6463Y-4.175
X5.65Y-4.125
X5.6522Y-4.2383
T2
X2.2244Y-2.8735
X2.311Y-2.9235
X2.3866Y-5.4075
X2.3976Y-2.9735
X2.4732Y-5.3575
X2.4842Y-3.0235
X2.5598Y-5.3075
X2.5708Y-3.0735
X2.6464Y-5.2575
X2.6574Y-3.1235
X2.733Y-5.2075
X2.744Y-3.1735
X2.8196Y-5.1575
X2.9062Y-5.1075
X3.5Y-3.95
X3.5Y-4.95
X3.6Y-3.95
X3.6Y-4.95
X3.625Y-5.075
X3.7Y-3.95
X3.7Y-4.95
X3.725Y-5.075
X3.8Y-3.05
X3.8Y-3.95
X3.8Y-4.05
X3.8Y-4.95
X3.825Y-5.075
X3.9Y-3.05
X3.9Y-3.95
X3.9Y-4.05
X3.9Y-4.95
X3.925Y-5.075
X4.0Y-3.05
X4.0Y-3.95
X4.0Y-4.05
X4.0Y-4.95
X4.05Y-5.075
X4.075Y-2.85
X4.1Y-3.05
X4.1Y-3.95
X4.1Y-4.05
X4.1Y-4.95
X4.15Y-5.075
X4.2Y-3.95
X4.2Y-4.95
X4.25Y-5.075
X4.275Y-2.85
X4.3Y-3.95
X4.3Y-4.95
X4.3378Y-1.466
X4.3378Y-1.566
X4.3378Y-1.666
X4.3378Y-1.766
X4.3378Y-1.866
X4.3378Y-1.966
X4.3378Y-2.066
X4.35Y-5.075
X4.4Y-3.95
X4.4Y-4.95
X4.5Y-5.2
X4.525Y-2.925
X4.525Y-3.025
X4.525Y-3.125
X4.525Y-3.225
X4.525Y-3.325
X4.525Y-3.425
X4.525Y-3.525
X4.525Y-3.625
X4.525Y-3.725
X4.525Y-3.825
X4.6Y-5.2
X4.6972Y-5.934
X4.6972Y-6.034
X4.6972Y-6.134
X4.6972Y-6.234
X4.6972Y-6.334
X4.6972Y-6.434
X4.6972Y-6.534
X4.7Y-5.2
X4.8Y-4.3
X4.8Y-5.2
X4.9Y-4.3
X4.9Y-5.2
X5.0Y-4.3
X5.0Y-5.2
X5.05Y-3.375
X5.1Y-4.3
X5.1Y-5.2
X5.15Y-3.375
X5.2Y-5.2
X5.25Y-3.375
X5.3Y-5.2
X5.35Y-3.375
X5.4Y-5.2
X6.0938Y-2.8925
X6.1804Y-2.8425
X6.256Y-4.8265
X6.267Y-2.7925
X6.3426Y-4.8765
X6.3536Y-2.7425
X6.4292Y-4.9265
X6.4402Y-2.6925
X6.5158Y-4.9765
X6.5268Y-2.6425
X6.6024Y-5.0265
X6.6134Y-2.5925
X6.689Y-5.0765
X6.7756Y-5.1265
T3
X4.65Y-2.875
X4.65Y-2.975
X4.65Y-3.075
X4.65Y-3.175
X4.65Y-3.275
X4.65Y-3.375
X4.65Y-3.475
X4.65Y-3.575
X4.65Y-3.675
X4.65Y-3.775
X4.65Y-3.875
X4.65Y-3.975
X4.65Y-4.075
X4.65Y-4.175
X4.95Y-2.875
X4.95Y-2.975
X4.95Y-3.075
X4.95Y-3.175
X4.95Y-3.275
X4.95Y-3.375
X4.95Y-3.475
X4.95Y-3.575
X4.95Y-3.675
X4.95Y-3.775
X4.95Y-3.875
X4.95Y-3.975
X4.95Y-4.075
X4.95Y-4.175
T4
X4.5354Y-5.75
X4.5354Y-6.7185
T5
X3.55Y-3.1
X3.55Y-4.1
X4.35Y-3.1
X4.35Y-4.1
X4.55Y-4.35
X5.35Y-4.35
T6
X2.1389Y-2.6368
X2.1389Y-5.3632
X2.9913Y-3.1289
X2.9913Y-4.8711
X3.2482Y-3.2773
X3.2482Y-4.7227
X4.5Y-1.2736
X4.5Y-2.2579
X4.5Y-2.5545
X4.5Y-5.4455
X5.7518Y-3.2773
X5.7518Y-4.7227
X6.0087Y-3.1289
X6.0087Y-4.8711
X6.8611Y-2.6368
X6.8611Y-5.3632
T0
M30
