%TF.GenerationSoftware,KiCad,Pcbnew,5.1.9+dfsg1-1+deb11u1*%
%TF.CreationDate,2024-06-25T08:23:57+02:00*%
%TF.ProjectId,pcb_onder,7063625f-6f6e-4646-9572-2e6b69636164,rev?*%
%TF.SameCoordinates,Original*%
%TF.FileFunction,Copper,L1,Top*%
%TF.FilePolarity,Positive*%
%FSLAX46Y46*%
G04 Gerber Fmt 4.6, Leading zero omitted, Abs format (unit mm)*
G04 Created by KiCad (PCBNEW 5.1.9+dfsg1-1+deb11u1) date 2024-06-25 08:23:57*
%MOMM*%
%LPD*%
G01*
G04 APERTURE LIST*
%TA.AperFunction,ComponentPad*%
%ADD10C,1.524000*%
%TD*%
%TA.AperFunction,ComponentPad*%
%ADD11C,5.000000*%
%TD*%
%TA.AperFunction,ComponentPad*%
%ADD12C,3.048000*%
%TD*%
%TA.AperFunction,ComponentPad*%
%ADD13O,1.600000X1.600000*%
%TD*%
%TA.AperFunction,ComponentPad*%
%ADD14R,1.600000X1.600000*%
%TD*%
%TA.AperFunction,SMDPad,CuDef*%
%ADD15R,1.750000X0.450000*%
%TD*%
%TA.AperFunction,ViaPad*%
%ADD16C,0.800000*%
%TD*%
%TA.AperFunction,Conductor*%
%ADD17C,0.250000*%
%TD*%
G04 APERTURE END LIST*
D10*
%TO.P,kleur_sensor_1,6*%
%TO.N,Net-(kleur_sensor_1-Pad6)*%
X167980239Y-65850102D03*
%TO.P,kleur_sensor_1,3*%
%TO.N,gnd*%
X165780534Y-67120102D03*
%TO.P,kleur_sensor_1,2*%
%TO.N,3.3v*%
X163580830Y-68390102D03*
%TO.P,kleur_sensor_1,1*%
%TO.N,Net-(i2c_multiplexer1-Pad5)*%
X161381125Y-69660102D03*
%TO.P,kleur_sensor_1,0*%
%TO.N,Net-(i2c_multiplexer1-Pad4)*%
X159181421Y-70930102D03*
%TO.P,kleur_sensor_1,5*%
%TO.N,Net-(kleur_sensor_1-Pad5)*%
X156981716Y-72200102D03*
%TO.P,kleur_sensor_1,4*%
%TO.N,Net-(kleur_sensor_1-Pad4)*%
X154782012Y-73470102D03*
D11*
%TO.P,kleur_sensor_1,7*%
%TO.N,gnd*%
X174272259Y-66975000D03*
X152621623Y-79475000D03*
%TD*%
D10*
%TO.P,kleur_sensor_6,6*%
%TO.N,Net-(kleur_sensor_6-Pad6)*%
X172100439Y-130213501D03*
%TO.P,kleur_sensor_6,3*%
%TO.N,gnd*%
X169900734Y-128943501D03*
%TO.P,kleur_sensor_6,2*%
%TO.N,3.3v*%
X167701030Y-127673501D03*
%TO.P,kleur_sensor_6,1*%
%TO.N,Net-(i2c_multiplexer1-Pad16)*%
X165501325Y-126403501D03*
%TO.P,kleur_sensor_6,0*%
%TO.N,Net-(i2c_multiplexer1-Pad15)*%
X163301621Y-125133501D03*
%TO.P,kleur_sensor_6,5*%
%TO.N,Net-(kleur_sensor_6-Pad5)*%
X161101916Y-123863501D03*
%TO.P,kleur_sensor_6,4*%
%TO.N,Net-(kleur_sensor_6-Pad4)*%
X158902212Y-122593501D03*
D11*
%TO.P,kleur_sensor_6,7*%
%TO.N,gnd*%
X174272259Y-136224999D03*
X152621623Y-123724999D03*
%TD*%
D10*
%TO.P,kleur_sensor_4,6*%
%TO.N,Net-(kleur_sensor_4-Pad6)*%
X60619761Y-137349897D03*
%TO.P,kleur_sensor_4,3*%
%TO.N,gnd*%
X62819466Y-136079897D03*
%TO.P,kleur_sensor_4,2*%
%TO.N,3.3v*%
X65019170Y-134809897D03*
%TO.P,kleur_sensor_4,1*%
%TO.N,Net-(i2c_multiplexer1-Pad11)*%
X67218875Y-133539897D03*
%TO.P,kleur_sensor_4,0*%
%TO.N,Net-(i2c_multiplexer1-Pad10)*%
X69418579Y-132269897D03*
%TO.P,kleur_sensor_4,5*%
%TO.N,Net-(kleur_sensor_4-Pad5)*%
X71618284Y-130999897D03*
%TO.P,kleur_sensor_4,4*%
%TO.N,Net-(kleur_sensor_4-Pad4)*%
X73817988Y-129729897D03*
D11*
%TO.P,kleur_sensor_4,7*%
%TO.N,gnd*%
X54327741Y-136224999D03*
X75978377Y-123724999D03*
%TD*%
D10*
%TO.P,kleur_sensor_2,6*%
%TO.N,Net-(kleur_sensor_2-Pad6)*%
X110179800Y-37236600D03*
%TO.P,kleur_sensor_2,3*%
%TO.N,gnd*%
X110179800Y-39776600D03*
%TO.P,kleur_sensor_2,2*%
%TO.N,3.3v*%
X110179800Y-42316600D03*
%TO.P,kleur_sensor_2,1*%
%TO.N,Net-(i2c_multiplexer1-Pad7)*%
X110179800Y-44856600D03*
%TO.P,kleur_sensor_2,0*%
%TO.N,Net-(i2c_multiplexer1-Pad6)*%
X110179800Y-47396600D03*
%TO.P,kleur_sensor_2,5*%
%TO.N,Net-(kleur_sensor_2-Pad5)*%
X110179800Y-49936600D03*
%TO.P,kleur_sensor_2,4*%
%TO.N,Net-(kleur_sensor_2-Pad4)*%
X110179800Y-52476600D03*
D11*
%TO.P,kleur_sensor_2,7*%
%TO.N,gnd*%
X114300000Y-32350000D03*
X114300000Y-57350000D03*
%TD*%
D10*
%TO.P,kleur_sensor_3,6*%
%TO.N,Net-(kleur_sensor_3-Pad6)*%
X56499561Y-72986498D03*
%TO.P,kleur_sensor_3,3*%
%TO.N,gnd*%
X58699266Y-74256498D03*
%TO.P,kleur_sensor_3,2*%
%TO.N,3.3v*%
X60898970Y-75526498D03*
%TO.P,kleur_sensor_3,1*%
%TO.N,Net-(i2c_multiplexer1-Pad9)*%
X63098675Y-76796498D03*
%TO.P,kleur_sensor_3,0*%
%TO.N,Net-(i2c_multiplexer1-Pad8)*%
X65298379Y-78066498D03*
%TO.P,kleur_sensor_3,5*%
%TO.N,Net-(kleur_sensor_3-Pad5)*%
X67498084Y-79336498D03*
%TO.P,kleur_sensor_3,4*%
%TO.N,Net-(kleur_sensor_3-Pad4)*%
X69697788Y-80606498D03*
D11*
%TO.P,kleur_sensor_3,7*%
%TO.N,gnd*%
X54327741Y-66975000D03*
X75978377Y-79475000D03*
%TD*%
%TO.P,U6,1*%
%TO.N,gnd*%
X114300000Y-138315000D03*
%TD*%
%TO.P,U5,1*%
%TO.N,gnd*%
X82503878Y-119957499D03*
%TD*%
%TO.P,U4,1*%
%TO.N,gnd*%
X82503878Y-83242500D03*
%TD*%
%TO.P,U3,1*%
%TO.N,gnd*%
X146096122Y-83242501D03*
%TD*%
%TO.P,U2,1*%
%TO.N,gnd*%
X114300000Y-64885000D03*
%TD*%
%TO.P,U1,1*%
%TO.N,gnd*%
X146096122Y-119957499D03*
%TD*%
D10*
%TO.P,i2c_res1,2*%
%TO.N,3.3v*%
X103505000Y-72390000D03*
%TO.P,i2c_res1,1*%
%TO.N,Net-(i2c_res1-Pad1)*%
X108585000Y-72390000D03*
%TD*%
D12*
%TO.P,kleur_sensor_5,7*%
%TO.N,gnd*%
X115200000Y-146050000D03*
X115200000Y-170650000D03*
D10*
%TO.P,kleur_sensor_5,4*%
%TO.N,Net-(kleur_sensor_5-Pad4)*%
X119309200Y-150723400D03*
%TO.P,kleur_sensor_5,5*%
%TO.N,Net-(kleur_sensor_5-Pad5)*%
X119309200Y-153263400D03*
%TO.P,kleur_sensor_5,0*%
%TO.N,Net-(i2c_multiplexer1-Pad13)*%
X119309200Y-155803400D03*
%TO.P,kleur_sensor_5,1*%
%TO.N,Net-(i2c_multiplexer1-Pad14)*%
X119309200Y-158343400D03*
%TO.P,kleur_sensor_5,2*%
%TO.N,3.3v*%
X119309200Y-160883400D03*
%TO.P,kleur_sensor_5,3*%
%TO.N,gnd*%
X119309200Y-163423400D03*
%TO.P,kleur_sensor_5,6*%
%TO.N,Net-(kleur_sensor_5-Pad6)*%
X119309200Y-165963400D03*
%TD*%
D13*
%TO.P,port_multiplexer_2,28*%
%TO.N,Net-(motor2-Pad3)*%
X118110000Y-106045000D03*
%TO.P,port_multiplexer_2,14*%
%TO.N,Net-(port_multiplexer_2-Pad14)*%
X125730000Y-73025000D03*
%TO.P,port_multiplexer_2,27*%
%TO.N,Net-(motor2-Pad2)*%
X118110000Y-103505000D03*
%TO.P,port_multiplexer_2,13*%
%TO.N,sda*%
X125730000Y-75565000D03*
%TO.P,port_multiplexer_2,26*%
%TO.N,Net-(motor1-Pad3)*%
X118110000Y-100965000D03*
%TO.P,port_multiplexer_2,12*%
%TO.N,scl*%
X125730000Y-78105000D03*
%TO.P,port_multiplexer_2,25*%
%TO.N,Net-(motor1-Pad2)*%
X118110000Y-98425000D03*
%TO.P,port_multiplexer_2,11*%
%TO.N,Net-(port_multiplexer_2-Pad11)*%
X125730000Y-80645000D03*
%TO.P,port_multiplexer_2,24*%
%TO.N,Net-(motor_driver3-Pad9)*%
X118110000Y-95885000D03*
%TO.P,port_multiplexer_2,10*%
%TO.N,gnd*%
X125730000Y-83185000D03*
%TO.P,port_multiplexer_2,23*%
%TO.N,Net-(motor_driver3-Pad10)*%
X118110000Y-93345000D03*
%TO.P,port_multiplexer_2,9*%
%TO.N,3.3v*%
X125730000Y-85725000D03*
%TO.P,port_multiplexer_2,22*%
%TO.N,Net-(motor_driver3-Pad11)*%
X118110000Y-90805000D03*
%TO.P,port_multiplexer_2,8*%
%TO.N,Net-(motor_driver2-Pad9)*%
X125730000Y-88265000D03*
%TO.P,port_multiplexer_2,21*%
%TO.N,Net-(motor_driver3-Pad12)*%
X118110000Y-88265000D03*
%TO.P,port_multiplexer_2,7*%
%TO.N,Net-(motor_driver2-Pad10)*%
X125730000Y-90805000D03*
%TO.P,port_multiplexer_2,20*%
%TO.N,Net-(port_multiplexer_2-Pad20)*%
X118110000Y-85725000D03*
%TO.P,port_multiplexer_2,6*%
%TO.N,Net-(motor_driver2-Pad11)*%
X125730000Y-93345000D03*
%TO.P,port_multiplexer_2,19*%
%TO.N,Net-(port_multiplexer_2-Pad19)*%
X118110000Y-83185000D03*
%TO.P,port_multiplexer_2,5*%
%TO.N,Net-(motor_driver2-Pad12)*%
X125730000Y-95885000D03*
%TO.P,port_multiplexer_2,18*%
%TO.N,Net-(port_multiplexer_2-Pad18)*%
X118110000Y-80645000D03*
%TO.P,port_multiplexer_2,4*%
%TO.N,Net-(motor_driver1-Pad9)*%
X125730000Y-98425000D03*
%TO.P,port_multiplexer_2,17*%
%TO.N,gnd*%
X118110000Y-78105000D03*
%TO.P,port_multiplexer_2,3*%
%TO.N,Net-(motor_driver1-Pad10)*%
X125730000Y-100965000D03*
%TO.P,port_multiplexer_2,16*%
%TO.N,Net-(i2c_res1-Pad1)*%
X118110000Y-75565000D03*
%TO.P,port_multiplexer_2,2*%
%TO.N,Net-(motor_driver1-Pad11)*%
X125730000Y-103505000D03*
%TO.P,port_multiplexer_2,15*%
%TO.N,gnd*%
X118110000Y-73025000D03*
D14*
%TO.P,port_multiplexer_2,1*%
%TO.N,Net-(motor_driver1-Pad12)*%
X125730000Y-106045000D03*
%TD*%
D12*
%TO.P,motor_driver3,15*%
%TO.N,gnd*%
X110490000Y-104140000D03*
X90170000Y-104140000D03*
D10*
%TO.P,motor_driver3,4*%
%TO.N,Net-(motor3-PadNC)*%
X96520000Y-102870000D03*
%TO.P,motor_driver3,3*%
X99060000Y-102870000D03*
%TO.P,motor_driver3,2*%
%TO.N,gnd*%
X101600000Y-102870000D03*
%TO.P,motor_driver3,1*%
%TO.N,12v*%
X104140000Y-102870000D03*
%TO.P,motor_driver3,14*%
%TO.N,Net-(motor_driver3-Pad14)*%
X111760000Y-125730000D03*
%TO.P,motor_driver3,12*%
%TO.N,Net-(motor_driver3-Pad12)*%
X106680000Y-125730000D03*
%TO.P,motor_driver3,13*%
%TO.N,Net-(motor_driver3-Pad13)*%
X109220000Y-125730000D03*
%TO.P,motor_driver3,11*%
%TO.N,Net-(motor_driver3-Pad11)*%
X104140000Y-125730000D03*
%TO.P,motor_driver3,10*%
%TO.N,Net-(motor_driver3-Pad10)*%
X101600000Y-125730000D03*
%TO.P,motor_driver3,9*%
%TO.N,Net-(motor_driver3-Pad9)*%
X99060000Y-125730000D03*
%TO.P,motor_driver3,8*%
%TO.N,Net-(motor_driver3-Pad8)*%
X96520000Y-125730000D03*
%TO.P,motor_driver3,7*%
%TO.N,3.3v*%
X93980000Y-125730000D03*
%TO.P,motor_driver3,6*%
%TO.N,gnd*%
X91440000Y-125730000D03*
%TO.P,motor_driver3,5*%
%TO.N,Net-(motor_driver3-Pad5)*%
X88900000Y-125730000D03*
%TD*%
D12*
%TO.P,motor_driver2,15*%
%TO.N,gnd*%
X110490000Y-78740000D03*
X90170000Y-78740000D03*
D10*
%TO.P,motor_driver2,4*%
%TO.N,Net-(motor2-PadNC)*%
X96520000Y-77470000D03*
%TO.P,motor_driver2,3*%
X99060000Y-77470000D03*
%TO.P,motor_driver2,2*%
%TO.N,gnd*%
X101600000Y-77470000D03*
%TO.P,motor_driver2,1*%
%TO.N,12v*%
X104140000Y-77470000D03*
%TO.P,motor_driver2,14*%
%TO.N,Net-(motor_driver2-Pad14)*%
X111760000Y-100330000D03*
%TO.P,motor_driver2,12*%
%TO.N,Net-(motor_driver2-Pad12)*%
X106680000Y-100330000D03*
%TO.P,motor_driver2,13*%
%TO.N,Net-(motor_driver2-Pad13)*%
X109220000Y-100330000D03*
%TO.P,motor_driver2,11*%
%TO.N,Net-(motor_driver2-Pad11)*%
X104140000Y-100330000D03*
%TO.P,motor_driver2,10*%
%TO.N,Net-(motor_driver2-Pad10)*%
X101600000Y-100330000D03*
%TO.P,motor_driver2,9*%
%TO.N,Net-(motor_driver2-Pad9)*%
X99060000Y-100330000D03*
%TO.P,motor_driver2,8*%
%TO.N,Net-(motor_driver2-Pad8)*%
X96520000Y-100330000D03*
%TO.P,motor_driver2,7*%
%TO.N,3.3v*%
X93980000Y-100330000D03*
%TO.P,motor_driver2,6*%
%TO.N,gnd*%
X91440000Y-100330000D03*
%TO.P,motor_driver2,5*%
%TO.N,Net-(motor_driver2-Pad5)*%
X88900000Y-100330000D03*
%TD*%
D12*
%TO.P,motor_driver1,15*%
%TO.N,gnd*%
X135890000Y-110490000D03*
X115570000Y-110490000D03*
D10*
%TO.P,motor_driver1,4*%
%TO.N,Net-(motor1-PadNC)*%
X121920000Y-109220000D03*
%TO.P,motor_driver1,3*%
X124460000Y-109220000D03*
%TO.P,motor_driver1,2*%
%TO.N,gnd*%
X127000000Y-109220000D03*
%TO.P,motor_driver1,1*%
%TO.N,12v*%
X129540000Y-109220000D03*
%TO.P,motor_driver1,14*%
%TO.N,Net-(motor_driver1-Pad14)*%
X137160000Y-132080000D03*
%TO.P,motor_driver1,12*%
%TO.N,Net-(motor_driver1-Pad12)*%
X132080000Y-132080000D03*
%TO.P,motor_driver1,13*%
%TO.N,Net-(motor_driver1-Pad13)*%
X134620000Y-132080000D03*
%TO.P,motor_driver1,11*%
%TO.N,Net-(motor_driver1-Pad11)*%
X129540000Y-132080000D03*
%TO.P,motor_driver1,10*%
%TO.N,Net-(motor_driver1-Pad10)*%
X127000000Y-132080000D03*
%TO.P,motor_driver1,9*%
%TO.N,Net-(motor_driver1-Pad9)*%
X124460000Y-132080000D03*
%TO.P,motor_driver1,8*%
%TO.N,Net-(motor_driver1-Pad8)*%
X121920000Y-132080000D03*
%TO.P,motor_driver1,7*%
%TO.N,3.3v*%
X119380000Y-132080000D03*
%TO.P,motor_driver1,6*%
%TO.N,gnd*%
X116840000Y-132080000D03*
%TO.P,motor_driver1,5*%
%TO.N,Net-(motor_driver1-Pad5)*%
X114300000Y-132080000D03*
%TD*%
%TO.P,motor3,4*%
%TO.N,gnd*%
X135890000Y-85725000D03*
%TO.P,motor3,3*%
%TO.N,B*%
X133350000Y-85725000D03*
%TO.P,motor3,2*%
%TO.N,A*%
X130810000Y-85725000D03*
%TO.P,motor3,1*%
%TO.N,5v*%
X128270000Y-85725000D03*
%TD*%
%TO.P,motor2,4*%
%TO.N,gnd*%
X99695000Y-128905000D03*
%TO.P,motor2,3*%
%TO.N,Net-(motor2-Pad3)*%
X97155000Y-128905000D03*
%TO.P,motor2,2*%
%TO.N,Net-(motor2-Pad2)*%
X94615000Y-128905000D03*
%TO.P,motor2,1*%
%TO.N,5v*%
X92075000Y-128905000D03*
%TD*%
%TO.P,motor1,4*%
%TO.N,gnd*%
X110490000Y-128905000D03*
%TO.P,motor1,3*%
%TO.N,Net-(motor1-Pad3)*%
X107950000Y-128905000D03*
%TO.P,motor1,2*%
%TO.N,Net-(motor1-Pad2)*%
X105410000Y-128905000D03*
%TO.P,motor1,1*%
%TO.N,5v*%
X102870000Y-128905000D03*
%TD*%
%TO.P,J1,2*%
%TO.N,gnd*%
X114935000Y-76835000D03*
%TO.P,J1,10*%
%TO.N,B*%
X114935000Y-97155000D03*
%TO.P,J1,9*%
%TO.N,A*%
X114935000Y-94615000D03*
%TO.P,J1,8*%
%TO.N,3.3v*%
X114935000Y-92075000D03*
%TO.P,J1,7*%
%TO.N,12v*%
X114935000Y-89535000D03*
%TO.P,J1,6*%
%TO.N,Net-(J1-Pad6)*%
X114935000Y-86995000D03*
%TO.P,J1,5*%
%TO.N,Net-(J1-Pad5)*%
X114935000Y-84455000D03*
%TO.P,J1,4*%
%TO.N,sda*%
X114935000Y-81915000D03*
%TO.P,J1,3*%
%TO.N,scl*%
X114935000Y-79375000D03*
%TO.P,J1,1*%
%TO.N,5v*%
X114935000Y-74295000D03*
%TD*%
D15*
%TO.P,i2c_multiplexer1,24*%
%TO.N,3.3v*%
X136315000Y-98660000D03*
%TO.P,i2c_multiplexer1,23*%
%TO.N,sda*%
X136315000Y-99310000D03*
%TO.P,i2c_multiplexer1,22*%
%TO.N,scl*%
X136315000Y-99960000D03*
%TO.P,i2c_multiplexer1,21*%
%TO.N,gnd*%
X136315000Y-100610000D03*
%TO.P,i2c_multiplexer1,20*%
%TO.N,Net-(i2c_multiplexer1-Pad20)*%
X136315000Y-101260000D03*
%TO.P,i2c_multiplexer1,19*%
%TO.N,Net-(i2c_multiplexer1-Pad19)*%
X136315000Y-101910000D03*
%TO.P,i2c_multiplexer1,18*%
%TO.N,Net-(i2c_multiplexer1-Pad18)*%
X136315000Y-102560000D03*
%TO.P,i2c_multiplexer1,17*%
%TO.N,Net-(i2c_multiplexer1-Pad17)*%
X136315000Y-103210000D03*
%TO.P,i2c_multiplexer1,16*%
%TO.N,Net-(i2c_multiplexer1-Pad16)*%
X136315000Y-103860000D03*
%TO.P,i2c_multiplexer1,15*%
%TO.N,Net-(i2c_multiplexer1-Pad15)*%
X136315000Y-104510000D03*
%TO.P,i2c_multiplexer1,14*%
%TO.N,Net-(i2c_multiplexer1-Pad14)*%
X136315000Y-105160000D03*
%TO.P,i2c_multiplexer1,13*%
%TO.N,Net-(i2c_multiplexer1-Pad13)*%
X136315000Y-105810000D03*
%TO.P,i2c_multiplexer1,12*%
%TO.N,gnd*%
X129115000Y-105810000D03*
%TO.P,i2c_multiplexer1,11*%
%TO.N,Net-(i2c_multiplexer1-Pad11)*%
X129115000Y-105160000D03*
%TO.P,i2c_multiplexer1,10*%
%TO.N,Net-(i2c_multiplexer1-Pad10)*%
X129115000Y-104510000D03*
%TO.P,i2c_multiplexer1,9*%
%TO.N,Net-(i2c_multiplexer1-Pad9)*%
X129115000Y-103860000D03*
%TO.P,i2c_multiplexer1,8*%
%TO.N,Net-(i2c_multiplexer1-Pad8)*%
X129115000Y-103210000D03*
%TO.P,i2c_multiplexer1,7*%
%TO.N,Net-(i2c_multiplexer1-Pad7)*%
X129115000Y-102560000D03*
%TO.P,i2c_multiplexer1,6*%
%TO.N,Net-(i2c_multiplexer1-Pad6)*%
X129115000Y-101910000D03*
%TO.P,i2c_multiplexer1,5*%
%TO.N,Net-(i2c_multiplexer1-Pad5)*%
X129115000Y-101260000D03*
%TO.P,i2c_multiplexer1,4*%
%TO.N,Net-(i2c_multiplexer1-Pad4)*%
X129115000Y-100610000D03*
%TO.P,i2c_multiplexer1,3*%
%TO.N,Net-(i2c_multiplexer1-Pad3)*%
X129115000Y-99960000D03*
%TO.P,i2c_multiplexer1,2*%
%TO.N,gnd*%
X129115000Y-99310000D03*
%TO.P,i2c_multiplexer1,1*%
X129115000Y-98660000D03*
%TD*%
D16*
%TO.N,3.3v*%
X103505000Y-127092999D03*
X78105000Y-83185000D03*
X115025000Y-48895000D03*
%TO.N,scl*%
X138430000Y-98425000D03*
%TO.N,Net-(i2c_multiplexer1-Pad16)*%
X138592807Y-103710000D03*
%TO.N,Net-(i2c_multiplexer1-Pad15)*%
X137747257Y-104435000D03*
X141060000Y-113030000D03*
X140880000Y-109220000D03*
%TO.N,Net-(i2c_multiplexer1-Pad14)*%
X138553836Y-105303716D03*
%TO.N,Net-(i2c_multiplexer1-Pad13)*%
X137795000Y-105955000D03*
%TO.N,Net-(i2c_multiplexer1-Pad11)*%
X130781274Y-105316580D03*
%TO.N,Net-(i2c_multiplexer1-Pad10)*%
X130720000Y-104230000D03*
%TO.N,Net-(i2c_multiplexer1-Pad9)*%
X127634848Y-96520152D03*
X116205000Y-62230000D03*
X134530000Y-87630000D03*
%TO.N,Net-(i2c_multiplexer1-Pad8)*%
X143566952Y-107652582D03*
%TO.N,Net-(i2c_multiplexer1-Pad7)*%
X143510000Y-104775000D03*
%TO.N,Net-(i2c_multiplexer1-Pad6)*%
X143415010Y-106045002D03*
%TO.N,Net-(motor1-Pad3)*%
X120650000Y-111215000D03*
X120650000Y-102235000D03*
%TO.N,Net-(motor1-Pad2)*%
X113030000Y-101600000D03*
%TO.N,Net-(motor2-Pad3)*%
X121375000Y-106045000D03*
%TO.N,Net-(motor_driver3-Pad12)*%
X105320000Y-123825000D03*
%TO.N,Net-(motor_driver3-Pad11)*%
X135590000Y-93980000D03*
X136525000Y-88265000D03*
X86360000Y-123190000D03*
X90715000Y-122555000D03*
%TO.N,Net-(motor_driver3-Pad10)*%
X123190000Y-93890000D03*
X120015000Y-97790000D03*
X115570000Y-103505000D03*
X107315000Y-120650000D03*
%TO.N,Net-(motor_driver3-Pad9)*%
X107950000Y-99060000D03*
%TD*%
D17*
%TO.N,gnd*%
X127144999Y-76979999D02*
X135890000Y-85725000D01*
X122064999Y-76979999D02*
X127144999Y-76979999D01*
X118110000Y-73025000D02*
X122064999Y-76979999D01*
X123190000Y-83185000D02*
X118110000Y-78105000D01*
X125730000Y-83185000D02*
X123190000Y-83185000D01*
X116205000Y-78105000D02*
X114935000Y-76835000D01*
X118110000Y-78105000D02*
X116205000Y-78105000D01*
X112395000Y-76835000D02*
X110490000Y-78740000D01*
X114935000Y-76835000D02*
X112395000Y-76835000D01*
X102531238Y-77470000D02*
X101600000Y-77470000D01*
X103801238Y-78740000D02*
X102531238Y-77470000D01*
X110490000Y-78740000D02*
X103801238Y-78740000D01*
X92527001Y-76382999D02*
X90170000Y-78740000D01*
X100512999Y-76382999D02*
X92527001Y-76382999D01*
X101600000Y-77470000D02*
X100512999Y-76382999D01*
X90170000Y-99060000D02*
X91440000Y-100330000D01*
X90170000Y-78740000D02*
X90170000Y-99060000D01*
X91440000Y-102870000D02*
X90170000Y-104140000D01*
X91440000Y-100330000D02*
X91440000Y-102870000D01*
X100512999Y-101782999D02*
X101600000Y-102870000D01*
X98538239Y-101782999D02*
X100512999Y-101782999D01*
X97607001Y-102714237D02*
X98538239Y-101782999D01*
X97607001Y-103391761D02*
X97607001Y-102714237D01*
X96858762Y-104140000D02*
X97607001Y-103391761D01*
X90170000Y-104140000D02*
X96858762Y-104140000D01*
X110307001Y-103957001D02*
X110490000Y-104140000D01*
X102687001Y-103957001D02*
X110307001Y-103957001D01*
X101600000Y-102870000D02*
X102687001Y-103957001D01*
X115570000Y-109220000D02*
X115570000Y-110490000D01*
X110490000Y-104140000D02*
X115570000Y-109220000D01*
X126068762Y-109220000D02*
X127000000Y-109220000D01*
X124798762Y-110490000D02*
X126068762Y-109220000D01*
X115570000Y-110490000D02*
X124798762Y-110490000D01*
X135707001Y-110307001D02*
X135890000Y-110490000D01*
X128087001Y-110307001D02*
X135707001Y-110307001D01*
X127000000Y-109220000D02*
X128087001Y-110307001D01*
X131450002Y-100610000D02*
X130150002Y-99310000D01*
X130150002Y-99310000D02*
X129115000Y-99310000D01*
X129115000Y-99310000D02*
X129115000Y-98660000D01*
X129115000Y-105810000D02*
X130240000Y-105810000D01*
X132360000Y-100610000D02*
X131450002Y-100610000D01*
X136315000Y-100610000D02*
X132360000Y-100610000D01*
X109402999Y-127817999D02*
X110490000Y-128905000D01*
X100782001Y-127817999D02*
X109402999Y-127817999D01*
X99695000Y-128905000D02*
X100782001Y-127817999D01*
X113665000Y-128905000D02*
X116840000Y-132080000D01*
X110490000Y-128905000D02*
X113665000Y-128905000D01*
X92977011Y-127267011D02*
X91440000Y-125730000D01*
X98057011Y-127267011D02*
X92977011Y-127267011D01*
X99695000Y-128905000D02*
X98057011Y-127267011D01*
X115200000Y-170650000D02*
X115200000Y-146050000D01*
X137426410Y-100610000D02*
X136315000Y-100610000D01*
X165835162Y-67065474D02*
X165780534Y-67120102D01*
X152800329Y-123815473D02*
X149948606Y-123815473D01*
X136623133Y-110490000D02*
X135890000Y-110490000D01*
X115200000Y-170650000D02*
X115200000Y-163565000D01*
X115341600Y-163423400D02*
X119309200Y-163423400D01*
X115200000Y-163565000D02*
X115341600Y-163423400D01*
X115200000Y-139200000D02*
X114300000Y-138300000D01*
X80909594Y-119949999D02*
X82516868Y-119949999D01*
X82516868Y-123156868D02*
X90805000Y-131445000D01*
X149948606Y-123809983D02*
X146096122Y-119957499D01*
X149948606Y-123815473D02*
X149948606Y-123809983D01*
X136628623Y-110490000D02*
X135890000Y-110490000D01*
X146096122Y-119957499D02*
X136628623Y-110490000D01*
X107430000Y-131445000D02*
X114300000Y-138315000D01*
X107315000Y-131445000D02*
X107430000Y-131445000D01*
X90805000Y-131445000D02*
X107315000Y-131445000D01*
X107315000Y-131445000D02*
X107445000Y-131445000D01*
X115200000Y-139215000D02*
X114300000Y-138315000D01*
X115200000Y-146050000D02*
X115200000Y-139215000D01*
X82516868Y-119970489D02*
X82503878Y-119957499D01*
X82516868Y-123156868D02*
X82516868Y-119970489D01*
X82496378Y-83250000D02*
X82503878Y-83242500D01*
X91828355Y-70402980D02*
X108797020Y-70402980D01*
X82503878Y-79727457D02*
X91828355Y-70402980D01*
X82503878Y-83242500D02*
X82503878Y-119957499D01*
X108797020Y-70387980D02*
X114300000Y-64885000D01*
X108797020Y-70402980D02*
X108797020Y-70387980D01*
X129115000Y-105810000D02*
X129305000Y-105810000D01*
X133985000Y-110490000D02*
X135890000Y-110490000D01*
X129305000Y-105810000D02*
X133985000Y-110490000D01*
X136315000Y-100610000D02*
X137515000Y-100610000D01*
X139155001Y-98969999D02*
X139155001Y-86904999D01*
X137515000Y-100610000D02*
X139155001Y-98969999D01*
X142817499Y-83242501D02*
X146096122Y-83242501D01*
X139155001Y-86904999D02*
X142817499Y-83242501D01*
X63478377Y-66975000D02*
X54327741Y-66975000D01*
X75978377Y-79475000D02*
X63478377Y-66975000D01*
X58699266Y-71346525D02*
X54327741Y-66975000D01*
X58699266Y-74256498D02*
X58699266Y-71346525D01*
X82503878Y-79727457D02*
X82503878Y-83242500D01*
X149863623Y-79475000D02*
X152621623Y-79475000D01*
X146096122Y-83242501D02*
X149863623Y-79475000D01*
X170025948Y-66975000D02*
X169935474Y-67065474D01*
X169935474Y-67065474D02*
X165835162Y-67065474D01*
X174272259Y-66975000D02*
X170025948Y-66975000D01*
X174093553Y-67065474D02*
X169935474Y-67065474D01*
X152531149Y-123815473D02*
X152621623Y-123724999D01*
X149948606Y-123815473D02*
X152531149Y-123815473D01*
X152709855Y-123724999D02*
X155144928Y-126160072D01*
X152621623Y-123724999D02*
X152709855Y-123724999D01*
X155144928Y-126160072D02*
X165100329Y-136115473D01*
X152800329Y-123815473D02*
X155144928Y-126160072D01*
X174162733Y-136115473D02*
X174272259Y-136224999D01*
X171224527Y-136115473D02*
X174162733Y-136115473D01*
X165100329Y-136115473D02*
X171224527Y-136115473D01*
X171224527Y-136115473D02*
X174104553Y-136115473D01*
X171452720Y-133405460D02*
X171394540Y-133405460D01*
X174272259Y-136224999D02*
X171452720Y-133405460D01*
X171394540Y-133405460D02*
X174104553Y-136115473D01*
X169900734Y-131911654D02*
X171394540Y-133405460D01*
X169900734Y-130530734D02*
X169900734Y-128943501D01*
X169900734Y-130530734D02*
X169900734Y-131911654D01*
%TO.N,3.3v*%
X126855001Y-84599999D02*
X125730000Y-85725000D01*
X126855001Y-82644999D02*
X126855001Y-84599999D01*
X126270001Y-82059999D02*
X126855001Y-82644999D01*
X125479997Y-82059999D02*
X126270001Y-82059999D01*
X120399997Y-76979999D02*
X125479997Y-82059999D01*
X117859997Y-76979999D02*
X120399997Y-76979999D01*
X116261999Y-75382001D02*
X117859997Y-76979999D01*
X106497001Y-75382001D02*
X116261999Y-75382001D01*
X103505000Y-72390000D02*
X106497001Y-75382001D01*
X117619999Y-89390001D02*
X114935000Y-92075000D01*
X122064999Y-89390001D02*
X117619999Y-89390001D01*
X125730000Y-85725000D02*
X122064999Y-89390001D01*
X126817001Y-86812001D02*
X125730000Y-85725000D01*
X130331135Y-86812001D02*
X126817001Y-86812001D01*
X136315000Y-92795866D02*
X130331135Y-86812001D01*
X136315000Y-98660000D02*
X136315000Y-92795866D01*
X95067001Y-126817001D02*
X93980000Y-125730000D01*
X119380000Y-132080000D02*
X114117001Y-126817001D01*
X109092799Y-43403601D02*
X109092799Y-56387799D01*
X110179800Y-42316600D02*
X109092799Y-43403601D01*
X112943999Y-60238999D02*
X112943999Y-62059999D01*
X109092799Y-56387799D02*
X112943999Y-60238999D01*
X111125000Y-63878998D02*
X111125000Y-67423590D01*
X112943999Y-62059999D02*
X111125000Y-63878998D01*
X111125000Y-67423590D02*
X109741410Y-67423590D01*
X109741410Y-67423590D02*
X107315000Y-69850000D01*
X107315000Y-69850000D02*
X91440000Y-69850000D01*
X91440000Y-69850000D02*
X78105000Y-83185000D01*
X66226550Y-75526498D02*
X60898970Y-75526498D01*
X73885052Y-83185000D02*
X66226550Y-75526498D01*
X78105000Y-83185000D02*
X73885052Y-83185000D01*
X103229002Y-126817001D02*
X103052999Y-126817001D01*
X103052999Y-126817001D02*
X95067001Y-126817001D01*
X103505000Y-127092999D02*
X103229002Y-126817001D01*
X114117001Y-126817001D02*
X103052999Y-126817001D01*
X115025000Y-47161800D02*
X110179800Y-42316600D01*
X115025000Y-48895000D02*
X115025000Y-47161800D01*
X162373450Y-127673501D02*
X152809949Y-118110000D01*
X152809949Y-118110000D02*
X148429625Y-118110000D01*
X167701030Y-127673501D02*
X162373450Y-127673501D01*
X148429625Y-118110000D02*
X141605000Y-111285375D01*
X144590018Y-104585018D02*
X143510000Y-103505000D01*
X144590022Y-108300352D02*
X144590018Y-104585018D01*
X141605000Y-111285375D02*
X144590022Y-108300352D01*
X143510000Y-103505000D02*
X143510000Y-90170000D01*
X144329990Y-89350010D02*
X145601401Y-89350009D01*
X143510000Y-90170000D02*
X144329990Y-89350010D01*
X163580830Y-74027795D02*
X163580830Y-68390102D01*
X153338616Y-84270009D02*
X163580830Y-74027795D01*
X150681400Y-84270010D02*
X153338616Y-84270009D01*
X145601401Y-89350009D02*
X150681400Y-84270010D01*
%TO.N,5v*%
X126270001Y-79519999D02*
X128270000Y-81519998D01*
X123730001Y-79519999D02*
X126270001Y-79519999D01*
X128270000Y-81519998D02*
X128270000Y-85725000D01*
X118505002Y-74295000D02*
X123730001Y-79519999D01*
X114935000Y-74295000D02*
X118505002Y-74295000D01*
X101782999Y-129992001D02*
X93162001Y-129992001D01*
X93162001Y-129992001D02*
X92075000Y-128905000D01*
X102870000Y-128905000D02*
X101782999Y-129992001D01*
X87812999Y-78360479D02*
X87812999Y-126251761D01*
X90466238Y-128905000D02*
X92075000Y-128905000D01*
X94870479Y-71302999D02*
X87812999Y-78360479D01*
X87812999Y-126251761D02*
X90466238Y-128905000D01*
X111942999Y-71302999D02*
X94870479Y-71302999D01*
X114935000Y-74295000D02*
X111942999Y-71302999D01*
%TO.N,sda*%
X127338762Y-75565000D02*
X125730000Y-75565000D01*
X136977001Y-86246761D02*
X136977001Y-85203239D01*
X136977001Y-85203239D02*
X127338762Y-75565000D01*
X136411761Y-86812001D02*
X136977001Y-86246761D01*
X132462241Y-86812001D02*
X136411761Y-86812001D01*
X137515001Y-91864761D02*
X132462241Y-86812001D01*
X137440000Y-99310000D02*
X137515001Y-99234999D01*
X137515001Y-99234999D02*
X137515001Y-91864761D01*
X136315000Y-99310000D02*
X137440000Y-99310000D01*
X116022001Y-83002001D02*
X114935000Y-81915000D01*
X116022001Y-90351589D02*
X116022001Y-83002001D01*
X115385591Y-90987999D02*
X116022001Y-90351589D01*
X113847999Y-92596761D02*
X113847999Y-91553239D01*
X114413239Y-93162001D02*
X113847999Y-92596761D01*
X115456761Y-93162001D02*
X114413239Y-93162001D01*
X113847999Y-91553239D02*
X114413239Y-90987999D01*
X126755002Y-94615000D02*
X116909760Y-94615000D01*
X131450002Y-99310000D02*
X126755002Y-94615000D01*
X114413239Y-90987999D02*
X115385591Y-90987999D01*
X116909760Y-94615000D02*
X115456761Y-93162001D01*
X136315000Y-99310000D02*
X131450002Y-99310000D01*
%TO.N,scl*%
X138430000Y-98970000D02*
X138430000Y-98425000D01*
X137440000Y-99960000D02*
X138430000Y-98970000D01*
X136315000Y-99960000D02*
X137440000Y-99960000D01*
%TO.N,Net-(i2c_multiplexer1-Pad16)*%
X137399255Y-103710000D02*
X138592807Y-103710000D01*
X137249255Y-103860000D02*
X137399255Y-103710000D01*
X136315000Y-103860000D02*
X137249255Y-103860000D01*
%TO.N,Net-(i2c_multiplexer1-Pad15)*%
X137672257Y-104510000D02*
X137747257Y-104435000D01*
X136315000Y-104510000D02*
X137672257Y-104510000D01*
X141060000Y-109400000D02*
X140880000Y-109220000D01*
X141060000Y-113030000D02*
X141060000Y-109400000D01*
%TO.N,Net-(i2c_multiplexer1-Pad14)*%
X138410120Y-105160000D02*
X138553836Y-105303716D01*
X136315000Y-105160000D02*
X138410120Y-105160000D01*
%TO.N,Net-(i2c_multiplexer1-Pad13)*%
X137650000Y-105810000D02*
X137795000Y-105955000D01*
X136315000Y-105810000D02*
X137650000Y-105810000D01*
%TO.N,Net-(i2c_multiplexer1-Pad11)*%
X129115000Y-105160000D02*
X130240000Y-105160000D01*
X130624694Y-105160000D02*
X130781274Y-105316580D01*
X130240000Y-105160000D02*
X130624694Y-105160000D01*
%TO.N,Net-(i2c_multiplexer1-Pad10)*%
X130440000Y-104510000D02*
X130720000Y-104230000D01*
X129115000Y-104510000D02*
X130440000Y-104510000D01*
%TO.N,Net-(i2c_multiplexer1-Pad9)*%
X128079998Y-103860000D02*
X127635000Y-103415002D01*
X129115000Y-103860000D02*
X128079998Y-103860000D01*
X127635000Y-103415002D02*
X127635000Y-97790000D01*
X127635000Y-96520304D02*
X127634848Y-96520152D01*
X127635000Y-97790000D02*
X127635000Y-96520304D01*
X116205000Y-62230000D02*
X119380000Y-65405000D01*
X119380000Y-65405000D02*
X119380000Y-66040000D01*
X119380000Y-66040000D02*
X121920000Y-68580000D01*
X133350000Y-78979998D02*
X133350000Y-80303418D01*
X122950002Y-68580000D02*
X133350000Y-78979998D01*
X121920000Y-68580000D02*
X122950002Y-68580000D01*
X137877020Y-84830438D02*
X137877020Y-90087980D01*
X133350000Y-80303418D02*
X137877020Y-84830438D01*
X136987980Y-90087980D02*
X134530000Y-87630000D01*
X137877020Y-90087980D02*
X136987980Y-90087980D01*
%TO.N,Net-(i2c_multiplexer1-Pad8)*%
X130150002Y-103210000D02*
X130445002Y-103505000D01*
X129115000Y-103210000D02*
X130150002Y-103210000D01*
X130445002Y-103505000D02*
X131445000Y-103505000D01*
X131445000Y-103505000D02*
X131445000Y-104775000D01*
X131629285Y-104959285D02*
X131629285Y-105599924D01*
X131445000Y-104775000D02*
X131629285Y-104959285D01*
X131629285Y-105599924D02*
X132080000Y-106050639D01*
X132715000Y-106685639D02*
X133796488Y-107767123D01*
X132080000Y-106050639D02*
X132715000Y-106685639D01*
X134509401Y-108480037D02*
X137055037Y-108480037D01*
X133796488Y-107767123D02*
X134509401Y-108480037D01*
X137055037Y-108480037D02*
X142350603Y-108480036D01*
X142350603Y-108480036D02*
X143510000Y-107320639D01*
X143510000Y-107595630D02*
X143566952Y-107652582D01*
X143510000Y-107320639D02*
X143510000Y-107595630D01*
%TO.N,Net-(i2c_multiplexer1-Pad7)*%
X132079295Y-105413524D02*
X132079295Y-102870705D01*
X130150002Y-102560000D02*
X129115000Y-102560000D01*
X130460707Y-102870705D02*
X130150002Y-102560000D01*
X134695801Y-108030027D02*
X132079295Y-105413524D01*
X142164202Y-108030027D02*
X134695801Y-108030027D01*
X143323599Y-106870630D02*
X142164202Y-108030027D01*
X143696401Y-106870630D02*
X143323599Y-106870630D01*
X144140011Y-106427020D02*
X143696401Y-106870630D01*
X144140011Y-105405011D02*
X144140011Y-106427020D01*
X132079295Y-102870705D02*
X130460707Y-102870705D01*
X143510000Y-104775000D02*
X144140011Y-105405011D01*
%TO.N,Net-(i2c_multiplexer1-Pad6)*%
X130150002Y-101910000D02*
X130475002Y-102235000D01*
X129115000Y-101910000D02*
X130150002Y-101910000D01*
X130475002Y-102235000D02*
X130810000Y-102235000D01*
X132544990Y-102699990D02*
X132544991Y-105242811D01*
X132080000Y-102235000D02*
X132544990Y-102699990D01*
X130810000Y-102235000D02*
X132080000Y-102235000D01*
X132544991Y-105242811D02*
X134882200Y-107580018D01*
X141977801Y-107580019D02*
X143140018Y-106417800D01*
X134882200Y-107580018D02*
X141977801Y-107580019D01*
X143140018Y-106319994D02*
X143415010Y-106045002D01*
X143140018Y-106417800D02*
X143140018Y-106319994D01*
%TO.N,Net-(i2c_multiplexer1-Pad5)*%
X161381125Y-69660102D02*
X161381125Y-75591090D01*
X161381125Y-75591090D02*
X153152215Y-83820000D01*
X153152215Y-83820000D02*
X150495000Y-83820000D01*
X150495000Y-83820000D02*
X145415000Y-88900000D01*
X145415000Y-88900000D02*
X143510000Y-88900000D01*
X135068599Y-107130009D02*
X132995000Y-105056410D01*
X141791400Y-107130010D02*
X135068599Y-107130009D01*
X142690009Y-106231401D02*
X141791400Y-107130010D01*
X142690010Y-89719990D02*
X142690009Y-106231401D01*
X143510000Y-88900000D02*
X142690010Y-89719990D01*
X132995000Y-105056410D02*
X132995000Y-101600000D01*
X130240000Y-101260000D02*
X129115000Y-101260000D01*
X130580000Y-101600000D02*
X130240000Y-101260000D01*
X132995000Y-101600000D02*
X130580000Y-101600000D01*
%TO.N,Net-(i2c_multiplexer1-Pad4)*%
X154145330Y-82190475D02*
X159181421Y-77154384D01*
X129115000Y-100610000D02*
X130813592Y-100610000D01*
X130813592Y-100610000D02*
X131263602Y-101060010D01*
X142240000Y-106045000D02*
X142240000Y-88265000D01*
X154029525Y-82190475D02*
X154145330Y-82190475D01*
X131263602Y-101060010D02*
X133445010Y-101060010D01*
X133445010Y-101060010D02*
X133445010Y-104870010D01*
X159181421Y-77154384D02*
X159181421Y-70930102D01*
X133445010Y-104870010D02*
X135255000Y-106680000D01*
X135255000Y-106680000D02*
X141605000Y-106680000D01*
X142240000Y-88265000D02*
X145254625Y-88265000D01*
X150334625Y-83185000D02*
X153035000Y-83185000D01*
X141605000Y-106680000D02*
X142240000Y-106045000D01*
X145254625Y-88265000D02*
X150334625Y-83185000D01*
X153035000Y-83185000D02*
X154029525Y-82190475D01*
%TO.N,Net-(motor1-Pad3)*%
X120467001Y-132601761D02*
X120467001Y-119197001D01*
X119901761Y-133167001D02*
X120467001Y-132601761D01*
X118858239Y-133167001D02*
X119901761Y-133167001D01*
X117927001Y-132235763D02*
X118858239Y-133167001D01*
X117927001Y-132601761D02*
X117927001Y-132235763D01*
X117361761Y-133167001D02*
X117927001Y-132601761D01*
X112212001Y-133167001D02*
X117361761Y-133167001D01*
X107950000Y-128905000D02*
X112212001Y-133167001D01*
X120650000Y-119014002D02*
X120650000Y-111215000D01*
X120467001Y-119197001D02*
X120650000Y-119014002D01*
X119380000Y-102235000D02*
X118110000Y-100965000D01*
X120650000Y-102235000D02*
X119380000Y-102235000D01*
%TO.N,Net-(motor1-Pad2)*%
X118110000Y-98425000D02*
X111125000Y-98425000D01*
X111055240Y-101600000D02*
X113030000Y-101600000D01*
X110307001Y-99808239D02*
X110307001Y-100851761D01*
X109741761Y-99242999D02*
X110307001Y-99808239D01*
X110307001Y-99242999D02*
X109741761Y-99242999D01*
X110307001Y-100851761D02*
X111055240Y-101600000D01*
X111125000Y-98425000D02*
X110307001Y-99242999D01*
%TO.N,Net-(motor_driver3-Pad12)*%
X105320000Y-124370000D02*
X106680000Y-125730000D01*
X105320000Y-123825000D02*
X105320000Y-124370000D01*
%TO.N,Net-(motor_driver3-Pad11)*%
X128320000Y-93980000D02*
X135590000Y-93980000D01*
X126270001Y-91930001D02*
X128320000Y-93980000D01*
X119235001Y-91930001D02*
X126270001Y-91930001D01*
X118110000Y-90805000D02*
X119235001Y-91930001D01*
X86360000Y-79177068D02*
X86360000Y-123190000D01*
X94684078Y-70852990D02*
X86360000Y-79177068D01*
X125189999Y-74439999D02*
X121602990Y-70852990D01*
X126850171Y-74439999D02*
X125189999Y-74439999D01*
X137427010Y-85016838D02*
X126850171Y-74439999D01*
X121602990Y-70852990D02*
X94684078Y-70852990D01*
X137427010Y-87362990D02*
X137427010Y-85016838D01*
X104140000Y-123931998D02*
X104140000Y-125730000D01*
X104971999Y-123099999D02*
X104140000Y-123931998D01*
X105938003Y-123099999D02*
X104971999Y-123099999D01*
X108040001Y-120998001D02*
X105938003Y-123099999D01*
X108040001Y-120301999D02*
X108040001Y-120998001D01*
X107663001Y-119924999D02*
X108040001Y-120301999D01*
X93345001Y-119924999D02*
X107663001Y-119924999D01*
X90715000Y-122555000D02*
X93345001Y-119924999D01*
X137427010Y-87362990D02*
X136525000Y-88265000D01*
%TO.N,Net-(motor_driver3-Pad10)*%
X122645000Y-93345000D02*
X123190000Y-93890000D01*
X118110000Y-93345000D02*
X122645000Y-93345000D01*
X115570000Y-101839998D02*
X115570000Y-103505000D01*
X117569999Y-99839999D02*
X115570000Y-101839998D01*
X118650001Y-99839999D02*
X117569999Y-99839999D01*
X120015000Y-98475000D02*
X118650001Y-99839999D01*
X120015000Y-97790000D02*
X120015000Y-98475000D01*
X106680000Y-120650000D02*
X101600000Y-125730000D01*
X107315000Y-120650000D02*
X106680000Y-120650000D01*
%TO.N,Net-(motor_driver3-Pad9)*%
X107950000Y-99060000D02*
X111125000Y-95885000D01*
X111125000Y-95885000D02*
X118110000Y-95885000D01*
%TO.N,12v*%
X105592999Y-98877001D02*
X114935000Y-89535000D01*
X105592999Y-101417001D02*
X105592999Y-98877001D01*
X104140000Y-102870000D02*
X105592999Y-101417001D01*
X125433762Y-108585000D02*
X126026238Y-108585000D01*
X128452999Y-108132999D02*
X129540000Y-109220000D01*
X123938239Y-108132999D02*
X124981761Y-108132999D01*
X123486238Y-108585000D02*
X123938239Y-108132999D01*
X122893762Y-108585000D02*
X123486238Y-108585000D01*
X124981761Y-108132999D02*
X125433762Y-108585000D01*
X122441761Y-108132999D02*
X122893762Y-108585000D01*
X126478239Y-108132999D02*
X128452999Y-108132999D01*
X126026238Y-108585000D02*
X126478239Y-108132999D01*
X118532997Y-108132999D02*
X122441761Y-108132999D01*
X104901999Y-102108001D02*
X112507999Y-102108001D01*
X112507999Y-102108001D02*
X118532997Y-108132999D01*
X104140000Y-102870000D02*
X104901999Y-102108001D01*
%TD*%
M02*
