%TF.GenerationSoftware,KiCad,Pcbnew,5.1.9+dfsg1-1+deb11u1*%
%TF.CreationDate,2024-06-25T08:23:57+02:00*%
%TF.ProjectId,pcb_onder,7063625f-6f6e-4646-9572-2e6b69636164,rev?*%
%TF.SameCoordinates,Original*%
%TF.FileFunction,Copper,L2,Bot*%
%TF.FilePolarity,Positive*%
%FSLAX46Y46*%
G04 Gerber Fmt 4.6, Leading zero omitted, Abs format (unit mm)*
G04 Created by KiCad (PCBNEW 5.1.9+dfsg1-1+deb11u1) date 2024-06-25 08:23:57*
%MOMM*%
%LPD*%
G01*
G04 APERTURE LIST*
%TA.AperFunction,ComponentPad*%
%ADD10C,1.524000*%
%TD*%
%TA.AperFunction,ComponentPad*%
%ADD11C,5.000000*%
%TD*%
%TA.AperFunction,ComponentPad*%
%ADD12C,3.048000*%
%TD*%
%TA.AperFunction,ComponentPad*%
%ADD13O,1.600000X1.600000*%
%TD*%
%TA.AperFunction,ComponentPad*%
%ADD14R,1.600000X1.600000*%
%TD*%
%TA.AperFunction,ViaPad*%
%ADD15C,0.800000*%
%TD*%
%TA.AperFunction,Conductor*%
%ADD16C,0.250000*%
%TD*%
G04 APERTURE END LIST*
D10*
%TO.P,kleur_sensor_1,6*%
%TO.N,Net-(kleur_sensor_1-Pad6)*%
X167980239Y-65850102D03*
%TO.P,kleur_sensor_1,3*%
%TO.N,gnd*%
X165780534Y-67120102D03*
%TO.P,kleur_sensor_1,2*%
%TO.N,3.3v*%
X163580830Y-68390102D03*
%TO.P,kleur_sensor_1,1*%
%TO.N,Net-(i2c_multiplexer1-Pad5)*%
X161381125Y-69660102D03*
%TO.P,kleur_sensor_1,0*%
%TO.N,Net-(i2c_multiplexer1-Pad4)*%
X159181421Y-70930102D03*
%TO.P,kleur_sensor_1,5*%
%TO.N,Net-(kleur_sensor_1-Pad5)*%
X156981716Y-72200102D03*
%TO.P,kleur_sensor_1,4*%
%TO.N,Net-(kleur_sensor_1-Pad4)*%
X154782012Y-73470102D03*
D11*
%TO.P,kleur_sensor_1,7*%
%TO.N,gnd*%
X174272259Y-66975000D03*
X152621623Y-79475000D03*
%TD*%
D10*
%TO.P,kleur_sensor_6,6*%
%TO.N,Net-(kleur_sensor_6-Pad6)*%
X172100439Y-130213501D03*
%TO.P,kleur_sensor_6,3*%
%TO.N,gnd*%
X169900734Y-128943501D03*
%TO.P,kleur_sensor_6,2*%
%TO.N,3.3v*%
X167701030Y-127673501D03*
%TO.P,kleur_sensor_6,1*%
%TO.N,Net-(i2c_multiplexer1-Pad16)*%
X165501325Y-126403501D03*
%TO.P,kleur_sensor_6,0*%
%TO.N,Net-(i2c_multiplexer1-Pad15)*%
X163301621Y-125133501D03*
%TO.P,kleur_sensor_6,5*%
%TO.N,Net-(kleur_sensor_6-Pad5)*%
X161101916Y-123863501D03*
%TO.P,kleur_sensor_6,4*%
%TO.N,Net-(kleur_sensor_6-Pad4)*%
X158902212Y-122593501D03*
D11*
%TO.P,kleur_sensor_6,7*%
%TO.N,gnd*%
X174272259Y-136224999D03*
X152621623Y-123724999D03*
%TD*%
D10*
%TO.P,kleur_sensor_4,6*%
%TO.N,Net-(kleur_sensor_4-Pad6)*%
X60619761Y-137349897D03*
%TO.P,kleur_sensor_4,3*%
%TO.N,gnd*%
X62819466Y-136079897D03*
%TO.P,kleur_sensor_4,2*%
%TO.N,3.3v*%
X65019170Y-134809897D03*
%TO.P,kleur_sensor_4,1*%
%TO.N,Net-(i2c_multiplexer1-Pad11)*%
X67218875Y-133539897D03*
%TO.P,kleur_sensor_4,0*%
%TO.N,Net-(i2c_multiplexer1-Pad10)*%
X69418579Y-132269897D03*
%TO.P,kleur_sensor_4,5*%
%TO.N,Net-(kleur_sensor_4-Pad5)*%
X71618284Y-130999897D03*
%TO.P,kleur_sensor_4,4*%
%TO.N,Net-(kleur_sensor_4-Pad4)*%
X73817988Y-129729897D03*
D11*
%TO.P,kleur_sensor_4,7*%
%TO.N,gnd*%
X54327741Y-136224999D03*
X75978377Y-123724999D03*
%TD*%
D10*
%TO.P,kleur_sensor_2,6*%
%TO.N,Net-(kleur_sensor_2-Pad6)*%
X110179800Y-37236600D03*
%TO.P,kleur_sensor_2,3*%
%TO.N,gnd*%
X110179800Y-39776600D03*
%TO.P,kleur_sensor_2,2*%
%TO.N,3.3v*%
X110179800Y-42316600D03*
%TO.P,kleur_sensor_2,1*%
%TO.N,Net-(i2c_multiplexer1-Pad7)*%
X110179800Y-44856600D03*
%TO.P,kleur_sensor_2,0*%
%TO.N,Net-(i2c_multiplexer1-Pad6)*%
X110179800Y-47396600D03*
%TO.P,kleur_sensor_2,5*%
%TO.N,Net-(kleur_sensor_2-Pad5)*%
X110179800Y-49936600D03*
%TO.P,kleur_sensor_2,4*%
%TO.N,Net-(kleur_sensor_2-Pad4)*%
X110179800Y-52476600D03*
D11*
%TO.P,kleur_sensor_2,7*%
%TO.N,gnd*%
X114300000Y-32350000D03*
X114300000Y-57350000D03*
%TD*%
D10*
%TO.P,kleur_sensor_3,6*%
%TO.N,Net-(kleur_sensor_3-Pad6)*%
X56499561Y-72986498D03*
%TO.P,kleur_sensor_3,3*%
%TO.N,gnd*%
X58699266Y-74256498D03*
%TO.P,kleur_sensor_3,2*%
%TO.N,3.3v*%
X60898970Y-75526498D03*
%TO.P,kleur_sensor_3,1*%
%TO.N,Net-(i2c_multiplexer1-Pad9)*%
X63098675Y-76796498D03*
%TO.P,kleur_sensor_3,0*%
%TO.N,Net-(i2c_multiplexer1-Pad8)*%
X65298379Y-78066498D03*
%TO.P,kleur_sensor_3,5*%
%TO.N,Net-(kleur_sensor_3-Pad5)*%
X67498084Y-79336498D03*
%TO.P,kleur_sensor_3,4*%
%TO.N,Net-(kleur_sensor_3-Pad4)*%
X69697788Y-80606498D03*
D11*
%TO.P,kleur_sensor_3,7*%
%TO.N,gnd*%
X54327741Y-66975000D03*
X75978377Y-79475000D03*
%TD*%
%TO.P,U6,1*%
%TO.N,gnd*%
X114300000Y-138315000D03*
%TD*%
%TO.P,U5,1*%
%TO.N,gnd*%
X82503878Y-119957499D03*
%TD*%
%TO.P,U4,1*%
%TO.N,gnd*%
X82503878Y-83242500D03*
%TD*%
%TO.P,U3,1*%
%TO.N,gnd*%
X146096122Y-83242501D03*
%TD*%
%TO.P,U2,1*%
%TO.N,gnd*%
X114300000Y-64885000D03*
%TD*%
%TO.P,U1,1*%
%TO.N,gnd*%
X146096122Y-119957499D03*
%TD*%
D10*
%TO.P,i2c_res1,2*%
%TO.N,3.3v*%
X103505000Y-72390000D03*
%TO.P,i2c_res1,1*%
%TO.N,Net-(i2c_res1-Pad1)*%
X108585000Y-72390000D03*
%TD*%
D12*
%TO.P,kleur_sensor_5,7*%
%TO.N,gnd*%
X115200000Y-146050000D03*
X115200000Y-170650000D03*
D10*
%TO.P,kleur_sensor_5,4*%
%TO.N,Net-(kleur_sensor_5-Pad4)*%
X119309200Y-150723400D03*
%TO.P,kleur_sensor_5,5*%
%TO.N,Net-(kleur_sensor_5-Pad5)*%
X119309200Y-153263400D03*
%TO.P,kleur_sensor_5,0*%
%TO.N,Net-(i2c_multiplexer1-Pad13)*%
X119309200Y-155803400D03*
%TO.P,kleur_sensor_5,1*%
%TO.N,Net-(i2c_multiplexer1-Pad14)*%
X119309200Y-158343400D03*
%TO.P,kleur_sensor_5,2*%
%TO.N,3.3v*%
X119309200Y-160883400D03*
%TO.P,kleur_sensor_5,3*%
%TO.N,gnd*%
X119309200Y-163423400D03*
%TO.P,kleur_sensor_5,6*%
%TO.N,Net-(kleur_sensor_5-Pad6)*%
X119309200Y-165963400D03*
%TD*%
D13*
%TO.P,port_multiplexer_2,28*%
%TO.N,Net-(motor2-Pad3)*%
X118110000Y-106045000D03*
%TO.P,port_multiplexer_2,14*%
%TO.N,Net-(port_multiplexer_2-Pad14)*%
X125730000Y-73025000D03*
%TO.P,port_multiplexer_2,27*%
%TO.N,Net-(motor2-Pad2)*%
X118110000Y-103505000D03*
%TO.P,port_multiplexer_2,13*%
%TO.N,sda*%
X125730000Y-75565000D03*
%TO.P,port_multiplexer_2,26*%
%TO.N,Net-(motor1-Pad3)*%
X118110000Y-100965000D03*
%TO.P,port_multiplexer_2,12*%
%TO.N,scl*%
X125730000Y-78105000D03*
%TO.P,port_multiplexer_2,25*%
%TO.N,Net-(motor1-Pad2)*%
X118110000Y-98425000D03*
%TO.P,port_multiplexer_2,11*%
%TO.N,Net-(port_multiplexer_2-Pad11)*%
X125730000Y-80645000D03*
%TO.P,port_multiplexer_2,24*%
%TO.N,Net-(motor_driver3-Pad9)*%
X118110000Y-95885000D03*
%TO.P,port_multiplexer_2,10*%
%TO.N,gnd*%
X125730000Y-83185000D03*
%TO.P,port_multiplexer_2,23*%
%TO.N,Net-(motor_driver3-Pad10)*%
X118110000Y-93345000D03*
%TO.P,port_multiplexer_2,9*%
%TO.N,3.3v*%
X125730000Y-85725000D03*
%TO.P,port_multiplexer_2,22*%
%TO.N,Net-(motor_driver3-Pad11)*%
X118110000Y-90805000D03*
%TO.P,port_multiplexer_2,8*%
%TO.N,Net-(motor_driver2-Pad9)*%
X125730000Y-88265000D03*
%TO.P,port_multiplexer_2,21*%
%TO.N,Net-(motor_driver3-Pad12)*%
X118110000Y-88265000D03*
%TO.P,port_multiplexer_2,7*%
%TO.N,Net-(motor_driver2-Pad10)*%
X125730000Y-90805000D03*
%TO.P,port_multiplexer_2,20*%
%TO.N,Net-(port_multiplexer_2-Pad20)*%
X118110000Y-85725000D03*
%TO.P,port_multiplexer_2,6*%
%TO.N,Net-(motor_driver2-Pad11)*%
X125730000Y-93345000D03*
%TO.P,port_multiplexer_2,19*%
%TO.N,Net-(port_multiplexer_2-Pad19)*%
X118110000Y-83185000D03*
%TO.P,port_multiplexer_2,5*%
%TO.N,Net-(motor_driver2-Pad12)*%
X125730000Y-95885000D03*
%TO.P,port_multiplexer_2,18*%
%TO.N,Net-(port_multiplexer_2-Pad18)*%
X118110000Y-80645000D03*
%TO.P,port_multiplexer_2,4*%
%TO.N,Net-(motor_driver1-Pad9)*%
X125730000Y-98425000D03*
%TO.P,port_multiplexer_2,17*%
%TO.N,gnd*%
X118110000Y-78105000D03*
%TO.P,port_multiplexer_2,3*%
%TO.N,Net-(motor_driver1-Pad10)*%
X125730000Y-100965000D03*
%TO.P,port_multiplexer_2,16*%
%TO.N,Net-(i2c_res1-Pad1)*%
X118110000Y-75565000D03*
%TO.P,port_multiplexer_2,2*%
%TO.N,Net-(motor_driver1-Pad11)*%
X125730000Y-103505000D03*
%TO.P,port_multiplexer_2,15*%
%TO.N,gnd*%
X118110000Y-73025000D03*
D14*
%TO.P,port_multiplexer_2,1*%
%TO.N,Net-(motor_driver1-Pad12)*%
X125730000Y-106045000D03*
%TD*%
D12*
%TO.P,motor_driver3,15*%
%TO.N,gnd*%
X110490000Y-104140000D03*
X90170000Y-104140000D03*
D10*
%TO.P,motor_driver3,4*%
%TO.N,Net-(motor3-PadNC)*%
X96520000Y-102870000D03*
%TO.P,motor_driver3,3*%
X99060000Y-102870000D03*
%TO.P,motor_driver3,2*%
%TO.N,gnd*%
X101600000Y-102870000D03*
%TO.P,motor_driver3,1*%
%TO.N,12v*%
X104140000Y-102870000D03*
%TO.P,motor_driver3,14*%
%TO.N,Net-(motor_driver3-Pad14)*%
X111760000Y-125730000D03*
%TO.P,motor_driver3,12*%
%TO.N,Net-(motor_driver3-Pad12)*%
X106680000Y-125730000D03*
%TO.P,motor_driver3,13*%
%TO.N,Net-(motor_driver3-Pad13)*%
X109220000Y-125730000D03*
%TO.P,motor_driver3,11*%
%TO.N,Net-(motor_driver3-Pad11)*%
X104140000Y-125730000D03*
%TO.P,motor_driver3,10*%
%TO.N,Net-(motor_driver3-Pad10)*%
X101600000Y-125730000D03*
%TO.P,motor_driver3,9*%
%TO.N,Net-(motor_driver3-Pad9)*%
X99060000Y-125730000D03*
%TO.P,motor_driver3,8*%
%TO.N,Net-(motor_driver3-Pad8)*%
X96520000Y-125730000D03*
%TO.P,motor_driver3,7*%
%TO.N,3.3v*%
X93980000Y-125730000D03*
%TO.P,motor_driver3,6*%
%TO.N,gnd*%
X91440000Y-125730000D03*
%TO.P,motor_driver3,5*%
%TO.N,Net-(motor_driver3-Pad5)*%
X88900000Y-125730000D03*
%TD*%
D12*
%TO.P,motor_driver2,15*%
%TO.N,gnd*%
X110490000Y-78740000D03*
X90170000Y-78740000D03*
D10*
%TO.P,motor_driver2,4*%
%TO.N,Net-(motor2-PadNC)*%
X96520000Y-77470000D03*
%TO.P,motor_driver2,3*%
X99060000Y-77470000D03*
%TO.P,motor_driver2,2*%
%TO.N,gnd*%
X101600000Y-77470000D03*
%TO.P,motor_driver2,1*%
%TO.N,12v*%
X104140000Y-77470000D03*
%TO.P,motor_driver2,14*%
%TO.N,Net-(motor_driver2-Pad14)*%
X111760000Y-100330000D03*
%TO.P,motor_driver2,12*%
%TO.N,Net-(motor_driver2-Pad12)*%
X106680000Y-100330000D03*
%TO.P,motor_driver2,13*%
%TO.N,Net-(motor_driver2-Pad13)*%
X109220000Y-100330000D03*
%TO.P,motor_driver2,11*%
%TO.N,Net-(motor_driver2-Pad11)*%
X104140000Y-100330000D03*
%TO.P,motor_driver2,10*%
%TO.N,Net-(motor_driver2-Pad10)*%
X101600000Y-100330000D03*
%TO.P,motor_driver2,9*%
%TO.N,Net-(motor_driver2-Pad9)*%
X99060000Y-100330000D03*
%TO.P,motor_driver2,8*%
%TO.N,Net-(motor_driver2-Pad8)*%
X96520000Y-100330000D03*
%TO.P,motor_driver2,7*%
%TO.N,3.3v*%
X93980000Y-100330000D03*
%TO.P,motor_driver2,6*%
%TO.N,gnd*%
X91440000Y-100330000D03*
%TO.P,motor_driver2,5*%
%TO.N,Net-(motor_driver2-Pad5)*%
X88900000Y-100330000D03*
%TD*%
D12*
%TO.P,motor_driver1,15*%
%TO.N,gnd*%
X135890000Y-110490000D03*
X115570000Y-110490000D03*
D10*
%TO.P,motor_driver1,4*%
%TO.N,Net-(motor1-PadNC)*%
X121920000Y-109220000D03*
%TO.P,motor_driver1,3*%
X124460000Y-109220000D03*
%TO.P,motor_driver1,2*%
%TO.N,gnd*%
X127000000Y-109220000D03*
%TO.P,motor_driver1,1*%
%TO.N,12v*%
X129540000Y-109220000D03*
%TO.P,motor_driver1,14*%
%TO.N,Net-(motor_driver1-Pad14)*%
X137160000Y-132080000D03*
%TO.P,motor_driver1,12*%
%TO.N,Net-(motor_driver1-Pad12)*%
X132080000Y-132080000D03*
%TO.P,motor_driver1,13*%
%TO.N,Net-(motor_driver1-Pad13)*%
X134620000Y-132080000D03*
%TO.P,motor_driver1,11*%
%TO.N,Net-(motor_driver1-Pad11)*%
X129540000Y-132080000D03*
%TO.P,motor_driver1,10*%
%TO.N,Net-(motor_driver1-Pad10)*%
X127000000Y-132080000D03*
%TO.P,motor_driver1,9*%
%TO.N,Net-(motor_driver1-Pad9)*%
X124460000Y-132080000D03*
%TO.P,motor_driver1,8*%
%TO.N,Net-(motor_driver1-Pad8)*%
X121920000Y-132080000D03*
%TO.P,motor_driver1,7*%
%TO.N,3.3v*%
X119380000Y-132080000D03*
%TO.P,motor_driver1,6*%
%TO.N,gnd*%
X116840000Y-132080000D03*
%TO.P,motor_driver1,5*%
%TO.N,Net-(motor_driver1-Pad5)*%
X114300000Y-132080000D03*
%TD*%
%TO.P,motor3,4*%
%TO.N,gnd*%
X135890000Y-85725000D03*
%TO.P,motor3,3*%
%TO.N,B*%
X133350000Y-85725000D03*
%TO.P,motor3,2*%
%TO.N,A*%
X130810000Y-85725000D03*
%TO.P,motor3,1*%
%TO.N,5v*%
X128270000Y-85725000D03*
%TD*%
%TO.P,motor2,4*%
%TO.N,gnd*%
X99695000Y-128905000D03*
%TO.P,motor2,3*%
%TO.N,Net-(motor2-Pad3)*%
X97155000Y-128905000D03*
%TO.P,motor2,2*%
%TO.N,Net-(motor2-Pad2)*%
X94615000Y-128905000D03*
%TO.P,motor2,1*%
%TO.N,5v*%
X92075000Y-128905000D03*
%TD*%
%TO.P,motor1,4*%
%TO.N,gnd*%
X110490000Y-128905000D03*
%TO.P,motor1,3*%
%TO.N,Net-(motor1-Pad3)*%
X107950000Y-128905000D03*
%TO.P,motor1,2*%
%TO.N,Net-(motor1-Pad2)*%
X105410000Y-128905000D03*
%TO.P,motor1,1*%
%TO.N,5v*%
X102870000Y-128905000D03*
%TD*%
%TO.P,J1,2*%
%TO.N,gnd*%
X114935000Y-76835000D03*
%TO.P,J1,10*%
%TO.N,B*%
X114935000Y-97155000D03*
%TO.P,J1,9*%
%TO.N,A*%
X114935000Y-94615000D03*
%TO.P,J1,8*%
%TO.N,3.3v*%
X114935000Y-92075000D03*
%TO.P,J1,7*%
%TO.N,12v*%
X114935000Y-89535000D03*
%TO.P,J1,6*%
%TO.N,Net-(J1-Pad6)*%
X114935000Y-86995000D03*
%TO.P,J1,5*%
%TO.N,Net-(J1-Pad5)*%
X114935000Y-84455000D03*
%TO.P,J1,4*%
%TO.N,sda*%
X114935000Y-81915000D03*
%TO.P,J1,3*%
%TO.N,scl*%
X114935000Y-79375000D03*
%TO.P,J1,1*%
%TO.N,5v*%
X114935000Y-74295000D03*
%TD*%
D15*
%TO.N,3.3v*%
X103505000Y-127092999D03*
X78105000Y-83185000D03*
X115025000Y-48895000D03*
%TO.N,scl*%
X138430000Y-98425000D03*
%TO.N,Net-(i2c_multiplexer1-Pad16)*%
X138592807Y-103710000D03*
%TO.N,Net-(i2c_multiplexer1-Pad15)*%
X137747257Y-104435000D03*
X141060000Y-113030000D03*
X140880000Y-109220000D03*
%TO.N,Net-(i2c_multiplexer1-Pad14)*%
X138553836Y-105303716D03*
%TO.N,Net-(i2c_multiplexer1-Pad13)*%
X137795000Y-105955000D03*
%TO.N,Net-(i2c_multiplexer1-Pad11)*%
X130781274Y-105316580D03*
%TO.N,Net-(i2c_multiplexer1-Pad10)*%
X130720000Y-104230000D03*
%TO.N,Net-(i2c_multiplexer1-Pad9)*%
X127634848Y-96520152D03*
X116205000Y-62230000D03*
X134530000Y-87630000D03*
%TO.N,Net-(i2c_multiplexer1-Pad8)*%
X143566952Y-107652582D03*
%TO.N,Net-(i2c_multiplexer1-Pad7)*%
X143510000Y-104775000D03*
%TO.N,Net-(i2c_multiplexer1-Pad6)*%
X143415010Y-106045002D03*
%TO.N,Net-(motor1-Pad3)*%
X120650000Y-111215000D03*
X120650000Y-102235000D03*
%TO.N,Net-(motor1-Pad2)*%
X113030000Y-101600000D03*
%TO.N,Net-(motor2-Pad3)*%
X121375000Y-106045000D03*
%TO.N,Net-(motor_driver3-Pad12)*%
X105320000Y-123825000D03*
%TO.N,Net-(motor_driver3-Pad11)*%
X135590000Y-93980000D03*
X136525000Y-88265000D03*
X86360000Y-123190000D03*
X90715000Y-122555000D03*
%TO.N,Net-(motor_driver3-Pad10)*%
X123190000Y-93890000D03*
X120015000Y-97790000D03*
X115570000Y-103505000D03*
X107315000Y-120650000D03*
%TO.N,Net-(motor_driver3-Pad9)*%
X107950000Y-99060000D03*
%TD*%
D16*
%TO.N,gnd*%
X116984999Y-76979999D02*
X118110000Y-78105000D01*
X116984999Y-74150001D02*
X116984999Y-76979999D01*
X118110000Y-73025000D02*
X116984999Y-74150001D01*
X91440000Y-105410000D02*
X90170000Y-104140000D01*
X91440000Y-125730000D02*
X91440000Y-105410000D01*
X114300000Y-134620000D02*
X116840000Y-132080000D01*
X114300000Y-134620000D02*
X114300000Y-138315000D01*
X146096122Y-83242501D02*
X142182499Y-83242501D01*
X142182499Y-83242501D02*
X139700000Y-85725000D01*
X139700000Y-85725000D02*
X139700000Y-85090000D01*
X139700000Y-85090000D02*
X123825000Y-69215000D01*
X118630000Y-69215000D02*
X114300000Y-64885000D01*
X123825000Y-69215000D02*
X118630000Y-69215000D01*
X55005576Y-136849793D02*
X54950947Y-136904422D01*
X79745877Y-83242500D02*
X82503878Y-83242500D01*
X75978377Y-79475000D02*
X79745877Y-83242500D01*
X82503878Y-82597532D02*
X82503878Y-83242500D01*
X86361410Y-78740000D02*
X82503878Y-82597532D01*
X90170000Y-78740000D02*
X86361410Y-78740000D01*
X114300000Y-43896800D02*
X110179800Y-39776600D01*
X114300000Y-57350000D02*
X114300000Y-43896800D01*
X114300000Y-35656400D02*
X114300000Y-32350000D01*
X110179800Y-39776600D02*
X114300000Y-35656400D01*
X79745877Y-119957499D02*
X82503878Y-119957499D01*
X75978377Y-123724999D02*
X79745877Y-119957499D01*
X66827741Y-123724999D02*
X54327741Y-136224999D01*
X75978377Y-123724999D02*
X66827741Y-123724999D01*
X54472843Y-136079897D02*
X54327741Y-136224999D01*
X62819466Y-136079897D02*
X54472843Y-136079897D01*
X161684026Y-79475000D02*
X162172013Y-78987013D01*
X152621623Y-79475000D02*
X161684026Y-79475000D01*
X162172013Y-78987013D02*
X161793553Y-79365474D01*
X171467745Y-69779514D02*
X174272259Y-66975000D01*
X171379514Y-69779514D02*
X171467745Y-69779514D01*
X174093553Y-67065474D02*
X171379514Y-69779514D01*
X171379514Y-69779514D02*
X162172013Y-78987013D01*
%TO.N,3.3v*%
X116022001Y-90987999D02*
X114935000Y-92075000D01*
X116022001Y-89013239D02*
X116022001Y-90987999D01*
X115456761Y-88447999D02*
X116022001Y-89013239D01*
X113665000Y-87628590D02*
X114484409Y-88447999D01*
X115090763Y-85907999D02*
X114413239Y-85907999D01*
X116022001Y-84976761D02*
X115090763Y-85907999D01*
X116022001Y-81393239D02*
X116022001Y-84976761D01*
X115456761Y-80827999D02*
X116022001Y-81393239D01*
X113665000Y-86656238D02*
X113665000Y-87628590D01*
X114779237Y-80827999D02*
X115456761Y-80827999D01*
X114413239Y-85907999D02*
X113665000Y-86656238D01*
X113847999Y-79896761D02*
X114779237Y-80827999D01*
X114484409Y-88447999D02*
X115456761Y-88447999D01*
X113847999Y-79261761D02*
X113847999Y-79896761D01*
X106976238Y-72390000D02*
X113847999Y-79261761D01*
X103505000Y-72390000D02*
X106976238Y-72390000D01*
X102235000Y-92075000D02*
X114935000Y-92075000D01*
X93980000Y-100330000D02*
X102235000Y-92075000D01*
X93980000Y-100330000D02*
X93980000Y-125730000D01*
X80920377Y-122555000D02*
X81147877Y-122782500D01*
X81147877Y-122782500D02*
X84862500Y-122782500D01*
X65019170Y-133732267D02*
X72386437Y-126365000D01*
X65019170Y-134809897D02*
X65019170Y-133732267D01*
X80920377Y-122964001D02*
X80920377Y-122555000D01*
X77334378Y-126550000D02*
X80920377Y-122964001D01*
X74622376Y-126550000D02*
X77334378Y-126550000D01*
X74437376Y-126365000D02*
X74622376Y-126550000D01*
X72386437Y-126365000D02*
X74437376Y-126365000D01*
X103330989Y-127267010D02*
X103505000Y-127092999D01*
X91368248Y-127267010D02*
X103330989Y-127267010D01*
X90352999Y-126251761D02*
X91368248Y-127267010D01*
X89787759Y-124642999D02*
X90352999Y-125208239D01*
X86722999Y-124642999D02*
X89787759Y-124642999D01*
X90352999Y-125208239D02*
X90352999Y-126251761D01*
X84862500Y-122782500D02*
X86722999Y-124642999D01*
X85328879Y-122316121D02*
X85328879Y-88503879D01*
X84862500Y-122782500D02*
X85328879Y-122316121D01*
X83423879Y-88503879D02*
X78105000Y-83185000D01*
X85328879Y-88503879D02*
X83423879Y-88503879D01*
X156508089Y-76540473D02*
X150154527Y-76540473D01*
X163580830Y-69467732D02*
X156508089Y-76540473D01*
X163580830Y-68390102D02*
X163580830Y-69467732D01*
X149704518Y-76090464D02*
X147794337Y-76090464D01*
X150154527Y-76540473D02*
X149704518Y-76090464D01*
X147794337Y-76090464D02*
X143054811Y-80829990D01*
X138617810Y-80829990D02*
X125467802Y-67679982D01*
X143054811Y-80829990D02*
X138617810Y-80829990D01*
X125467802Y-67679982D02*
X121657802Y-67679982D01*
X121657802Y-67679982D02*
X121657802Y-65777802D01*
X119195715Y-63315715D02*
X119195715Y-53790715D01*
X121657802Y-65777802D02*
X119195715Y-63315715D01*
X115025000Y-49620000D02*
X115025000Y-48895000D01*
X119195715Y-53790715D02*
X115025000Y-49620000D01*
%TO.N,scl*%
X138430000Y-98425000D02*
X137160000Y-97155000D01*
X129878762Y-78105000D02*
X125730000Y-78105000D01*
X137160000Y-85386238D02*
X129878762Y-78105000D01*
X137160000Y-97155000D02*
X137160000Y-85386238D01*
X115079999Y-79230001D02*
X114935000Y-79375000D01*
X124604999Y-79230001D02*
X115079999Y-79230001D01*
X125730000Y-78105000D02*
X124604999Y-79230001D01*
%TO.N,Net-(i2c_multiplexer1-Pad16)*%
X139728847Y-104280355D02*
X139728847Y-107161809D01*
X139158492Y-103710000D02*
X139728847Y-104280355D01*
X138592807Y-103710000D02*
X139158492Y-103710000D01*
X139728847Y-107161809D02*
X140335000Y-107767962D01*
X140335000Y-107767962D02*
X140787962Y-107767962D01*
X140787962Y-107767962D02*
X141605000Y-108585000D01*
X141605000Y-108585000D02*
X141605000Y-111125000D01*
X141605000Y-111125000D02*
X140335000Y-112395000D01*
X140335000Y-112395000D02*
X140335000Y-113665000D01*
X140335000Y-113665000D02*
X143510000Y-116840000D01*
X147159625Y-116840000D02*
X150969625Y-120650000D01*
X143510000Y-116840000D02*
X147159625Y-116840000D01*
X153727626Y-120650000D02*
X156210000Y-123132374D01*
X150969625Y-120650000D02*
X153727626Y-120650000D01*
X156210000Y-123132374D02*
X156210000Y-124460000D01*
X158153501Y-126403501D02*
X165501325Y-126403501D01*
X156210000Y-124460000D02*
X158153501Y-126403501D01*
%TO.N,Net-(i2c_multiplexer1-Pad15)*%
X139278837Y-104955715D02*
X139278837Y-106180575D01*
X138758122Y-104435000D02*
X139278837Y-104955715D01*
X137747257Y-104435000D02*
X138758122Y-104435000D01*
X139278837Y-106180575D02*
X138695020Y-106764392D01*
X139700000Y-107769372D02*
X139700000Y-107945770D01*
X138695020Y-106764392D02*
X139700000Y-107769372D01*
X139700000Y-107945770D02*
X139702115Y-107947885D01*
X139700000Y-107945770D02*
X140335000Y-108580770D01*
X140335000Y-108580770D02*
X140335000Y-108585000D01*
X163301621Y-124055871D02*
X159260750Y-120015000D01*
X163301621Y-125133501D02*
X163301621Y-124055871D01*
X159260750Y-120015000D02*
X153670000Y-120015000D01*
X153670000Y-120015000D02*
X149860000Y-116205000D01*
X149860000Y-116205000D02*
X144145000Y-116205000D01*
X141060000Y-113120000D02*
X141060000Y-113030000D01*
X144145000Y-116205000D02*
X141060000Y-113120000D01*
X140880000Y-109220000D02*
X140335000Y-108675000D01*
X140335000Y-108675000D02*
X140335000Y-108580770D01*
%TO.N,Net-(i2c_multiplexer1-Pad14)*%
X138480119Y-105229999D02*
X138553836Y-105303716D01*
X137022256Y-104783001D02*
X137469254Y-105229999D01*
X137022256Y-104086999D02*
X137022256Y-104783001D01*
X140335000Y-106678590D02*
X140335000Y-104250098D01*
X137469254Y-105229999D02*
X138480119Y-105229999D01*
X142055010Y-108398600D02*
X140335000Y-106678590D01*
X142055010Y-112845010D02*
X142055010Y-108398600D01*
X144146410Y-115570000D02*
X144146410Y-114936410D01*
X140335000Y-104250098D02*
X139069901Y-102984999D01*
X149861410Y-115570000D02*
X144146410Y-115570000D01*
X153671410Y-119380000D02*
X149861410Y-115570000D01*
X160086586Y-119380000D02*
X153671410Y-119380000D01*
X166588326Y-125881740D02*
X160086586Y-119380000D01*
X144146410Y-114936410D02*
X142055010Y-112845010D01*
X120396201Y-157256399D02*
X120396201Y-138811201D01*
X138124256Y-102984999D02*
X137022256Y-104086999D01*
X120396201Y-138811201D02*
X122232392Y-136975010D01*
X140335000Y-116205000D02*
X143271121Y-119141121D01*
X139700000Y-132421582D02*
X139700000Y-116205000D01*
X122232392Y-136975010D02*
X135146573Y-136975009D01*
X139700000Y-116205000D02*
X140335000Y-116205000D01*
X143271121Y-119141121D02*
X143271121Y-121313500D01*
X143271121Y-121313500D02*
X150227621Y-128270000D01*
X139069901Y-102984999D02*
X138124256Y-102984999D01*
X150227621Y-128270000D02*
X165243588Y-128270000D01*
X165243588Y-128270000D02*
X166588326Y-126925262D01*
X119309200Y-158343400D02*
X120396201Y-157256399D01*
X135146573Y-136975009D02*
X139700000Y-132421582D01*
X166588326Y-126925262D02*
X166588326Y-125881740D01*
%TO.N,Net-(i2c_multiplexer1-Pad13)*%
X118745000Y-136525000D02*
X118222199Y-137047801D01*
X118222199Y-154716399D02*
X119309200Y-155803400D01*
X134960172Y-136525000D02*
X118745000Y-136525000D01*
X118222199Y-137047801D02*
X118222199Y-154716399D01*
X139065000Y-110490000D02*
X139065000Y-132420172D01*
X139515009Y-109033599D02*
X139515009Y-110039991D01*
X137795000Y-107313590D02*
X139515009Y-109033599D01*
X139065000Y-132420172D02*
X134960172Y-136525000D01*
X139515009Y-110039991D02*
X139065000Y-110490000D01*
X137795000Y-105955000D02*
X137795000Y-107313590D01*
%TO.N,Net-(i2c_multiplexer1-Pad11)*%
X109855000Y-135255000D02*
X106680000Y-132080000D01*
X98507020Y-130892020D02*
X90887020Y-130892020D01*
X113178998Y-135255000D02*
X109855000Y-135255000D01*
X111474999Y-136958999D02*
X113178998Y-135255000D01*
X112943999Y-141140001D02*
X111474999Y-139671001D01*
X67218875Y-132860839D02*
X67218875Y-133539897D01*
X111474999Y-139671001D02*
X111474999Y-136958999D01*
X115656001Y-141140001D02*
X112943999Y-141140001D01*
X117125001Y-139671001D02*
X115656001Y-141140001D01*
X130781274Y-105316580D02*
X133414694Y-107950000D01*
X135707001Y-129722999D02*
X135707001Y-132601761D01*
X99695000Y-132080000D02*
X98507020Y-130892020D01*
X137158590Y-107950000D02*
X138429295Y-109220705D01*
X73079714Y-127000000D02*
X67218875Y-132860839D01*
X138429295Y-109220705D02*
X138120775Y-109220705D01*
X90887020Y-130892020D02*
X86995000Y-127000000D01*
X138120775Y-109220705D02*
X137739001Y-109602479D01*
X86995000Y-127000000D02*
X73079714Y-127000000D01*
X137739001Y-109602479D02*
X137739001Y-127690999D01*
X106680000Y-132080000D02*
X99695000Y-132080000D01*
X137739001Y-127690999D02*
X135707001Y-129722999D01*
X133414694Y-107950000D02*
X137158590Y-107950000D01*
X135707001Y-132601761D02*
X134323762Y-133985000D01*
X134323762Y-133985000D02*
X116205000Y-133985000D01*
X116205000Y-133985000D02*
X116205000Y-136038998D01*
X117125001Y-136958999D02*
X117125001Y-139671001D01*
X116205000Y-136038998D02*
X117125001Y-136958999D01*
%TO.N,Net-(i2c_multiplexer1-Pad10)*%
X130720000Y-104230000D02*
X132535000Y-106045000D01*
X132535000Y-106045000D02*
X134620000Y-106045000D01*
X134620000Y-106045000D02*
X135890000Y-107315000D01*
X135890000Y-107315000D02*
X137160000Y-107315000D01*
X137160000Y-107315000D02*
X139065000Y-109220000D01*
X69418579Y-131590840D02*
X73374419Y-127635000D01*
X69418579Y-132269897D02*
X69418579Y-131590840D01*
X73374419Y-127635000D02*
X86993590Y-127635000D01*
X90803590Y-131445000D02*
X98423590Y-131445000D01*
X86993590Y-127635000D02*
X90803590Y-131445000D01*
X99693590Y-132715000D02*
X105410000Y-132715000D01*
X98423590Y-131445000D02*
X99693590Y-132715000D01*
X107313590Y-133350000D02*
X109668600Y-135705010D01*
X106045000Y-133350000D02*
X107313590Y-133350000D01*
X105410000Y-132715000D02*
X106045000Y-133350000D01*
X109668600Y-135705010D02*
X111575010Y-135705010D01*
X117575011Y-136625011D02*
X116655010Y-135705010D01*
X117575011Y-139857401D02*
X117575011Y-136625011D01*
X115842402Y-141590010D02*
X117575011Y-139857401D01*
X112757599Y-141590011D02*
X115842402Y-141590010D01*
X111024990Y-139857402D02*
X112757599Y-141590011D01*
X111024990Y-136255030D02*
X111024990Y-139857402D01*
X111575010Y-135705010D02*
X111024990Y-136255030D01*
X138247001Y-132601761D02*
X138247001Y-110307001D01*
X135143752Y-135705010D02*
X138247001Y-132601761D01*
X138247001Y-110307001D02*
X138189011Y-110249011D01*
X116655010Y-135705010D02*
X135143752Y-135705010D01*
X138879305Y-109405695D02*
X139065000Y-109220000D01*
X138879305Y-109558717D02*
X138879305Y-109405695D01*
X138189011Y-110249011D02*
X138879305Y-109558717D01*
%TO.N,Net-(i2c_multiplexer1-Pad9)*%
X94428599Y-69399991D02*
X95065009Y-69399991D01*
X95250000Y-69215000D02*
X108585000Y-69215000D01*
X95065009Y-69399991D02*
X95250000Y-69215000D01*
X116034999Y-62059999D02*
X116205000Y-62230000D01*
X112943999Y-62059999D02*
X116034999Y-62059999D01*
X108585000Y-66418998D02*
X112943999Y-62059999D01*
X108585000Y-69215000D02*
X108585000Y-66418998D01*
X127634848Y-96520152D02*
X127634848Y-93345152D01*
X127634848Y-93345152D02*
X130810000Y-90170000D01*
X131990000Y-90170000D02*
X130810000Y-90170000D01*
X134530000Y-87630000D02*
X131990000Y-90170000D01*
X63860674Y-76034499D02*
X82384499Y-76034499D01*
X63098675Y-76796498D02*
X63860674Y-76034499D01*
X82384499Y-76034499D02*
X85089295Y-78739295D01*
X85089295Y-78739295D02*
X94428599Y-69399991D01*
X85088590Y-78740000D02*
X85089295Y-78739295D01*
%TO.N,Net-(i2c_multiplexer1-Pad8)*%
X135255000Y-81916410D02*
X135255000Y-81281410D01*
X140970000Y-87631410D02*
X135255000Y-81916410D01*
X140970000Y-105055630D02*
X140970000Y-87631410D01*
X143566952Y-107652582D02*
X140970000Y-105055630D01*
X122996411Y-74150001D02*
X118696410Y-69850000D01*
X128123591Y-74150001D02*
X122996411Y-74150001D01*
X135255000Y-81281410D02*
X128123591Y-74150001D01*
X118696410Y-69850000D02*
X94615000Y-69850000D01*
X94615000Y-69850000D02*
X85090000Y-79375000D01*
X66714878Y-76649999D02*
X65298379Y-78066498D01*
X77334378Y-76649999D02*
X66714878Y-76649999D01*
X80059379Y-79375000D02*
X77334378Y-76649999D01*
X85090000Y-79375000D02*
X80059379Y-79375000D01*
%TO.N,Net-(i2c_multiplexer1-Pad7)*%
X121471400Y-68129990D02*
X125281401Y-68129991D01*
X125281401Y-68129991D02*
X138431410Y-81280000D01*
X143241211Y-81280000D02*
X145146211Y-79375000D01*
X138431410Y-81280000D02*
X143241211Y-81280000D01*
X149371132Y-84784903D02*
X145256035Y-88900000D01*
X149371133Y-77416278D02*
X149371132Y-84784903D01*
X148495328Y-76540473D02*
X149371133Y-77416278D01*
X147980738Y-76540473D02*
X148495328Y-76540473D01*
X145146211Y-79375000D02*
X147980738Y-76540473D01*
X145256035Y-88900000D02*
X144145000Y-88900000D01*
X144145000Y-88900000D02*
X142875000Y-90170000D01*
X142875000Y-104140000D02*
X143510000Y-104775000D01*
X142875000Y-90170000D02*
X142875000Y-104140000D01*
X111474999Y-58769999D02*
X113030000Y-60325000D01*
X111474999Y-46151799D02*
X111474999Y-58769999D01*
X110179800Y-44856600D02*
X111474999Y-46151799D01*
X113030000Y-60325000D02*
X118745000Y-60325000D01*
X118745705Y-60325705D02*
X118745705Y-65404295D01*
X118745000Y-60325000D02*
X118745705Y-60325705D01*
X118745705Y-65404295D02*
X121471400Y-68129990D01*
%TO.N,Net-(i2c_multiplexer1-Pad6)*%
X143415010Y-106045002D02*
X141605000Y-104234992D01*
X141605000Y-104234992D02*
X141605000Y-88265000D01*
X141605000Y-88265000D02*
X145254625Y-88265000D01*
X144740121Y-80417500D02*
X142875000Y-82282621D01*
X147452123Y-80417500D02*
X144740121Y-80417500D01*
X148921123Y-81886500D02*
X147452123Y-80417500D01*
X148921123Y-84598502D02*
X148921123Y-81886500D01*
X145254625Y-88265000D02*
X148921123Y-84598502D01*
X142875000Y-82282621D02*
X142505969Y-82282621D01*
X142505969Y-82282621D02*
X142138348Y-81915000D01*
X142138348Y-81915000D02*
X138430000Y-81915000D01*
X138430000Y-81915000D02*
X125095000Y-68580000D01*
X125095000Y-68580000D02*
X121285000Y-68580000D01*
X121285000Y-68580000D02*
X117125001Y-64420001D01*
X117125001Y-64420001D02*
X117125001Y-61880001D01*
X112843599Y-60775009D02*
X108585000Y-56516410D01*
X116020010Y-60775010D02*
X112843599Y-60775009D01*
X117125001Y-61880001D02*
X116020010Y-60775010D01*
X108585000Y-48991400D02*
X110179800Y-47396600D01*
X108585000Y-56516410D02*
X108585000Y-48991400D01*
%TO.N,Net-(motor1-Pad3)*%
X120650000Y-111215000D02*
X120650000Y-102235000D01*
%TO.N,Net-(motor1-Pad2)*%
X105410000Y-125391238D02*
X105410000Y-128905000D01*
X106045000Y-124756238D02*
X105410000Y-125391238D01*
X106045000Y-105848478D02*
X106045000Y-124756238D01*
X112630001Y-101999999D02*
X109893479Y-101999999D01*
X109893479Y-101999999D02*
X106045000Y-105848478D01*
X113030000Y-101600000D02*
X112630001Y-101999999D01*
%TO.N,Net-(motor2-Pad3)*%
X94543248Y-130442010D02*
X111198162Y-130442010D01*
X123007001Y-118633171D02*
X123007001Y-107677001D01*
X93527999Y-129426761D02*
X94543248Y-130442010D01*
X123007001Y-107677001D02*
X121375000Y-106045000D01*
X93527999Y-128383239D02*
X93527999Y-129426761D01*
X94093239Y-127817999D02*
X93527999Y-128383239D01*
X96067999Y-127817999D02*
X94093239Y-127817999D01*
X111198162Y-130442010D02*
X123007001Y-118633171D01*
X97155000Y-128905000D02*
X96067999Y-127817999D01*
%TO.N,Net-(motor2-Pad2)*%
X118110000Y-103505000D02*
X120015000Y-103505000D01*
X95702001Y-129992001D02*
X94615000Y-128905000D01*
X112847001Y-128156761D02*
X111011761Y-129992001D01*
X112847001Y-117944997D02*
X112847001Y-128156761D01*
X111011761Y-129992001D02*
X95702001Y-129992001D01*
X120015000Y-110776998D02*
X112847001Y-117944997D01*
X120015000Y-103505000D02*
X120015000Y-110776998D01*
%TO.N,B*%
X118505002Y-97155000D02*
X114935000Y-97155000D01*
X123440003Y-92219999D02*
X118505002Y-97155000D01*
X125980003Y-92219999D02*
X123440003Y-92219999D01*
X126855001Y-91345001D02*
X125980003Y-92219999D01*
X126855001Y-90042129D02*
X126855001Y-91345001D01*
X128852131Y-88044999D02*
X126855001Y-90042129D01*
X131030001Y-88044999D02*
X128852131Y-88044999D01*
X133350000Y-85725000D02*
X131030001Y-88044999D01*
%TO.N,A*%
X129684999Y-86850001D02*
X130810000Y-85725000D01*
X125479997Y-86850001D02*
X129684999Y-86850001D01*
X120399997Y-91930001D02*
X125479997Y-86850001D01*
X117619999Y-91930001D02*
X120399997Y-91930001D01*
X114935000Y-94615000D02*
X117619999Y-91930001D01*
%TO.N,Net-(motor_driver1-Pad12)*%
X127973762Y-106045000D02*
X125730000Y-106045000D01*
X132080000Y-110151238D02*
X127973762Y-106045000D01*
X132080000Y-132080000D02*
X132080000Y-110151238D01*
%TO.N,Net-(motor_driver1-Pad11)*%
X126070172Y-103505000D02*
X125730000Y-103505000D01*
X133167001Y-110601829D02*
X126070172Y-103505000D01*
X133167001Y-132601761D02*
X133167001Y-110601829D01*
X132601761Y-133167001D02*
X133167001Y-132601761D01*
X130627001Y-133167001D02*
X132601761Y-133167001D01*
X129540000Y-132080000D02*
X130627001Y-133167001D01*
%TO.N,Net-(motor_driver1-Pad10)*%
X124604999Y-102090001D02*
X125730000Y-100965000D01*
X124604999Y-107105001D02*
X124604999Y-102090001D01*
X126790001Y-107170001D02*
X124669999Y-107170001D01*
X124669999Y-107170001D02*
X124604999Y-107105001D01*
X128452999Y-108832999D02*
X126790001Y-107170001D01*
X128452999Y-130627001D02*
X128452999Y-108832999D01*
X127000000Y-132080000D02*
X128452999Y-130627001D01*
%TO.N,Net-(motor_driver1-Pad9)*%
X124154990Y-100000010D02*
X125730000Y-98425000D01*
X124154990Y-107291402D02*
X124154990Y-100000010D01*
X125547001Y-108683413D02*
X124154990Y-107291402D01*
X125547001Y-130992999D02*
X125547001Y-108683413D01*
X124460000Y-132080000D02*
X125547001Y-130992999D01*
%TO.N,Net-(motor_driver2-Pad12)*%
X119524999Y-102090001D02*
X125730000Y-95885000D01*
X117569999Y-102090001D02*
X119524999Y-102090001D01*
X114722997Y-99242999D02*
X117569999Y-102090001D01*
X111238239Y-99242999D02*
X114722997Y-99242999D01*
X110672999Y-99808239D02*
X111238239Y-99242999D01*
X110672999Y-100485763D02*
X110672999Y-99808239D01*
X109741761Y-101417001D02*
X110672999Y-100485763D01*
X107767001Y-101417001D02*
X109741761Y-101417001D01*
X106680000Y-100330000D02*
X107767001Y-101417001D01*
%TO.N,Net-(motor_driver2-Pad11)*%
X116764761Y-99550001D02*
X119524999Y-99550001D01*
X119524999Y-99550001D02*
X125730000Y-93345000D01*
X115456761Y-98242001D02*
X116764761Y-99550001D01*
X106227999Y-98242001D02*
X115456761Y-98242001D01*
X104140000Y-100330000D02*
X106227999Y-98242001D01*
%TO.N,Net-(motor_driver2-Pad10)*%
X101600000Y-100330000D02*
X101600000Y-98426410D01*
X124218592Y-90805000D02*
X125730000Y-90805000D01*
X120408592Y-94615000D02*
X124218592Y-90805000D01*
X115456761Y-95702001D02*
X116543762Y-94615000D01*
X104324409Y-95702001D02*
X115456761Y-95702001D01*
X116543762Y-94615000D02*
X120408592Y-94615000D01*
X101600000Y-98426410D02*
X104324409Y-95702001D01*
%TO.N,Net-(motor_driver2-Pad9)*%
X126694989Y-87300011D02*
X125730000Y-88265000D01*
X120109999Y-89679999D02*
X125189999Y-84599999D01*
X131897001Y-86246761D02*
X130843751Y-87300011D01*
X117569999Y-89679999D02*
X120109999Y-89679999D01*
X116984999Y-90264999D02*
X117569999Y-89679999D01*
X115385591Y-93527999D02*
X116984999Y-91928591D01*
X130843751Y-87300011D02*
X126694989Y-87300011D01*
X125189999Y-84599999D02*
X131293761Y-84599999D01*
X105862001Y-93527999D02*
X115385591Y-93527999D01*
X131897001Y-85203239D02*
X131897001Y-86246761D01*
X131293761Y-84599999D02*
X131897001Y-85203239D01*
X116984999Y-91928591D02*
X116984999Y-90264999D01*
X99060000Y-100330000D02*
X105862001Y-93527999D01*
%TO.N,Net-(motor_driver3-Pad12)*%
X134802999Y-95871001D02*
X138081999Y-99150001D01*
X135799999Y-88174999D02*
X135799999Y-88353591D01*
X135255000Y-86995000D02*
X135255000Y-87630000D01*
X134802999Y-89350591D02*
X134802999Y-95871001D01*
X119235001Y-85236409D02*
X125241409Y-79230001D01*
X134802999Y-86542999D02*
X135255000Y-86995000D01*
X104436238Y-123825000D02*
X105320000Y-123825000D01*
X103052999Y-125885763D02*
X103052999Y-125208239D01*
X119512999Y-71302999D02*
X102983239Y-71302999D01*
X102417999Y-71868239D02*
X102417999Y-73649151D01*
X135255000Y-87630000D02*
X135799999Y-88174999D01*
X92892999Y-88151761D02*
X92892999Y-126251761D01*
X103052999Y-125208239D02*
X104436238Y-123825000D01*
X102121761Y-126817001D02*
X103052999Y-125885763D01*
X125189999Y-76979999D02*
X119512999Y-71302999D01*
X134802999Y-85203239D02*
X134802999Y-86542999D01*
X128829761Y-79230001D02*
X134802999Y-85203239D01*
X102983239Y-71302999D02*
X102417999Y-71868239D01*
X125241409Y-79230001D02*
X128829761Y-79230001D01*
X119235001Y-87139999D02*
X119235001Y-85236409D01*
X135799999Y-88353591D02*
X134802999Y-89350591D01*
X138081999Y-99150001D02*
X138778001Y-99150001D01*
X139155001Y-98773001D02*
X139155001Y-86744829D01*
X138778001Y-99150001D02*
X139155001Y-98773001D01*
X139155001Y-86744829D02*
X129390171Y-76979999D01*
X129390171Y-76979999D02*
X125189999Y-76979999D01*
X102417999Y-73649151D02*
X103052999Y-74284151D01*
X103052999Y-74284151D02*
X103052999Y-77991761D01*
X103052999Y-77991761D02*
X92892999Y-88151761D01*
X92892999Y-126251761D02*
X93458239Y-126817001D01*
X118110000Y-88265000D02*
X119235001Y-87139999D01*
X93458239Y-126817001D02*
X102121761Y-126817001D01*
%TO.N,Net-(motor_driver3-Pad11)*%
X135590000Y-93980000D02*
X135590000Y-89200000D01*
X90080000Y-123190000D02*
X90715000Y-122555000D01*
X86360000Y-123190000D02*
X90080000Y-123190000D01*
X136525000Y-88265000D02*
X135590000Y-89200000D01*
%TO.N,Net-(motor_driver3-Pad10)*%
X120015000Y-97065000D02*
X120015000Y-97790000D01*
X123190000Y-93890000D02*
X120015000Y-97065000D01*
X107315000Y-111760000D02*
X107315000Y-120650000D01*
X115570000Y-103505000D02*
X107315000Y-111760000D01*
%TO.N,Net-(motor_driver3-Pad9)*%
X106341238Y-99060000D02*
X107950000Y-99060000D01*
X105592999Y-99808239D02*
X106341238Y-99060000D01*
X105592999Y-119197001D02*
X105592999Y-99808239D01*
X99060000Y-125730000D02*
X105592999Y-119197001D01*
%TO.N,12v*%
X104140000Y-78740000D02*
X104140000Y-77470000D01*
X114935000Y-89535000D02*
X104140000Y-78740000D01*
%TO.N,Net-(i2c_res1-Pad1)*%
X111577001Y-75382001D02*
X108585000Y-72390000D01*
X115456761Y-75382001D02*
X111577001Y-75382001D01*
X116022001Y-74816761D02*
X115456761Y-75382001D01*
X116022001Y-73447997D02*
X116022001Y-74816761D01*
X117569999Y-71899999D02*
X116022001Y-73447997D01*
X119235001Y-72484999D02*
X118650001Y-71899999D01*
X119235001Y-74439999D02*
X119235001Y-72484999D01*
X118650001Y-71899999D02*
X117569999Y-71899999D01*
X118110000Y-75565000D02*
X119235001Y-74439999D01*
%TO.N,Net-(motor3-PadNC)*%
X96520000Y-102870000D02*
X99060000Y-102870000D01*
%TD*%
M02*
